G75*
%MOIN*%
%OFA0B0*%
%FSLAX25Y25*%
%IPPOS*%
%LPD*%
%AMOC8*
5,1,8,0,0,1.08239X$1,22.5*
%
%ADD10OC8,0.05169*%
%ADD11OC8,0.06000*%
%ADD12C,0.06600*%
%ADD13R,0.05118X0.05118*%
%ADD14C,0.05118*%
%ADD15C,0.06400*%
%ADD16C,0.07050*%
%ADD17C,0.00984*%
%ADD18C,0.02953*%
%ADD19C,0.01000*%
D10*
X0084504Y0043992D03*
X0104504Y0043992D03*
X0123441Y0043992D03*
X0143441Y0043992D03*
X0257378Y0064150D03*
X0273126Y0062969D03*
X0273126Y0102969D03*
X0257378Y0104150D03*
X0073047Y0226906D03*
X0033047Y0226906D03*
X0017220Y0223992D03*
X0017220Y0263992D03*
X0012417Y0309346D03*
X0052417Y0309346D03*
D11*
X0061197Y0304465D03*
X0061197Y0314465D03*
X0071197Y0314465D03*
X0081197Y0314465D03*
X0091197Y0314465D03*
X0101197Y0314465D03*
X0111197Y0314465D03*
X0121197Y0314465D03*
X0131197Y0314465D03*
X0141197Y0314465D03*
X0151197Y0314465D03*
X0161197Y0314465D03*
X0171197Y0314465D03*
X0181197Y0314465D03*
X0191197Y0314465D03*
X0201197Y0314465D03*
X0211197Y0314465D03*
X0221197Y0314465D03*
X0231197Y0314465D03*
X0241197Y0314465D03*
X0241197Y0304465D03*
X0231197Y0304465D03*
X0221197Y0304465D03*
X0211197Y0304465D03*
X0201197Y0304465D03*
X0191197Y0304465D03*
X0181197Y0304465D03*
X0171197Y0304465D03*
X0161197Y0304465D03*
X0151197Y0304465D03*
X0141197Y0304465D03*
X0131197Y0304465D03*
X0121197Y0304465D03*
X0111197Y0304465D03*
X0101197Y0304465D03*
X0091197Y0304465D03*
X0081197Y0304465D03*
X0071197Y0304465D03*
X0071197Y0074307D03*
X0081197Y0074307D03*
X0091197Y0074307D03*
X0101197Y0074307D03*
X0111197Y0074307D03*
X0121197Y0074307D03*
X0131197Y0074307D03*
X0141197Y0074307D03*
X0151197Y0074307D03*
X0161197Y0074307D03*
X0171197Y0074307D03*
X0181197Y0074307D03*
X0191197Y0074307D03*
X0201197Y0074307D03*
X0211197Y0074307D03*
X0221197Y0074307D03*
X0231197Y0074307D03*
X0241197Y0074307D03*
X0241197Y0064307D03*
X0231197Y0064307D03*
X0221197Y0064307D03*
X0211197Y0064307D03*
X0201197Y0064307D03*
X0191197Y0064307D03*
X0181197Y0064307D03*
X0171197Y0064307D03*
X0161197Y0064307D03*
X0151197Y0064307D03*
X0141197Y0064307D03*
X0131197Y0064307D03*
X0121197Y0064307D03*
X0111197Y0064307D03*
X0101197Y0064307D03*
X0091197Y0064307D03*
X0081197Y0064307D03*
X0071197Y0064307D03*
X0061197Y0064307D03*
X0061197Y0074307D03*
X0351000Y0307142D03*
D12*
X0043874Y0132017D02*
X0043874Y0125417D01*
X0033874Y0125417D02*
X0033874Y0132017D01*
X0023874Y0132017D02*
X0023874Y0125417D01*
D13*
X0015449Y0146709D03*
X0039543Y0241197D03*
X0012024Y0289976D03*
X0196787Y0269858D03*
X0267339Y0304071D03*
X0197831Y0184268D03*
X0222732Y0143835D03*
X0294346Y0042654D03*
X0259898Y0025016D03*
X0059110Y0021787D03*
D14*
X0069110Y0021787D03*
X0079110Y0021787D03*
X0089110Y0021787D03*
X0099110Y0021787D03*
X0109110Y0021787D03*
X0119110Y0021787D03*
X0129110Y0021787D03*
X0139110Y0021787D03*
X0149110Y0021787D03*
X0159110Y0021787D03*
X0169110Y0021787D03*
X0179110Y0021787D03*
X0189110Y0021787D03*
X0199110Y0021787D03*
X0209110Y0021787D03*
X0236276Y0025016D03*
X0244150Y0025016D03*
X0252024Y0025016D03*
X0294346Y0050528D03*
X0294346Y0058402D03*
X0294346Y0066276D03*
X0222732Y0153835D03*
X0222732Y0163835D03*
X0222732Y0173835D03*
X0197831Y0174268D03*
X0197831Y0164268D03*
X0197831Y0154268D03*
X0196787Y0239858D03*
X0196787Y0249858D03*
X0196787Y0259858D03*
X0267339Y0314071D03*
X0277339Y0314071D03*
X0287339Y0314071D03*
X0297339Y0314071D03*
X0307339Y0314071D03*
X0317339Y0314071D03*
X0327339Y0314071D03*
X0337339Y0314071D03*
X0337339Y0304071D03*
X0327339Y0304071D03*
X0317339Y0304071D03*
X0307339Y0304071D03*
X0297339Y0304071D03*
X0287339Y0304071D03*
X0277339Y0304071D03*
X0075449Y0146709D03*
X0065449Y0146709D03*
X0055449Y0146709D03*
X0045449Y0146709D03*
X0035449Y0146709D03*
X0025449Y0146709D03*
X0049543Y0241197D03*
X0059543Y0241197D03*
X0069543Y0241197D03*
X0012024Y0279976D03*
D15*
X0160409Y0118480D03*
X0170409Y0118480D03*
X0180409Y0118480D03*
X0190409Y0118480D03*
X0190409Y0088480D03*
X0180409Y0088480D03*
X0170409Y0088480D03*
X0160409Y0088480D03*
D16*
X0021079Y0036139D02*
X0021079Y0029089D01*
X0040764Y0029089D02*
X0040764Y0036139D01*
D17*
X0054051Y0050311D02*
X0054051Y0018913D01*
X0060547Y0012417D01*
X0245685Y0012417D01*
X0257594Y0024327D01*
X0259760Y0024327D01*
X0259898Y0025016D01*
X0252181Y0025409D02*
X0252024Y0025016D01*
X0252181Y0025409D02*
X0252181Y0035154D01*
X0278165Y0061138D01*
X0278165Y0064386D01*
X0244602Y0097949D01*
X0143913Y0097949D01*
X0141748Y0095783D01*
X0141748Y0075213D01*
X0141197Y0074307D01*
X0132004Y0075213D02*
X0131197Y0074307D01*
X0132004Y0075213D02*
X0132004Y0104445D01*
X0196965Y0169406D01*
X0196965Y0173736D01*
X0197831Y0174268D01*
X0195882Y0179150D02*
X0188303Y0171571D01*
X0188303Y0163992D01*
X0125508Y0101197D01*
X0125508Y0081709D01*
X0122260Y0075213D02*
X0121197Y0074307D01*
X0122260Y0075213D02*
X0122260Y0101197D01*
X0186138Y0165075D01*
X0186138Y0180232D01*
X0203461Y0197555D01*
X0203461Y0249524D01*
X0196965Y0256020D01*
X0196965Y0259268D01*
X0196787Y0259858D01*
X0187220Y0252772D02*
X0187220Y0270094D01*
X0191551Y0274425D01*
X0313894Y0274425D01*
X0346374Y0306906D01*
X0350705Y0306906D01*
X0351000Y0307142D01*
X0356118Y0309071D02*
X0352870Y0312319D01*
X0348539Y0312319D01*
X0345291Y0309071D01*
X0335547Y0309071D01*
X0331217Y0304740D01*
X0327969Y0304740D01*
X0327339Y0304071D01*
X0356118Y0304740D02*
X0230528Y0179150D01*
X0195882Y0179150D01*
X0183972Y0167240D02*
X0106020Y0089287D01*
X0106020Y0068717D01*
X0101689Y0064386D01*
X0101197Y0064307D01*
X0096276Y0062220D02*
X0096276Y0087122D01*
X0045390Y0138008D01*
X0026295Y0138008D01*
X0023736Y0129346D01*
X0023874Y0128717D01*
X0043874Y0128717D02*
X0044307Y0128264D01*
X0021571Y0105528D01*
X0021571Y0032988D01*
X0021079Y0032614D01*
X0054051Y0050311D02*
X0065961Y0062220D01*
X0065961Y0076295D01*
X0069209Y0079543D01*
X0076787Y0079543D01*
X0081118Y0075213D01*
X0081197Y0074307D01*
X0081197Y0064307D02*
X0081118Y0063303D01*
X0080035Y0062220D01*
X0080035Y0041650D01*
X0084366Y0037319D01*
X0084366Y0019996D01*
X0087614Y0016748D01*
X0100606Y0016748D01*
X0104937Y0021079D01*
X0108185Y0021079D01*
X0109110Y0021787D01*
X0119110Y0021787D02*
X0120094Y0022161D01*
X0123343Y0022161D01*
X0140665Y0039484D01*
X0196965Y0039484D01*
X0220783Y0063303D01*
X0221197Y0064307D01*
X0202378Y0086039D02*
X0199130Y0082791D01*
X0188303Y0082791D01*
X0182890Y0088205D01*
X0180724Y0088205D01*
X0180409Y0088480D01*
X0186138Y0079543D02*
X0190469Y0075213D01*
X0191197Y0074307D01*
X0186138Y0079543D02*
X0161236Y0079543D01*
X0146079Y0094701D01*
X0144996Y0090370D02*
X0160154Y0075213D01*
X0161197Y0074307D01*
X0136335Y0062220D02*
X0136335Y0093618D01*
X0160154Y0117437D01*
X0160409Y0118480D01*
X0161236Y0117437D01*
X0174228Y0104445D01*
X0256512Y0104445D01*
X0257378Y0104150D01*
X0257594Y0103362D01*
X0257594Y0096866D01*
X0293323Y0061138D01*
X0293323Y0058972D01*
X0294346Y0058402D01*
X0273835Y0062220D02*
X0273126Y0062969D01*
X0273835Y0062220D02*
X0237024Y0025409D01*
X0236276Y0025016D01*
X0243520Y0024327D02*
X0244150Y0025016D01*
X0243520Y0024327D02*
X0233776Y0014583D01*
X0070291Y0014583D01*
X0063795Y0021079D01*
X0059465Y0021079D01*
X0059110Y0021787D01*
X0089110Y0021787D02*
X0089780Y0022161D01*
X0093028Y0022161D01*
X0129839Y0058972D01*
X0133087Y0058972D01*
X0136335Y0062220D01*
X0121177Y0063303D02*
X0121197Y0064307D01*
X0121177Y0063303D02*
X0110350Y0052476D01*
X0110350Y0045980D01*
X0104504Y0043992D02*
X0103854Y0044898D01*
X0103854Y0054642D01*
X0096276Y0062220D01*
X0080035Y0126098D02*
X0137417Y0126098D01*
X0106020Y0129346D02*
X0106020Y0154248D01*
X0033480Y0226787D01*
X0033047Y0226906D01*
X0039976Y0232201D02*
X0024819Y0232201D01*
X0007496Y0249524D01*
X0007496Y0311236D01*
X0016157Y0319898D01*
X0133087Y0319898D01*
X0138500Y0314484D01*
X0140665Y0314484D01*
X0141197Y0314465D01*
X0151197Y0304465D02*
X0150409Y0303657D01*
X0088697Y0241945D01*
X0070291Y0241945D01*
X0069543Y0241197D01*
X0069209Y0241945D01*
X0031315Y0279839D01*
X0030232Y0279839D01*
X0012909Y0297161D01*
X0012909Y0309071D01*
X0012417Y0309346D01*
X0012024Y0279976D02*
X0012909Y0279839D01*
X0026984Y0279839D01*
X0064878Y0241945D01*
X0064878Y0239780D01*
X0068126Y0236531D01*
X0093028Y0236531D01*
X0156906Y0300409D01*
X0187220Y0270094D01*
X0183972Y0267929D02*
X0183972Y0167240D01*
X0197831Y0154268D02*
X0198047Y0154248D01*
X0212122Y0154248D01*
X0221866Y0144504D01*
X0222732Y0143835D01*
X0237024Y0086039D02*
X0202378Y0086039D01*
X0237024Y0086039D02*
X0256512Y0066551D01*
X0256512Y0064386D01*
X0257378Y0064150D01*
X0080035Y0126098D02*
X0059465Y0146669D01*
X0056217Y0146669D01*
X0055449Y0146709D01*
X0017220Y0223992D02*
X0017240Y0224622D01*
X0024819Y0232201D01*
X0039976Y0232201D02*
X0048638Y0240862D01*
X0049543Y0241197D01*
X0059465Y0299327D02*
X0052969Y0305823D01*
X0052969Y0309071D01*
X0052417Y0309346D01*
X0059465Y0299327D02*
X0083283Y0299327D01*
X0087614Y0303657D01*
X0090862Y0303657D01*
X0091197Y0304465D01*
X0156906Y0300409D02*
X0160154Y0303657D01*
X0161197Y0304465D01*
X0171197Y0304465D02*
X0172063Y0303657D01*
X0176394Y0299327D01*
X0270587Y0299327D01*
X0274917Y0303657D01*
X0277083Y0303657D01*
X0277339Y0304071D01*
X0356118Y0304740D02*
X0356118Y0309071D01*
X0195882Y0244110D02*
X0195882Y0240862D01*
X0196787Y0239858D01*
X0195882Y0244110D02*
X0187220Y0252772D01*
D18*
X0183972Y0267929D03*
X0106020Y0129346D03*
X0137417Y0126098D03*
X0146079Y0094701D03*
X0144996Y0090370D03*
X0125508Y0081709D03*
X0110350Y0045980D03*
X0233776Y0082791D03*
D19*
X0211728Y0082791D01*
X0205921Y0076984D01*
X0205921Y0061433D01*
X0203756Y0059268D01*
X0176236Y0059268D01*
X0171197Y0064307D01*
M02*
