G75*
%MOIN*%
%OFA0B0*%
%FSLAX25Y25*%
%IPPOS*%
%LPD*%
%AMOC8*
5,1,8,0,0,1.08239X$1,22.5*
%
%ADD10OC8,0.05169*%
%ADD11OC8,0.06000*%
%ADD12C,0.06600*%
%ADD13C,0.13000*%
%ADD14C,0.10000*%
%ADD15R,0.05118X0.05118*%
%ADD16C,0.05118*%
%ADD17C,0.11000*%
%ADD18C,0.06400*%
%ADD19C,0.07050*%
D10*
X0084504Y0043992D03*
X0104504Y0043992D03*
X0123441Y0043992D03*
X0143441Y0043992D03*
X0257378Y0064150D03*
X0273126Y0062969D03*
X0273126Y0102969D03*
X0257378Y0104150D03*
X0073047Y0226906D03*
X0033047Y0226906D03*
X0017220Y0223992D03*
X0017220Y0263992D03*
X0012417Y0309346D03*
X0052417Y0309346D03*
D11*
X0061197Y0304465D03*
X0061197Y0314465D03*
X0071197Y0314465D03*
X0081197Y0314465D03*
X0091197Y0314465D03*
X0101197Y0314465D03*
X0111197Y0314465D03*
X0121197Y0314465D03*
X0131197Y0314465D03*
X0141197Y0314465D03*
X0151197Y0314465D03*
X0161197Y0314465D03*
X0171197Y0314465D03*
X0181197Y0314465D03*
X0191197Y0314465D03*
X0201197Y0314465D03*
X0211197Y0314465D03*
X0221197Y0314465D03*
X0231197Y0314465D03*
X0241197Y0314465D03*
X0241197Y0304465D03*
X0231197Y0304465D03*
X0221197Y0304465D03*
X0211197Y0304465D03*
X0201197Y0304465D03*
X0191197Y0304465D03*
X0181197Y0304465D03*
X0171197Y0304465D03*
X0161197Y0304465D03*
X0151197Y0304465D03*
X0141197Y0304465D03*
X0131197Y0304465D03*
X0121197Y0304465D03*
X0111197Y0304465D03*
X0101197Y0304465D03*
X0091197Y0304465D03*
X0081197Y0304465D03*
X0071197Y0304465D03*
X0071197Y0074307D03*
X0081197Y0074307D03*
X0091197Y0074307D03*
X0101197Y0074307D03*
X0111197Y0074307D03*
X0121197Y0074307D03*
X0131197Y0074307D03*
X0141197Y0074307D03*
X0151197Y0074307D03*
X0161197Y0074307D03*
X0171197Y0074307D03*
X0181197Y0074307D03*
X0191197Y0074307D03*
X0201197Y0074307D03*
X0211197Y0074307D03*
X0221197Y0074307D03*
X0231197Y0074307D03*
X0241197Y0074307D03*
X0241197Y0064307D03*
X0231197Y0064307D03*
X0221197Y0064307D03*
X0211197Y0064307D03*
X0201197Y0064307D03*
X0191197Y0064307D03*
X0181197Y0064307D03*
X0171197Y0064307D03*
X0161197Y0064307D03*
X0151197Y0064307D03*
X0141197Y0064307D03*
X0131197Y0064307D03*
X0121197Y0064307D03*
X0111197Y0064307D03*
X0101197Y0064307D03*
X0091197Y0064307D03*
X0081197Y0064307D03*
X0071197Y0064307D03*
X0061197Y0064307D03*
X0061197Y0074307D03*
X0351000Y0307142D03*
D12*
X0043874Y0132017D02*
X0043874Y0125417D01*
X0033874Y0125417D02*
X0033874Y0132017D01*
X0023874Y0132017D02*
X0023874Y0125417D01*
D13*
X0033874Y0069717D03*
D14*
X0095331Y0139268D03*
X0095331Y0199268D03*
X0070449Y0206709D03*
X0096787Y0224858D03*
X0096787Y0284858D03*
X0020449Y0206709D03*
X0195331Y0199268D03*
X0196787Y0224858D03*
X0196787Y0284858D03*
X0222732Y0283835D03*
X0195331Y0139268D03*
X0222732Y0118835D03*
X0321276Y0095094D03*
X0321276Y0015094D03*
D15*
X0294346Y0042654D03*
X0259898Y0025016D03*
X0222732Y0143835D03*
X0197831Y0184268D03*
X0196787Y0269858D03*
X0267339Y0304071D03*
X0039543Y0241197D03*
X0012024Y0289976D03*
X0015449Y0146709D03*
X0059110Y0021787D03*
D16*
X0069110Y0021787D03*
X0079110Y0021787D03*
X0089110Y0021787D03*
X0099110Y0021787D03*
X0109110Y0021787D03*
X0119110Y0021787D03*
X0129110Y0021787D03*
X0139110Y0021787D03*
X0149110Y0021787D03*
X0159110Y0021787D03*
X0169110Y0021787D03*
X0179110Y0021787D03*
X0189110Y0021787D03*
X0199110Y0021787D03*
X0209110Y0021787D03*
X0236276Y0025016D03*
X0244150Y0025016D03*
X0252024Y0025016D03*
X0294346Y0050528D03*
X0294346Y0058402D03*
X0294346Y0066276D03*
X0222732Y0153835D03*
X0222732Y0163835D03*
X0222732Y0173835D03*
X0197831Y0174268D03*
X0197831Y0164268D03*
X0197831Y0154268D03*
X0196787Y0239858D03*
X0196787Y0249858D03*
X0196787Y0259858D03*
X0267339Y0314071D03*
X0277339Y0314071D03*
X0287339Y0314071D03*
X0297339Y0314071D03*
X0307339Y0314071D03*
X0317339Y0314071D03*
X0327339Y0314071D03*
X0337339Y0314071D03*
X0337339Y0304071D03*
X0327339Y0304071D03*
X0317339Y0304071D03*
X0307339Y0304071D03*
X0297339Y0304071D03*
X0287339Y0304071D03*
X0277339Y0304071D03*
X0075449Y0146709D03*
X0065449Y0146709D03*
X0055449Y0146709D03*
X0045449Y0146709D03*
X0035449Y0146709D03*
X0025449Y0146709D03*
X0049543Y0241197D03*
X0059543Y0241197D03*
X0069543Y0241197D03*
X0012024Y0279976D03*
D17*
X0034543Y0286197D03*
X0074543Y0286197D03*
D18*
X0160409Y0118480D03*
X0170409Y0118480D03*
X0180409Y0118480D03*
X0190409Y0118480D03*
X0190409Y0088480D03*
X0180409Y0088480D03*
X0170409Y0088480D03*
X0160409Y0088480D03*
D19*
X0021079Y0036139D02*
X0021079Y0029089D01*
X0040764Y0029089D02*
X0040764Y0036139D01*
M02*
