G75*
%MOIN*%
%OFA0B0*%
%FSLAX25Y25*%
%IPPOS*%
%LPD*%
%AMOC8*
5,1,8,0,0,1.08239X$1,22.5*
%
%ADD10OC8,0.05169*%
%ADD11OC8,0.06000*%
%ADD12C,0.06600*%
%ADD13R,0.05118X0.05118*%
%ADD14C,0.05118*%
%ADD15C,0.06400*%
%ADD16C,0.07050*%
%ADD17C,0.00984*%
%ADD18C,0.01000*%
%ADD19C,0.02953*%
D10*
X0084504Y0043992D03*
X0104504Y0043992D03*
X0123441Y0043992D03*
X0143441Y0043992D03*
X0257378Y0064150D03*
X0273126Y0062969D03*
X0273126Y0102969D03*
X0257378Y0104150D03*
X0073047Y0226906D03*
X0033047Y0226906D03*
X0017220Y0223992D03*
X0017220Y0263992D03*
X0012417Y0309346D03*
X0052417Y0309346D03*
D11*
X0061197Y0304465D03*
X0061197Y0314465D03*
X0071197Y0314465D03*
X0081197Y0314465D03*
X0091197Y0314465D03*
X0101197Y0314465D03*
X0111197Y0314465D03*
X0121197Y0314465D03*
X0131197Y0314465D03*
X0141197Y0314465D03*
X0151197Y0314465D03*
X0161197Y0314465D03*
X0171197Y0314465D03*
X0181197Y0314465D03*
X0191197Y0314465D03*
X0201197Y0314465D03*
X0211197Y0314465D03*
X0221197Y0314465D03*
X0231197Y0314465D03*
X0241197Y0314465D03*
X0241197Y0304465D03*
X0231197Y0304465D03*
X0221197Y0304465D03*
X0211197Y0304465D03*
X0201197Y0304465D03*
X0191197Y0304465D03*
X0181197Y0304465D03*
X0171197Y0304465D03*
X0161197Y0304465D03*
X0151197Y0304465D03*
X0141197Y0304465D03*
X0131197Y0304465D03*
X0121197Y0304465D03*
X0111197Y0304465D03*
X0101197Y0304465D03*
X0091197Y0304465D03*
X0081197Y0304465D03*
X0071197Y0304465D03*
X0071197Y0074307D03*
X0081197Y0074307D03*
X0091197Y0074307D03*
X0101197Y0074307D03*
X0111197Y0074307D03*
X0121197Y0074307D03*
X0131197Y0074307D03*
X0141197Y0074307D03*
X0151197Y0074307D03*
X0161197Y0074307D03*
X0171197Y0074307D03*
X0181197Y0074307D03*
X0191197Y0074307D03*
X0201197Y0074307D03*
X0211197Y0074307D03*
X0221197Y0074307D03*
X0231197Y0074307D03*
X0241197Y0074307D03*
X0241197Y0064307D03*
X0231197Y0064307D03*
X0221197Y0064307D03*
X0211197Y0064307D03*
X0201197Y0064307D03*
X0191197Y0064307D03*
X0181197Y0064307D03*
X0171197Y0064307D03*
X0161197Y0064307D03*
X0151197Y0064307D03*
X0141197Y0064307D03*
X0131197Y0064307D03*
X0121197Y0064307D03*
X0111197Y0064307D03*
X0101197Y0064307D03*
X0091197Y0064307D03*
X0081197Y0064307D03*
X0071197Y0064307D03*
X0061197Y0064307D03*
X0061197Y0074307D03*
X0351000Y0307142D03*
D12*
X0043874Y0132017D02*
X0043874Y0125417D01*
X0033874Y0125417D02*
X0033874Y0132017D01*
X0023874Y0132017D02*
X0023874Y0125417D01*
D13*
X0015449Y0146709D03*
X0039543Y0241197D03*
X0012024Y0289976D03*
X0196787Y0269858D03*
X0267339Y0304071D03*
X0197831Y0184268D03*
X0222732Y0143835D03*
X0294346Y0042654D03*
X0259898Y0025016D03*
X0059110Y0021787D03*
D14*
X0069110Y0021787D03*
X0079110Y0021787D03*
X0089110Y0021787D03*
X0099110Y0021787D03*
X0109110Y0021787D03*
X0119110Y0021787D03*
X0129110Y0021787D03*
X0139110Y0021787D03*
X0149110Y0021787D03*
X0159110Y0021787D03*
X0169110Y0021787D03*
X0179110Y0021787D03*
X0189110Y0021787D03*
X0199110Y0021787D03*
X0209110Y0021787D03*
X0236276Y0025016D03*
X0244150Y0025016D03*
X0252024Y0025016D03*
X0294346Y0050528D03*
X0294346Y0058402D03*
X0294346Y0066276D03*
X0222732Y0153835D03*
X0222732Y0163835D03*
X0222732Y0173835D03*
X0197831Y0174268D03*
X0197831Y0164268D03*
X0197831Y0154268D03*
X0196787Y0239858D03*
X0196787Y0249858D03*
X0196787Y0259858D03*
X0267339Y0314071D03*
X0277339Y0314071D03*
X0287339Y0314071D03*
X0297339Y0314071D03*
X0307339Y0314071D03*
X0317339Y0314071D03*
X0327339Y0314071D03*
X0337339Y0314071D03*
X0337339Y0304071D03*
X0327339Y0304071D03*
X0317339Y0304071D03*
X0307339Y0304071D03*
X0297339Y0304071D03*
X0287339Y0304071D03*
X0277339Y0304071D03*
X0075449Y0146709D03*
X0065449Y0146709D03*
X0055449Y0146709D03*
X0045449Y0146709D03*
X0035449Y0146709D03*
X0025449Y0146709D03*
X0049543Y0241197D03*
X0059543Y0241197D03*
X0069543Y0241197D03*
X0012024Y0279976D03*
D15*
X0160409Y0118480D03*
X0170409Y0118480D03*
X0180409Y0118480D03*
X0190409Y0118480D03*
X0190409Y0088480D03*
X0180409Y0088480D03*
X0170409Y0088480D03*
X0160409Y0088480D03*
D16*
X0021079Y0036139D02*
X0021079Y0029089D01*
X0040764Y0029089D02*
X0040764Y0036139D01*
D17*
X0041059Y0032988D02*
X0040764Y0032614D01*
X0042142Y0032988D01*
X0042142Y0073047D01*
X0034563Y0080626D01*
X0034563Y0128264D01*
X0033874Y0128717D01*
X0034563Y0129346D01*
X0034563Y0146669D01*
X0035449Y0146709D01*
X0030232Y0147752D02*
X0030232Y0135843D01*
X0023736Y0129346D01*
X0023874Y0128717D01*
X0016157Y0146669D02*
X0015449Y0146709D01*
X0016157Y0147752D01*
X0016157Y0170488D01*
X0072457Y0226787D01*
X0073047Y0226906D01*
X0073539Y0227870D01*
X0060547Y0240862D01*
X0059543Y0241197D01*
X0059465Y0241945D01*
X0037811Y0263598D01*
X0017240Y0263598D01*
X0017220Y0263992D01*
X0012024Y0289976D02*
X0012909Y0290665D01*
X0028067Y0290665D01*
X0046472Y0309071D01*
X0051886Y0309071D01*
X0052417Y0309346D01*
X0065961Y0316650D02*
X0065961Y0251689D01*
X0077870Y0239780D01*
X0077870Y0195390D01*
X0030232Y0147752D01*
X0016157Y0146669D02*
X0016157Y0049228D01*
X0034563Y0030823D01*
X0034563Y0027575D01*
X0045390Y0016748D01*
X0084366Y0016748D01*
X0088697Y0021079D01*
X0089110Y0021787D01*
X0080035Y0022161D02*
X0080035Y0032988D01*
X0042142Y0032988D01*
X0041059Y0032988D01*
X0080035Y0032988D02*
X0080035Y0039484D01*
X0084366Y0043815D01*
X0084504Y0043992D01*
X0085449Y0044898D01*
X0089780Y0049228D01*
X0112516Y0049228D01*
X0116846Y0044898D01*
X0123343Y0044898D01*
X0123441Y0043992D01*
X0124425Y0043815D01*
X0138500Y0029740D01*
X0163402Y0029740D01*
X0195882Y0062220D01*
X0195882Y0082791D01*
X0190469Y0088205D01*
X0190409Y0088480D01*
X0190469Y0089287D01*
X0190469Y0110941D01*
X0202378Y0122850D01*
X0202378Y0165075D01*
X0198047Y0165075D01*
X0197831Y0164268D01*
X0202378Y0165075D02*
X0213205Y0165075D01*
X0221866Y0173736D01*
X0222732Y0173835D01*
X0221866Y0174819D01*
X0221866Y0224622D01*
X0196965Y0249524D01*
X0196787Y0249858D01*
X0196965Y0250606D01*
X0199130Y0250606D01*
X0252181Y0303657D01*
X0267339Y0303657D01*
X0267339Y0304071D01*
X0277083Y0303657D02*
X0277339Y0304071D01*
X0277083Y0303657D02*
X0277083Y0123933D01*
X0257594Y0104445D01*
X0257378Y0104150D01*
X0272752Y0102280D02*
X0273126Y0102969D01*
X0272752Y0102280D02*
X0272752Y0079543D01*
X0257594Y0064386D01*
X0257378Y0064150D01*
X0257594Y0063303D01*
X0278165Y0042732D01*
X0293323Y0042732D01*
X0294346Y0042654D01*
X0306315Y0047063D02*
X0276000Y0016748D01*
X0137417Y0016748D01*
X0134169Y0019996D01*
X0134169Y0023244D01*
X0111433Y0045980D01*
X0110350Y0045980D01*
X0114681Y0058972D02*
X0088697Y0058776D01*
X0086039Y0062024D01*
X0086236Y0078854D01*
X0044307Y0128264D01*
X0043874Y0128717D01*
X0045449Y0146709D02*
X0046472Y0147752D01*
X0049720Y0147752D01*
X0052969Y0151000D01*
X0068126Y0151000D01*
X0070291Y0148835D01*
X0070685Y0145587D01*
X0081709Y0132594D01*
X0071472Y0137220D02*
X0065449Y0146709D01*
X0075449Y0146709D02*
X0075705Y0146669D01*
X0099524Y0146669D01*
X0150409Y0095783D01*
X0150409Y0075213D01*
X0151197Y0074307D01*
X0145980Y0077280D02*
X0146177Y0062220D01*
X0145980Y0077280D02*
X0071472Y0137220D01*
X0082201Y0167240D02*
X0160154Y0089287D01*
X0160409Y0088480D01*
X0161236Y0088205D01*
X0169898Y0088205D01*
X0170409Y0088480D01*
X0175311Y0091453D02*
X0175311Y0080626D01*
X0180724Y0075213D01*
X0181197Y0074307D01*
X0176394Y0069799D02*
X0172063Y0074130D01*
X0171197Y0074307D01*
X0176394Y0069799D02*
X0176394Y0062220D01*
X0173146Y0058972D01*
X0195882Y0062220D02*
X0232693Y0025409D01*
X0235941Y0025409D01*
X0236276Y0025016D01*
X0243520Y0025409D02*
X0244150Y0025016D01*
X0243520Y0025409D02*
X0243520Y0044898D01*
X0226197Y0062220D01*
X0226197Y0105528D01*
X0215370Y0116354D01*
X0215370Y0136925D01*
X0221866Y0143421D01*
X0222732Y0143835D01*
X0221866Y0151000D02*
X0213205Y0142339D01*
X0213205Y0082791D01*
X0220783Y0075213D01*
X0221197Y0074307D01*
X0230528Y0075213D02*
X0231197Y0074307D01*
X0230528Y0075213D02*
X0230528Y0152083D01*
X0222949Y0159661D01*
X0222949Y0162909D01*
X0222732Y0163835D01*
X0222732Y0153835D02*
X0221866Y0153165D01*
X0221866Y0151000D01*
X0197831Y0154268D02*
X0196965Y0155331D01*
X0194209Y0157398D01*
X0170193Y0169602D01*
X0170193Y0234563D01*
X0195882Y0239780D01*
X0196787Y0239858D01*
X0198047Y0245193D02*
X0169898Y0245193D01*
X0111433Y0303657D01*
X0111197Y0304465D01*
X0106020Y0309071D02*
X0101689Y0304740D01*
X0101197Y0304465D01*
X0106020Y0309071D02*
X0106020Y0316650D01*
X0109268Y0319898D01*
X0173146Y0319898D01*
X0176394Y0316650D01*
X0176394Y0296079D01*
X0195882Y0276591D01*
X0195882Y0270094D01*
X0196787Y0269858D01*
X0201295Y0272260D02*
X0201295Y0266846D01*
X0199130Y0264681D01*
X0187220Y0264681D01*
X0183972Y0267929D01*
X0201295Y0272260D02*
X0219701Y0290665D01*
X0234858Y0290665D01*
X0263008Y0318815D01*
X0288992Y0318815D01*
X0292240Y0315567D01*
X0292240Y0312319D01*
X0295488Y0309071D01*
X0308480Y0309071D01*
X0312811Y0304740D01*
X0317142Y0304740D01*
X0317339Y0304071D01*
X0307339Y0304071D02*
X0306315Y0303657D01*
X0306315Y0047063D01*
X0293323Y0065469D02*
X0294346Y0066276D01*
X0293323Y0065469D02*
X0276000Y0065469D01*
X0273835Y0063303D01*
X0273126Y0062969D01*
X0242437Y0082791D02*
X0233776Y0082791D01*
X0242437Y0082791D02*
X0296571Y0136925D01*
X0296571Y0303657D01*
X0297339Y0304071D01*
X0221197Y0304465D02*
X0220783Y0304740D01*
X0220783Y0307988D01*
X0216453Y0312319D01*
X0216453Y0316650D01*
X0211039Y0322063D01*
X0071374Y0322063D01*
X0065961Y0316650D01*
X0081197Y0304465D02*
X0082201Y0303657D01*
X0082201Y0167240D01*
X0108185Y0132594D02*
X0146079Y0094701D01*
X0144996Y0090370D02*
X0106020Y0129346D01*
X0137417Y0126098D02*
X0140665Y0126098D01*
X0175311Y0091453D01*
X0142831Y0044898D02*
X0128756Y0044898D01*
X0114681Y0058972D01*
X0142831Y0044898D02*
X0143441Y0043992D01*
X0138500Y0029740D02*
X0138500Y0022161D01*
X0139110Y0021787D01*
X0080035Y0022161D02*
X0079110Y0021787D01*
X0197831Y0184268D02*
X0198047Y0184563D01*
X0198047Y0192142D01*
X0203461Y0197555D01*
X0203461Y0239780D01*
X0198047Y0245193D01*
X0196787Y0249858D02*
X0195882Y0250606D01*
X0151492Y0294996D01*
X0151492Y0303657D01*
X0151197Y0304465D01*
X0039543Y0241197D02*
X0038894Y0240862D01*
X0038894Y0233283D01*
X0033480Y0227870D01*
X0033047Y0226906D01*
D18*
X0081709Y0132594D02*
X0108185Y0132594D01*
X0119307Y0081709D02*
X0125508Y0081709D01*
X0119307Y0081709D02*
X0116354Y0078756D01*
X0116354Y0068323D01*
X0112339Y0064307D01*
X0111197Y0064307D01*
X0146177Y0062220D02*
X0148441Y0058972D01*
X0173146Y0058972D01*
D19*
X0144996Y0090370D03*
X0146079Y0094701D03*
X0125508Y0081709D03*
X0110350Y0045980D03*
X0137417Y0126098D03*
X0106020Y0129346D03*
X0233776Y0082791D03*
X0183972Y0267929D03*
M02*
