G75*
%MOIN*%
%OFA0B0*%
%FSLAX25Y25*%
%IPPOS*%
%LPD*%
%AMOC8*
5,1,8,0,0,1.08239X$1,22.5*
%
%ADD10OC8,0.05169*%
%ADD11OC8,0.06000*%
%ADD12C,0.06600*%
%ADD13R,0.05118X0.05118*%
%ADD14C,0.05118*%
%ADD15C,0.06400*%
%ADD16C,0.07050*%
%ADD17C,0.00984*%
%ADD18C,0.02953*%
%ADD19C,0.01000*%
D10*
X0083913Y0038677D03*
X0103913Y0038677D03*
X0122850Y0038677D03*
X0142850Y0038677D03*
X0256787Y0058835D03*
X0272535Y0057654D03*
X0272535Y0097654D03*
X0256787Y0098835D03*
X0072457Y0221591D03*
X0032457Y0221591D03*
X0016630Y0218677D03*
X0016630Y0258677D03*
X0011827Y0304031D03*
X0051827Y0304031D03*
D11*
X0060606Y0299150D03*
X0060606Y0309150D03*
X0070606Y0309150D03*
X0080606Y0309150D03*
X0090606Y0309150D03*
X0100606Y0309150D03*
X0110606Y0309150D03*
X0120606Y0309150D03*
X0130606Y0309150D03*
X0140606Y0309150D03*
X0150606Y0309150D03*
X0160606Y0309150D03*
X0170606Y0309150D03*
X0180606Y0309150D03*
X0190606Y0309150D03*
X0200606Y0309150D03*
X0210606Y0309150D03*
X0220606Y0309150D03*
X0230606Y0309150D03*
X0240606Y0309150D03*
X0240606Y0299150D03*
X0230606Y0299150D03*
X0220606Y0299150D03*
X0210606Y0299150D03*
X0200606Y0299150D03*
X0190606Y0299150D03*
X0180606Y0299150D03*
X0170606Y0299150D03*
X0160606Y0299150D03*
X0150606Y0299150D03*
X0140606Y0299150D03*
X0130606Y0299150D03*
X0120606Y0299150D03*
X0110606Y0299150D03*
X0100606Y0299150D03*
X0090606Y0299150D03*
X0080606Y0299150D03*
X0070606Y0299150D03*
X0070606Y0068992D03*
X0080606Y0068992D03*
X0080606Y0058992D03*
X0070606Y0058992D03*
X0060606Y0058992D03*
X0060606Y0068992D03*
X0090606Y0068992D03*
X0090606Y0058992D03*
X0100606Y0058992D03*
X0100606Y0068992D03*
X0110606Y0068992D03*
X0120606Y0068992D03*
X0120606Y0058992D03*
X0110606Y0058992D03*
X0130606Y0058992D03*
X0130606Y0068992D03*
X0140606Y0068992D03*
X0140606Y0058992D03*
X0150606Y0058992D03*
X0160606Y0058992D03*
X0160606Y0068992D03*
X0150606Y0068992D03*
X0170606Y0068992D03*
X0170606Y0058992D03*
X0180606Y0058992D03*
X0190606Y0058992D03*
X0190606Y0068992D03*
X0180606Y0068992D03*
X0200606Y0068992D03*
X0200606Y0058992D03*
X0210606Y0058992D03*
X0210606Y0068992D03*
X0220606Y0068992D03*
X0230606Y0068992D03*
X0230606Y0058992D03*
X0220606Y0058992D03*
X0240606Y0058992D03*
X0240606Y0068992D03*
X0350409Y0301827D03*
D12*
X0043283Y0126702D02*
X0043283Y0120102D01*
X0033283Y0120102D02*
X0033283Y0126702D01*
X0023283Y0126702D02*
X0023283Y0120102D01*
D13*
X0014858Y0141394D03*
X0038953Y0235882D03*
X0011433Y0284661D03*
X0196197Y0264543D03*
X0266748Y0298756D03*
X0197240Y0178953D03*
X0222142Y0138520D03*
X0293756Y0041276D03*
X0259307Y0019701D03*
X0058520Y0016472D03*
D14*
X0068520Y0016472D03*
X0078520Y0016472D03*
X0088520Y0016472D03*
X0098520Y0016472D03*
X0108520Y0016472D03*
X0118520Y0016472D03*
X0128520Y0016472D03*
X0138520Y0016472D03*
X0148520Y0016472D03*
X0158520Y0016472D03*
X0168520Y0016472D03*
X0178520Y0016472D03*
X0188520Y0016472D03*
X0198520Y0016472D03*
X0208520Y0016472D03*
X0235685Y0019701D03*
X0243559Y0019701D03*
X0251433Y0019701D03*
X0293756Y0049150D03*
X0293756Y0057024D03*
X0293756Y0064898D03*
X0222142Y0148520D03*
X0222142Y0158520D03*
X0222142Y0168520D03*
X0197240Y0168953D03*
X0197240Y0158953D03*
X0197240Y0148953D03*
X0196197Y0234543D03*
X0196197Y0244543D03*
X0196197Y0254543D03*
X0266748Y0308756D03*
X0276748Y0308756D03*
X0286748Y0308756D03*
X0296748Y0308756D03*
X0306748Y0308756D03*
X0316748Y0308756D03*
X0326748Y0308756D03*
X0336748Y0308756D03*
X0336748Y0298756D03*
X0326748Y0298756D03*
X0316748Y0298756D03*
X0306748Y0298756D03*
X0296748Y0298756D03*
X0286748Y0298756D03*
X0276748Y0298756D03*
X0074858Y0141394D03*
X0064858Y0141394D03*
X0054858Y0141394D03*
X0044858Y0141394D03*
X0034858Y0141394D03*
X0024858Y0141394D03*
X0048953Y0235882D03*
X0058953Y0235882D03*
X0068953Y0235882D03*
X0011433Y0274661D03*
D15*
X0159819Y0113165D03*
X0169819Y0113165D03*
X0179819Y0113165D03*
X0189819Y0113165D03*
X0189819Y0083165D03*
X0179819Y0083165D03*
X0169819Y0083165D03*
X0159819Y0083165D03*
D16*
X0020488Y0030824D02*
X0020488Y0023774D01*
X0040173Y0023774D02*
X0040173Y0030824D01*
D17*
X0040272Y0027476D02*
X0040173Y0027299D01*
X0040272Y0027476D02*
X0048933Y0027476D01*
X0048933Y0128165D01*
X0044602Y0132496D01*
X0034858Y0132496D01*
X0034858Y0141394D01*
X0034858Y0190961D01*
X0068421Y0224524D01*
X0068421Y0235350D01*
X0068953Y0235882D01*
X0077083Y0244012D01*
X0196177Y0244012D01*
X0196197Y0244543D01*
X0197260Y0244012D01*
X0221079Y0220193D01*
X0221079Y0169307D01*
X0222142Y0168520D01*
X0222161Y0168224D01*
X0226492Y0163894D01*
X0226492Y0156315D01*
X0224327Y0154150D01*
X0219996Y0154150D01*
X0215665Y0158480D01*
X0197260Y0158480D01*
X0197240Y0158953D01*
X0198343Y0154150D02*
X0191846Y0154150D01*
X0155035Y0117339D01*
X0151787Y0119504D02*
X0151787Y0083776D01*
X0161531Y0074031D01*
X0162614Y0074031D01*
X0165862Y0070783D01*
X0165862Y0064287D01*
X0170193Y0059957D01*
X0170606Y0058992D01*
X0166945Y0053461D02*
X0161531Y0058874D01*
X0160606Y0058992D01*
X0166945Y0053461D02*
X0217831Y0053461D01*
X0251394Y0019898D01*
X0251433Y0019701D01*
X0258972Y0019898D02*
X0259307Y0019701D01*
X0258972Y0019898D02*
X0219996Y0058874D01*
X0220606Y0058992D01*
X0205921Y0074031D02*
X0201591Y0069701D01*
X0200606Y0068992D01*
X0205921Y0074031D02*
X0238402Y0074031D01*
X0291453Y0127083D01*
X0291453Y0300311D01*
X0294701Y0303559D01*
X0308776Y0303559D01*
X0313106Y0299228D01*
X0316354Y0299228D01*
X0316748Y0298756D01*
X0296866Y0298146D02*
X0296748Y0298756D01*
X0296866Y0298146D02*
X0299110Y0064406D01*
X0299031Y0062122D01*
X0299031Y0035055D01*
X0278461Y0014484D01*
X0216748Y0014484D01*
X0179937Y0051295D01*
X0140961Y0051295D01*
X0135547Y0056709D01*
X0135547Y0064287D01*
X0131217Y0068618D01*
X0130606Y0068992D01*
X0149622Y0059957D02*
X0150606Y0058992D01*
X0159819Y0083165D02*
X0160449Y0083776D01*
X0169110Y0083776D01*
X0169819Y0083165D01*
X0179819Y0083165D02*
X0179937Y0082693D01*
X0179937Y0077280D01*
X0185350Y0071866D01*
X0185350Y0067535D01*
X0188598Y0064287D01*
X0250311Y0064287D01*
X0255724Y0058874D01*
X0256787Y0058835D01*
X0256807Y0058874D01*
X0271965Y0074031D01*
X0271965Y0096768D01*
X0272535Y0097654D01*
X0256807Y0098933D02*
X0256787Y0098835D01*
X0255724Y0098933D01*
X0176689Y0098933D01*
X0162614Y0113008D01*
X0160449Y0113008D01*
X0159819Y0113165D01*
X0151787Y0119504D02*
X0196177Y0163894D01*
X0196177Y0168224D01*
X0197240Y0168953D01*
X0203756Y0173638D02*
X0080331Y0173638D01*
X0050016Y0143323D01*
X0050016Y0130331D01*
X0055429Y0124917D01*
X0055429Y0067535D01*
X0058677Y0064287D01*
X0066256Y0064287D01*
X0070587Y0059957D01*
X0070606Y0058992D01*
X0080606Y0068992D02*
X0081413Y0068618D01*
X0085744Y0064287D01*
X0085744Y0049130D01*
X0118224Y0016650D01*
X0118520Y0016472D01*
X0137713Y0016650D02*
X0138520Y0016472D01*
X0137713Y0016650D02*
X0137713Y0024228D01*
X0123638Y0038303D01*
X0122850Y0038677D01*
X0083913Y0038677D02*
X0083579Y0038303D01*
X0079248Y0033972D01*
X0079248Y0027476D01*
X0048933Y0027476D01*
X0044406Y0055035D02*
X0020783Y0035350D01*
X0020488Y0027299D01*
X0044406Y0055035D02*
X0044406Y0120783D01*
X0043283Y0123402D01*
X0034858Y0124917D02*
X0033776Y0123835D01*
X0033283Y0123402D01*
X0034858Y0124917D02*
X0034858Y0132496D01*
X0023283Y0123402D02*
X0022949Y0123835D01*
X0003874Y0142043D01*
X0003992Y0306315D01*
X0027299Y0321276D01*
X0212693Y0321354D01*
X0215665Y0311138D01*
X0215665Y0306807D01*
X0219996Y0302476D01*
X0219996Y0299228D01*
X0220606Y0299150D01*
X0251394Y0298146D02*
X0197260Y0244012D01*
X0196197Y0264543D02*
X0196177Y0264583D01*
X0134465Y0264583D01*
X0100902Y0298146D01*
X0100606Y0299150D01*
X0090606Y0299150D02*
X0090075Y0298146D01*
X0086827Y0298146D01*
X0082496Y0293815D01*
X0058677Y0293815D01*
X0052181Y0300311D01*
X0052181Y0303559D01*
X0051827Y0304031D01*
X0051098Y0303559D01*
X0045685Y0303559D01*
X0027280Y0285154D01*
X0012122Y0285154D01*
X0011433Y0284661D01*
X0006709Y0280823D02*
X0007791Y0279740D01*
X0025114Y0279740D01*
X0068421Y0236433D01*
X0068953Y0235882D01*
X0058953Y0235882D02*
X0058677Y0235350D01*
X0058677Y0218028D01*
X0015370Y0174720D01*
X0015370Y0142240D01*
X0014858Y0141394D01*
X0074858Y0141394D02*
X0074917Y0141157D01*
X0017535Y0219110D02*
X0016630Y0218677D01*
X0017535Y0219110D02*
X0025114Y0226689D01*
X0038106Y0226689D01*
X0046768Y0235350D01*
X0048933Y0235350D01*
X0048953Y0235882D01*
X0058677Y0236433D02*
X0058953Y0235882D01*
X0058677Y0236433D02*
X0037024Y0258087D01*
X0017535Y0258087D01*
X0016630Y0258677D01*
X0006709Y0280823D02*
X0006709Y0288402D01*
X0011039Y0292732D01*
X0011039Y0303559D01*
X0011827Y0304031D01*
X0197240Y0148953D02*
X0197260Y0148736D01*
X0207004Y0138992D01*
X0221079Y0138992D01*
X0222142Y0138520D01*
X0222161Y0137909D01*
X0235154Y0124917D01*
X0235154Y0108677D01*
X0256807Y0098933D02*
X0276295Y0118421D01*
X0276295Y0298146D01*
X0276748Y0298756D01*
X0266748Y0298756D02*
X0266551Y0298146D01*
X0251394Y0298146D01*
X0203756Y0173638D02*
X0217831Y0159563D01*
X0221079Y0159563D01*
X0222142Y0158520D01*
X0221079Y0148736D02*
X0222142Y0148520D01*
X0221079Y0148736D02*
X0203756Y0148736D01*
X0198343Y0154150D01*
X0275213Y0063894D02*
X0273047Y0057791D01*
X0272535Y0057654D01*
X0275213Y0063894D02*
X0293618Y0063894D01*
X0293756Y0064898D01*
X0293756Y0041276D02*
X0293618Y0038303D01*
X0276295Y0038303D01*
X0256807Y0057791D01*
X0256787Y0058835D01*
X0079248Y0027476D02*
X0079248Y0016650D01*
X0078520Y0016472D01*
D18*
X0155035Y0117339D03*
X0235154Y0108677D03*
D19*
X0155803Y0072496D02*
X0155803Y0061984D01*
X0155528Y0061709D01*
X0155803Y0072496D02*
X0150803Y0077496D01*
X0132654Y0077496D01*
X0074917Y0135232D01*
X0074917Y0141157D01*
X0054858Y0141394D02*
X0054858Y0134268D01*
X0115764Y0073362D01*
X0115764Y0063835D01*
X0120606Y0058992D01*
M02*
