%
M48
M72
T01C0.01378
T02C0.03150
T03C0.03200
T04C0.04000
T05C0.04400
T06C0.04700
T07C0.10000
T08C0.11000
T09C0.13000
%
T01
X155035Y117339
X235154Y108677
T02
X222142Y138520
X222142Y148520
X222142Y158520
X222142Y168520
X197240Y168953
X197240Y178953
X197240Y158953
X197240Y148953
X196197Y234543
X196197Y244543
X196197Y254543
X196197Y264543
X266748Y298756
X276748Y298756
X286748Y298756
X296748Y298756
X306748Y298756
X316748Y298756
X326748Y298756
X336748Y298756
X336748Y308756
X326748Y308756
X316748Y308756
X306748Y308756
X296748Y308756
X286748Y308756
X276748Y308756
X266748Y308756
X74858Y141394
X64858Y141394
X54858Y141394
X44858Y141394
X34858Y141394
X24858Y141394
X14858Y141394
X38953Y235882
X48953Y235882
X58953Y235882
X68953Y235882
X11433Y274661
X11433Y284661
X293756Y64898
X293756Y57024
X293756Y49150
X293756Y41276
X259307Y19701
X251433Y19701
X243559Y19701
X235685Y19701
X208520Y16472
X198520Y16472
X188520Y16472
X178520Y16472
X168520Y16472
X158520Y16472
X148520Y16472
X138520Y16472
X128520Y16472
X118520Y16472
X108520Y16472
X98520Y16472
X88520Y16472
X78520Y16472
X68520Y16472
X58520Y16472
T03
X83913Y38677
X103913Y38677
X122850Y38677
X142850Y38677
X159819Y83165
X169819Y83165
X179819Y83165
X189819Y83165
X189819Y113165
X179819Y113165
X169819Y113165
X159819Y113165
X256787Y98835
X272535Y97654
X256787Y58835
X272535Y57654
X72457Y221591
X32457Y221591
X16630Y218677
X16630Y258677
X11827Y304031
X51827Y304031
T04
X60606Y299150
X60606Y309150
X70606Y309150
X80606Y309150
X90606Y309150
X100606Y309150
X110606Y309150
X120606Y309150
X130606Y309150
X140606Y309150
X150606Y309150
X160606Y309150
X170606Y309150
X180606Y309150
X190606Y309150
X200606Y309150
X210606Y309150
X220606Y309150
X230606Y309150
X240606Y309150
X240606Y299150
X230606Y299150
X220606Y299150
X210606Y299150
X200606Y299150
X190606Y299150
X180606Y299150
X170606Y299150
X160606Y299150
X150606Y299150
X140606Y299150
X130606Y299150
X120606Y299150
X110606Y299150
X100606Y299150
X90606Y299150
X80606Y299150
X70606Y299150
X70606Y68992
X80606Y68992
X80606Y58992
X70606Y58992
X60606Y58992
X60606Y68992
X90606Y68992
X90606Y58992
X100606Y58992
X100606Y68992
X110606Y68992
X120606Y68992
X120606Y58992
X110606Y58992
X130606Y58992
X130606Y68992
X140606Y68992
X140606Y58992
X150606Y58992
X160606Y58992
X160606Y68992
X150606Y68992
X170606Y68992
X170606Y58992
X180606Y58992
X190606Y58992
X190606Y68992
X180606Y68992
X200606Y68992
X200606Y58992
X210606Y58992
X210606Y68992
X220606Y68992
X230606Y68992
X230606Y58992
X220606Y58992
X240606Y58992
X240606Y68992
X350409Y301827
T05
X43283Y123402
X33283Y123402
X23283Y123402
T06
X20488Y27299
X40173Y27299
T07
X94740Y133953
X94740Y193953
X69858Y201394
X96197Y219543
X96197Y279543
X19858Y201394
X194740Y193953
X196197Y219543
X222142Y278520
X196197Y279543
X194740Y133953
X222142Y113520
X320685Y93717
X320685Y13717
T08
X73953Y280882
X33953Y280882
T09
X33283Y64402
M30
