G75*
%MOIN*%
%OFA0B0*%
%FSLAX25Y25*%
%IPPOS*%
%LPD*%
%AMOC8*
5,1,8,0,0,1.08239X$1,22.5*
%
%ADD10OC8,0.05169*%
%ADD11OC8,0.06000*%
%ADD12C,0.06600*%
%ADD13R,0.05118X0.05118*%
%ADD14C,0.05118*%
%ADD15C,0.06400*%
%ADD16C,0.07050*%
%ADD17C,0.00984*%
%ADD18C,0.02953*%
D10*
X0083913Y0038677D03*
X0103913Y0038677D03*
X0122850Y0038677D03*
X0142850Y0038677D03*
X0256787Y0058835D03*
X0272535Y0057654D03*
X0272535Y0097654D03*
X0256787Y0098835D03*
X0072457Y0221591D03*
X0032457Y0221591D03*
X0016630Y0218677D03*
X0016630Y0258677D03*
X0011827Y0304031D03*
X0051827Y0304031D03*
D11*
X0060606Y0299150D03*
X0060606Y0309150D03*
X0070606Y0309150D03*
X0080606Y0309150D03*
X0090606Y0309150D03*
X0100606Y0309150D03*
X0110606Y0309150D03*
X0120606Y0309150D03*
X0130606Y0309150D03*
X0140606Y0309150D03*
X0150606Y0309150D03*
X0160606Y0309150D03*
X0170606Y0309150D03*
X0180606Y0309150D03*
X0190606Y0309150D03*
X0200606Y0309150D03*
X0210606Y0309150D03*
X0220606Y0309150D03*
X0230606Y0309150D03*
X0240606Y0309150D03*
X0240606Y0299150D03*
X0230606Y0299150D03*
X0220606Y0299150D03*
X0210606Y0299150D03*
X0200606Y0299150D03*
X0190606Y0299150D03*
X0180606Y0299150D03*
X0170606Y0299150D03*
X0160606Y0299150D03*
X0150606Y0299150D03*
X0140606Y0299150D03*
X0130606Y0299150D03*
X0120606Y0299150D03*
X0110606Y0299150D03*
X0100606Y0299150D03*
X0090606Y0299150D03*
X0080606Y0299150D03*
X0070606Y0299150D03*
X0070606Y0068992D03*
X0080606Y0068992D03*
X0080606Y0058992D03*
X0070606Y0058992D03*
X0060606Y0058992D03*
X0060606Y0068992D03*
X0090606Y0068992D03*
X0090606Y0058992D03*
X0100606Y0058992D03*
X0100606Y0068992D03*
X0110606Y0068992D03*
X0120606Y0068992D03*
X0120606Y0058992D03*
X0110606Y0058992D03*
X0130606Y0058992D03*
X0130606Y0068992D03*
X0140606Y0068992D03*
X0140606Y0058992D03*
X0150606Y0058992D03*
X0160606Y0058992D03*
X0160606Y0068992D03*
X0150606Y0068992D03*
X0170606Y0068992D03*
X0170606Y0058992D03*
X0180606Y0058992D03*
X0190606Y0058992D03*
X0190606Y0068992D03*
X0180606Y0068992D03*
X0200606Y0068992D03*
X0200606Y0058992D03*
X0210606Y0058992D03*
X0210606Y0068992D03*
X0220606Y0068992D03*
X0230606Y0068992D03*
X0230606Y0058992D03*
X0220606Y0058992D03*
X0240606Y0058992D03*
X0240606Y0068992D03*
X0350409Y0301827D03*
D12*
X0043283Y0126702D02*
X0043283Y0120102D01*
X0033283Y0120102D02*
X0033283Y0126702D01*
X0023283Y0126702D02*
X0023283Y0120102D01*
D13*
X0014858Y0141394D03*
X0038953Y0235882D03*
X0011433Y0284661D03*
X0196197Y0264543D03*
X0266748Y0298756D03*
X0197240Y0178953D03*
X0222142Y0138520D03*
X0293756Y0041276D03*
X0259307Y0019701D03*
X0058520Y0016472D03*
D14*
X0068520Y0016472D03*
X0078520Y0016472D03*
X0088520Y0016472D03*
X0098520Y0016472D03*
X0108520Y0016472D03*
X0118520Y0016472D03*
X0128520Y0016472D03*
X0138520Y0016472D03*
X0148520Y0016472D03*
X0158520Y0016472D03*
X0168520Y0016472D03*
X0178520Y0016472D03*
X0188520Y0016472D03*
X0198520Y0016472D03*
X0208520Y0016472D03*
X0235685Y0019701D03*
X0243559Y0019701D03*
X0251433Y0019701D03*
X0293756Y0049150D03*
X0293756Y0057024D03*
X0293756Y0064898D03*
X0222142Y0148520D03*
X0222142Y0158520D03*
X0222142Y0168520D03*
X0197240Y0168953D03*
X0197240Y0158953D03*
X0197240Y0148953D03*
X0196197Y0234543D03*
X0196197Y0244543D03*
X0196197Y0254543D03*
X0266748Y0308756D03*
X0276748Y0308756D03*
X0286748Y0308756D03*
X0296748Y0308756D03*
X0306748Y0308756D03*
X0316748Y0308756D03*
X0326748Y0308756D03*
X0336748Y0308756D03*
X0336748Y0298756D03*
X0326748Y0298756D03*
X0316748Y0298756D03*
X0306748Y0298756D03*
X0296748Y0298756D03*
X0286748Y0298756D03*
X0276748Y0298756D03*
X0074858Y0141394D03*
X0064858Y0141394D03*
X0054858Y0141394D03*
X0044858Y0141394D03*
X0034858Y0141394D03*
X0024858Y0141394D03*
X0048953Y0235882D03*
X0058953Y0235882D03*
X0068953Y0235882D03*
X0011433Y0274661D03*
D15*
X0159819Y0113165D03*
X0169819Y0113165D03*
X0179819Y0113165D03*
X0189819Y0113165D03*
X0189819Y0083165D03*
X0179819Y0083165D03*
X0169819Y0083165D03*
X0159819Y0083165D03*
D16*
X0040173Y0030824D02*
X0040173Y0023774D01*
X0020488Y0023774D02*
X0020488Y0030824D01*
D17*
X0014287Y0022063D02*
X0018618Y0017732D01*
X0042437Y0017732D01*
X0045685Y0020980D01*
X0080331Y0020980D01*
X0084661Y0016650D01*
X0087909Y0016650D01*
X0088520Y0016472D01*
X0088992Y0033972D02*
X0084661Y0038303D01*
X0083913Y0038677D01*
X0088992Y0033972D02*
X0105232Y0033972D01*
X0109563Y0038303D01*
X0122555Y0038303D01*
X0122850Y0038677D01*
X0129051Y0038303D02*
X0122555Y0031807D01*
X0046768Y0031807D01*
X0042437Y0036138D01*
X0029445Y0036138D01*
X0020783Y0027476D01*
X0020488Y0027299D01*
X0014287Y0022063D02*
X0014287Y0141157D01*
X0014858Y0141394D01*
X0023283Y0123402D02*
X0017043Y0110941D01*
X0016846Y0056020D01*
X0028657Y0050016D01*
X0058677Y0049524D01*
X0078087Y0049524D01*
X0092280Y0039425D01*
X0103067Y0039386D01*
X0103913Y0038677D01*
X0086827Y0053461D02*
X0081413Y0058874D01*
X0080606Y0058992D01*
X0086827Y0053461D02*
X0142043Y0053461D01*
X0145291Y0056709D01*
X0145291Y0107594D01*
X0155035Y0117339D01*
X0159366Y0118421D02*
X0159366Y0114091D01*
X0159819Y0113165D01*
X0159366Y0118421D02*
X0087909Y0189878D01*
X0087909Y0193126D01*
X0072752Y0208283D01*
X0072752Y0221276D01*
X0072457Y0221591D01*
X0072752Y0222358D01*
X0059760Y0235350D01*
X0058953Y0235882D01*
X0048953Y0235882D02*
X0048933Y0236433D01*
X0046768Y0238598D01*
X0046768Y0305724D01*
X0055429Y0314386D01*
X0132299Y0314386D01*
X0136630Y0310055D01*
X0139878Y0310055D01*
X0140606Y0309150D01*
X0150606Y0299150D02*
X0150705Y0298146D01*
X0150705Y0290567D01*
X0196177Y0245094D01*
X0196197Y0244543D01*
X0195094Y0249425D02*
X0161531Y0282988D01*
X0161531Y0298146D01*
X0160606Y0299150D01*
X0165469Y0299228D01*
X0165862Y0303559D01*
X0165862Y0311138D01*
X0169110Y0314386D01*
X0338008Y0314386D01*
X0349917Y0302476D01*
X0350409Y0301827D01*
X0326748Y0298756D02*
X0326098Y0298146D01*
X0326098Y0205035D01*
X0190764Y0069701D01*
X0190606Y0068992D01*
X0184268Y0069701D02*
X0181020Y0069701D01*
X0180606Y0068992D01*
X0184268Y0069701D02*
X0195094Y0080528D01*
X0195094Y0095685D01*
X0306610Y0207201D01*
X0306610Y0298146D01*
X0306748Y0298756D01*
X0276748Y0298756D02*
X0276295Y0298146D01*
X0274130Y0298146D01*
X0269799Y0293815D01*
X0175606Y0293815D01*
X0171276Y0298146D01*
X0170606Y0299150D01*
X0165862Y0311138D02*
X0160449Y0316551D01*
X0053264Y0316551D01*
X0012122Y0275409D01*
X0011433Y0274661D01*
X0038106Y0235350D02*
X0038953Y0235882D01*
X0038106Y0235350D02*
X0038106Y0227772D01*
X0032693Y0222358D01*
X0032457Y0221591D01*
X0032693Y0221276D01*
X0135547Y0118421D01*
X0135547Y0066453D01*
X0139878Y0062122D01*
X0139878Y0059957D01*
X0140606Y0058992D01*
X0130606Y0058992D02*
X0130134Y0059957D01*
X0125803Y0064287D01*
X0125803Y0070783D01*
X0065173Y0131413D01*
X0065173Y0141157D01*
X0064858Y0141394D01*
X0053559Y0131413D02*
X0095488Y0081610D01*
X0095488Y0066453D01*
X0097654Y0064287D01*
X0105232Y0064287D01*
X0109563Y0059957D01*
X0110606Y0058992D01*
X0129051Y0038303D02*
X0142043Y0038303D01*
X0142850Y0038677D01*
X0129051Y0033972D02*
X0192929Y0033972D01*
X0215665Y0056709D01*
X0215665Y0064287D01*
X0219996Y0068618D01*
X0220606Y0068992D01*
X0190764Y0083776D02*
X0189819Y0083165D01*
X0190764Y0083776D02*
X0190764Y0103264D01*
X0217831Y0130331D01*
X0217831Y0164976D01*
X0221079Y0168224D01*
X0222142Y0168520D01*
X0202673Y0157398D02*
X0202673Y0228854D01*
X0197260Y0234268D01*
X0196197Y0234543D01*
X0197260Y0235350D01*
X0197260Y0238598D01*
X0200508Y0241846D01*
X0200508Y0247260D01*
X0198343Y0249425D01*
X0195094Y0249425D01*
X0197260Y0253756D02*
X0196197Y0254543D01*
X0197260Y0253756D02*
X0204839Y0246177D01*
X0204839Y0120587D01*
X0172358Y0088106D01*
X0166945Y0088106D01*
X0164780Y0085941D01*
X0164780Y0080528D01*
X0171276Y0074031D01*
X0172358Y0074031D01*
X0175606Y0070783D01*
X0175606Y0064287D01*
X0179937Y0059957D01*
X0180606Y0058992D01*
X0159819Y0083165D02*
X0159366Y0083776D01*
X0164780Y0089189D01*
X0164780Y0133579D01*
X0081413Y0216945D01*
X0081413Y0298146D01*
X0080606Y0299150D01*
X0110606Y0299150D02*
X0110646Y0298146D01*
X0110646Y0267831D01*
X0196177Y0182299D01*
X0196177Y0179051D01*
X0197240Y0178953D01*
X0202673Y0157398D02*
X0197260Y0151984D01*
X0197260Y0149819D01*
X0197240Y0148953D01*
X0235154Y0108677D02*
X0277378Y0066453D01*
X0277378Y0055626D01*
X0243815Y0022063D01*
X0243815Y0019898D01*
X0243559Y0019701D01*
X0242732Y0018815D01*
X0235154Y0011236D01*
X0067339Y0011236D01*
X0063008Y0015567D01*
X0058677Y0015567D01*
X0058520Y0016472D01*
X0108520Y0016472D02*
X0109563Y0016650D01*
X0111728Y0016650D01*
X0129051Y0033972D01*
X0143126Y0020980D02*
X0138795Y0016650D01*
X0138520Y0016472D01*
X0143126Y0020980D02*
X0210252Y0020980D01*
X0211335Y0019898D01*
X0235154Y0019898D01*
X0235685Y0019701D01*
X0236236Y0019898D01*
X0273047Y0056709D01*
X0272535Y0057654D01*
X0293618Y0057398D02*
X0293756Y0057024D01*
X0293618Y0057398D02*
X0256807Y0090272D01*
X0256807Y0097850D01*
X0256787Y0098835D01*
X0053559Y0131413D02*
X0045685Y0141157D01*
X0044858Y0141394D01*
D18*
X0155035Y0117339D03*
X0235154Y0108677D03*
M02*
