G75*
%MOIN*%
%OFA0B0*%
%FSLAX25Y25*%
%IPPOS*%
%LPD*%
%AMOC8*
5,1,8,0,0,1.08239X$1,22.5*
%
%ADD10C,0.00000*%
%ADD11C,0.00600*%
%ADD12C,0.00300*%
%ADD13C,0.01200*%
%ADD14C,0.00500*%
%ADD15C,0.00200*%
%ADD16R,0.03000X0.02500*%
%ADD17R,0.05000X0.11000*%
%ADD18C,0.00700*%
%ADD19R,0.03400X0.02400*%
%ADD20R,0.02400X0.03400*%
%ADD21C,0.00400*%
%ADD22C,0.00800*%
D10*
X0001000Y0001000D02*
X0001000Y0323835D01*
X0363205Y0323835D01*
X0363205Y0001000D01*
X0001000Y0001000D01*
X0026783Y0064402D02*
X0026785Y0064563D01*
X0026791Y0064723D01*
X0026801Y0064884D01*
X0026815Y0065044D01*
X0026833Y0065204D01*
X0026854Y0065363D01*
X0026880Y0065522D01*
X0026910Y0065680D01*
X0026943Y0065837D01*
X0026981Y0065994D01*
X0027022Y0066149D01*
X0027067Y0066303D01*
X0027116Y0066456D01*
X0027169Y0066608D01*
X0027225Y0066759D01*
X0027286Y0066908D01*
X0027349Y0067056D01*
X0027417Y0067202D01*
X0027488Y0067346D01*
X0027562Y0067488D01*
X0027640Y0067629D01*
X0027722Y0067767D01*
X0027807Y0067904D01*
X0027895Y0068038D01*
X0027987Y0068170D01*
X0028082Y0068300D01*
X0028180Y0068428D01*
X0028281Y0068553D01*
X0028385Y0068675D01*
X0028492Y0068795D01*
X0028602Y0068912D01*
X0028715Y0069027D01*
X0028831Y0069138D01*
X0028950Y0069247D01*
X0029071Y0069352D01*
X0029195Y0069455D01*
X0029321Y0069555D01*
X0029449Y0069651D01*
X0029580Y0069744D01*
X0029714Y0069834D01*
X0029849Y0069921D01*
X0029987Y0070004D01*
X0030126Y0070084D01*
X0030268Y0070160D01*
X0030411Y0070233D01*
X0030556Y0070302D01*
X0030703Y0070368D01*
X0030851Y0070430D01*
X0031001Y0070488D01*
X0031152Y0070543D01*
X0031305Y0070594D01*
X0031459Y0070641D01*
X0031614Y0070684D01*
X0031770Y0070723D01*
X0031926Y0070759D01*
X0032084Y0070790D01*
X0032242Y0070818D01*
X0032401Y0070842D01*
X0032561Y0070862D01*
X0032721Y0070878D01*
X0032881Y0070890D01*
X0033042Y0070898D01*
X0033203Y0070902D01*
X0033363Y0070902D01*
X0033524Y0070898D01*
X0033685Y0070890D01*
X0033845Y0070878D01*
X0034005Y0070862D01*
X0034165Y0070842D01*
X0034324Y0070818D01*
X0034482Y0070790D01*
X0034640Y0070759D01*
X0034796Y0070723D01*
X0034952Y0070684D01*
X0035107Y0070641D01*
X0035261Y0070594D01*
X0035414Y0070543D01*
X0035565Y0070488D01*
X0035715Y0070430D01*
X0035863Y0070368D01*
X0036010Y0070302D01*
X0036155Y0070233D01*
X0036298Y0070160D01*
X0036440Y0070084D01*
X0036579Y0070004D01*
X0036717Y0069921D01*
X0036852Y0069834D01*
X0036986Y0069744D01*
X0037117Y0069651D01*
X0037245Y0069555D01*
X0037371Y0069455D01*
X0037495Y0069352D01*
X0037616Y0069247D01*
X0037735Y0069138D01*
X0037851Y0069027D01*
X0037964Y0068912D01*
X0038074Y0068795D01*
X0038181Y0068675D01*
X0038285Y0068553D01*
X0038386Y0068428D01*
X0038484Y0068300D01*
X0038579Y0068170D01*
X0038671Y0068038D01*
X0038759Y0067904D01*
X0038844Y0067767D01*
X0038926Y0067629D01*
X0039004Y0067488D01*
X0039078Y0067346D01*
X0039149Y0067202D01*
X0039217Y0067056D01*
X0039280Y0066908D01*
X0039341Y0066759D01*
X0039397Y0066608D01*
X0039450Y0066456D01*
X0039499Y0066303D01*
X0039544Y0066149D01*
X0039585Y0065994D01*
X0039623Y0065837D01*
X0039656Y0065680D01*
X0039686Y0065522D01*
X0039712Y0065363D01*
X0039733Y0065204D01*
X0039751Y0065044D01*
X0039765Y0064884D01*
X0039775Y0064723D01*
X0039781Y0064563D01*
X0039783Y0064402D01*
X0039781Y0064241D01*
X0039775Y0064081D01*
X0039765Y0063920D01*
X0039751Y0063760D01*
X0039733Y0063600D01*
X0039712Y0063441D01*
X0039686Y0063282D01*
X0039656Y0063124D01*
X0039623Y0062967D01*
X0039585Y0062810D01*
X0039544Y0062655D01*
X0039499Y0062501D01*
X0039450Y0062348D01*
X0039397Y0062196D01*
X0039341Y0062045D01*
X0039280Y0061896D01*
X0039217Y0061748D01*
X0039149Y0061602D01*
X0039078Y0061458D01*
X0039004Y0061316D01*
X0038926Y0061175D01*
X0038844Y0061037D01*
X0038759Y0060900D01*
X0038671Y0060766D01*
X0038579Y0060634D01*
X0038484Y0060504D01*
X0038386Y0060376D01*
X0038285Y0060251D01*
X0038181Y0060129D01*
X0038074Y0060009D01*
X0037964Y0059892D01*
X0037851Y0059777D01*
X0037735Y0059666D01*
X0037616Y0059557D01*
X0037495Y0059452D01*
X0037371Y0059349D01*
X0037245Y0059249D01*
X0037117Y0059153D01*
X0036986Y0059060D01*
X0036852Y0058970D01*
X0036717Y0058883D01*
X0036579Y0058800D01*
X0036440Y0058720D01*
X0036298Y0058644D01*
X0036155Y0058571D01*
X0036010Y0058502D01*
X0035863Y0058436D01*
X0035715Y0058374D01*
X0035565Y0058316D01*
X0035414Y0058261D01*
X0035261Y0058210D01*
X0035107Y0058163D01*
X0034952Y0058120D01*
X0034796Y0058081D01*
X0034640Y0058045D01*
X0034482Y0058014D01*
X0034324Y0057986D01*
X0034165Y0057962D01*
X0034005Y0057942D01*
X0033845Y0057926D01*
X0033685Y0057914D01*
X0033524Y0057906D01*
X0033363Y0057902D01*
X0033203Y0057902D01*
X0033042Y0057906D01*
X0032881Y0057914D01*
X0032721Y0057926D01*
X0032561Y0057942D01*
X0032401Y0057962D01*
X0032242Y0057986D01*
X0032084Y0058014D01*
X0031926Y0058045D01*
X0031770Y0058081D01*
X0031614Y0058120D01*
X0031459Y0058163D01*
X0031305Y0058210D01*
X0031152Y0058261D01*
X0031001Y0058316D01*
X0030851Y0058374D01*
X0030703Y0058436D01*
X0030556Y0058502D01*
X0030411Y0058571D01*
X0030268Y0058644D01*
X0030126Y0058720D01*
X0029987Y0058800D01*
X0029849Y0058883D01*
X0029714Y0058970D01*
X0029580Y0059060D01*
X0029449Y0059153D01*
X0029321Y0059249D01*
X0029195Y0059349D01*
X0029071Y0059452D01*
X0028950Y0059557D01*
X0028831Y0059666D01*
X0028715Y0059777D01*
X0028602Y0059892D01*
X0028492Y0060009D01*
X0028385Y0060129D01*
X0028281Y0060251D01*
X0028180Y0060376D01*
X0028082Y0060504D01*
X0027987Y0060634D01*
X0027895Y0060766D01*
X0027807Y0060900D01*
X0027722Y0061037D01*
X0027640Y0061175D01*
X0027562Y0061316D01*
X0027488Y0061458D01*
X0027417Y0061602D01*
X0027349Y0061748D01*
X0027286Y0061896D01*
X0027225Y0062045D01*
X0027169Y0062196D01*
X0027116Y0062348D01*
X0027067Y0062501D01*
X0027022Y0062655D01*
X0026981Y0062810D01*
X0026943Y0062967D01*
X0026910Y0063124D01*
X0026880Y0063282D01*
X0026854Y0063441D01*
X0026833Y0063600D01*
X0026815Y0063760D01*
X0026801Y0063920D01*
X0026791Y0064081D01*
X0026785Y0064241D01*
X0026783Y0064402D01*
X0089740Y0133953D02*
X0089742Y0134094D01*
X0089748Y0134235D01*
X0089758Y0134375D01*
X0089772Y0134515D01*
X0089790Y0134655D01*
X0089811Y0134794D01*
X0089837Y0134933D01*
X0089866Y0135071D01*
X0089900Y0135207D01*
X0089937Y0135343D01*
X0089978Y0135478D01*
X0090023Y0135612D01*
X0090072Y0135744D01*
X0090124Y0135875D01*
X0090180Y0136004D01*
X0090240Y0136131D01*
X0090303Y0136257D01*
X0090369Y0136381D01*
X0090440Y0136504D01*
X0090513Y0136624D01*
X0090590Y0136742D01*
X0090670Y0136858D01*
X0090754Y0136971D01*
X0090840Y0137082D01*
X0090930Y0137191D01*
X0091023Y0137297D01*
X0091118Y0137400D01*
X0091217Y0137501D01*
X0091318Y0137599D01*
X0091422Y0137694D01*
X0091529Y0137786D01*
X0091638Y0137875D01*
X0091750Y0137960D01*
X0091864Y0138043D01*
X0091980Y0138123D01*
X0092099Y0138199D01*
X0092220Y0138271D01*
X0092342Y0138341D01*
X0092467Y0138406D01*
X0092593Y0138469D01*
X0092721Y0138527D01*
X0092851Y0138582D01*
X0092982Y0138634D01*
X0093115Y0138681D01*
X0093249Y0138725D01*
X0093384Y0138766D01*
X0093520Y0138802D01*
X0093657Y0138834D01*
X0093795Y0138863D01*
X0093933Y0138888D01*
X0094073Y0138908D01*
X0094213Y0138925D01*
X0094353Y0138938D01*
X0094494Y0138947D01*
X0094634Y0138952D01*
X0094775Y0138953D01*
X0094916Y0138950D01*
X0095057Y0138943D01*
X0095197Y0138932D01*
X0095337Y0138917D01*
X0095477Y0138898D01*
X0095616Y0138876D01*
X0095754Y0138849D01*
X0095892Y0138819D01*
X0096028Y0138784D01*
X0096164Y0138746D01*
X0096298Y0138704D01*
X0096432Y0138658D01*
X0096564Y0138609D01*
X0096694Y0138555D01*
X0096823Y0138498D01*
X0096950Y0138438D01*
X0097076Y0138374D01*
X0097199Y0138306D01*
X0097321Y0138235D01*
X0097441Y0138161D01*
X0097558Y0138083D01*
X0097673Y0138002D01*
X0097786Y0137918D01*
X0097897Y0137831D01*
X0098005Y0137740D01*
X0098110Y0137647D01*
X0098213Y0137550D01*
X0098313Y0137451D01*
X0098410Y0137349D01*
X0098504Y0137244D01*
X0098595Y0137137D01*
X0098683Y0137027D01*
X0098768Y0136915D01*
X0098850Y0136800D01*
X0098929Y0136683D01*
X0099004Y0136564D01*
X0099076Y0136443D01*
X0099144Y0136320D01*
X0099209Y0136195D01*
X0099271Y0136068D01*
X0099328Y0135939D01*
X0099383Y0135809D01*
X0099433Y0135678D01*
X0099480Y0135545D01*
X0099523Y0135411D01*
X0099562Y0135275D01*
X0099597Y0135139D01*
X0099629Y0135002D01*
X0099656Y0134864D01*
X0099680Y0134725D01*
X0099700Y0134585D01*
X0099716Y0134445D01*
X0099728Y0134305D01*
X0099736Y0134164D01*
X0099740Y0134023D01*
X0099740Y0133883D01*
X0099736Y0133742D01*
X0099728Y0133601D01*
X0099716Y0133461D01*
X0099700Y0133321D01*
X0099680Y0133181D01*
X0099656Y0133042D01*
X0099629Y0132904D01*
X0099597Y0132767D01*
X0099562Y0132631D01*
X0099523Y0132495D01*
X0099480Y0132361D01*
X0099433Y0132228D01*
X0099383Y0132097D01*
X0099328Y0131967D01*
X0099271Y0131838D01*
X0099209Y0131711D01*
X0099144Y0131586D01*
X0099076Y0131463D01*
X0099004Y0131342D01*
X0098929Y0131223D01*
X0098850Y0131106D01*
X0098768Y0130991D01*
X0098683Y0130879D01*
X0098595Y0130769D01*
X0098504Y0130662D01*
X0098410Y0130557D01*
X0098313Y0130455D01*
X0098213Y0130356D01*
X0098110Y0130259D01*
X0098005Y0130166D01*
X0097897Y0130075D01*
X0097786Y0129988D01*
X0097673Y0129904D01*
X0097558Y0129823D01*
X0097441Y0129745D01*
X0097321Y0129671D01*
X0097199Y0129600D01*
X0097076Y0129532D01*
X0096950Y0129468D01*
X0096823Y0129408D01*
X0096694Y0129351D01*
X0096564Y0129297D01*
X0096432Y0129248D01*
X0096298Y0129202D01*
X0096164Y0129160D01*
X0096028Y0129122D01*
X0095892Y0129087D01*
X0095754Y0129057D01*
X0095616Y0129030D01*
X0095477Y0129008D01*
X0095337Y0128989D01*
X0095197Y0128974D01*
X0095057Y0128963D01*
X0094916Y0128956D01*
X0094775Y0128953D01*
X0094634Y0128954D01*
X0094494Y0128959D01*
X0094353Y0128968D01*
X0094213Y0128981D01*
X0094073Y0128998D01*
X0093933Y0129018D01*
X0093795Y0129043D01*
X0093657Y0129072D01*
X0093520Y0129104D01*
X0093384Y0129140D01*
X0093249Y0129181D01*
X0093115Y0129225D01*
X0092982Y0129272D01*
X0092851Y0129324D01*
X0092721Y0129379D01*
X0092593Y0129437D01*
X0092467Y0129500D01*
X0092342Y0129565D01*
X0092220Y0129635D01*
X0092099Y0129707D01*
X0091980Y0129783D01*
X0091864Y0129863D01*
X0091750Y0129946D01*
X0091638Y0130031D01*
X0091529Y0130120D01*
X0091422Y0130212D01*
X0091318Y0130307D01*
X0091217Y0130405D01*
X0091118Y0130506D01*
X0091023Y0130609D01*
X0090930Y0130715D01*
X0090840Y0130824D01*
X0090754Y0130935D01*
X0090670Y0131048D01*
X0090590Y0131164D01*
X0090513Y0131282D01*
X0090440Y0131402D01*
X0090369Y0131525D01*
X0090303Y0131649D01*
X0090240Y0131775D01*
X0090180Y0131902D01*
X0090124Y0132031D01*
X0090072Y0132162D01*
X0090023Y0132294D01*
X0089978Y0132428D01*
X0089937Y0132563D01*
X0089900Y0132699D01*
X0089866Y0132835D01*
X0089837Y0132973D01*
X0089811Y0133112D01*
X0089790Y0133251D01*
X0089772Y0133391D01*
X0089758Y0133531D01*
X0089748Y0133671D01*
X0089742Y0133812D01*
X0089740Y0133953D01*
X0089740Y0193953D02*
X0089742Y0194094D01*
X0089748Y0194235D01*
X0089758Y0194375D01*
X0089772Y0194515D01*
X0089790Y0194655D01*
X0089811Y0194794D01*
X0089837Y0194933D01*
X0089866Y0195071D01*
X0089900Y0195207D01*
X0089937Y0195343D01*
X0089978Y0195478D01*
X0090023Y0195612D01*
X0090072Y0195744D01*
X0090124Y0195875D01*
X0090180Y0196004D01*
X0090240Y0196131D01*
X0090303Y0196257D01*
X0090369Y0196381D01*
X0090440Y0196504D01*
X0090513Y0196624D01*
X0090590Y0196742D01*
X0090670Y0196858D01*
X0090754Y0196971D01*
X0090840Y0197082D01*
X0090930Y0197191D01*
X0091023Y0197297D01*
X0091118Y0197400D01*
X0091217Y0197501D01*
X0091318Y0197599D01*
X0091422Y0197694D01*
X0091529Y0197786D01*
X0091638Y0197875D01*
X0091750Y0197960D01*
X0091864Y0198043D01*
X0091980Y0198123D01*
X0092099Y0198199D01*
X0092220Y0198271D01*
X0092342Y0198341D01*
X0092467Y0198406D01*
X0092593Y0198469D01*
X0092721Y0198527D01*
X0092851Y0198582D01*
X0092982Y0198634D01*
X0093115Y0198681D01*
X0093249Y0198725D01*
X0093384Y0198766D01*
X0093520Y0198802D01*
X0093657Y0198834D01*
X0093795Y0198863D01*
X0093933Y0198888D01*
X0094073Y0198908D01*
X0094213Y0198925D01*
X0094353Y0198938D01*
X0094494Y0198947D01*
X0094634Y0198952D01*
X0094775Y0198953D01*
X0094916Y0198950D01*
X0095057Y0198943D01*
X0095197Y0198932D01*
X0095337Y0198917D01*
X0095477Y0198898D01*
X0095616Y0198876D01*
X0095754Y0198849D01*
X0095892Y0198819D01*
X0096028Y0198784D01*
X0096164Y0198746D01*
X0096298Y0198704D01*
X0096432Y0198658D01*
X0096564Y0198609D01*
X0096694Y0198555D01*
X0096823Y0198498D01*
X0096950Y0198438D01*
X0097076Y0198374D01*
X0097199Y0198306D01*
X0097321Y0198235D01*
X0097441Y0198161D01*
X0097558Y0198083D01*
X0097673Y0198002D01*
X0097786Y0197918D01*
X0097897Y0197831D01*
X0098005Y0197740D01*
X0098110Y0197647D01*
X0098213Y0197550D01*
X0098313Y0197451D01*
X0098410Y0197349D01*
X0098504Y0197244D01*
X0098595Y0197137D01*
X0098683Y0197027D01*
X0098768Y0196915D01*
X0098850Y0196800D01*
X0098929Y0196683D01*
X0099004Y0196564D01*
X0099076Y0196443D01*
X0099144Y0196320D01*
X0099209Y0196195D01*
X0099271Y0196068D01*
X0099328Y0195939D01*
X0099383Y0195809D01*
X0099433Y0195678D01*
X0099480Y0195545D01*
X0099523Y0195411D01*
X0099562Y0195275D01*
X0099597Y0195139D01*
X0099629Y0195002D01*
X0099656Y0194864D01*
X0099680Y0194725D01*
X0099700Y0194585D01*
X0099716Y0194445D01*
X0099728Y0194305D01*
X0099736Y0194164D01*
X0099740Y0194023D01*
X0099740Y0193883D01*
X0099736Y0193742D01*
X0099728Y0193601D01*
X0099716Y0193461D01*
X0099700Y0193321D01*
X0099680Y0193181D01*
X0099656Y0193042D01*
X0099629Y0192904D01*
X0099597Y0192767D01*
X0099562Y0192631D01*
X0099523Y0192495D01*
X0099480Y0192361D01*
X0099433Y0192228D01*
X0099383Y0192097D01*
X0099328Y0191967D01*
X0099271Y0191838D01*
X0099209Y0191711D01*
X0099144Y0191586D01*
X0099076Y0191463D01*
X0099004Y0191342D01*
X0098929Y0191223D01*
X0098850Y0191106D01*
X0098768Y0190991D01*
X0098683Y0190879D01*
X0098595Y0190769D01*
X0098504Y0190662D01*
X0098410Y0190557D01*
X0098313Y0190455D01*
X0098213Y0190356D01*
X0098110Y0190259D01*
X0098005Y0190166D01*
X0097897Y0190075D01*
X0097786Y0189988D01*
X0097673Y0189904D01*
X0097558Y0189823D01*
X0097441Y0189745D01*
X0097321Y0189671D01*
X0097199Y0189600D01*
X0097076Y0189532D01*
X0096950Y0189468D01*
X0096823Y0189408D01*
X0096694Y0189351D01*
X0096564Y0189297D01*
X0096432Y0189248D01*
X0096298Y0189202D01*
X0096164Y0189160D01*
X0096028Y0189122D01*
X0095892Y0189087D01*
X0095754Y0189057D01*
X0095616Y0189030D01*
X0095477Y0189008D01*
X0095337Y0188989D01*
X0095197Y0188974D01*
X0095057Y0188963D01*
X0094916Y0188956D01*
X0094775Y0188953D01*
X0094634Y0188954D01*
X0094494Y0188959D01*
X0094353Y0188968D01*
X0094213Y0188981D01*
X0094073Y0188998D01*
X0093933Y0189018D01*
X0093795Y0189043D01*
X0093657Y0189072D01*
X0093520Y0189104D01*
X0093384Y0189140D01*
X0093249Y0189181D01*
X0093115Y0189225D01*
X0092982Y0189272D01*
X0092851Y0189324D01*
X0092721Y0189379D01*
X0092593Y0189437D01*
X0092467Y0189500D01*
X0092342Y0189565D01*
X0092220Y0189635D01*
X0092099Y0189707D01*
X0091980Y0189783D01*
X0091864Y0189863D01*
X0091750Y0189946D01*
X0091638Y0190031D01*
X0091529Y0190120D01*
X0091422Y0190212D01*
X0091318Y0190307D01*
X0091217Y0190405D01*
X0091118Y0190506D01*
X0091023Y0190609D01*
X0090930Y0190715D01*
X0090840Y0190824D01*
X0090754Y0190935D01*
X0090670Y0191048D01*
X0090590Y0191164D01*
X0090513Y0191282D01*
X0090440Y0191402D01*
X0090369Y0191525D01*
X0090303Y0191649D01*
X0090240Y0191775D01*
X0090180Y0191902D01*
X0090124Y0192031D01*
X0090072Y0192162D01*
X0090023Y0192294D01*
X0089978Y0192428D01*
X0089937Y0192563D01*
X0089900Y0192699D01*
X0089866Y0192835D01*
X0089837Y0192973D01*
X0089811Y0193112D01*
X0089790Y0193251D01*
X0089772Y0193391D01*
X0089758Y0193531D01*
X0089748Y0193671D01*
X0089742Y0193812D01*
X0089740Y0193953D01*
X0064858Y0201394D02*
X0064860Y0201535D01*
X0064866Y0201676D01*
X0064876Y0201816D01*
X0064890Y0201956D01*
X0064908Y0202096D01*
X0064929Y0202235D01*
X0064955Y0202374D01*
X0064984Y0202512D01*
X0065018Y0202648D01*
X0065055Y0202784D01*
X0065096Y0202919D01*
X0065141Y0203053D01*
X0065190Y0203185D01*
X0065242Y0203316D01*
X0065298Y0203445D01*
X0065358Y0203572D01*
X0065421Y0203698D01*
X0065487Y0203822D01*
X0065558Y0203945D01*
X0065631Y0204065D01*
X0065708Y0204183D01*
X0065788Y0204299D01*
X0065872Y0204412D01*
X0065958Y0204523D01*
X0066048Y0204632D01*
X0066141Y0204738D01*
X0066236Y0204841D01*
X0066335Y0204942D01*
X0066436Y0205040D01*
X0066540Y0205135D01*
X0066647Y0205227D01*
X0066756Y0205316D01*
X0066868Y0205401D01*
X0066982Y0205484D01*
X0067098Y0205564D01*
X0067217Y0205640D01*
X0067338Y0205712D01*
X0067460Y0205782D01*
X0067585Y0205847D01*
X0067711Y0205910D01*
X0067839Y0205968D01*
X0067969Y0206023D01*
X0068100Y0206075D01*
X0068233Y0206122D01*
X0068367Y0206166D01*
X0068502Y0206207D01*
X0068638Y0206243D01*
X0068775Y0206275D01*
X0068913Y0206304D01*
X0069051Y0206329D01*
X0069191Y0206349D01*
X0069331Y0206366D01*
X0069471Y0206379D01*
X0069612Y0206388D01*
X0069752Y0206393D01*
X0069893Y0206394D01*
X0070034Y0206391D01*
X0070175Y0206384D01*
X0070315Y0206373D01*
X0070455Y0206358D01*
X0070595Y0206339D01*
X0070734Y0206317D01*
X0070872Y0206290D01*
X0071010Y0206260D01*
X0071146Y0206225D01*
X0071282Y0206187D01*
X0071416Y0206145D01*
X0071550Y0206099D01*
X0071682Y0206050D01*
X0071812Y0205996D01*
X0071941Y0205939D01*
X0072068Y0205879D01*
X0072194Y0205815D01*
X0072317Y0205747D01*
X0072439Y0205676D01*
X0072559Y0205602D01*
X0072676Y0205524D01*
X0072791Y0205443D01*
X0072904Y0205359D01*
X0073015Y0205272D01*
X0073123Y0205181D01*
X0073228Y0205088D01*
X0073331Y0204991D01*
X0073431Y0204892D01*
X0073528Y0204790D01*
X0073622Y0204685D01*
X0073713Y0204578D01*
X0073801Y0204468D01*
X0073886Y0204356D01*
X0073968Y0204241D01*
X0074047Y0204124D01*
X0074122Y0204005D01*
X0074194Y0203884D01*
X0074262Y0203761D01*
X0074327Y0203636D01*
X0074389Y0203509D01*
X0074446Y0203380D01*
X0074501Y0203250D01*
X0074551Y0203119D01*
X0074598Y0202986D01*
X0074641Y0202852D01*
X0074680Y0202716D01*
X0074715Y0202580D01*
X0074747Y0202443D01*
X0074774Y0202305D01*
X0074798Y0202166D01*
X0074818Y0202026D01*
X0074834Y0201886D01*
X0074846Y0201746D01*
X0074854Y0201605D01*
X0074858Y0201464D01*
X0074858Y0201324D01*
X0074854Y0201183D01*
X0074846Y0201042D01*
X0074834Y0200902D01*
X0074818Y0200762D01*
X0074798Y0200622D01*
X0074774Y0200483D01*
X0074747Y0200345D01*
X0074715Y0200208D01*
X0074680Y0200072D01*
X0074641Y0199936D01*
X0074598Y0199802D01*
X0074551Y0199669D01*
X0074501Y0199538D01*
X0074446Y0199408D01*
X0074389Y0199279D01*
X0074327Y0199152D01*
X0074262Y0199027D01*
X0074194Y0198904D01*
X0074122Y0198783D01*
X0074047Y0198664D01*
X0073968Y0198547D01*
X0073886Y0198432D01*
X0073801Y0198320D01*
X0073713Y0198210D01*
X0073622Y0198103D01*
X0073528Y0197998D01*
X0073431Y0197896D01*
X0073331Y0197797D01*
X0073228Y0197700D01*
X0073123Y0197607D01*
X0073015Y0197516D01*
X0072904Y0197429D01*
X0072791Y0197345D01*
X0072676Y0197264D01*
X0072559Y0197186D01*
X0072439Y0197112D01*
X0072317Y0197041D01*
X0072194Y0196973D01*
X0072068Y0196909D01*
X0071941Y0196849D01*
X0071812Y0196792D01*
X0071682Y0196738D01*
X0071550Y0196689D01*
X0071416Y0196643D01*
X0071282Y0196601D01*
X0071146Y0196563D01*
X0071010Y0196528D01*
X0070872Y0196498D01*
X0070734Y0196471D01*
X0070595Y0196449D01*
X0070455Y0196430D01*
X0070315Y0196415D01*
X0070175Y0196404D01*
X0070034Y0196397D01*
X0069893Y0196394D01*
X0069752Y0196395D01*
X0069612Y0196400D01*
X0069471Y0196409D01*
X0069331Y0196422D01*
X0069191Y0196439D01*
X0069051Y0196459D01*
X0068913Y0196484D01*
X0068775Y0196513D01*
X0068638Y0196545D01*
X0068502Y0196581D01*
X0068367Y0196622D01*
X0068233Y0196666D01*
X0068100Y0196713D01*
X0067969Y0196765D01*
X0067839Y0196820D01*
X0067711Y0196878D01*
X0067585Y0196941D01*
X0067460Y0197006D01*
X0067338Y0197076D01*
X0067217Y0197148D01*
X0067098Y0197224D01*
X0066982Y0197304D01*
X0066868Y0197387D01*
X0066756Y0197472D01*
X0066647Y0197561D01*
X0066540Y0197653D01*
X0066436Y0197748D01*
X0066335Y0197846D01*
X0066236Y0197947D01*
X0066141Y0198050D01*
X0066048Y0198156D01*
X0065958Y0198265D01*
X0065872Y0198376D01*
X0065788Y0198489D01*
X0065708Y0198605D01*
X0065631Y0198723D01*
X0065558Y0198843D01*
X0065487Y0198966D01*
X0065421Y0199090D01*
X0065358Y0199216D01*
X0065298Y0199343D01*
X0065242Y0199472D01*
X0065190Y0199603D01*
X0065141Y0199735D01*
X0065096Y0199869D01*
X0065055Y0200004D01*
X0065018Y0200140D01*
X0064984Y0200276D01*
X0064955Y0200414D01*
X0064929Y0200553D01*
X0064908Y0200692D01*
X0064890Y0200832D01*
X0064876Y0200972D01*
X0064866Y0201112D01*
X0064860Y0201253D01*
X0064858Y0201394D01*
X0091197Y0219543D02*
X0091199Y0219684D01*
X0091205Y0219825D01*
X0091215Y0219965D01*
X0091229Y0220105D01*
X0091247Y0220245D01*
X0091268Y0220384D01*
X0091294Y0220523D01*
X0091323Y0220661D01*
X0091357Y0220797D01*
X0091394Y0220933D01*
X0091435Y0221068D01*
X0091480Y0221202D01*
X0091529Y0221334D01*
X0091581Y0221465D01*
X0091637Y0221594D01*
X0091697Y0221721D01*
X0091760Y0221847D01*
X0091826Y0221971D01*
X0091897Y0222094D01*
X0091970Y0222214D01*
X0092047Y0222332D01*
X0092127Y0222448D01*
X0092211Y0222561D01*
X0092297Y0222672D01*
X0092387Y0222781D01*
X0092480Y0222887D01*
X0092575Y0222990D01*
X0092674Y0223091D01*
X0092775Y0223189D01*
X0092879Y0223284D01*
X0092986Y0223376D01*
X0093095Y0223465D01*
X0093207Y0223550D01*
X0093321Y0223633D01*
X0093437Y0223713D01*
X0093556Y0223789D01*
X0093677Y0223861D01*
X0093799Y0223931D01*
X0093924Y0223996D01*
X0094050Y0224059D01*
X0094178Y0224117D01*
X0094308Y0224172D01*
X0094439Y0224224D01*
X0094572Y0224271D01*
X0094706Y0224315D01*
X0094841Y0224356D01*
X0094977Y0224392D01*
X0095114Y0224424D01*
X0095252Y0224453D01*
X0095390Y0224478D01*
X0095530Y0224498D01*
X0095670Y0224515D01*
X0095810Y0224528D01*
X0095951Y0224537D01*
X0096091Y0224542D01*
X0096232Y0224543D01*
X0096373Y0224540D01*
X0096514Y0224533D01*
X0096654Y0224522D01*
X0096794Y0224507D01*
X0096934Y0224488D01*
X0097073Y0224466D01*
X0097211Y0224439D01*
X0097349Y0224409D01*
X0097485Y0224374D01*
X0097621Y0224336D01*
X0097755Y0224294D01*
X0097889Y0224248D01*
X0098021Y0224199D01*
X0098151Y0224145D01*
X0098280Y0224088D01*
X0098407Y0224028D01*
X0098533Y0223964D01*
X0098656Y0223896D01*
X0098778Y0223825D01*
X0098898Y0223751D01*
X0099015Y0223673D01*
X0099130Y0223592D01*
X0099243Y0223508D01*
X0099354Y0223421D01*
X0099462Y0223330D01*
X0099567Y0223237D01*
X0099670Y0223140D01*
X0099770Y0223041D01*
X0099867Y0222939D01*
X0099961Y0222834D01*
X0100052Y0222727D01*
X0100140Y0222617D01*
X0100225Y0222505D01*
X0100307Y0222390D01*
X0100386Y0222273D01*
X0100461Y0222154D01*
X0100533Y0222033D01*
X0100601Y0221910D01*
X0100666Y0221785D01*
X0100728Y0221658D01*
X0100785Y0221529D01*
X0100840Y0221399D01*
X0100890Y0221268D01*
X0100937Y0221135D01*
X0100980Y0221001D01*
X0101019Y0220865D01*
X0101054Y0220729D01*
X0101086Y0220592D01*
X0101113Y0220454D01*
X0101137Y0220315D01*
X0101157Y0220175D01*
X0101173Y0220035D01*
X0101185Y0219895D01*
X0101193Y0219754D01*
X0101197Y0219613D01*
X0101197Y0219473D01*
X0101193Y0219332D01*
X0101185Y0219191D01*
X0101173Y0219051D01*
X0101157Y0218911D01*
X0101137Y0218771D01*
X0101113Y0218632D01*
X0101086Y0218494D01*
X0101054Y0218357D01*
X0101019Y0218221D01*
X0100980Y0218085D01*
X0100937Y0217951D01*
X0100890Y0217818D01*
X0100840Y0217687D01*
X0100785Y0217557D01*
X0100728Y0217428D01*
X0100666Y0217301D01*
X0100601Y0217176D01*
X0100533Y0217053D01*
X0100461Y0216932D01*
X0100386Y0216813D01*
X0100307Y0216696D01*
X0100225Y0216581D01*
X0100140Y0216469D01*
X0100052Y0216359D01*
X0099961Y0216252D01*
X0099867Y0216147D01*
X0099770Y0216045D01*
X0099670Y0215946D01*
X0099567Y0215849D01*
X0099462Y0215756D01*
X0099354Y0215665D01*
X0099243Y0215578D01*
X0099130Y0215494D01*
X0099015Y0215413D01*
X0098898Y0215335D01*
X0098778Y0215261D01*
X0098656Y0215190D01*
X0098533Y0215122D01*
X0098407Y0215058D01*
X0098280Y0214998D01*
X0098151Y0214941D01*
X0098021Y0214887D01*
X0097889Y0214838D01*
X0097755Y0214792D01*
X0097621Y0214750D01*
X0097485Y0214712D01*
X0097349Y0214677D01*
X0097211Y0214647D01*
X0097073Y0214620D01*
X0096934Y0214598D01*
X0096794Y0214579D01*
X0096654Y0214564D01*
X0096514Y0214553D01*
X0096373Y0214546D01*
X0096232Y0214543D01*
X0096091Y0214544D01*
X0095951Y0214549D01*
X0095810Y0214558D01*
X0095670Y0214571D01*
X0095530Y0214588D01*
X0095390Y0214608D01*
X0095252Y0214633D01*
X0095114Y0214662D01*
X0094977Y0214694D01*
X0094841Y0214730D01*
X0094706Y0214771D01*
X0094572Y0214815D01*
X0094439Y0214862D01*
X0094308Y0214914D01*
X0094178Y0214969D01*
X0094050Y0215027D01*
X0093924Y0215090D01*
X0093799Y0215155D01*
X0093677Y0215225D01*
X0093556Y0215297D01*
X0093437Y0215373D01*
X0093321Y0215453D01*
X0093207Y0215536D01*
X0093095Y0215621D01*
X0092986Y0215710D01*
X0092879Y0215802D01*
X0092775Y0215897D01*
X0092674Y0215995D01*
X0092575Y0216096D01*
X0092480Y0216199D01*
X0092387Y0216305D01*
X0092297Y0216414D01*
X0092211Y0216525D01*
X0092127Y0216638D01*
X0092047Y0216754D01*
X0091970Y0216872D01*
X0091897Y0216992D01*
X0091826Y0217115D01*
X0091760Y0217239D01*
X0091697Y0217365D01*
X0091637Y0217492D01*
X0091581Y0217621D01*
X0091529Y0217752D01*
X0091480Y0217884D01*
X0091435Y0218018D01*
X0091394Y0218153D01*
X0091357Y0218289D01*
X0091323Y0218425D01*
X0091294Y0218563D01*
X0091268Y0218702D01*
X0091247Y0218841D01*
X0091229Y0218981D01*
X0091215Y0219121D01*
X0091205Y0219261D01*
X0091199Y0219402D01*
X0091197Y0219543D01*
X0091197Y0279543D02*
X0091199Y0279684D01*
X0091205Y0279825D01*
X0091215Y0279965D01*
X0091229Y0280105D01*
X0091247Y0280245D01*
X0091268Y0280384D01*
X0091294Y0280523D01*
X0091323Y0280661D01*
X0091357Y0280797D01*
X0091394Y0280933D01*
X0091435Y0281068D01*
X0091480Y0281202D01*
X0091529Y0281334D01*
X0091581Y0281465D01*
X0091637Y0281594D01*
X0091697Y0281721D01*
X0091760Y0281847D01*
X0091826Y0281971D01*
X0091897Y0282094D01*
X0091970Y0282214D01*
X0092047Y0282332D01*
X0092127Y0282448D01*
X0092211Y0282561D01*
X0092297Y0282672D01*
X0092387Y0282781D01*
X0092480Y0282887D01*
X0092575Y0282990D01*
X0092674Y0283091D01*
X0092775Y0283189D01*
X0092879Y0283284D01*
X0092986Y0283376D01*
X0093095Y0283465D01*
X0093207Y0283550D01*
X0093321Y0283633D01*
X0093437Y0283713D01*
X0093556Y0283789D01*
X0093677Y0283861D01*
X0093799Y0283931D01*
X0093924Y0283996D01*
X0094050Y0284059D01*
X0094178Y0284117D01*
X0094308Y0284172D01*
X0094439Y0284224D01*
X0094572Y0284271D01*
X0094706Y0284315D01*
X0094841Y0284356D01*
X0094977Y0284392D01*
X0095114Y0284424D01*
X0095252Y0284453D01*
X0095390Y0284478D01*
X0095530Y0284498D01*
X0095670Y0284515D01*
X0095810Y0284528D01*
X0095951Y0284537D01*
X0096091Y0284542D01*
X0096232Y0284543D01*
X0096373Y0284540D01*
X0096514Y0284533D01*
X0096654Y0284522D01*
X0096794Y0284507D01*
X0096934Y0284488D01*
X0097073Y0284466D01*
X0097211Y0284439D01*
X0097349Y0284409D01*
X0097485Y0284374D01*
X0097621Y0284336D01*
X0097755Y0284294D01*
X0097889Y0284248D01*
X0098021Y0284199D01*
X0098151Y0284145D01*
X0098280Y0284088D01*
X0098407Y0284028D01*
X0098533Y0283964D01*
X0098656Y0283896D01*
X0098778Y0283825D01*
X0098898Y0283751D01*
X0099015Y0283673D01*
X0099130Y0283592D01*
X0099243Y0283508D01*
X0099354Y0283421D01*
X0099462Y0283330D01*
X0099567Y0283237D01*
X0099670Y0283140D01*
X0099770Y0283041D01*
X0099867Y0282939D01*
X0099961Y0282834D01*
X0100052Y0282727D01*
X0100140Y0282617D01*
X0100225Y0282505D01*
X0100307Y0282390D01*
X0100386Y0282273D01*
X0100461Y0282154D01*
X0100533Y0282033D01*
X0100601Y0281910D01*
X0100666Y0281785D01*
X0100728Y0281658D01*
X0100785Y0281529D01*
X0100840Y0281399D01*
X0100890Y0281268D01*
X0100937Y0281135D01*
X0100980Y0281001D01*
X0101019Y0280865D01*
X0101054Y0280729D01*
X0101086Y0280592D01*
X0101113Y0280454D01*
X0101137Y0280315D01*
X0101157Y0280175D01*
X0101173Y0280035D01*
X0101185Y0279895D01*
X0101193Y0279754D01*
X0101197Y0279613D01*
X0101197Y0279473D01*
X0101193Y0279332D01*
X0101185Y0279191D01*
X0101173Y0279051D01*
X0101157Y0278911D01*
X0101137Y0278771D01*
X0101113Y0278632D01*
X0101086Y0278494D01*
X0101054Y0278357D01*
X0101019Y0278221D01*
X0100980Y0278085D01*
X0100937Y0277951D01*
X0100890Y0277818D01*
X0100840Y0277687D01*
X0100785Y0277557D01*
X0100728Y0277428D01*
X0100666Y0277301D01*
X0100601Y0277176D01*
X0100533Y0277053D01*
X0100461Y0276932D01*
X0100386Y0276813D01*
X0100307Y0276696D01*
X0100225Y0276581D01*
X0100140Y0276469D01*
X0100052Y0276359D01*
X0099961Y0276252D01*
X0099867Y0276147D01*
X0099770Y0276045D01*
X0099670Y0275946D01*
X0099567Y0275849D01*
X0099462Y0275756D01*
X0099354Y0275665D01*
X0099243Y0275578D01*
X0099130Y0275494D01*
X0099015Y0275413D01*
X0098898Y0275335D01*
X0098778Y0275261D01*
X0098656Y0275190D01*
X0098533Y0275122D01*
X0098407Y0275058D01*
X0098280Y0274998D01*
X0098151Y0274941D01*
X0098021Y0274887D01*
X0097889Y0274838D01*
X0097755Y0274792D01*
X0097621Y0274750D01*
X0097485Y0274712D01*
X0097349Y0274677D01*
X0097211Y0274647D01*
X0097073Y0274620D01*
X0096934Y0274598D01*
X0096794Y0274579D01*
X0096654Y0274564D01*
X0096514Y0274553D01*
X0096373Y0274546D01*
X0096232Y0274543D01*
X0096091Y0274544D01*
X0095951Y0274549D01*
X0095810Y0274558D01*
X0095670Y0274571D01*
X0095530Y0274588D01*
X0095390Y0274608D01*
X0095252Y0274633D01*
X0095114Y0274662D01*
X0094977Y0274694D01*
X0094841Y0274730D01*
X0094706Y0274771D01*
X0094572Y0274815D01*
X0094439Y0274862D01*
X0094308Y0274914D01*
X0094178Y0274969D01*
X0094050Y0275027D01*
X0093924Y0275090D01*
X0093799Y0275155D01*
X0093677Y0275225D01*
X0093556Y0275297D01*
X0093437Y0275373D01*
X0093321Y0275453D01*
X0093207Y0275536D01*
X0093095Y0275621D01*
X0092986Y0275710D01*
X0092879Y0275802D01*
X0092775Y0275897D01*
X0092674Y0275995D01*
X0092575Y0276096D01*
X0092480Y0276199D01*
X0092387Y0276305D01*
X0092297Y0276414D01*
X0092211Y0276525D01*
X0092127Y0276638D01*
X0092047Y0276754D01*
X0091970Y0276872D01*
X0091897Y0276992D01*
X0091826Y0277115D01*
X0091760Y0277239D01*
X0091697Y0277365D01*
X0091637Y0277492D01*
X0091581Y0277621D01*
X0091529Y0277752D01*
X0091480Y0277884D01*
X0091435Y0278018D01*
X0091394Y0278153D01*
X0091357Y0278289D01*
X0091323Y0278425D01*
X0091294Y0278563D01*
X0091268Y0278702D01*
X0091247Y0278841D01*
X0091229Y0278981D01*
X0091215Y0279121D01*
X0091205Y0279261D01*
X0091199Y0279402D01*
X0091197Y0279543D01*
X0068453Y0280882D02*
X0068455Y0281030D01*
X0068461Y0281178D01*
X0068471Y0281326D01*
X0068485Y0281474D01*
X0068503Y0281621D01*
X0068525Y0281768D01*
X0068551Y0281914D01*
X0068580Y0282059D01*
X0068614Y0282204D01*
X0068652Y0282347D01*
X0068693Y0282490D01*
X0068738Y0282631D01*
X0068788Y0282771D01*
X0068840Y0282909D01*
X0068897Y0283047D01*
X0068957Y0283182D01*
X0069021Y0283316D01*
X0069088Y0283448D01*
X0069159Y0283578D01*
X0069234Y0283707D01*
X0069312Y0283833D01*
X0069393Y0283957D01*
X0069477Y0284079D01*
X0069565Y0284198D01*
X0069656Y0284315D01*
X0069750Y0284430D01*
X0069848Y0284542D01*
X0069948Y0284651D01*
X0070051Y0284758D01*
X0070157Y0284862D01*
X0070265Y0284963D01*
X0070377Y0285061D01*
X0070491Y0285156D01*
X0070607Y0285247D01*
X0070726Y0285336D01*
X0070847Y0285421D01*
X0070971Y0285503D01*
X0071097Y0285582D01*
X0071224Y0285657D01*
X0071354Y0285729D01*
X0071486Y0285798D01*
X0071619Y0285862D01*
X0071754Y0285923D01*
X0071891Y0285981D01*
X0072029Y0286035D01*
X0072169Y0286085D01*
X0072310Y0286131D01*
X0072452Y0286173D01*
X0072595Y0286212D01*
X0072739Y0286246D01*
X0072885Y0286277D01*
X0073030Y0286304D01*
X0073177Y0286327D01*
X0073324Y0286346D01*
X0073472Y0286361D01*
X0073619Y0286372D01*
X0073768Y0286379D01*
X0073916Y0286382D01*
X0074064Y0286381D01*
X0074212Y0286376D01*
X0074360Y0286367D01*
X0074508Y0286354D01*
X0074656Y0286337D01*
X0074802Y0286316D01*
X0074949Y0286291D01*
X0075094Y0286262D01*
X0075239Y0286230D01*
X0075382Y0286193D01*
X0075525Y0286153D01*
X0075667Y0286108D01*
X0075807Y0286060D01*
X0075946Y0286008D01*
X0076083Y0285953D01*
X0076219Y0285893D01*
X0076354Y0285830D01*
X0076486Y0285764D01*
X0076617Y0285694D01*
X0076746Y0285620D01*
X0076872Y0285543D01*
X0076997Y0285463D01*
X0077119Y0285379D01*
X0077240Y0285292D01*
X0077357Y0285202D01*
X0077473Y0285108D01*
X0077585Y0285012D01*
X0077695Y0284913D01*
X0077803Y0284810D01*
X0077907Y0284705D01*
X0078009Y0284597D01*
X0078107Y0284486D01*
X0078203Y0284373D01*
X0078296Y0284257D01*
X0078385Y0284139D01*
X0078471Y0284018D01*
X0078554Y0283895D01*
X0078634Y0283770D01*
X0078710Y0283643D01*
X0078783Y0283513D01*
X0078852Y0283382D01*
X0078917Y0283249D01*
X0078980Y0283115D01*
X0079038Y0282978D01*
X0079093Y0282840D01*
X0079143Y0282701D01*
X0079191Y0282560D01*
X0079234Y0282419D01*
X0079274Y0282276D01*
X0079309Y0282132D01*
X0079341Y0281987D01*
X0079369Y0281841D01*
X0079393Y0281695D01*
X0079413Y0281548D01*
X0079429Y0281400D01*
X0079441Y0281253D01*
X0079449Y0281104D01*
X0079453Y0280956D01*
X0079453Y0280808D01*
X0079449Y0280660D01*
X0079441Y0280511D01*
X0079429Y0280364D01*
X0079413Y0280216D01*
X0079393Y0280069D01*
X0079369Y0279923D01*
X0079341Y0279777D01*
X0079309Y0279632D01*
X0079274Y0279488D01*
X0079234Y0279345D01*
X0079191Y0279204D01*
X0079143Y0279063D01*
X0079093Y0278924D01*
X0079038Y0278786D01*
X0078980Y0278649D01*
X0078917Y0278515D01*
X0078852Y0278382D01*
X0078783Y0278251D01*
X0078710Y0278121D01*
X0078634Y0277994D01*
X0078554Y0277869D01*
X0078471Y0277746D01*
X0078385Y0277625D01*
X0078296Y0277507D01*
X0078203Y0277391D01*
X0078107Y0277278D01*
X0078009Y0277167D01*
X0077907Y0277059D01*
X0077803Y0276954D01*
X0077695Y0276851D01*
X0077585Y0276752D01*
X0077473Y0276656D01*
X0077357Y0276562D01*
X0077240Y0276472D01*
X0077119Y0276385D01*
X0076997Y0276301D01*
X0076872Y0276221D01*
X0076746Y0276144D01*
X0076617Y0276070D01*
X0076486Y0276000D01*
X0076354Y0275934D01*
X0076219Y0275871D01*
X0076083Y0275811D01*
X0075946Y0275756D01*
X0075807Y0275704D01*
X0075667Y0275656D01*
X0075525Y0275611D01*
X0075382Y0275571D01*
X0075239Y0275534D01*
X0075094Y0275502D01*
X0074949Y0275473D01*
X0074802Y0275448D01*
X0074656Y0275427D01*
X0074508Y0275410D01*
X0074360Y0275397D01*
X0074212Y0275388D01*
X0074064Y0275383D01*
X0073916Y0275382D01*
X0073768Y0275385D01*
X0073619Y0275392D01*
X0073472Y0275403D01*
X0073324Y0275418D01*
X0073177Y0275437D01*
X0073030Y0275460D01*
X0072885Y0275487D01*
X0072739Y0275518D01*
X0072595Y0275552D01*
X0072452Y0275591D01*
X0072310Y0275633D01*
X0072169Y0275679D01*
X0072029Y0275729D01*
X0071891Y0275783D01*
X0071754Y0275841D01*
X0071619Y0275902D01*
X0071486Y0275966D01*
X0071354Y0276035D01*
X0071224Y0276107D01*
X0071097Y0276182D01*
X0070971Y0276261D01*
X0070847Y0276343D01*
X0070726Y0276428D01*
X0070607Y0276517D01*
X0070491Y0276608D01*
X0070377Y0276703D01*
X0070265Y0276801D01*
X0070157Y0276902D01*
X0070051Y0277006D01*
X0069948Y0277113D01*
X0069848Y0277222D01*
X0069750Y0277334D01*
X0069656Y0277449D01*
X0069565Y0277566D01*
X0069477Y0277685D01*
X0069393Y0277807D01*
X0069312Y0277931D01*
X0069234Y0278057D01*
X0069159Y0278186D01*
X0069088Y0278316D01*
X0069021Y0278448D01*
X0068957Y0278582D01*
X0068897Y0278717D01*
X0068840Y0278855D01*
X0068788Y0278993D01*
X0068738Y0279133D01*
X0068693Y0279274D01*
X0068652Y0279417D01*
X0068614Y0279560D01*
X0068580Y0279705D01*
X0068551Y0279850D01*
X0068525Y0279996D01*
X0068503Y0280143D01*
X0068485Y0280290D01*
X0068471Y0280438D01*
X0068461Y0280586D01*
X0068455Y0280734D01*
X0068453Y0280882D01*
X0028453Y0280882D02*
X0028455Y0281030D01*
X0028461Y0281178D01*
X0028471Y0281326D01*
X0028485Y0281474D01*
X0028503Y0281621D01*
X0028525Y0281768D01*
X0028551Y0281914D01*
X0028580Y0282059D01*
X0028614Y0282204D01*
X0028652Y0282347D01*
X0028693Y0282490D01*
X0028738Y0282631D01*
X0028788Y0282771D01*
X0028840Y0282909D01*
X0028897Y0283047D01*
X0028957Y0283182D01*
X0029021Y0283316D01*
X0029088Y0283448D01*
X0029159Y0283578D01*
X0029234Y0283707D01*
X0029312Y0283833D01*
X0029393Y0283957D01*
X0029477Y0284079D01*
X0029565Y0284198D01*
X0029656Y0284315D01*
X0029750Y0284430D01*
X0029848Y0284542D01*
X0029948Y0284651D01*
X0030051Y0284758D01*
X0030157Y0284862D01*
X0030265Y0284963D01*
X0030377Y0285061D01*
X0030491Y0285156D01*
X0030607Y0285247D01*
X0030726Y0285336D01*
X0030847Y0285421D01*
X0030971Y0285503D01*
X0031097Y0285582D01*
X0031224Y0285657D01*
X0031354Y0285729D01*
X0031486Y0285798D01*
X0031619Y0285862D01*
X0031754Y0285923D01*
X0031891Y0285981D01*
X0032029Y0286035D01*
X0032169Y0286085D01*
X0032310Y0286131D01*
X0032452Y0286173D01*
X0032595Y0286212D01*
X0032739Y0286246D01*
X0032885Y0286277D01*
X0033030Y0286304D01*
X0033177Y0286327D01*
X0033324Y0286346D01*
X0033472Y0286361D01*
X0033619Y0286372D01*
X0033768Y0286379D01*
X0033916Y0286382D01*
X0034064Y0286381D01*
X0034212Y0286376D01*
X0034360Y0286367D01*
X0034508Y0286354D01*
X0034656Y0286337D01*
X0034802Y0286316D01*
X0034949Y0286291D01*
X0035094Y0286262D01*
X0035239Y0286230D01*
X0035382Y0286193D01*
X0035525Y0286153D01*
X0035667Y0286108D01*
X0035807Y0286060D01*
X0035946Y0286008D01*
X0036083Y0285953D01*
X0036219Y0285893D01*
X0036354Y0285830D01*
X0036486Y0285764D01*
X0036617Y0285694D01*
X0036746Y0285620D01*
X0036872Y0285543D01*
X0036997Y0285463D01*
X0037119Y0285379D01*
X0037240Y0285292D01*
X0037357Y0285202D01*
X0037473Y0285108D01*
X0037585Y0285012D01*
X0037695Y0284913D01*
X0037803Y0284810D01*
X0037907Y0284705D01*
X0038009Y0284597D01*
X0038107Y0284486D01*
X0038203Y0284373D01*
X0038296Y0284257D01*
X0038385Y0284139D01*
X0038471Y0284018D01*
X0038554Y0283895D01*
X0038634Y0283770D01*
X0038710Y0283643D01*
X0038783Y0283513D01*
X0038852Y0283382D01*
X0038917Y0283249D01*
X0038980Y0283115D01*
X0039038Y0282978D01*
X0039093Y0282840D01*
X0039143Y0282701D01*
X0039191Y0282560D01*
X0039234Y0282419D01*
X0039274Y0282276D01*
X0039309Y0282132D01*
X0039341Y0281987D01*
X0039369Y0281841D01*
X0039393Y0281695D01*
X0039413Y0281548D01*
X0039429Y0281400D01*
X0039441Y0281253D01*
X0039449Y0281104D01*
X0039453Y0280956D01*
X0039453Y0280808D01*
X0039449Y0280660D01*
X0039441Y0280511D01*
X0039429Y0280364D01*
X0039413Y0280216D01*
X0039393Y0280069D01*
X0039369Y0279923D01*
X0039341Y0279777D01*
X0039309Y0279632D01*
X0039274Y0279488D01*
X0039234Y0279345D01*
X0039191Y0279204D01*
X0039143Y0279063D01*
X0039093Y0278924D01*
X0039038Y0278786D01*
X0038980Y0278649D01*
X0038917Y0278515D01*
X0038852Y0278382D01*
X0038783Y0278251D01*
X0038710Y0278121D01*
X0038634Y0277994D01*
X0038554Y0277869D01*
X0038471Y0277746D01*
X0038385Y0277625D01*
X0038296Y0277507D01*
X0038203Y0277391D01*
X0038107Y0277278D01*
X0038009Y0277167D01*
X0037907Y0277059D01*
X0037803Y0276954D01*
X0037695Y0276851D01*
X0037585Y0276752D01*
X0037473Y0276656D01*
X0037357Y0276562D01*
X0037240Y0276472D01*
X0037119Y0276385D01*
X0036997Y0276301D01*
X0036872Y0276221D01*
X0036746Y0276144D01*
X0036617Y0276070D01*
X0036486Y0276000D01*
X0036354Y0275934D01*
X0036219Y0275871D01*
X0036083Y0275811D01*
X0035946Y0275756D01*
X0035807Y0275704D01*
X0035667Y0275656D01*
X0035525Y0275611D01*
X0035382Y0275571D01*
X0035239Y0275534D01*
X0035094Y0275502D01*
X0034949Y0275473D01*
X0034802Y0275448D01*
X0034656Y0275427D01*
X0034508Y0275410D01*
X0034360Y0275397D01*
X0034212Y0275388D01*
X0034064Y0275383D01*
X0033916Y0275382D01*
X0033768Y0275385D01*
X0033619Y0275392D01*
X0033472Y0275403D01*
X0033324Y0275418D01*
X0033177Y0275437D01*
X0033030Y0275460D01*
X0032885Y0275487D01*
X0032739Y0275518D01*
X0032595Y0275552D01*
X0032452Y0275591D01*
X0032310Y0275633D01*
X0032169Y0275679D01*
X0032029Y0275729D01*
X0031891Y0275783D01*
X0031754Y0275841D01*
X0031619Y0275902D01*
X0031486Y0275966D01*
X0031354Y0276035D01*
X0031224Y0276107D01*
X0031097Y0276182D01*
X0030971Y0276261D01*
X0030847Y0276343D01*
X0030726Y0276428D01*
X0030607Y0276517D01*
X0030491Y0276608D01*
X0030377Y0276703D01*
X0030265Y0276801D01*
X0030157Y0276902D01*
X0030051Y0277006D01*
X0029948Y0277113D01*
X0029848Y0277222D01*
X0029750Y0277334D01*
X0029656Y0277449D01*
X0029565Y0277566D01*
X0029477Y0277685D01*
X0029393Y0277807D01*
X0029312Y0277931D01*
X0029234Y0278057D01*
X0029159Y0278186D01*
X0029088Y0278316D01*
X0029021Y0278448D01*
X0028957Y0278582D01*
X0028897Y0278717D01*
X0028840Y0278855D01*
X0028788Y0278993D01*
X0028738Y0279133D01*
X0028693Y0279274D01*
X0028652Y0279417D01*
X0028614Y0279560D01*
X0028580Y0279705D01*
X0028551Y0279850D01*
X0028525Y0279996D01*
X0028503Y0280143D01*
X0028485Y0280290D01*
X0028471Y0280438D01*
X0028461Y0280586D01*
X0028455Y0280734D01*
X0028453Y0280882D01*
X0014858Y0201394D02*
X0014860Y0201535D01*
X0014866Y0201676D01*
X0014876Y0201816D01*
X0014890Y0201956D01*
X0014908Y0202096D01*
X0014929Y0202235D01*
X0014955Y0202374D01*
X0014984Y0202512D01*
X0015018Y0202648D01*
X0015055Y0202784D01*
X0015096Y0202919D01*
X0015141Y0203053D01*
X0015190Y0203185D01*
X0015242Y0203316D01*
X0015298Y0203445D01*
X0015358Y0203572D01*
X0015421Y0203698D01*
X0015487Y0203822D01*
X0015558Y0203945D01*
X0015631Y0204065D01*
X0015708Y0204183D01*
X0015788Y0204299D01*
X0015872Y0204412D01*
X0015958Y0204523D01*
X0016048Y0204632D01*
X0016141Y0204738D01*
X0016236Y0204841D01*
X0016335Y0204942D01*
X0016436Y0205040D01*
X0016540Y0205135D01*
X0016647Y0205227D01*
X0016756Y0205316D01*
X0016868Y0205401D01*
X0016982Y0205484D01*
X0017098Y0205564D01*
X0017217Y0205640D01*
X0017338Y0205712D01*
X0017460Y0205782D01*
X0017585Y0205847D01*
X0017711Y0205910D01*
X0017839Y0205968D01*
X0017969Y0206023D01*
X0018100Y0206075D01*
X0018233Y0206122D01*
X0018367Y0206166D01*
X0018502Y0206207D01*
X0018638Y0206243D01*
X0018775Y0206275D01*
X0018913Y0206304D01*
X0019051Y0206329D01*
X0019191Y0206349D01*
X0019331Y0206366D01*
X0019471Y0206379D01*
X0019612Y0206388D01*
X0019752Y0206393D01*
X0019893Y0206394D01*
X0020034Y0206391D01*
X0020175Y0206384D01*
X0020315Y0206373D01*
X0020455Y0206358D01*
X0020595Y0206339D01*
X0020734Y0206317D01*
X0020872Y0206290D01*
X0021010Y0206260D01*
X0021146Y0206225D01*
X0021282Y0206187D01*
X0021416Y0206145D01*
X0021550Y0206099D01*
X0021682Y0206050D01*
X0021812Y0205996D01*
X0021941Y0205939D01*
X0022068Y0205879D01*
X0022194Y0205815D01*
X0022317Y0205747D01*
X0022439Y0205676D01*
X0022559Y0205602D01*
X0022676Y0205524D01*
X0022791Y0205443D01*
X0022904Y0205359D01*
X0023015Y0205272D01*
X0023123Y0205181D01*
X0023228Y0205088D01*
X0023331Y0204991D01*
X0023431Y0204892D01*
X0023528Y0204790D01*
X0023622Y0204685D01*
X0023713Y0204578D01*
X0023801Y0204468D01*
X0023886Y0204356D01*
X0023968Y0204241D01*
X0024047Y0204124D01*
X0024122Y0204005D01*
X0024194Y0203884D01*
X0024262Y0203761D01*
X0024327Y0203636D01*
X0024389Y0203509D01*
X0024446Y0203380D01*
X0024501Y0203250D01*
X0024551Y0203119D01*
X0024598Y0202986D01*
X0024641Y0202852D01*
X0024680Y0202716D01*
X0024715Y0202580D01*
X0024747Y0202443D01*
X0024774Y0202305D01*
X0024798Y0202166D01*
X0024818Y0202026D01*
X0024834Y0201886D01*
X0024846Y0201746D01*
X0024854Y0201605D01*
X0024858Y0201464D01*
X0024858Y0201324D01*
X0024854Y0201183D01*
X0024846Y0201042D01*
X0024834Y0200902D01*
X0024818Y0200762D01*
X0024798Y0200622D01*
X0024774Y0200483D01*
X0024747Y0200345D01*
X0024715Y0200208D01*
X0024680Y0200072D01*
X0024641Y0199936D01*
X0024598Y0199802D01*
X0024551Y0199669D01*
X0024501Y0199538D01*
X0024446Y0199408D01*
X0024389Y0199279D01*
X0024327Y0199152D01*
X0024262Y0199027D01*
X0024194Y0198904D01*
X0024122Y0198783D01*
X0024047Y0198664D01*
X0023968Y0198547D01*
X0023886Y0198432D01*
X0023801Y0198320D01*
X0023713Y0198210D01*
X0023622Y0198103D01*
X0023528Y0197998D01*
X0023431Y0197896D01*
X0023331Y0197797D01*
X0023228Y0197700D01*
X0023123Y0197607D01*
X0023015Y0197516D01*
X0022904Y0197429D01*
X0022791Y0197345D01*
X0022676Y0197264D01*
X0022559Y0197186D01*
X0022439Y0197112D01*
X0022317Y0197041D01*
X0022194Y0196973D01*
X0022068Y0196909D01*
X0021941Y0196849D01*
X0021812Y0196792D01*
X0021682Y0196738D01*
X0021550Y0196689D01*
X0021416Y0196643D01*
X0021282Y0196601D01*
X0021146Y0196563D01*
X0021010Y0196528D01*
X0020872Y0196498D01*
X0020734Y0196471D01*
X0020595Y0196449D01*
X0020455Y0196430D01*
X0020315Y0196415D01*
X0020175Y0196404D01*
X0020034Y0196397D01*
X0019893Y0196394D01*
X0019752Y0196395D01*
X0019612Y0196400D01*
X0019471Y0196409D01*
X0019331Y0196422D01*
X0019191Y0196439D01*
X0019051Y0196459D01*
X0018913Y0196484D01*
X0018775Y0196513D01*
X0018638Y0196545D01*
X0018502Y0196581D01*
X0018367Y0196622D01*
X0018233Y0196666D01*
X0018100Y0196713D01*
X0017969Y0196765D01*
X0017839Y0196820D01*
X0017711Y0196878D01*
X0017585Y0196941D01*
X0017460Y0197006D01*
X0017338Y0197076D01*
X0017217Y0197148D01*
X0017098Y0197224D01*
X0016982Y0197304D01*
X0016868Y0197387D01*
X0016756Y0197472D01*
X0016647Y0197561D01*
X0016540Y0197653D01*
X0016436Y0197748D01*
X0016335Y0197846D01*
X0016236Y0197947D01*
X0016141Y0198050D01*
X0016048Y0198156D01*
X0015958Y0198265D01*
X0015872Y0198376D01*
X0015788Y0198489D01*
X0015708Y0198605D01*
X0015631Y0198723D01*
X0015558Y0198843D01*
X0015487Y0198966D01*
X0015421Y0199090D01*
X0015358Y0199216D01*
X0015298Y0199343D01*
X0015242Y0199472D01*
X0015190Y0199603D01*
X0015141Y0199735D01*
X0015096Y0199869D01*
X0015055Y0200004D01*
X0015018Y0200140D01*
X0014984Y0200276D01*
X0014955Y0200414D01*
X0014929Y0200553D01*
X0014908Y0200692D01*
X0014890Y0200832D01*
X0014876Y0200972D01*
X0014866Y0201112D01*
X0014860Y0201253D01*
X0014858Y0201394D01*
X0189740Y0193953D02*
X0189742Y0194094D01*
X0189748Y0194235D01*
X0189758Y0194375D01*
X0189772Y0194515D01*
X0189790Y0194655D01*
X0189811Y0194794D01*
X0189837Y0194933D01*
X0189866Y0195071D01*
X0189900Y0195207D01*
X0189937Y0195343D01*
X0189978Y0195478D01*
X0190023Y0195612D01*
X0190072Y0195744D01*
X0190124Y0195875D01*
X0190180Y0196004D01*
X0190240Y0196131D01*
X0190303Y0196257D01*
X0190369Y0196381D01*
X0190440Y0196504D01*
X0190513Y0196624D01*
X0190590Y0196742D01*
X0190670Y0196858D01*
X0190754Y0196971D01*
X0190840Y0197082D01*
X0190930Y0197191D01*
X0191023Y0197297D01*
X0191118Y0197400D01*
X0191217Y0197501D01*
X0191318Y0197599D01*
X0191422Y0197694D01*
X0191529Y0197786D01*
X0191638Y0197875D01*
X0191750Y0197960D01*
X0191864Y0198043D01*
X0191980Y0198123D01*
X0192099Y0198199D01*
X0192220Y0198271D01*
X0192342Y0198341D01*
X0192467Y0198406D01*
X0192593Y0198469D01*
X0192721Y0198527D01*
X0192851Y0198582D01*
X0192982Y0198634D01*
X0193115Y0198681D01*
X0193249Y0198725D01*
X0193384Y0198766D01*
X0193520Y0198802D01*
X0193657Y0198834D01*
X0193795Y0198863D01*
X0193933Y0198888D01*
X0194073Y0198908D01*
X0194213Y0198925D01*
X0194353Y0198938D01*
X0194494Y0198947D01*
X0194634Y0198952D01*
X0194775Y0198953D01*
X0194916Y0198950D01*
X0195057Y0198943D01*
X0195197Y0198932D01*
X0195337Y0198917D01*
X0195477Y0198898D01*
X0195616Y0198876D01*
X0195754Y0198849D01*
X0195892Y0198819D01*
X0196028Y0198784D01*
X0196164Y0198746D01*
X0196298Y0198704D01*
X0196432Y0198658D01*
X0196564Y0198609D01*
X0196694Y0198555D01*
X0196823Y0198498D01*
X0196950Y0198438D01*
X0197076Y0198374D01*
X0197199Y0198306D01*
X0197321Y0198235D01*
X0197441Y0198161D01*
X0197558Y0198083D01*
X0197673Y0198002D01*
X0197786Y0197918D01*
X0197897Y0197831D01*
X0198005Y0197740D01*
X0198110Y0197647D01*
X0198213Y0197550D01*
X0198313Y0197451D01*
X0198410Y0197349D01*
X0198504Y0197244D01*
X0198595Y0197137D01*
X0198683Y0197027D01*
X0198768Y0196915D01*
X0198850Y0196800D01*
X0198929Y0196683D01*
X0199004Y0196564D01*
X0199076Y0196443D01*
X0199144Y0196320D01*
X0199209Y0196195D01*
X0199271Y0196068D01*
X0199328Y0195939D01*
X0199383Y0195809D01*
X0199433Y0195678D01*
X0199480Y0195545D01*
X0199523Y0195411D01*
X0199562Y0195275D01*
X0199597Y0195139D01*
X0199629Y0195002D01*
X0199656Y0194864D01*
X0199680Y0194725D01*
X0199700Y0194585D01*
X0199716Y0194445D01*
X0199728Y0194305D01*
X0199736Y0194164D01*
X0199740Y0194023D01*
X0199740Y0193883D01*
X0199736Y0193742D01*
X0199728Y0193601D01*
X0199716Y0193461D01*
X0199700Y0193321D01*
X0199680Y0193181D01*
X0199656Y0193042D01*
X0199629Y0192904D01*
X0199597Y0192767D01*
X0199562Y0192631D01*
X0199523Y0192495D01*
X0199480Y0192361D01*
X0199433Y0192228D01*
X0199383Y0192097D01*
X0199328Y0191967D01*
X0199271Y0191838D01*
X0199209Y0191711D01*
X0199144Y0191586D01*
X0199076Y0191463D01*
X0199004Y0191342D01*
X0198929Y0191223D01*
X0198850Y0191106D01*
X0198768Y0190991D01*
X0198683Y0190879D01*
X0198595Y0190769D01*
X0198504Y0190662D01*
X0198410Y0190557D01*
X0198313Y0190455D01*
X0198213Y0190356D01*
X0198110Y0190259D01*
X0198005Y0190166D01*
X0197897Y0190075D01*
X0197786Y0189988D01*
X0197673Y0189904D01*
X0197558Y0189823D01*
X0197441Y0189745D01*
X0197321Y0189671D01*
X0197199Y0189600D01*
X0197076Y0189532D01*
X0196950Y0189468D01*
X0196823Y0189408D01*
X0196694Y0189351D01*
X0196564Y0189297D01*
X0196432Y0189248D01*
X0196298Y0189202D01*
X0196164Y0189160D01*
X0196028Y0189122D01*
X0195892Y0189087D01*
X0195754Y0189057D01*
X0195616Y0189030D01*
X0195477Y0189008D01*
X0195337Y0188989D01*
X0195197Y0188974D01*
X0195057Y0188963D01*
X0194916Y0188956D01*
X0194775Y0188953D01*
X0194634Y0188954D01*
X0194494Y0188959D01*
X0194353Y0188968D01*
X0194213Y0188981D01*
X0194073Y0188998D01*
X0193933Y0189018D01*
X0193795Y0189043D01*
X0193657Y0189072D01*
X0193520Y0189104D01*
X0193384Y0189140D01*
X0193249Y0189181D01*
X0193115Y0189225D01*
X0192982Y0189272D01*
X0192851Y0189324D01*
X0192721Y0189379D01*
X0192593Y0189437D01*
X0192467Y0189500D01*
X0192342Y0189565D01*
X0192220Y0189635D01*
X0192099Y0189707D01*
X0191980Y0189783D01*
X0191864Y0189863D01*
X0191750Y0189946D01*
X0191638Y0190031D01*
X0191529Y0190120D01*
X0191422Y0190212D01*
X0191318Y0190307D01*
X0191217Y0190405D01*
X0191118Y0190506D01*
X0191023Y0190609D01*
X0190930Y0190715D01*
X0190840Y0190824D01*
X0190754Y0190935D01*
X0190670Y0191048D01*
X0190590Y0191164D01*
X0190513Y0191282D01*
X0190440Y0191402D01*
X0190369Y0191525D01*
X0190303Y0191649D01*
X0190240Y0191775D01*
X0190180Y0191902D01*
X0190124Y0192031D01*
X0190072Y0192162D01*
X0190023Y0192294D01*
X0189978Y0192428D01*
X0189937Y0192563D01*
X0189900Y0192699D01*
X0189866Y0192835D01*
X0189837Y0192973D01*
X0189811Y0193112D01*
X0189790Y0193251D01*
X0189772Y0193391D01*
X0189758Y0193531D01*
X0189748Y0193671D01*
X0189742Y0193812D01*
X0189740Y0193953D01*
X0191197Y0219543D02*
X0191199Y0219684D01*
X0191205Y0219825D01*
X0191215Y0219965D01*
X0191229Y0220105D01*
X0191247Y0220245D01*
X0191268Y0220384D01*
X0191294Y0220523D01*
X0191323Y0220661D01*
X0191357Y0220797D01*
X0191394Y0220933D01*
X0191435Y0221068D01*
X0191480Y0221202D01*
X0191529Y0221334D01*
X0191581Y0221465D01*
X0191637Y0221594D01*
X0191697Y0221721D01*
X0191760Y0221847D01*
X0191826Y0221971D01*
X0191897Y0222094D01*
X0191970Y0222214D01*
X0192047Y0222332D01*
X0192127Y0222448D01*
X0192211Y0222561D01*
X0192297Y0222672D01*
X0192387Y0222781D01*
X0192480Y0222887D01*
X0192575Y0222990D01*
X0192674Y0223091D01*
X0192775Y0223189D01*
X0192879Y0223284D01*
X0192986Y0223376D01*
X0193095Y0223465D01*
X0193207Y0223550D01*
X0193321Y0223633D01*
X0193437Y0223713D01*
X0193556Y0223789D01*
X0193677Y0223861D01*
X0193799Y0223931D01*
X0193924Y0223996D01*
X0194050Y0224059D01*
X0194178Y0224117D01*
X0194308Y0224172D01*
X0194439Y0224224D01*
X0194572Y0224271D01*
X0194706Y0224315D01*
X0194841Y0224356D01*
X0194977Y0224392D01*
X0195114Y0224424D01*
X0195252Y0224453D01*
X0195390Y0224478D01*
X0195530Y0224498D01*
X0195670Y0224515D01*
X0195810Y0224528D01*
X0195951Y0224537D01*
X0196091Y0224542D01*
X0196232Y0224543D01*
X0196373Y0224540D01*
X0196514Y0224533D01*
X0196654Y0224522D01*
X0196794Y0224507D01*
X0196934Y0224488D01*
X0197073Y0224466D01*
X0197211Y0224439D01*
X0197349Y0224409D01*
X0197485Y0224374D01*
X0197621Y0224336D01*
X0197755Y0224294D01*
X0197889Y0224248D01*
X0198021Y0224199D01*
X0198151Y0224145D01*
X0198280Y0224088D01*
X0198407Y0224028D01*
X0198533Y0223964D01*
X0198656Y0223896D01*
X0198778Y0223825D01*
X0198898Y0223751D01*
X0199015Y0223673D01*
X0199130Y0223592D01*
X0199243Y0223508D01*
X0199354Y0223421D01*
X0199462Y0223330D01*
X0199567Y0223237D01*
X0199670Y0223140D01*
X0199770Y0223041D01*
X0199867Y0222939D01*
X0199961Y0222834D01*
X0200052Y0222727D01*
X0200140Y0222617D01*
X0200225Y0222505D01*
X0200307Y0222390D01*
X0200386Y0222273D01*
X0200461Y0222154D01*
X0200533Y0222033D01*
X0200601Y0221910D01*
X0200666Y0221785D01*
X0200728Y0221658D01*
X0200785Y0221529D01*
X0200840Y0221399D01*
X0200890Y0221268D01*
X0200937Y0221135D01*
X0200980Y0221001D01*
X0201019Y0220865D01*
X0201054Y0220729D01*
X0201086Y0220592D01*
X0201113Y0220454D01*
X0201137Y0220315D01*
X0201157Y0220175D01*
X0201173Y0220035D01*
X0201185Y0219895D01*
X0201193Y0219754D01*
X0201197Y0219613D01*
X0201197Y0219473D01*
X0201193Y0219332D01*
X0201185Y0219191D01*
X0201173Y0219051D01*
X0201157Y0218911D01*
X0201137Y0218771D01*
X0201113Y0218632D01*
X0201086Y0218494D01*
X0201054Y0218357D01*
X0201019Y0218221D01*
X0200980Y0218085D01*
X0200937Y0217951D01*
X0200890Y0217818D01*
X0200840Y0217687D01*
X0200785Y0217557D01*
X0200728Y0217428D01*
X0200666Y0217301D01*
X0200601Y0217176D01*
X0200533Y0217053D01*
X0200461Y0216932D01*
X0200386Y0216813D01*
X0200307Y0216696D01*
X0200225Y0216581D01*
X0200140Y0216469D01*
X0200052Y0216359D01*
X0199961Y0216252D01*
X0199867Y0216147D01*
X0199770Y0216045D01*
X0199670Y0215946D01*
X0199567Y0215849D01*
X0199462Y0215756D01*
X0199354Y0215665D01*
X0199243Y0215578D01*
X0199130Y0215494D01*
X0199015Y0215413D01*
X0198898Y0215335D01*
X0198778Y0215261D01*
X0198656Y0215190D01*
X0198533Y0215122D01*
X0198407Y0215058D01*
X0198280Y0214998D01*
X0198151Y0214941D01*
X0198021Y0214887D01*
X0197889Y0214838D01*
X0197755Y0214792D01*
X0197621Y0214750D01*
X0197485Y0214712D01*
X0197349Y0214677D01*
X0197211Y0214647D01*
X0197073Y0214620D01*
X0196934Y0214598D01*
X0196794Y0214579D01*
X0196654Y0214564D01*
X0196514Y0214553D01*
X0196373Y0214546D01*
X0196232Y0214543D01*
X0196091Y0214544D01*
X0195951Y0214549D01*
X0195810Y0214558D01*
X0195670Y0214571D01*
X0195530Y0214588D01*
X0195390Y0214608D01*
X0195252Y0214633D01*
X0195114Y0214662D01*
X0194977Y0214694D01*
X0194841Y0214730D01*
X0194706Y0214771D01*
X0194572Y0214815D01*
X0194439Y0214862D01*
X0194308Y0214914D01*
X0194178Y0214969D01*
X0194050Y0215027D01*
X0193924Y0215090D01*
X0193799Y0215155D01*
X0193677Y0215225D01*
X0193556Y0215297D01*
X0193437Y0215373D01*
X0193321Y0215453D01*
X0193207Y0215536D01*
X0193095Y0215621D01*
X0192986Y0215710D01*
X0192879Y0215802D01*
X0192775Y0215897D01*
X0192674Y0215995D01*
X0192575Y0216096D01*
X0192480Y0216199D01*
X0192387Y0216305D01*
X0192297Y0216414D01*
X0192211Y0216525D01*
X0192127Y0216638D01*
X0192047Y0216754D01*
X0191970Y0216872D01*
X0191897Y0216992D01*
X0191826Y0217115D01*
X0191760Y0217239D01*
X0191697Y0217365D01*
X0191637Y0217492D01*
X0191581Y0217621D01*
X0191529Y0217752D01*
X0191480Y0217884D01*
X0191435Y0218018D01*
X0191394Y0218153D01*
X0191357Y0218289D01*
X0191323Y0218425D01*
X0191294Y0218563D01*
X0191268Y0218702D01*
X0191247Y0218841D01*
X0191229Y0218981D01*
X0191215Y0219121D01*
X0191205Y0219261D01*
X0191199Y0219402D01*
X0191197Y0219543D01*
X0217142Y0278520D02*
X0217144Y0278661D01*
X0217150Y0278802D01*
X0217160Y0278942D01*
X0217174Y0279082D01*
X0217192Y0279222D01*
X0217213Y0279361D01*
X0217239Y0279500D01*
X0217268Y0279638D01*
X0217302Y0279774D01*
X0217339Y0279910D01*
X0217380Y0280045D01*
X0217425Y0280179D01*
X0217474Y0280311D01*
X0217526Y0280442D01*
X0217582Y0280571D01*
X0217642Y0280698D01*
X0217705Y0280824D01*
X0217771Y0280948D01*
X0217842Y0281071D01*
X0217915Y0281191D01*
X0217992Y0281309D01*
X0218072Y0281425D01*
X0218156Y0281538D01*
X0218242Y0281649D01*
X0218332Y0281758D01*
X0218425Y0281864D01*
X0218520Y0281967D01*
X0218619Y0282068D01*
X0218720Y0282166D01*
X0218824Y0282261D01*
X0218931Y0282353D01*
X0219040Y0282442D01*
X0219152Y0282527D01*
X0219266Y0282610D01*
X0219382Y0282690D01*
X0219501Y0282766D01*
X0219622Y0282838D01*
X0219744Y0282908D01*
X0219869Y0282973D01*
X0219995Y0283036D01*
X0220123Y0283094D01*
X0220253Y0283149D01*
X0220384Y0283201D01*
X0220517Y0283248D01*
X0220651Y0283292D01*
X0220786Y0283333D01*
X0220922Y0283369D01*
X0221059Y0283401D01*
X0221197Y0283430D01*
X0221335Y0283455D01*
X0221475Y0283475D01*
X0221615Y0283492D01*
X0221755Y0283505D01*
X0221896Y0283514D01*
X0222036Y0283519D01*
X0222177Y0283520D01*
X0222318Y0283517D01*
X0222459Y0283510D01*
X0222599Y0283499D01*
X0222739Y0283484D01*
X0222879Y0283465D01*
X0223018Y0283443D01*
X0223156Y0283416D01*
X0223294Y0283386D01*
X0223430Y0283351D01*
X0223566Y0283313D01*
X0223700Y0283271D01*
X0223834Y0283225D01*
X0223966Y0283176D01*
X0224096Y0283122D01*
X0224225Y0283065D01*
X0224352Y0283005D01*
X0224478Y0282941D01*
X0224601Y0282873D01*
X0224723Y0282802D01*
X0224843Y0282728D01*
X0224960Y0282650D01*
X0225075Y0282569D01*
X0225188Y0282485D01*
X0225299Y0282398D01*
X0225407Y0282307D01*
X0225512Y0282214D01*
X0225615Y0282117D01*
X0225715Y0282018D01*
X0225812Y0281916D01*
X0225906Y0281811D01*
X0225997Y0281704D01*
X0226085Y0281594D01*
X0226170Y0281482D01*
X0226252Y0281367D01*
X0226331Y0281250D01*
X0226406Y0281131D01*
X0226478Y0281010D01*
X0226546Y0280887D01*
X0226611Y0280762D01*
X0226673Y0280635D01*
X0226730Y0280506D01*
X0226785Y0280376D01*
X0226835Y0280245D01*
X0226882Y0280112D01*
X0226925Y0279978D01*
X0226964Y0279842D01*
X0226999Y0279706D01*
X0227031Y0279569D01*
X0227058Y0279431D01*
X0227082Y0279292D01*
X0227102Y0279152D01*
X0227118Y0279012D01*
X0227130Y0278872D01*
X0227138Y0278731D01*
X0227142Y0278590D01*
X0227142Y0278450D01*
X0227138Y0278309D01*
X0227130Y0278168D01*
X0227118Y0278028D01*
X0227102Y0277888D01*
X0227082Y0277748D01*
X0227058Y0277609D01*
X0227031Y0277471D01*
X0226999Y0277334D01*
X0226964Y0277198D01*
X0226925Y0277062D01*
X0226882Y0276928D01*
X0226835Y0276795D01*
X0226785Y0276664D01*
X0226730Y0276534D01*
X0226673Y0276405D01*
X0226611Y0276278D01*
X0226546Y0276153D01*
X0226478Y0276030D01*
X0226406Y0275909D01*
X0226331Y0275790D01*
X0226252Y0275673D01*
X0226170Y0275558D01*
X0226085Y0275446D01*
X0225997Y0275336D01*
X0225906Y0275229D01*
X0225812Y0275124D01*
X0225715Y0275022D01*
X0225615Y0274923D01*
X0225512Y0274826D01*
X0225407Y0274733D01*
X0225299Y0274642D01*
X0225188Y0274555D01*
X0225075Y0274471D01*
X0224960Y0274390D01*
X0224843Y0274312D01*
X0224723Y0274238D01*
X0224601Y0274167D01*
X0224478Y0274099D01*
X0224352Y0274035D01*
X0224225Y0273975D01*
X0224096Y0273918D01*
X0223966Y0273864D01*
X0223834Y0273815D01*
X0223700Y0273769D01*
X0223566Y0273727D01*
X0223430Y0273689D01*
X0223294Y0273654D01*
X0223156Y0273624D01*
X0223018Y0273597D01*
X0222879Y0273575D01*
X0222739Y0273556D01*
X0222599Y0273541D01*
X0222459Y0273530D01*
X0222318Y0273523D01*
X0222177Y0273520D01*
X0222036Y0273521D01*
X0221896Y0273526D01*
X0221755Y0273535D01*
X0221615Y0273548D01*
X0221475Y0273565D01*
X0221335Y0273585D01*
X0221197Y0273610D01*
X0221059Y0273639D01*
X0220922Y0273671D01*
X0220786Y0273707D01*
X0220651Y0273748D01*
X0220517Y0273792D01*
X0220384Y0273839D01*
X0220253Y0273891D01*
X0220123Y0273946D01*
X0219995Y0274004D01*
X0219869Y0274067D01*
X0219744Y0274132D01*
X0219622Y0274202D01*
X0219501Y0274274D01*
X0219382Y0274350D01*
X0219266Y0274430D01*
X0219152Y0274513D01*
X0219040Y0274598D01*
X0218931Y0274687D01*
X0218824Y0274779D01*
X0218720Y0274874D01*
X0218619Y0274972D01*
X0218520Y0275073D01*
X0218425Y0275176D01*
X0218332Y0275282D01*
X0218242Y0275391D01*
X0218156Y0275502D01*
X0218072Y0275615D01*
X0217992Y0275731D01*
X0217915Y0275849D01*
X0217842Y0275969D01*
X0217771Y0276092D01*
X0217705Y0276216D01*
X0217642Y0276342D01*
X0217582Y0276469D01*
X0217526Y0276598D01*
X0217474Y0276729D01*
X0217425Y0276861D01*
X0217380Y0276995D01*
X0217339Y0277130D01*
X0217302Y0277266D01*
X0217268Y0277402D01*
X0217239Y0277540D01*
X0217213Y0277679D01*
X0217192Y0277818D01*
X0217174Y0277958D01*
X0217160Y0278098D01*
X0217150Y0278238D01*
X0217144Y0278379D01*
X0217142Y0278520D01*
X0191197Y0279543D02*
X0191199Y0279684D01*
X0191205Y0279825D01*
X0191215Y0279965D01*
X0191229Y0280105D01*
X0191247Y0280245D01*
X0191268Y0280384D01*
X0191294Y0280523D01*
X0191323Y0280661D01*
X0191357Y0280797D01*
X0191394Y0280933D01*
X0191435Y0281068D01*
X0191480Y0281202D01*
X0191529Y0281334D01*
X0191581Y0281465D01*
X0191637Y0281594D01*
X0191697Y0281721D01*
X0191760Y0281847D01*
X0191826Y0281971D01*
X0191897Y0282094D01*
X0191970Y0282214D01*
X0192047Y0282332D01*
X0192127Y0282448D01*
X0192211Y0282561D01*
X0192297Y0282672D01*
X0192387Y0282781D01*
X0192480Y0282887D01*
X0192575Y0282990D01*
X0192674Y0283091D01*
X0192775Y0283189D01*
X0192879Y0283284D01*
X0192986Y0283376D01*
X0193095Y0283465D01*
X0193207Y0283550D01*
X0193321Y0283633D01*
X0193437Y0283713D01*
X0193556Y0283789D01*
X0193677Y0283861D01*
X0193799Y0283931D01*
X0193924Y0283996D01*
X0194050Y0284059D01*
X0194178Y0284117D01*
X0194308Y0284172D01*
X0194439Y0284224D01*
X0194572Y0284271D01*
X0194706Y0284315D01*
X0194841Y0284356D01*
X0194977Y0284392D01*
X0195114Y0284424D01*
X0195252Y0284453D01*
X0195390Y0284478D01*
X0195530Y0284498D01*
X0195670Y0284515D01*
X0195810Y0284528D01*
X0195951Y0284537D01*
X0196091Y0284542D01*
X0196232Y0284543D01*
X0196373Y0284540D01*
X0196514Y0284533D01*
X0196654Y0284522D01*
X0196794Y0284507D01*
X0196934Y0284488D01*
X0197073Y0284466D01*
X0197211Y0284439D01*
X0197349Y0284409D01*
X0197485Y0284374D01*
X0197621Y0284336D01*
X0197755Y0284294D01*
X0197889Y0284248D01*
X0198021Y0284199D01*
X0198151Y0284145D01*
X0198280Y0284088D01*
X0198407Y0284028D01*
X0198533Y0283964D01*
X0198656Y0283896D01*
X0198778Y0283825D01*
X0198898Y0283751D01*
X0199015Y0283673D01*
X0199130Y0283592D01*
X0199243Y0283508D01*
X0199354Y0283421D01*
X0199462Y0283330D01*
X0199567Y0283237D01*
X0199670Y0283140D01*
X0199770Y0283041D01*
X0199867Y0282939D01*
X0199961Y0282834D01*
X0200052Y0282727D01*
X0200140Y0282617D01*
X0200225Y0282505D01*
X0200307Y0282390D01*
X0200386Y0282273D01*
X0200461Y0282154D01*
X0200533Y0282033D01*
X0200601Y0281910D01*
X0200666Y0281785D01*
X0200728Y0281658D01*
X0200785Y0281529D01*
X0200840Y0281399D01*
X0200890Y0281268D01*
X0200937Y0281135D01*
X0200980Y0281001D01*
X0201019Y0280865D01*
X0201054Y0280729D01*
X0201086Y0280592D01*
X0201113Y0280454D01*
X0201137Y0280315D01*
X0201157Y0280175D01*
X0201173Y0280035D01*
X0201185Y0279895D01*
X0201193Y0279754D01*
X0201197Y0279613D01*
X0201197Y0279473D01*
X0201193Y0279332D01*
X0201185Y0279191D01*
X0201173Y0279051D01*
X0201157Y0278911D01*
X0201137Y0278771D01*
X0201113Y0278632D01*
X0201086Y0278494D01*
X0201054Y0278357D01*
X0201019Y0278221D01*
X0200980Y0278085D01*
X0200937Y0277951D01*
X0200890Y0277818D01*
X0200840Y0277687D01*
X0200785Y0277557D01*
X0200728Y0277428D01*
X0200666Y0277301D01*
X0200601Y0277176D01*
X0200533Y0277053D01*
X0200461Y0276932D01*
X0200386Y0276813D01*
X0200307Y0276696D01*
X0200225Y0276581D01*
X0200140Y0276469D01*
X0200052Y0276359D01*
X0199961Y0276252D01*
X0199867Y0276147D01*
X0199770Y0276045D01*
X0199670Y0275946D01*
X0199567Y0275849D01*
X0199462Y0275756D01*
X0199354Y0275665D01*
X0199243Y0275578D01*
X0199130Y0275494D01*
X0199015Y0275413D01*
X0198898Y0275335D01*
X0198778Y0275261D01*
X0198656Y0275190D01*
X0198533Y0275122D01*
X0198407Y0275058D01*
X0198280Y0274998D01*
X0198151Y0274941D01*
X0198021Y0274887D01*
X0197889Y0274838D01*
X0197755Y0274792D01*
X0197621Y0274750D01*
X0197485Y0274712D01*
X0197349Y0274677D01*
X0197211Y0274647D01*
X0197073Y0274620D01*
X0196934Y0274598D01*
X0196794Y0274579D01*
X0196654Y0274564D01*
X0196514Y0274553D01*
X0196373Y0274546D01*
X0196232Y0274543D01*
X0196091Y0274544D01*
X0195951Y0274549D01*
X0195810Y0274558D01*
X0195670Y0274571D01*
X0195530Y0274588D01*
X0195390Y0274608D01*
X0195252Y0274633D01*
X0195114Y0274662D01*
X0194977Y0274694D01*
X0194841Y0274730D01*
X0194706Y0274771D01*
X0194572Y0274815D01*
X0194439Y0274862D01*
X0194308Y0274914D01*
X0194178Y0274969D01*
X0194050Y0275027D01*
X0193924Y0275090D01*
X0193799Y0275155D01*
X0193677Y0275225D01*
X0193556Y0275297D01*
X0193437Y0275373D01*
X0193321Y0275453D01*
X0193207Y0275536D01*
X0193095Y0275621D01*
X0192986Y0275710D01*
X0192879Y0275802D01*
X0192775Y0275897D01*
X0192674Y0275995D01*
X0192575Y0276096D01*
X0192480Y0276199D01*
X0192387Y0276305D01*
X0192297Y0276414D01*
X0192211Y0276525D01*
X0192127Y0276638D01*
X0192047Y0276754D01*
X0191970Y0276872D01*
X0191897Y0276992D01*
X0191826Y0277115D01*
X0191760Y0277239D01*
X0191697Y0277365D01*
X0191637Y0277492D01*
X0191581Y0277621D01*
X0191529Y0277752D01*
X0191480Y0277884D01*
X0191435Y0278018D01*
X0191394Y0278153D01*
X0191357Y0278289D01*
X0191323Y0278425D01*
X0191294Y0278563D01*
X0191268Y0278702D01*
X0191247Y0278841D01*
X0191229Y0278981D01*
X0191215Y0279121D01*
X0191205Y0279261D01*
X0191199Y0279402D01*
X0191197Y0279543D01*
X0189740Y0133953D02*
X0189742Y0134094D01*
X0189748Y0134235D01*
X0189758Y0134375D01*
X0189772Y0134515D01*
X0189790Y0134655D01*
X0189811Y0134794D01*
X0189837Y0134933D01*
X0189866Y0135071D01*
X0189900Y0135207D01*
X0189937Y0135343D01*
X0189978Y0135478D01*
X0190023Y0135612D01*
X0190072Y0135744D01*
X0190124Y0135875D01*
X0190180Y0136004D01*
X0190240Y0136131D01*
X0190303Y0136257D01*
X0190369Y0136381D01*
X0190440Y0136504D01*
X0190513Y0136624D01*
X0190590Y0136742D01*
X0190670Y0136858D01*
X0190754Y0136971D01*
X0190840Y0137082D01*
X0190930Y0137191D01*
X0191023Y0137297D01*
X0191118Y0137400D01*
X0191217Y0137501D01*
X0191318Y0137599D01*
X0191422Y0137694D01*
X0191529Y0137786D01*
X0191638Y0137875D01*
X0191750Y0137960D01*
X0191864Y0138043D01*
X0191980Y0138123D01*
X0192099Y0138199D01*
X0192220Y0138271D01*
X0192342Y0138341D01*
X0192467Y0138406D01*
X0192593Y0138469D01*
X0192721Y0138527D01*
X0192851Y0138582D01*
X0192982Y0138634D01*
X0193115Y0138681D01*
X0193249Y0138725D01*
X0193384Y0138766D01*
X0193520Y0138802D01*
X0193657Y0138834D01*
X0193795Y0138863D01*
X0193933Y0138888D01*
X0194073Y0138908D01*
X0194213Y0138925D01*
X0194353Y0138938D01*
X0194494Y0138947D01*
X0194634Y0138952D01*
X0194775Y0138953D01*
X0194916Y0138950D01*
X0195057Y0138943D01*
X0195197Y0138932D01*
X0195337Y0138917D01*
X0195477Y0138898D01*
X0195616Y0138876D01*
X0195754Y0138849D01*
X0195892Y0138819D01*
X0196028Y0138784D01*
X0196164Y0138746D01*
X0196298Y0138704D01*
X0196432Y0138658D01*
X0196564Y0138609D01*
X0196694Y0138555D01*
X0196823Y0138498D01*
X0196950Y0138438D01*
X0197076Y0138374D01*
X0197199Y0138306D01*
X0197321Y0138235D01*
X0197441Y0138161D01*
X0197558Y0138083D01*
X0197673Y0138002D01*
X0197786Y0137918D01*
X0197897Y0137831D01*
X0198005Y0137740D01*
X0198110Y0137647D01*
X0198213Y0137550D01*
X0198313Y0137451D01*
X0198410Y0137349D01*
X0198504Y0137244D01*
X0198595Y0137137D01*
X0198683Y0137027D01*
X0198768Y0136915D01*
X0198850Y0136800D01*
X0198929Y0136683D01*
X0199004Y0136564D01*
X0199076Y0136443D01*
X0199144Y0136320D01*
X0199209Y0136195D01*
X0199271Y0136068D01*
X0199328Y0135939D01*
X0199383Y0135809D01*
X0199433Y0135678D01*
X0199480Y0135545D01*
X0199523Y0135411D01*
X0199562Y0135275D01*
X0199597Y0135139D01*
X0199629Y0135002D01*
X0199656Y0134864D01*
X0199680Y0134725D01*
X0199700Y0134585D01*
X0199716Y0134445D01*
X0199728Y0134305D01*
X0199736Y0134164D01*
X0199740Y0134023D01*
X0199740Y0133883D01*
X0199736Y0133742D01*
X0199728Y0133601D01*
X0199716Y0133461D01*
X0199700Y0133321D01*
X0199680Y0133181D01*
X0199656Y0133042D01*
X0199629Y0132904D01*
X0199597Y0132767D01*
X0199562Y0132631D01*
X0199523Y0132495D01*
X0199480Y0132361D01*
X0199433Y0132228D01*
X0199383Y0132097D01*
X0199328Y0131967D01*
X0199271Y0131838D01*
X0199209Y0131711D01*
X0199144Y0131586D01*
X0199076Y0131463D01*
X0199004Y0131342D01*
X0198929Y0131223D01*
X0198850Y0131106D01*
X0198768Y0130991D01*
X0198683Y0130879D01*
X0198595Y0130769D01*
X0198504Y0130662D01*
X0198410Y0130557D01*
X0198313Y0130455D01*
X0198213Y0130356D01*
X0198110Y0130259D01*
X0198005Y0130166D01*
X0197897Y0130075D01*
X0197786Y0129988D01*
X0197673Y0129904D01*
X0197558Y0129823D01*
X0197441Y0129745D01*
X0197321Y0129671D01*
X0197199Y0129600D01*
X0197076Y0129532D01*
X0196950Y0129468D01*
X0196823Y0129408D01*
X0196694Y0129351D01*
X0196564Y0129297D01*
X0196432Y0129248D01*
X0196298Y0129202D01*
X0196164Y0129160D01*
X0196028Y0129122D01*
X0195892Y0129087D01*
X0195754Y0129057D01*
X0195616Y0129030D01*
X0195477Y0129008D01*
X0195337Y0128989D01*
X0195197Y0128974D01*
X0195057Y0128963D01*
X0194916Y0128956D01*
X0194775Y0128953D01*
X0194634Y0128954D01*
X0194494Y0128959D01*
X0194353Y0128968D01*
X0194213Y0128981D01*
X0194073Y0128998D01*
X0193933Y0129018D01*
X0193795Y0129043D01*
X0193657Y0129072D01*
X0193520Y0129104D01*
X0193384Y0129140D01*
X0193249Y0129181D01*
X0193115Y0129225D01*
X0192982Y0129272D01*
X0192851Y0129324D01*
X0192721Y0129379D01*
X0192593Y0129437D01*
X0192467Y0129500D01*
X0192342Y0129565D01*
X0192220Y0129635D01*
X0192099Y0129707D01*
X0191980Y0129783D01*
X0191864Y0129863D01*
X0191750Y0129946D01*
X0191638Y0130031D01*
X0191529Y0130120D01*
X0191422Y0130212D01*
X0191318Y0130307D01*
X0191217Y0130405D01*
X0191118Y0130506D01*
X0191023Y0130609D01*
X0190930Y0130715D01*
X0190840Y0130824D01*
X0190754Y0130935D01*
X0190670Y0131048D01*
X0190590Y0131164D01*
X0190513Y0131282D01*
X0190440Y0131402D01*
X0190369Y0131525D01*
X0190303Y0131649D01*
X0190240Y0131775D01*
X0190180Y0131902D01*
X0190124Y0132031D01*
X0190072Y0132162D01*
X0190023Y0132294D01*
X0189978Y0132428D01*
X0189937Y0132563D01*
X0189900Y0132699D01*
X0189866Y0132835D01*
X0189837Y0132973D01*
X0189811Y0133112D01*
X0189790Y0133251D01*
X0189772Y0133391D01*
X0189758Y0133531D01*
X0189748Y0133671D01*
X0189742Y0133812D01*
X0189740Y0133953D01*
X0217142Y0113520D02*
X0217144Y0113661D01*
X0217150Y0113802D01*
X0217160Y0113942D01*
X0217174Y0114082D01*
X0217192Y0114222D01*
X0217213Y0114361D01*
X0217239Y0114500D01*
X0217268Y0114638D01*
X0217302Y0114774D01*
X0217339Y0114910D01*
X0217380Y0115045D01*
X0217425Y0115179D01*
X0217474Y0115311D01*
X0217526Y0115442D01*
X0217582Y0115571D01*
X0217642Y0115698D01*
X0217705Y0115824D01*
X0217771Y0115948D01*
X0217842Y0116071D01*
X0217915Y0116191D01*
X0217992Y0116309D01*
X0218072Y0116425D01*
X0218156Y0116538D01*
X0218242Y0116649D01*
X0218332Y0116758D01*
X0218425Y0116864D01*
X0218520Y0116967D01*
X0218619Y0117068D01*
X0218720Y0117166D01*
X0218824Y0117261D01*
X0218931Y0117353D01*
X0219040Y0117442D01*
X0219152Y0117527D01*
X0219266Y0117610D01*
X0219382Y0117690D01*
X0219501Y0117766D01*
X0219622Y0117838D01*
X0219744Y0117908D01*
X0219869Y0117973D01*
X0219995Y0118036D01*
X0220123Y0118094D01*
X0220253Y0118149D01*
X0220384Y0118201D01*
X0220517Y0118248D01*
X0220651Y0118292D01*
X0220786Y0118333D01*
X0220922Y0118369D01*
X0221059Y0118401D01*
X0221197Y0118430D01*
X0221335Y0118455D01*
X0221475Y0118475D01*
X0221615Y0118492D01*
X0221755Y0118505D01*
X0221896Y0118514D01*
X0222036Y0118519D01*
X0222177Y0118520D01*
X0222318Y0118517D01*
X0222459Y0118510D01*
X0222599Y0118499D01*
X0222739Y0118484D01*
X0222879Y0118465D01*
X0223018Y0118443D01*
X0223156Y0118416D01*
X0223294Y0118386D01*
X0223430Y0118351D01*
X0223566Y0118313D01*
X0223700Y0118271D01*
X0223834Y0118225D01*
X0223966Y0118176D01*
X0224096Y0118122D01*
X0224225Y0118065D01*
X0224352Y0118005D01*
X0224478Y0117941D01*
X0224601Y0117873D01*
X0224723Y0117802D01*
X0224843Y0117728D01*
X0224960Y0117650D01*
X0225075Y0117569D01*
X0225188Y0117485D01*
X0225299Y0117398D01*
X0225407Y0117307D01*
X0225512Y0117214D01*
X0225615Y0117117D01*
X0225715Y0117018D01*
X0225812Y0116916D01*
X0225906Y0116811D01*
X0225997Y0116704D01*
X0226085Y0116594D01*
X0226170Y0116482D01*
X0226252Y0116367D01*
X0226331Y0116250D01*
X0226406Y0116131D01*
X0226478Y0116010D01*
X0226546Y0115887D01*
X0226611Y0115762D01*
X0226673Y0115635D01*
X0226730Y0115506D01*
X0226785Y0115376D01*
X0226835Y0115245D01*
X0226882Y0115112D01*
X0226925Y0114978D01*
X0226964Y0114842D01*
X0226999Y0114706D01*
X0227031Y0114569D01*
X0227058Y0114431D01*
X0227082Y0114292D01*
X0227102Y0114152D01*
X0227118Y0114012D01*
X0227130Y0113872D01*
X0227138Y0113731D01*
X0227142Y0113590D01*
X0227142Y0113450D01*
X0227138Y0113309D01*
X0227130Y0113168D01*
X0227118Y0113028D01*
X0227102Y0112888D01*
X0227082Y0112748D01*
X0227058Y0112609D01*
X0227031Y0112471D01*
X0226999Y0112334D01*
X0226964Y0112198D01*
X0226925Y0112062D01*
X0226882Y0111928D01*
X0226835Y0111795D01*
X0226785Y0111664D01*
X0226730Y0111534D01*
X0226673Y0111405D01*
X0226611Y0111278D01*
X0226546Y0111153D01*
X0226478Y0111030D01*
X0226406Y0110909D01*
X0226331Y0110790D01*
X0226252Y0110673D01*
X0226170Y0110558D01*
X0226085Y0110446D01*
X0225997Y0110336D01*
X0225906Y0110229D01*
X0225812Y0110124D01*
X0225715Y0110022D01*
X0225615Y0109923D01*
X0225512Y0109826D01*
X0225407Y0109733D01*
X0225299Y0109642D01*
X0225188Y0109555D01*
X0225075Y0109471D01*
X0224960Y0109390D01*
X0224843Y0109312D01*
X0224723Y0109238D01*
X0224601Y0109167D01*
X0224478Y0109099D01*
X0224352Y0109035D01*
X0224225Y0108975D01*
X0224096Y0108918D01*
X0223966Y0108864D01*
X0223834Y0108815D01*
X0223700Y0108769D01*
X0223566Y0108727D01*
X0223430Y0108689D01*
X0223294Y0108654D01*
X0223156Y0108624D01*
X0223018Y0108597D01*
X0222879Y0108575D01*
X0222739Y0108556D01*
X0222599Y0108541D01*
X0222459Y0108530D01*
X0222318Y0108523D01*
X0222177Y0108520D01*
X0222036Y0108521D01*
X0221896Y0108526D01*
X0221755Y0108535D01*
X0221615Y0108548D01*
X0221475Y0108565D01*
X0221335Y0108585D01*
X0221197Y0108610D01*
X0221059Y0108639D01*
X0220922Y0108671D01*
X0220786Y0108707D01*
X0220651Y0108748D01*
X0220517Y0108792D01*
X0220384Y0108839D01*
X0220253Y0108891D01*
X0220123Y0108946D01*
X0219995Y0109004D01*
X0219869Y0109067D01*
X0219744Y0109132D01*
X0219622Y0109202D01*
X0219501Y0109274D01*
X0219382Y0109350D01*
X0219266Y0109430D01*
X0219152Y0109513D01*
X0219040Y0109598D01*
X0218931Y0109687D01*
X0218824Y0109779D01*
X0218720Y0109874D01*
X0218619Y0109972D01*
X0218520Y0110073D01*
X0218425Y0110176D01*
X0218332Y0110282D01*
X0218242Y0110391D01*
X0218156Y0110502D01*
X0218072Y0110615D01*
X0217992Y0110731D01*
X0217915Y0110849D01*
X0217842Y0110969D01*
X0217771Y0111092D01*
X0217705Y0111216D01*
X0217642Y0111342D01*
X0217582Y0111469D01*
X0217526Y0111598D01*
X0217474Y0111729D01*
X0217425Y0111861D01*
X0217380Y0111995D01*
X0217339Y0112130D01*
X0217302Y0112266D01*
X0217268Y0112402D01*
X0217239Y0112540D01*
X0217213Y0112679D01*
X0217192Y0112818D01*
X0217174Y0112958D01*
X0217160Y0113098D01*
X0217150Y0113238D01*
X0217144Y0113379D01*
X0217142Y0113520D01*
X0315685Y0093717D02*
X0315687Y0093858D01*
X0315693Y0093999D01*
X0315703Y0094139D01*
X0315717Y0094279D01*
X0315735Y0094419D01*
X0315756Y0094558D01*
X0315782Y0094697D01*
X0315811Y0094835D01*
X0315845Y0094971D01*
X0315882Y0095107D01*
X0315923Y0095242D01*
X0315968Y0095376D01*
X0316017Y0095508D01*
X0316069Y0095639D01*
X0316125Y0095768D01*
X0316185Y0095895D01*
X0316248Y0096021D01*
X0316314Y0096145D01*
X0316385Y0096268D01*
X0316458Y0096388D01*
X0316535Y0096506D01*
X0316615Y0096622D01*
X0316699Y0096735D01*
X0316785Y0096846D01*
X0316875Y0096955D01*
X0316968Y0097061D01*
X0317063Y0097164D01*
X0317162Y0097265D01*
X0317263Y0097363D01*
X0317367Y0097458D01*
X0317474Y0097550D01*
X0317583Y0097639D01*
X0317695Y0097724D01*
X0317809Y0097807D01*
X0317925Y0097887D01*
X0318044Y0097963D01*
X0318165Y0098035D01*
X0318287Y0098105D01*
X0318412Y0098170D01*
X0318538Y0098233D01*
X0318666Y0098291D01*
X0318796Y0098346D01*
X0318927Y0098398D01*
X0319060Y0098445D01*
X0319194Y0098489D01*
X0319329Y0098530D01*
X0319465Y0098566D01*
X0319602Y0098598D01*
X0319740Y0098627D01*
X0319878Y0098652D01*
X0320018Y0098672D01*
X0320158Y0098689D01*
X0320298Y0098702D01*
X0320439Y0098711D01*
X0320579Y0098716D01*
X0320720Y0098717D01*
X0320861Y0098714D01*
X0321002Y0098707D01*
X0321142Y0098696D01*
X0321282Y0098681D01*
X0321422Y0098662D01*
X0321561Y0098640D01*
X0321699Y0098613D01*
X0321837Y0098583D01*
X0321973Y0098548D01*
X0322109Y0098510D01*
X0322243Y0098468D01*
X0322377Y0098422D01*
X0322509Y0098373D01*
X0322639Y0098319D01*
X0322768Y0098262D01*
X0322895Y0098202D01*
X0323021Y0098138D01*
X0323144Y0098070D01*
X0323266Y0097999D01*
X0323386Y0097925D01*
X0323503Y0097847D01*
X0323618Y0097766D01*
X0323731Y0097682D01*
X0323842Y0097595D01*
X0323950Y0097504D01*
X0324055Y0097411D01*
X0324158Y0097314D01*
X0324258Y0097215D01*
X0324355Y0097113D01*
X0324449Y0097008D01*
X0324540Y0096901D01*
X0324628Y0096791D01*
X0324713Y0096679D01*
X0324795Y0096564D01*
X0324874Y0096447D01*
X0324949Y0096328D01*
X0325021Y0096207D01*
X0325089Y0096084D01*
X0325154Y0095959D01*
X0325216Y0095832D01*
X0325273Y0095703D01*
X0325328Y0095573D01*
X0325378Y0095442D01*
X0325425Y0095309D01*
X0325468Y0095175D01*
X0325507Y0095039D01*
X0325542Y0094903D01*
X0325574Y0094766D01*
X0325601Y0094628D01*
X0325625Y0094489D01*
X0325645Y0094349D01*
X0325661Y0094209D01*
X0325673Y0094069D01*
X0325681Y0093928D01*
X0325685Y0093787D01*
X0325685Y0093647D01*
X0325681Y0093506D01*
X0325673Y0093365D01*
X0325661Y0093225D01*
X0325645Y0093085D01*
X0325625Y0092945D01*
X0325601Y0092806D01*
X0325574Y0092668D01*
X0325542Y0092531D01*
X0325507Y0092395D01*
X0325468Y0092259D01*
X0325425Y0092125D01*
X0325378Y0091992D01*
X0325328Y0091861D01*
X0325273Y0091731D01*
X0325216Y0091602D01*
X0325154Y0091475D01*
X0325089Y0091350D01*
X0325021Y0091227D01*
X0324949Y0091106D01*
X0324874Y0090987D01*
X0324795Y0090870D01*
X0324713Y0090755D01*
X0324628Y0090643D01*
X0324540Y0090533D01*
X0324449Y0090426D01*
X0324355Y0090321D01*
X0324258Y0090219D01*
X0324158Y0090120D01*
X0324055Y0090023D01*
X0323950Y0089930D01*
X0323842Y0089839D01*
X0323731Y0089752D01*
X0323618Y0089668D01*
X0323503Y0089587D01*
X0323386Y0089509D01*
X0323266Y0089435D01*
X0323144Y0089364D01*
X0323021Y0089296D01*
X0322895Y0089232D01*
X0322768Y0089172D01*
X0322639Y0089115D01*
X0322509Y0089061D01*
X0322377Y0089012D01*
X0322243Y0088966D01*
X0322109Y0088924D01*
X0321973Y0088886D01*
X0321837Y0088851D01*
X0321699Y0088821D01*
X0321561Y0088794D01*
X0321422Y0088772D01*
X0321282Y0088753D01*
X0321142Y0088738D01*
X0321002Y0088727D01*
X0320861Y0088720D01*
X0320720Y0088717D01*
X0320579Y0088718D01*
X0320439Y0088723D01*
X0320298Y0088732D01*
X0320158Y0088745D01*
X0320018Y0088762D01*
X0319878Y0088782D01*
X0319740Y0088807D01*
X0319602Y0088836D01*
X0319465Y0088868D01*
X0319329Y0088904D01*
X0319194Y0088945D01*
X0319060Y0088989D01*
X0318927Y0089036D01*
X0318796Y0089088D01*
X0318666Y0089143D01*
X0318538Y0089201D01*
X0318412Y0089264D01*
X0318287Y0089329D01*
X0318165Y0089399D01*
X0318044Y0089471D01*
X0317925Y0089547D01*
X0317809Y0089627D01*
X0317695Y0089710D01*
X0317583Y0089795D01*
X0317474Y0089884D01*
X0317367Y0089976D01*
X0317263Y0090071D01*
X0317162Y0090169D01*
X0317063Y0090270D01*
X0316968Y0090373D01*
X0316875Y0090479D01*
X0316785Y0090588D01*
X0316699Y0090699D01*
X0316615Y0090812D01*
X0316535Y0090928D01*
X0316458Y0091046D01*
X0316385Y0091166D01*
X0316314Y0091289D01*
X0316248Y0091413D01*
X0316185Y0091539D01*
X0316125Y0091666D01*
X0316069Y0091795D01*
X0316017Y0091926D01*
X0315968Y0092058D01*
X0315923Y0092192D01*
X0315882Y0092327D01*
X0315845Y0092463D01*
X0315811Y0092599D01*
X0315782Y0092737D01*
X0315756Y0092876D01*
X0315735Y0093015D01*
X0315717Y0093155D01*
X0315703Y0093295D01*
X0315693Y0093435D01*
X0315687Y0093576D01*
X0315685Y0093717D01*
X0315685Y0013717D02*
X0315687Y0013858D01*
X0315693Y0013999D01*
X0315703Y0014139D01*
X0315717Y0014279D01*
X0315735Y0014419D01*
X0315756Y0014558D01*
X0315782Y0014697D01*
X0315811Y0014835D01*
X0315845Y0014971D01*
X0315882Y0015107D01*
X0315923Y0015242D01*
X0315968Y0015376D01*
X0316017Y0015508D01*
X0316069Y0015639D01*
X0316125Y0015768D01*
X0316185Y0015895D01*
X0316248Y0016021D01*
X0316314Y0016145D01*
X0316385Y0016268D01*
X0316458Y0016388D01*
X0316535Y0016506D01*
X0316615Y0016622D01*
X0316699Y0016735D01*
X0316785Y0016846D01*
X0316875Y0016955D01*
X0316968Y0017061D01*
X0317063Y0017164D01*
X0317162Y0017265D01*
X0317263Y0017363D01*
X0317367Y0017458D01*
X0317474Y0017550D01*
X0317583Y0017639D01*
X0317695Y0017724D01*
X0317809Y0017807D01*
X0317925Y0017887D01*
X0318044Y0017963D01*
X0318165Y0018035D01*
X0318287Y0018105D01*
X0318412Y0018170D01*
X0318538Y0018233D01*
X0318666Y0018291D01*
X0318796Y0018346D01*
X0318927Y0018398D01*
X0319060Y0018445D01*
X0319194Y0018489D01*
X0319329Y0018530D01*
X0319465Y0018566D01*
X0319602Y0018598D01*
X0319740Y0018627D01*
X0319878Y0018652D01*
X0320018Y0018672D01*
X0320158Y0018689D01*
X0320298Y0018702D01*
X0320439Y0018711D01*
X0320579Y0018716D01*
X0320720Y0018717D01*
X0320861Y0018714D01*
X0321002Y0018707D01*
X0321142Y0018696D01*
X0321282Y0018681D01*
X0321422Y0018662D01*
X0321561Y0018640D01*
X0321699Y0018613D01*
X0321837Y0018583D01*
X0321973Y0018548D01*
X0322109Y0018510D01*
X0322243Y0018468D01*
X0322377Y0018422D01*
X0322509Y0018373D01*
X0322639Y0018319D01*
X0322768Y0018262D01*
X0322895Y0018202D01*
X0323021Y0018138D01*
X0323144Y0018070D01*
X0323266Y0017999D01*
X0323386Y0017925D01*
X0323503Y0017847D01*
X0323618Y0017766D01*
X0323731Y0017682D01*
X0323842Y0017595D01*
X0323950Y0017504D01*
X0324055Y0017411D01*
X0324158Y0017314D01*
X0324258Y0017215D01*
X0324355Y0017113D01*
X0324449Y0017008D01*
X0324540Y0016901D01*
X0324628Y0016791D01*
X0324713Y0016679D01*
X0324795Y0016564D01*
X0324874Y0016447D01*
X0324949Y0016328D01*
X0325021Y0016207D01*
X0325089Y0016084D01*
X0325154Y0015959D01*
X0325216Y0015832D01*
X0325273Y0015703D01*
X0325328Y0015573D01*
X0325378Y0015442D01*
X0325425Y0015309D01*
X0325468Y0015175D01*
X0325507Y0015039D01*
X0325542Y0014903D01*
X0325574Y0014766D01*
X0325601Y0014628D01*
X0325625Y0014489D01*
X0325645Y0014349D01*
X0325661Y0014209D01*
X0325673Y0014069D01*
X0325681Y0013928D01*
X0325685Y0013787D01*
X0325685Y0013647D01*
X0325681Y0013506D01*
X0325673Y0013365D01*
X0325661Y0013225D01*
X0325645Y0013085D01*
X0325625Y0012945D01*
X0325601Y0012806D01*
X0325574Y0012668D01*
X0325542Y0012531D01*
X0325507Y0012395D01*
X0325468Y0012259D01*
X0325425Y0012125D01*
X0325378Y0011992D01*
X0325328Y0011861D01*
X0325273Y0011731D01*
X0325216Y0011602D01*
X0325154Y0011475D01*
X0325089Y0011350D01*
X0325021Y0011227D01*
X0324949Y0011106D01*
X0324874Y0010987D01*
X0324795Y0010870D01*
X0324713Y0010755D01*
X0324628Y0010643D01*
X0324540Y0010533D01*
X0324449Y0010426D01*
X0324355Y0010321D01*
X0324258Y0010219D01*
X0324158Y0010120D01*
X0324055Y0010023D01*
X0323950Y0009930D01*
X0323842Y0009839D01*
X0323731Y0009752D01*
X0323618Y0009668D01*
X0323503Y0009587D01*
X0323386Y0009509D01*
X0323266Y0009435D01*
X0323144Y0009364D01*
X0323021Y0009296D01*
X0322895Y0009232D01*
X0322768Y0009172D01*
X0322639Y0009115D01*
X0322509Y0009061D01*
X0322377Y0009012D01*
X0322243Y0008966D01*
X0322109Y0008924D01*
X0321973Y0008886D01*
X0321837Y0008851D01*
X0321699Y0008821D01*
X0321561Y0008794D01*
X0321422Y0008772D01*
X0321282Y0008753D01*
X0321142Y0008738D01*
X0321002Y0008727D01*
X0320861Y0008720D01*
X0320720Y0008717D01*
X0320579Y0008718D01*
X0320439Y0008723D01*
X0320298Y0008732D01*
X0320158Y0008745D01*
X0320018Y0008762D01*
X0319878Y0008782D01*
X0319740Y0008807D01*
X0319602Y0008836D01*
X0319465Y0008868D01*
X0319329Y0008904D01*
X0319194Y0008945D01*
X0319060Y0008989D01*
X0318927Y0009036D01*
X0318796Y0009088D01*
X0318666Y0009143D01*
X0318538Y0009201D01*
X0318412Y0009264D01*
X0318287Y0009329D01*
X0318165Y0009399D01*
X0318044Y0009471D01*
X0317925Y0009547D01*
X0317809Y0009627D01*
X0317695Y0009710D01*
X0317583Y0009795D01*
X0317474Y0009884D01*
X0317367Y0009976D01*
X0317263Y0010071D01*
X0317162Y0010169D01*
X0317063Y0010270D01*
X0316968Y0010373D01*
X0316875Y0010479D01*
X0316785Y0010588D01*
X0316699Y0010699D01*
X0316615Y0010812D01*
X0316535Y0010928D01*
X0316458Y0011046D01*
X0316385Y0011166D01*
X0316314Y0011289D01*
X0316248Y0011413D01*
X0316185Y0011539D01*
X0316125Y0011666D01*
X0316069Y0011795D01*
X0316017Y0011926D01*
X0315968Y0012058D01*
X0315923Y0012192D01*
X0315882Y0012327D01*
X0315845Y0012463D01*
X0315811Y0012599D01*
X0315782Y0012737D01*
X0315756Y0012876D01*
X0315735Y0013015D01*
X0315717Y0013155D01*
X0315703Y0013295D01*
X0315693Y0013435D01*
X0315687Y0013576D01*
X0315685Y0013717D01*
D11*
X0276035Y0065154D02*
X0269035Y0065154D01*
X0268975Y0065156D01*
X0268914Y0065161D01*
X0268855Y0065170D01*
X0268796Y0065183D01*
X0268737Y0065199D01*
X0268680Y0065219D01*
X0268625Y0065242D01*
X0268570Y0065269D01*
X0268518Y0065298D01*
X0268467Y0065331D01*
X0268418Y0065367D01*
X0268372Y0065405D01*
X0268328Y0065447D01*
X0268286Y0065491D01*
X0268248Y0065537D01*
X0268212Y0065586D01*
X0268179Y0065637D01*
X0268150Y0065689D01*
X0268123Y0065744D01*
X0268100Y0065799D01*
X0268080Y0065856D01*
X0268064Y0065915D01*
X0268051Y0065974D01*
X0268042Y0066033D01*
X0268037Y0066094D01*
X0268035Y0066154D01*
X0268035Y0067654D01*
X0268535Y0068154D01*
X0268535Y0087154D01*
X0268035Y0087654D01*
X0268035Y0089154D01*
X0268037Y0089214D01*
X0268042Y0089275D01*
X0268051Y0089334D01*
X0268064Y0089393D01*
X0268080Y0089452D01*
X0268100Y0089509D01*
X0268123Y0089564D01*
X0268150Y0089619D01*
X0268179Y0089671D01*
X0268212Y0089722D01*
X0268248Y0089771D01*
X0268286Y0089817D01*
X0268328Y0089861D01*
X0268372Y0089903D01*
X0268418Y0089941D01*
X0268467Y0089977D01*
X0268518Y0090010D01*
X0268570Y0090039D01*
X0268625Y0090066D01*
X0268680Y0090089D01*
X0268737Y0090109D01*
X0268796Y0090125D01*
X0268855Y0090138D01*
X0268914Y0090147D01*
X0268975Y0090152D01*
X0269035Y0090154D01*
X0276035Y0090154D01*
X0276095Y0090152D01*
X0276156Y0090147D01*
X0276215Y0090138D01*
X0276274Y0090125D01*
X0276333Y0090109D01*
X0276390Y0090089D01*
X0276445Y0090066D01*
X0276500Y0090039D01*
X0276552Y0090010D01*
X0276603Y0089977D01*
X0276652Y0089941D01*
X0276698Y0089903D01*
X0276742Y0089861D01*
X0276784Y0089817D01*
X0276822Y0089771D01*
X0276858Y0089722D01*
X0276891Y0089671D01*
X0276920Y0089619D01*
X0276947Y0089564D01*
X0276970Y0089509D01*
X0276990Y0089452D01*
X0277006Y0089393D01*
X0277019Y0089334D01*
X0277028Y0089275D01*
X0277033Y0089214D01*
X0277035Y0089154D01*
X0277035Y0087654D01*
X0276535Y0087154D01*
X0276535Y0068154D01*
X0277035Y0067654D01*
X0277035Y0066154D01*
X0277033Y0066094D01*
X0277028Y0066033D01*
X0277019Y0065974D01*
X0277006Y0065915D01*
X0276990Y0065856D01*
X0276970Y0065799D01*
X0276947Y0065744D01*
X0276920Y0065689D01*
X0276891Y0065637D01*
X0276858Y0065586D01*
X0276822Y0065537D01*
X0276784Y0065491D01*
X0276742Y0065447D01*
X0276698Y0065405D01*
X0276652Y0065367D01*
X0276603Y0065331D01*
X0276552Y0065298D01*
X0276500Y0065269D01*
X0276445Y0065242D01*
X0276390Y0065219D01*
X0276333Y0065199D01*
X0276274Y0065183D01*
X0276215Y0065170D01*
X0276156Y0065161D01*
X0276095Y0065156D01*
X0276035Y0065154D01*
X0261287Y0067335D02*
X0261287Y0068835D01*
X0260787Y0069335D01*
X0260787Y0088335D01*
X0261287Y0088835D01*
X0261287Y0090335D01*
X0261285Y0090395D01*
X0261280Y0090456D01*
X0261271Y0090515D01*
X0261258Y0090574D01*
X0261242Y0090633D01*
X0261222Y0090690D01*
X0261199Y0090745D01*
X0261172Y0090800D01*
X0261143Y0090852D01*
X0261110Y0090903D01*
X0261074Y0090952D01*
X0261036Y0090998D01*
X0260994Y0091042D01*
X0260950Y0091084D01*
X0260904Y0091122D01*
X0260855Y0091158D01*
X0260804Y0091191D01*
X0260752Y0091220D01*
X0260697Y0091247D01*
X0260642Y0091270D01*
X0260585Y0091290D01*
X0260526Y0091306D01*
X0260467Y0091319D01*
X0260408Y0091328D01*
X0260347Y0091333D01*
X0260287Y0091335D01*
X0253287Y0091335D01*
X0253227Y0091333D01*
X0253166Y0091328D01*
X0253107Y0091319D01*
X0253048Y0091306D01*
X0252989Y0091290D01*
X0252932Y0091270D01*
X0252877Y0091247D01*
X0252822Y0091220D01*
X0252770Y0091191D01*
X0252719Y0091158D01*
X0252670Y0091122D01*
X0252624Y0091084D01*
X0252580Y0091042D01*
X0252538Y0090998D01*
X0252500Y0090952D01*
X0252464Y0090903D01*
X0252431Y0090852D01*
X0252402Y0090800D01*
X0252375Y0090745D01*
X0252352Y0090690D01*
X0252332Y0090633D01*
X0252316Y0090574D01*
X0252303Y0090515D01*
X0252294Y0090456D01*
X0252289Y0090395D01*
X0252287Y0090335D01*
X0252287Y0088835D01*
X0252787Y0088335D01*
X0252787Y0069335D01*
X0252287Y0068835D01*
X0252287Y0067335D01*
X0252289Y0067275D01*
X0252294Y0067214D01*
X0252303Y0067155D01*
X0252316Y0067096D01*
X0252332Y0067037D01*
X0252352Y0066980D01*
X0252375Y0066925D01*
X0252402Y0066870D01*
X0252431Y0066818D01*
X0252464Y0066767D01*
X0252500Y0066718D01*
X0252538Y0066672D01*
X0252580Y0066628D01*
X0252624Y0066586D01*
X0252670Y0066548D01*
X0252719Y0066512D01*
X0252770Y0066479D01*
X0252822Y0066450D01*
X0252877Y0066423D01*
X0252932Y0066400D01*
X0252989Y0066380D01*
X0253048Y0066364D01*
X0253107Y0066351D01*
X0253166Y0066342D01*
X0253227Y0066337D01*
X0253287Y0066335D01*
X0260287Y0066335D01*
X0260347Y0066337D01*
X0260408Y0066342D01*
X0260467Y0066351D01*
X0260526Y0066364D01*
X0260585Y0066380D01*
X0260642Y0066400D01*
X0260697Y0066423D01*
X0260752Y0066450D01*
X0260804Y0066479D01*
X0260855Y0066512D01*
X0260904Y0066548D01*
X0260950Y0066586D01*
X0260994Y0066628D01*
X0261036Y0066672D01*
X0261074Y0066718D01*
X0261110Y0066767D01*
X0261143Y0066818D01*
X0261172Y0066870D01*
X0261199Y0066925D01*
X0261222Y0066980D01*
X0261242Y0067037D01*
X0261258Y0067096D01*
X0261271Y0067155D01*
X0261280Y0067214D01*
X0261285Y0067275D01*
X0261287Y0067335D01*
X0245606Y0071492D02*
X0245606Y0056492D01*
X0243106Y0053992D01*
X0238106Y0053992D01*
X0235606Y0056492D01*
X0235606Y0071492D01*
X0238106Y0073992D01*
X0243106Y0073992D01*
X0245606Y0071492D01*
X0235606Y0071492D02*
X0233106Y0073992D01*
X0228106Y0073992D01*
X0225606Y0071492D01*
X0225606Y0056492D01*
X0223106Y0053992D01*
X0218106Y0053992D01*
X0215606Y0056492D01*
X0215606Y0071492D01*
X0218106Y0073992D01*
X0223106Y0073992D01*
X0225606Y0071492D01*
X0215606Y0071492D02*
X0213106Y0073992D01*
X0208106Y0073992D01*
X0205606Y0071492D01*
X0205606Y0056492D01*
X0203106Y0053992D01*
X0198106Y0053992D01*
X0195606Y0056492D01*
X0195606Y0071492D01*
X0198106Y0073992D01*
X0203106Y0073992D01*
X0205606Y0071492D01*
X0195606Y0071492D02*
X0193106Y0073992D01*
X0188106Y0073992D01*
X0185606Y0071492D01*
X0185606Y0056492D01*
X0183106Y0053992D01*
X0178106Y0053992D01*
X0175606Y0056492D01*
X0175606Y0071492D01*
X0178106Y0073992D01*
X0183106Y0073992D01*
X0185606Y0071492D01*
X0175606Y0071492D02*
X0173106Y0073992D01*
X0168106Y0073992D01*
X0165606Y0071492D01*
X0165606Y0056492D01*
X0163106Y0053992D01*
X0158106Y0053992D01*
X0155606Y0056492D01*
X0155606Y0071492D01*
X0158106Y0073992D01*
X0163106Y0073992D01*
X0165606Y0071492D01*
X0155606Y0071492D02*
X0153106Y0073992D01*
X0148106Y0073992D01*
X0145606Y0071492D01*
X0145606Y0056492D01*
X0143106Y0053992D01*
X0138106Y0053992D01*
X0135606Y0056492D01*
X0135606Y0071492D01*
X0138106Y0073992D01*
X0143106Y0073992D01*
X0145606Y0071492D01*
X0135606Y0071492D02*
X0133106Y0073992D01*
X0128106Y0073992D01*
X0125606Y0071492D01*
X0125606Y0056492D01*
X0123106Y0053992D01*
X0118106Y0053992D01*
X0115606Y0056492D01*
X0115606Y0071492D01*
X0118106Y0073992D01*
X0123106Y0073992D01*
X0125606Y0071492D01*
X0115606Y0071492D02*
X0113106Y0073992D01*
X0108106Y0073992D01*
X0105606Y0071492D01*
X0105606Y0056492D01*
X0108106Y0053992D01*
X0113106Y0053992D01*
X0115606Y0056492D01*
X0105606Y0056492D02*
X0103106Y0053992D01*
X0098106Y0053992D01*
X0095606Y0056492D01*
X0095606Y0071492D01*
X0098106Y0073992D01*
X0103106Y0073992D01*
X0105606Y0071492D01*
X0095606Y0071492D02*
X0093106Y0073992D01*
X0088106Y0073992D01*
X0085606Y0071492D01*
X0085606Y0056492D01*
X0088106Y0053992D01*
X0093106Y0053992D01*
X0095606Y0056492D01*
X0085606Y0056492D02*
X0083106Y0053992D01*
X0078106Y0053992D01*
X0075606Y0056492D01*
X0075606Y0071492D01*
X0078106Y0073992D01*
X0083106Y0073992D01*
X0085606Y0071492D01*
X0075606Y0071492D02*
X0073106Y0073992D01*
X0068106Y0073992D01*
X0065606Y0071492D01*
X0065606Y0056492D01*
X0068106Y0053992D01*
X0073106Y0053992D01*
X0075606Y0056492D01*
X0065606Y0056492D02*
X0063106Y0053992D01*
X0058106Y0053992D01*
X0055606Y0056492D01*
X0055606Y0071492D01*
X0058106Y0073992D01*
X0063106Y0073992D01*
X0065606Y0071492D01*
X0053783Y0064402D02*
X0050283Y0064402D01*
X0050283Y0058402D01*
X0053783Y0058402D01*
X0053783Y0050902D01*
X0012783Y0050902D01*
X0012783Y0058402D01*
X0016283Y0058402D01*
X0016283Y0064402D01*
X0012783Y0064402D01*
X0012783Y0113402D01*
X0053783Y0113402D01*
X0053783Y0064402D01*
X0049988Y0047000D02*
X0010689Y0047000D01*
X0010689Y0046201D01*
X0049988Y0046201D01*
X0049988Y0020201D01*
X0049988Y0010799D01*
X0010689Y0010799D01*
X0010689Y0020201D01*
X0010689Y0046201D01*
X0018488Y0040999D02*
X0018490Y0041088D01*
X0018496Y0041177D01*
X0018506Y0041266D01*
X0018520Y0041354D01*
X0018537Y0041441D01*
X0018559Y0041527D01*
X0018585Y0041613D01*
X0018614Y0041697D01*
X0018647Y0041780D01*
X0018683Y0041861D01*
X0018724Y0041941D01*
X0018767Y0042018D01*
X0018814Y0042094D01*
X0018865Y0042167D01*
X0018918Y0042238D01*
X0018975Y0042307D01*
X0019035Y0042373D01*
X0019098Y0042437D01*
X0019163Y0042497D01*
X0019231Y0042555D01*
X0019302Y0042609D01*
X0019375Y0042660D01*
X0019450Y0042708D01*
X0019527Y0042753D01*
X0019606Y0042794D01*
X0019687Y0042831D01*
X0019769Y0042865D01*
X0019853Y0042896D01*
X0019938Y0042922D01*
X0020024Y0042945D01*
X0020111Y0042963D01*
X0020199Y0042978D01*
X0020288Y0042989D01*
X0020377Y0042996D01*
X0020466Y0042999D01*
X0020555Y0042998D01*
X0020644Y0042993D01*
X0020732Y0042984D01*
X0020821Y0042971D01*
X0020908Y0042954D01*
X0020995Y0042934D01*
X0021081Y0042909D01*
X0021165Y0042881D01*
X0021248Y0042849D01*
X0021330Y0042813D01*
X0021410Y0042774D01*
X0021488Y0042731D01*
X0021564Y0042685D01*
X0021638Y0042635D01*
X0021710Y0042582D01*
X0021779Y0042526D01*
X0021846Y0042467D01*
X0021910Y0042405D01*
X0021971Y0042341D01*
X0022030Y0042273D01*
X0022085Y0042203D01*
X0022137Y0042131D01*
X0022186Y0042056D01*
X0022231Y0041980D01*
X0022273Y0041901D01*
X0022311Y0041821D01*
X0022346Y0041739D01*
X0022377Y0041655D01*
X0022405Y0041570D01*
X0022428Y0041484D01*
X0022448Y0041397D01*
X0022464Y0041310D01*
X0022476Y0041221D01*
X0022484Y0041133D01*
X0022488Y0041044D01*
X0022488Y0040954D01*
X0022484Y0040865D01*
X0022476Y0040777D01*
X0022464Y0040688D01*
X0022448Y0040601D01*
X0022428Y0040514D01*
X0022405Y0040428D01*
X0022377Y0040343D01*
X0022346Y0040259D01*
X0022311Y0040177D01*
X0022273Y0040097D01*
X0022231Y0040018D01*
X0022186Y0039942D01*
X0022137Y0039867D01*
X0022085Y0039795D01*
X0022030Y0039725D01*
X0021971Y0039657D01*
X0021910Y0039593D01*
X0021846Y0039531D01*
X0021779Y0039472D01*
X0021710Y0039416D01*
X0021638Y0039363D01*
X0021564Y0039313D01*
X0021488Y0039267D01*
X0021410Y0039224D01*
X0021330Y0039185D01*
X0021248Y0039149D01*
X0021165Y0039117D01*
X0021081Y0039089D01*
X0020995Y0039064D01*
X0020908Y0039044D01*
X0020821Y0039027D01*
X0020732Y0039014D01*
X0020644Y0039005D01*
X0020555Y0039000D01*
X0020466Y0038999D01*
X0020377Y0039002D01*
X0020288Y0039009D01*
X0020199Y0039020D01*
X0020111Y0039035D01*
X0020024Y0039053D01*
X0019938Y0039076D01*
X0019853Y0039102D01*
X0019769Y0039133D01*
X0019687Y0039167D01*
X0019606Y0039204D01*
X0019527Y0039245D01*
X0019450Y0039290D01*
X0019375Y0039338D01*
X0019302Y0039389D01*
X0019231Y0039443D01*
X0019163Y0039501D01*
X0019098Y0039561D01*
X0019035Y0039625D01*
X0018975Y0039691D01*
X0018918Y0039760D01*
X0018865Y0039831D01*
X0018814Y0039904D01*
X0018767Y0039980D01*
X0018724Y0040057D01*
X0018683Y0040137D01*
X0018647Y0040218D01*
X0018614Y0040301D01*
X0018585Y0040385D01*
X0018559Y0040471D01*
X0018537Y0040557D01*
X0018520Y0040644D01*
X0018506Y0040732D01*
X0018496Y0040821D01*
X0018490Y0040910D01*
X0018488Y0040999D01*
X0038188Y0040999D02*
X0038190Y0041088D01*
X0038196Y0041177D01*
X0038206Y0041266D01*
X0038220Y0041354D01*
X0038237Y0041441D01*
X0038259Y0041527D01*
X0038285Y0041613D01*
X0038314Y0041697D01*
X0038347Y0041780D01*
X0038383Y0041861D01*
X0038424Y0041941D01*
X0038467Y0042018D01*
X0038514Y0042094D01*
X0038565Y0042167D01*
X0038618Y0042238D01*
X0038675Y0042307D01*
X0038735Y0042373D01*
X0038798Y0042437D01*
X0038863Y0042497D01*
X0038931Y0042555D01*
X0039002Y0042609D01*
X0039075Y0042660D01*
X0039150Y0042708D01*
X0039227Y0042753D01*
X0039306Y0042794D01*
X0039387Y0042831D01*
X0039469Y0042865D01*
X0039553Y0042896D01*
X0039638Y0042922D01*
X0039724Y0042945D01*
X0039811Y0042963D01*
X0039899Y0042978D01*
X0039988Y0042989D01*
X0040077Y0042996D01*
X0040166Y0042999D01*
X0040255Y0042998D01*
X0040344Y0042993D01*
X0040432Y0042984D01*
X0040521Y0042971D01*
X0040608Y0042954D01*
X0040695Y0042934D01*
X0040781Y0042909D01*
X0040865Y0042881D01*
X0040948Y0042849D01*
X0041030Y0042813D01*
X0041110Y0042774D01*
X0041188Y0042731D01*
X0041264Y0042685D01*
X0041338Y0042635D01*
X0041410Y0042582D01*
X0041479Y0042526D01*
X0041546Y0042467D01*
X0041610Y0042405D01*
X0041671Y0042341D01*
X0041730Y0042273D01*
X0041785Y0042203D01*
X0041837Y0042131D01*
X0041886Y0042056D01*
X0041931Y0041980D01*
X0041973Y0041901D01*
X0042011Y0041821D01*
X0042046Y0041739D01*
X0042077Y0041655D01*
X0042105Y0041570D01*
X0042128Y0041484D01*
X0042148Y0041397D01*
X0042164Y0041310D01*
X0042176Y0041221D01*
X0042184Y0041133D01*
X0042188Y0041044D01*
X0042188Y0040954D01*
X0042184Y0040865D01*
X0042176Y0040777D01*
X0042164Y0040688D01*
X0042148Y0040601D01*
X0042128Y0040514D01*
X0042105Y0040428D01*
X0042077Y0040343D01*
X0042046Y0040259D01*
X0042011Y0040177D01*
X0041973Y0040097D01*
X0041931Y0040018D01*
X0041886Y0039942D01*
X0041837Y0039867D01*
X0041785Y0039795D01*
X0041730Y0039725D01*
X0041671Y0039657D01*
X0041610Y0039593D01*
X0041546Y0039531D01*
X0041479Y0039472D01*
X0041410Y0039416D01*
X0041338Y0039363D01*
X0041264Y0039313D01*
X0041188Y0039267D01*
X0041110Y0039224D01*
X0041030Y0039185D01*
X0040948Y0039149D01*
X0040865Y0039117D01*
X0040781Y0039089D01*
X0040695Y0039064D01*
X0040608Y0039044D01*
X0040521Y0039027D01*
X0040432Y0039014D01*
X0040344Y0039005D01*
X0040255Y0039000D01*
X0040166Y0038999D01*
X0040077Y0039002D01*
X0039988Y0039009D01*
X0039899Y0039020D01*
X0039811Y0039035D01*
X0039724Y0039053D01*
X0039638Y0039076D01*
X0039553Y0039102D01*
X0039469Y0039133D01*
X0039387Y0039167D01*
X0039306Y0039204D01*
X0039227Y0039245D01*
X0039150Y0039290D01*
X0039075Y0039338D01*
X0039002Y0039389D01*
X0038931Y0039443D01*
X0038863Y0039501D01*
X0038798Y0039561D01*
X0038735Y0039625D01*
X0038675Y0039691D01*
X0038618Y0039760D01*
X0038565Y0039831D01*
X0038514Y0039904D01*
X0038467Y0039980D01*
X0038424Y0040057D01*
X0038383Y0040137D01*
X0038347Y0040218D01*
X0038314Y0040301D01*
X0038285Y0040385D01*
X0038259Y0040471D01*
X0038237Y0040557D01*
X0038220Y0040644D01*
X0038206Y0040732D01*
X0038196Y0040821D01*
X0038190Y0040910D01*
X0038188Y0040999D01*
X0049988Y0046201D02*
X0049988Y0047000D01*
X0026183Y0064402D02*
X0026185Y0064576D01*
X0026192Y0064750D01*
X0026202Y0064924D01*
X0026217Y0065098D01*
X0026236Y0065271D01*
X0026260Y0065444D01*
X0026288Y0065616D01*
X0026319Y0065787D01*
X0026356Y0065958D01*
X0026396Y0066127D01*
X0026440Y0066296D01*
X0026489Y0066463D01*
X0026541Y0066629D01*
X0026598Y0066794D01*
X0026659Y0066957D01*
X0026723Y0067119D01*
X0026792Y0067279D01*
X0026865Y0067438D01*
X0026941Y0067594D01*
X0027021Y0067749D01*
X0027105Y0067902D01*
X0027193Y0068052D01*
X0027285Y0068200D01*
X0027380Y0068347D01*
X0027478Y0068490D01*
X0027580Y0068631D01*
X0027686Y0068770D01*
X0027795Y0068906D01*
X0027907Y0069040D01*
X0028022Y0069170D01*
X0028141Y0069298D01*
X0028263Y0069422D01*
X0028387Y0069544D01*
X0028515Y0069663D01*
X0028645Y0069778D01*
X0028779Y0069890D01*
X0028915Y0069999D01*
X0029054Y0070105D01*
X0029195Y0070207D01*
X0029338Y0070305D01*
X0029485Y0070400D01*
X0029633Y0070492D01*
X0029783Y0070580D01*
X0029936Y0070664D01*
X0030091Y0070744D01*
X0030247Y0070820D01*
X0030406Y0070893D01*
X0030566Y0070962D01*
X0030728Y0071026D01*
X0030891Y0071087D01*
X0031056Y0071144D01*
X0031222Y0071196D01*
X0031389Y0071245D01*
X0031558Y0071289D01*
X0031727Y0071329D01*
X0031898Y0071366D01*
X0032069Y0071397D01*
X0032241Y0071425D01*
X0032414Y0071449D01*
X0032587Y0071468D01*
X0032761Y0071483D01*
X0032935Y0071493D01*
X0033109Y0071500D01*
X0033283Y0071502D01*
X0033457Y0071500D01*
X0033631Y0071493D01*
X0033805Y0071483D01*
X0033979Y0071468D01*
X0034152Y0071449D01*
X0034325Y0071425D01*
X0034497Y0071397D01*
X0034668Y0071366D01*
X0034839Y0071329D01*
X0035008Y0071289D01*
X0035177Y0071245D01*
X0035344Y0071196D01*
X0035510Y0071144D01*
X0035675Y0071087D01*
X0035838Y0071026D01*
X0036000Y0070962D01*
X0036160Y0070893D01*
X0036319Y0070820D01*
X0036475Y0070744D01*
X0036630Y0070664D01*
X0036783Y0070580D01*
X0036933Y0070492D01*
X0037081Y0070400D01*
X0037228Y0070305D01*
X0037371Y0070207D01*
X0037512Y0070105D01*
X0037651Y0069999D01*
X0037787Y0069890D01*
X0037921Y0069778D01*
X0038051Y0069663D01*
X0038179Y0069544D01*
X0038303Y0069422D01*
X0038425Y0069298D01*
X0038544Y0069170D01*
X0038659Y0069040D01*
X0038771Y0068906D01*
X0038880Y0068770D01*
X0038986Y0068631D01*
X0039088Y0068490D01*
X0039186Y0068347D01*
X0039281Y0068200D01*
X0039373Y0068052D01*
X0039461Y0067902D01*
X0039545Y0067749D01*
X0039625Y0067594D01*
X0039701Y0067438D01*
X0039774Y0067279D01*
X0039843Y0067119D01*
X0039907Y0066957D01*
X0039968Y0066794D01*
X0040025Y0066629D01*
X0040077Y0066463D01*
X0040126Y0066296D01*
X0040170Y0066127D01*
X0040210Y0065958D01*
X0040247Y0065787D01*
X0040278Y0065616D01*
X0040306Y0065444D01*
X0040330Y0065271D01*
X0040349Y0065098D01*
X0040364Y0064924D01*
X0040374Y0064750D01*
X0040381Y0064576D01*
X0040383Y0064402D01*
X0040381Y0064228D01*
X0040374Y0064054D01*
X0040364Y0063880D01*
X0040349Y0063706D01*
X0040330Y0063533D01*
X0040306Y0063360D01*
X0040278Y0063188D01*
X0040247Y0063017D01*
X0040210Y0062846D01*
X0040170Y0062677D01*
X0040126Y0062508D01*
X0040077Y0062341D01*
X0040025Y0062175D01*
X0039968Y0062010D01*
X0039907Y0061847D01*
X0039843Y0061685D01*
X0039774Y0061525D01*
X0039701Y0061366D01*
X0039625Y0061210D01*
X0039545Y0061055D01*
X0039461Y0060902D01*
X0039373Y0060752D01*
X0039281Y0060604D01*
X0039186Y0060457D01*
X0039088Y0060314D01*
X0038986Y0060173D01*
X0038880Y0060034D01*
X0038771Y0059898D01*
X0038659Y0059764D01*
X0038544Y0059634D01*
X0038425Y0059506D01*
X0038303Y0059382D01*
X0038179Y0059260D01*
X0038051Y0059141D01*
X0037921Y0059026D01*
X0037787Y0058914D01*
X0037651Y0058805D01*
X0037512Y0058699D01*
X0037371Y0058597D01*
X0037228Y0058499D01*
X0037081Y0058404D01*
X0036933Y0058312D01*
X0036783Y0058224D01*
X0036630Y0058140D01*
X0036475Y0058060D01*
X0036319Y0057984D01*
X0036160Y0057911D01*
X0036000Y0057842D01*
X0035838Y0057778D01*
X0035675Y0057717D01*
X0035510Y0057660D01*
X0035344Y0057608D01*
X0035177Y0057559D01*
X0035008Y0057515D01*
X0034839Y0057475D01*
X0034668Y0057438D01*
X0034497Y0057407D01*
X0034325Y0057379D01*
X0034152Y0057355D01*
X0033979Y0057336D01*
X0033805Y0057321D01*
X0033631Y0057311D01*
X0033457Y0057304D01*
X0033283Y0057302D01*
X0033109Y0057304D01*
X0032935Y0057311D01*
X0032761Y0057321D01*
X0032587Y0057336D01*
X0032414Y0057355D01*
X0032241Y0057379D01*
X0032069Y0057407D01*
X0031898Y0057438D01*
X0031727Y0057475D01*
X0031558Y0057515D01*
X0031389Y0057559D01*
X0031222Y0057608D01*
X0031056Y0057660D01*
X0030891Y0057717D01*
X0030728Y0057778D01*
X0030566Y0057842D01*
X0030406Y0057911D01*
X0030247Y0057984D01*
X0030091Y0058060D01*
X0029936Y0058140D01*
X0029783Y0058224D01*
X0029633Y0058312D01*
X0029485Y0058404D01*
X0029338Y0058499D01*
X0029195Y0058597D01*
X0029054Y0058699D01*
X0028915Y0058805D01*
X0028779Y0058914D01*
X0028645Y0059026D01*
X0028515Y0059141D01*
X0028387Y0059260D01*
X0028263Y0059382D01*
X0028141Y0059506D01*
X0028022Y0059634D01*
X0027907Y0059764D01*
X0027795Y0059898D01*
X0027686Y0060034D01*
X0027580Y0060173D01*
X0027478Y0060314D01*
X0027380Y0060457D01*
X0027285Y0060604D01*
X0027193Y0060752D01*
X0027105Y0060902D01*
X0027021Y0061055D01*
X0026941Y0061210D01*
X0026865Y0061366D01*
X0026792Y0061525D01*
X0026723Y0061685D01*
X0026659Y0061847D01*
X0026598Y0062010D01*
X0026541Y0062175D01*
X0026489Y0062341D01*
X0026440Y0062508D01*
X0026396Y0062677D01*
X0026356Y0062846D01*
X0026319Y0063017D01*
X0026288Y0063188D01*
X0026260Y0063360D01*
X0026236Y0063533D01*
X0026217Y0063706D01*
X0026202Y0063880D01*
X0026192Y0064054D01*
X0026185Y0064228D01*
X0026183Y0064402D01*
X0023988Y0020201D02*
X0036689Y0020201D01*
X0043689Y0020201D02*
X0049988Y0020201D01*
X0079413Y0033677D02*
X0079413Y0043677D01*
X0079415Y0043737D01*
X0079420Y0043798D01*
X0079429Y0043857D01*
X0079442Y0043916D01*
X0079458Y0043975D01*
X0079478Y0044032D01*
X0079501Y0044087D01*
X0079528Y0044142D01*
X0079557Y0044194D01*
X0079590Y0044245D01*
X0079626Y0044294D01*
X0079664Y0044340D01*
X0079706Y0044384D01*
X0079750Y0044426D01*
X0079796Y0044464D01*
X0079845Y0044500D01*
X0079896Y0044533D01*
X0079948Y0044562D01*
X0080003Y0044589D01*
X0080058Y0044612D01*
X0080115Y0044632D01*
X0080174Y0044648D01*
X0080233Y0044661D01*
X0080292Y0044670D01*
X0080353Y0044675D01*
X0080413Y0044677D01*
X0107413Y0044677D01*
X0107473Y0044675D01*
X0107534Y0044670D01*
X0107593Y0044661D01*
X0107652Y0044648D01*
X0107711Y0044632D01*
X0107768Y0044612D01*
X0107823Y0044589D01*
X0107878Y0044562D01*
X0107930Y0044533D01*
X0107981Y0044500D01*
X0108030Y0044464D01*
X0108076Y0044426D01*
X0108120Y0044384D01*
X0108162Y0044340D01*
X0108200Y0044294D01*
X0108236Y0044245D01*
X0108269Y0044194D01*
X0108298Y0044142D01*
X0108325Y0044087D01*
X0108348Y0044032D01*
X0108368Y0043975D01*
X0108384Y0043916D01*
X0108397Y0043857D01*
X0108406Y0043798D01*
X0108411Y0043737D01*
X0108413Y0043677D01*
X0108413Y0033677D01*
X0108411Y0033617D01*
X0108406Y0033556D01*
X0108397Y0033497D01*
X0108384Y0033438D01*
X0108368Y0033379D01*
X0108348Y0033322D01*
X0108325Y0033267D01*
X0108298Y0033212D01*
X0108269Y0033160D01*
X0108236Y0033109D01*
X0108200Y0033060D01*
X0108162Y0033014D01*
X0108120Y0032970D01*
X0108076Y0032928D01*
X0108030Y0032890D01*
X0107981Y0032854D01*
X0107930Y0032821D01*
X0107878Y0032792D01*
X0107823Y0032765D01*
X0107768Y0032742D01*
X0107711Y0032722D01*
X0107652Y0032706D01*
X0107593Y0032693D01*
X0107534Y0032684D01*
X0107473Y0032679D01*
X0107413Y0032677D01*
X0080413Y0032677D01*
X0080353Y0032679D01*
X0080292Y0032684D01*
X0080233Y0032693D01*
X0080174Y0032706D01*
X0080115Y0032722D01*
X0080058Y0032742D01*
X0080003Y0032765D01*
X0079948Y0032792D01*
X0079896Y0032821D01*
X0079845Y0032854D01*
X0079796Y0032890D01*
X0079750Y0032928D01*
X0079706Y0032970D01*
X0079664Y0033014D01*
X0079626Y0033060D01*
X0079590Y0033109D01*
X0079557Y0033160D01*
X0079528Y0033212D01*
X0079501Y0033267D01*
X0079478Y0033322D01*
X0079458Y0033379D01*
X0079442Y0033438D01*
X0079429Y0033497D01*
X0079420Y0033556D01*
X0079415Y0033617D01*
X0079413Y0033677D01*
X0087913Y0038677D02*
X0092713Y0038677D01*
X0095213Y0038677D02*
X0099913Y0038677D01*
X0118350Y0043677D02*
X0118350Y0033677D01*
X0118352Y0033617D01*
X0118357Y0033556D01*
X0118366Y0033497D01*
X0118379Y0033438D01*
X0118395Y0033379D01*
X0118415Y0033322D01*
X0118438Y0033267D01*
X0118465Y0033212D01*
X0118494Y0033160D01*
X0118527Y0033109D01*
X0118563Y0033060D01*
X0118601Y0033014D01*
X0118643Y0032970D01*
X0118687Y0032928D01*
X0118733Y0032890D01*
X0118782Y0032854D01*
X0118833Y0032821D01*
X0118885Y0032792D01*
X0118940Y0032765D01*
X0118995Y0032742D01*
X0119052Y0032722D01*
X0119111Y0032706D01*
X0119170Y0032693D01*
X0119229Y0032684D01*
X0119290Y0032679D01*
X0119350Y0032677D01*
X0146350Y0032677D01*
X0146410Y0032679D01*
X0146471Y0032684D01*
X0146530Y0032693D01*
X0146589Y0032706D01*
X0146648Y0032722D01*
X0146705Y0032742D01*
X0146760Y0032765D01*
X0146815Y0032792D01*
X0146867Y0032821D01*
X0146918Y0032854D01*
X0146967Y0032890D01*
X0147013Y0032928D01*
X0147057Y0032970D01*
X0147099Y0033014D01*
X0147137Y0033060D01*
X0147173Y0033109D01*
X0147206Y0033160D01*
X0147235Y0033212D01*
X0147262Y0033267D01*
X0147285Y0033322D01*
X0147305Y0033379D01*
X0147321Y0033438D01*
X0147334Y0033497D01*
X0147343Y0033556D01*
X0147348Y0033617D01*
X0147350Y0033677D01*
X0147350Y0043677D01*
X0147348Y0043737D01*
X0147343Y0043798D01*
X0147334Y0043857D01*
X0147321Y0043916D01*
X0147305Y0043975D01*
X0147285Y0044032D01*
X0147262Y0044087D01*
X0147235Y0044142D01*
X0147206Y0044194D01*
X0147173Y0044245D01*
X0147137Y0044294D01*
X0147099Y0044340D01*
X0147057Y0044384D01*
X0147013Y0044426D01*
X0146967Y0044464D01*
X0146918Y0044500D01*
X0146867Y0044533D01*
X0146815Y0044562D01*
X0146760Y0044589D01*
X0146705Y0044612D01*
X0146648Y0044632D01*
X0146589Y0044648D01*
X0146530Y0044661D01*
X0146471Y0044670D01*
X0146410Y0044675D01*
X0146350Y0044677D01*
X0119350Y0044677D01*
X0119290Y0044675D01*
X0119229Y0044670D01*
X0119170Y0044661D01*
X0119111Y0044648D01*
X0119052Y0044632D01*
X0118995Y0044612D01*
X0118940Y0044589D01*
X0118885Y0044562D01*
X0118833Y0044533D01*
X0118782Y0044500D01*
X0118733Y0044464D01*
X0118687Y0044426D01*
X0118643Y0044384D01*
X0118601Y0044340D01*
X0118563Y0044294D01*
X0118527Y0044245D01*
X0118494Y0044194D01*
X0118465Y0044142D01*
X0118438Y0044087D01*
X0118415Y0044032D01*
X0118395Y0043975D01*
X0118379Y0043916D01*
X0118366Y0043857D01*
X0118357Y0043798D01*
X0118352Y0043737D01*
X0118350Y0043677D01*
X0126850Y0038677D02*
X0131650Y0038677D01*
X0134150Y0038677D02*
X0138850Y0038677D01*
X0133106Y0053992D02*
X0128106Y0053992D01*
X0125606Y0056492D01*
X0133106Y0053992D02*
X0135606Y0056492D01*
X0145606Y0056492D02*
X0148106Y0053992D01*
X0153106Y0053992D01*
X0155606Y0056492D01*
X0165606Y0056492D02*
X0168106Y0053992D01*
X0173106Y0053992D01*
X0175606Y0056492D01*
X0185606Y0056492D02*
X0188106Y0053992D01*
X0193106Y0053992D01*
X0195606Y0056492D01*
X0205606Y0056492D02*
X0208106Y0053992D01*
X0213106Y0053992D01*
X0215606Y0056492D01*
X0225606Y0056492D02*
X0228106Y0053992D01*
X0233106Y0053992D01*
X0235606Y0056492D01*
X0209946Y0029192D02*
X0207811Y0031328D01*
X0205676Y0029192D01*
X0205676Y0024922D01*
X0203501Y0024922D02*
X0203501Y0031328D01*
X0205676Y0028125D02*
X0209946Y0028125D01*
X0209946Y0029192D02*
X0209946Y0024922D01*
X0203501Y0024922D02*
X0199230Y0031328D01*
X0199230Y0024922D01*
X0197055Y0025990D02*
X0197055Y0030260D01*
X0195988Y0031328D01*
X0193852Y0031328D01*
X0192785Y0030260D01*
X0192785Y0025990D01*
X0193852Y0024922D01*
X0195988Y0024922D01*
X0197055Y0025990D01*
X0190610Y0031328D02*
X0186339Y0031328D01*
X0186339Y0024922D01*
X0186339Y0028125D02*
X0188475Y0028125D01*
X0016988Y0020201D02*
X0010689Y0020201D01*
X0040957Y0217091D02*
X0042457Y0217091D01*
X0042957Y0217591D01*
X0061957Y0217591D01*
X0062457Y0217091D01*
X0063957Y0217091D01*
X0064017Y0217093D01*
X0064078Y0217098D01*
X0064137Y0217107D01*
X0064196Y0217120D01*
X0064255Y0217136D01*
X0064312Y0217156D01*
X0064367Y0217179D01*
X0064422Y0217206D01*
X0064474Y0217235D01*
X0064525Y0217268D01*
X0064574Y0217304D01*
X0064620Y0217342D01*
X0064664Y0217384D01*
X0064706Y0217428D01*
X0064744Y0217474D01*
X0064780Y0217523D01*
X0064813Y0217574D01*
X0064842Y0217626D01*
X0064869Y0217681D01*
X0064892Y0217736D01*
X0064912Y0217793D01*
X0064928Y0217852D01*
X0064941Y0217911D01*
X0064950Y0217970D01*
X0064955Y0218031D01*
X0064957Y0218091D01*
X0064957Y0225091D01*
X0064955Y0225151D01*
X0064950Y0225212D01*
X0064941Y0225271D01*
X0064928Y0225330D01*
X0064912Y0225389D01*
X0064892Y0225446D01*
X0064869Y0225501D01*
X0064842Y0225556D01*
X0064813Y0225608D01*
X0064780Y0225659D01*
X0064744Y0225708D01*
X0064706Y0225754D01*
X0064664Y0225798D01*
X0064620Y0225840D01*
X0064574Y0225878D01*
X0064525Y0225914D01*
X0064474Y0225947D01*
X0064422Y0225976D01*
X0064367Y0226003D01*
X0064312Y0226026D01*
X0064255Y0226046D01*
X0064196Y0226062D01*
X0064137Y0226075D01*
X0064078Y0226084D01*
X0064017Y0226089D01*
X0063957Y0226091D01*
X0062457Y0226091D01*
X0061957Y0225591D01*
X0042957Y0225591D01*
X0042457Y0226091D01*
X0040957Y0226091D01*
X0040897Y0226089D01*
X0040836Y0226084D01*
X0040777Y0226075D01*
X0040718Y0226062D01*
X0040659Y0226046D01*
X0040602Y0226026D01*
X0040547Y0226003D01*
X0040492Y0225976D01*
X0040440Y0225947D01*
X0040389Y0225914D01*
X0040340Y0225878D01*
X0040294Y0225840D01*
X0040250Y0225798D01*
X0040208Y0225754D01*
X0040170Y0225708D01*
X0040134Y0225659D01*
X0040101Y0225608D01*
X0040072Y0225556D01*
X0040045Y0225501D01*
X0040022Y0225446D01*
X0040002Y0225389D01*
X0039986Y0225330D01*
X0039973Y0225271D01*
X0039964Y0225212D01*
X0039959Y0225151D01*
X0039957Y0225091D01*
X0039957Y0218091D01*
X0039959Y0218031D01*
X0039964Y0217970D01*
X0039973Y0217911D01*
X0039986Y0217852D01*
X0040002Y0217793D01*
X0040022Y0217736D01*
X0040045Y0217681D01*
X0040072Y0217626D01*
X0040101Y0217574D01*
X0040134Y0217523D01*
X0040170Y0217474D01*
X0040208Y0217428D01*
X0040250Y0217384D01*
X0040294Y0217342D01*
X0040340Y0217304D01*
X0040389Y0217268D01*
X0040440Y0217235D01*
X0040492Y0217206D01*
X0040547Y0217179D01*
X0040602Y0217156D01*
X0040659Y0217136D01*
X0040718Y0217120D01*
X0040777Y0217107D01*
X0040836Y0217098D01*
X0040897Y0217093D01*
X0040957Y0217091D01*
X0021130Y0227177D02*
X0021130Y0228677D01*
X0020630Y0229177D01*
X0020630Y0248177D01*
X0021130Y0248677D01*
X0021130Y0250177D01*
X0021128Y0250237D01*
X0021123Y0250298D01*
X0021114Y0250357D01*
X0021101Y0250416D01*
X0021085Y0250475D01*
X0021065Y0250532D01*
X0021042Y0250587D01*
X0021015Y0250642D01*
X0020986Y0250694D01*
X0020953Y0250745D01*
X0020917Y0250794D01*
X0020879Y0250840D01*
X0020837Y0250884D01*
X0020793Y0250926D01*
X0020747Y0250964D01*
X0020698Y0251000D01*
X0020647Y0251033D01*
X0020595Y0251062D01*
X0020540Y0251089D01*
X0020485Y0251112D01*
X0020428Y0251132D01*
X0020369Y0251148D01*
X0020310Y0251161D01*
X0020251Y0251170D01*
X0020190Y0251175D01*
X0020130Y0251177D01*
X0013130Y0251177D01*
X0013070Y0251175D01*
X0013009Y0251170D01*
X0012950Y0251161D01*
X0012891Y0251148D01*
X0012832Y0251132D01*
X0012775Y0251112D01*
X0012720Y0251089D01*
X0012665Y0251062D01*
X0012613Y0251033D01*
X0012562Y0251000D01*
X0012513Y0250964D01*
X0012467Y0250926D01*
X0012423Y0250884D01*
X0012381Y0250840D01*
X0012343Y0250794D01*
X0012307Y0250745D01*
X0012274Y0250694D01*
X0012245Y0250642D01*
X0012218Y0250587D01*
X0012195Y0250532D01*
X0012175Y0250475D01*
X0012159Y0250416D01*
X0012146Y0250357D01*
X0012137Y0250298D01*
X0012132Y0250237D01*
X0012130Y0250177D01*
X0012130Y0248677D01*
X0012630Y0248177D01*
X0012630Y0229177D01*
X0012130Y0228677D01*
X0012130Y0227177D01*
X0012132Y0227117D01*
X0012137Y0227056D01*
X0012146Y0226997D01*
X0012159Y0226938D01*
X0012175Y0226879D01*
X0012195Y0226822D01*
X0012218Y0226767D01*
X0012245Y0226712D01*
X0012274Y0226660D01*
X0012307Y0226609D01*
X0012343Y0226560D01*
X0012381Y0226514D01*
X0012423Y0226470D01*
X0012467Y0226428D01*
X0012513Y0226390D01*
X0012562Y0226354D01*
X0012613Y0226321D01*
X0012665Y0226292D01*
X0012720Y0226265D01*
X0012775Y0226242D01*
X0012832Y0226222D01*
X0012891Y0226206D01*
X0012950Y0226193D01*
X0013009Y0226184D01*
X0013070Y0226179D01*
X0013130Y0226177D01*
X0020130Y0226177D01*
X0020190Y0226179D01*
X0020251Y0226184D01*
X0020310Y0226193D01*
X0020369Y0226206D01*
X0020428Y0226222D01*
X0020485Y0226242D01*
X0020540Y0226265D01*
X0020595Y0226292D01*
X0020647Y0226321D01*
X0020698Y0226354D01*
X0020747Y0226390D01*
X0020793Y0226428D01*
X0020837Y0226470D01*
X0020879Y0226514D01*
X0020917Y0226560D01*
X0020953Y0226609D01*
X0020986Y0226660D01*
X0021015Y0226712D01*
X0021042Y0226767D01*
X0021065Y0226822D01*
X0021085Y0226879D01*
X0021101Y0226938D01*
X0021114Y0226997D01*
X0021123Y0227056D01*
X0021128Y0227117D01*
X0021130Y0227177D01*
X0058106Y0294150D02*
X0055606Y0296650D01*
X0055606Y0311650D01*
X0058106Y0314150D01*
X0063106Y0314150D01*
X0065606Y0311650D01*
X0065606Y0296650D01*
X0063106Y0294150D01*
X0058106Y0294150D01*
X0065606Y0296650D02*
X0068106Y0294150D01*
X0073106Y0294150D01*
X0075606Y0296650D01*
X0075606Y0311650D01*
X0078106Y0314150D01*
X0083106Y0314150D01*
X0085606Y0311650D01*
X0085606Y0296650D01*
X0083106Y0294150D01*
X0078106Y0294150D01*
X0075606Y0296650D01*
X0085606Y0296650D02*
X0088106Y0294150D01*
X0093106Y0294150D01*
X0095606Y0296650D01*
X0095606Y0311650D01*
X0098106Y0314150D01*
X0103106Y0314150D01*
X0105606Y0311650D01*
X0105606Y0296650D01*
X0103106Y0294150D01*
X0098106Y0294150D01*
X0095606Y0296650D01*
X0105606Y0296650D02*
X0108106Y0294150D01*
X0113106Y0294150D01*
X0115606Y0296650D01*
X0115606Y0311650D01*
X0118106Y0314150D01*
X0123106Y0314150D01*
X0125606Y0311650D01*
X0125606Y0296650D01*
X0123106Y0294150D01*
X0118106Y0294150D01*
X0115606Y0296650D01*
X0125606Y0296650D02*
X0128106Y0294150D01*
X0133106Y0294150D01*
X0135606Y0296650D01*
X0135606Y0311650D01*
X0138106Y0314150D01*
X0143106Y0314150D01*
X0145606Y0311650D01*
X0145606Y0296650D01*
X0143106Y0294150D01*
X0138106Y0294150D01*
X0135606Y0296650D01*
X0145606Y0296650D02*
X0148106Y0294150D01*
X0153106Y0294150D01*
X0155606Y0296650D01*
X0155606Y0311650D01*
X0158106Y0314150D01*
X0163106Y0314150D01*
X0165606Y0311650D01*
X0165606Y0296650D01*
X0163106Y0294150D01*
X0158106Y0294150D01*
X0155606Y0296650D01*
X0165606Y0296650D02*
X0168106Y0294150D01*
X0173106Y0294150D01*
X0175606Y0296650D01*
X0175606Y0311650D01*
X0178106Y0314150D01*
X0183106Y0314150D01*
X0185606Y0311650D01*
X0185606Y0296650D01*
X0183106Y0294150D01*
X0178106Y0294150D01*
X0175606Y0296650D01*
X0185606Y0296650D02*
X0188106Y0294150D01*
X0193106Y0294150D01*
X0195606Y0296650D01*
X0195606Y0311650D01*
X0193106Y0314150D01*
X0188106Y0314150D01*
X0185606Y0311650D01*
X0175606Y0311650D02*
X0173106Y0314150D01*
X0168106Y0314150D01*
X0165606Y0311650D01*
X0155606Y0311650D02*
X0153106Y0314150D01*
X0148106Y0314150D01*
X0145606Y0311650D01*
X0135606Y0311650D02*
X0133106Y0314150D01*
X0128106Y0314150D01*
X0125606Y0311650D01*
X0115606Y0311650D02*
X0113106Y0314150D01*
X0108106Y0314150D01*
X0105606Y0311650D01*
X0095606Y0311650D02*
X0093106Y0314150D01*
X0088106Y0314150D01*
X0085606Y0311650D01*
X0075606Y0311650D02*
X0073106Y0314150D01*
X0068106Y0314150D01*
X0065606Y0311650D01*
X0044327Y0307531D02*
X0044327Y0300531D01*
X0044325Y0300471D01*
X0044320Y0300410D01*
X0044311Y0300351D01*
X0044298Y0300292D01*
X0044282Y0300233D01*
X0044262Y0300176D01*
X0044239Y0300121D01*
X0044212Y0300066D01*
X0044183Y0300014D01*
X0044150Y0299963D01*
X0044114Y0299914D01*
X0044076Y0299868D01*
X0044034Y0299824D01*
X0043990Y0299782D01*
X0043944Y0299744D01*
X0043895Y0299708D01*
X0043844Y0299675D01*
X0043792Y0299646D01*
X0043737Y0299619D01*
X0043682Y0299596D01*
X0043625Y0299576D01*
X0043566Y0299560D01*
X0043507Y0299547D01*
X0043448Y0299538D01*
X0043387Y0299533D01*
X0043327Y0299531D01*
X0041827Y0299531D01*
X0041327Y0300031D01*
X0022327Y0300031D01*
X0021827Y0299531D01*
X0020327Y0299531D01*
X0020267Y0299533D01*
X0020206Y0299538D01*
X0020147Y0299547D01*
X0020088Y0299560D01*
X0020029Y0299576D01*
X0019972Y0299596D01*
X0019917Y0299619D01*
X0019862Y0299646D01*
X0019810Y0299675D01*
X0019759Y0299708D01*
X0019710Y0299744D01*
X0019664Y0299782D01*
X0019620Y0299824D01*
X0019578Y0299868D01*
X0019540Y0299914D01*
X0019504Y0299963D01*
X0019471Y0300014D01*
X0019442Y0300066D01*
X0019415Y0300121D01*
X0019392Y0300176D01*
X0019372Y0300233D01*
X0019356Y0300292D01*
X0019343Y0300351D01*
X0019334Y0300410D01*
X0019329Y0300471D01*
X0019327Y0300531D01*
X0019327Y0307531D01*
X0019329Y0307591D01*
X0019334Y0307652D01*
X0019343Y0307711D01*
X0019356Y0307770D01*
X0019372Y0307829D01*
X0019392Y0307886D01*
X0019415Y0307941D01*
X0019442Y0307996D01*
X0019471Y0308048D01*
X0019504Y0308099D01*
X0019540Y0308148D01*
X0019578Y0308194D01*
X0019620Y0308238D01*
X0019664Y0308280D01*
X0019710Y0308318D01*
X0019759Y0308354D01*
X0019810Y0308387D01*
X0019862Y0308416D01*
X0019917Y0308443D01*
X0019972Y0308466D01*
X0020029Y0308486D01*
X0020088Y0308502D01*
X0020147Y0308515D01*
X0020206Y0308524D01*
X0020267Y0308529D01*
X0020327Y0308531D01*
X0021827Y0308531D01*
X0022327Y0308031D01*
X0041327Y0308031D01*
X0041827Y0308531D01*
X0043327Y0308531D01*
X0043387Y0308529D01*
X0043448Y0308524D01*
X0043507Y0308515D01*
X0043566Y0308502D01*
X0043625Y0308486D01*
X0043682Y0308466D01*
X0043737Y0308443D01*
X0043792Y0308416D01*
X0043844Y0308387D01*
X0043895Y0308354D01*
X0043944Y0308318D01*
X0043990Y0308280D01*
X0044034Y0308238D01*
X0044076Y0308194D01*
X0044114Y0308148D01*
X0044150Y0308099D01*
X0044183Y0308048D01*
X0044212Y0307996D01*
X0044239Y0307941D01*
X0044262Y0307886D01*
X0044282Y0307829D01*
X0044298Y0307770D01*
X0044311Y0307711D01*
X0044320Y0307652D01*
X0044325Y0307591D01*
X0044327Y0307531D01*
X0195606Y0311650D02*
X0198106Y0314150D01*
X0203106Y0314150D01*
X0205606Y0311650D01*
X0205606Y0296650D01*
X0203106Y0294150D01*
X0198106Y0294150D01*
X0195606Y0296650D01*
X0205606Y0296650D02*
X0208106Y0294150D01*
X0213106Y0294150D01*
X0215606Y0296650D01*
X0215606Y0311650D01*
X0213106Y0314150D01*
X0208106Y0314150D01*
X0205606Y0311650D01*
X0215606Y0311650D02*
X0218106Y0314150D01*
X0223106Y0314150D01*
X0225606Y0311650D01*
X0225606Y0296650D01*
X0223106Y0294150D01*
X0218106Y0294150D01*
X0215606Y0296650D01*
X0225606Y0296650D02*
X0228106Y0294150D01*
X0233106Y0294150D01*
X0235606Y0296650D01*
X0235606Y0311650D01*
X0233106Y0314150D01*
X0228106Y0314150D01*
X0225606Y0311650D01*
X0235606Y0311650D02*
X0238106Y0314150D01*
X0243106Y0314150D01*
X0245606Y0311650D01*
X0245606Y0296650D01*
X0243106Y0294150D01*
X0238106Y0294150D01*
X0235606Y0296650D01*
X0345409Y0299327D02*
X0347909Y0296827D01*
X0352909Y0296827D01*
X0355409Y0299327D01*
X0355409Y0304327D01*
X0352909Y0306827D01*
X0347909Y0306827D01*
X0345409Y0304327D01*
X0345409Y0299327D01*
D12*
X0191182Y0247779D02*
X0191182Y0245310D01*
X0190565Y0244693D01*
X0188713Y0244693D01*
X0188713Y0248396D01*
X0190565Y0248396D01*
X0191182Y0247779D01*
X0187499Y0248396D02*
X0187499Y0244693D01*
X0185030Y0248396D01*
X0185030Y0244693D01*
X0183816Y0245310D02*
X0183816Y0246545D01*
X0182581Y0246545D01*
X0181347Y0247779D02*
X0181347Y0245310D01*
X0181964Y0244693D01*
X0183198Y0244693D01*
X0183816Y0245310D01*
X0183816Y0247779D02*
X0183198Y0248396D01*
X0181964Y0248396D01*
X0181347Y0247779D01*
X0181347Y0254693D02*
X0183198Y0254693D01*
X0183816Y0255310D01*
X0183816Y0257779D01*
X0183198Y0258396D01*
X0181347Y0258396D01*
X0181347Y0254693D01*
X0185030Y0255310D02*
X0185030Y0257779D01*
X0185647Y0258396D01*
X0186882Y0258396D01*
X0187499Y0257779D01*
X0185030Y0255310D01*
X0185647Y0254693D01*
X0186882Y0254693D01*
X0187499Y0255310D01*
X0187499Y0257779D01*
X0186882Y0264693D02*
X0185647Y0264693D01*
X0185030Y0265310D01*
X0187499Y0267779D01*
X0187499Y0265310D01*
X0186882Y0264693D01*
X0185030Y0265310D02*
X0185030Y0267779D01*
X0185647Y0268396D01*
X0186882Y0268396D01*
X0187499Y0267779D01*
X0183816Y0267162D02*
X0183816Y0264693D01*
X0183816Y0266545D02*
X0181347Y0266545D01*
X0181347Y0267162D02*
X0182581Y0268396D01*
X0183816Y0267162D01*
X0181347Y0267162D02*
X0181347Y0264693D01*
X0181347Y0238396D02*
X0181347Y0235928D01*
X0182581Y0234693D01*
X0183816Y0235928D01*
X0183816Y0238396D01*
X0185647Y0237162D02*
X0185030Y0236545D01*
X0185030Y0235310D01*
X0185647Y0234693D01*
X0187499Y0234693D01*
X0188713Y0235310D02*
X0189330Y0234693D01*
X0191182Y0234693D01*
X0191182Y0237162D02*
X0189330Y0237162D01*
X0188713Y0236545D01*
X0188713Y0235310D01*
X0187499Y0237162D02*
X0185647Y0237162D01*
X0068803Y0241649D02*
X0068803Y0242883D01*
X0068186Y0243501D01*
X0066951Y0243501D01*
X0066951Y0242266D01*
X0065717Y0241032D02*
X0068186Y0241032D01*
X0068803Y0241649D01*
X0068803Y0244715D02*
X0065100Y0244715D01*
X0068803Y0247184D01*
X0065100Y0247184D01*
X0065100Y0248398D02*
X0065100Y0250250D01*
X0065717Y0250867D01*
X0068186Y0250867D01*
X0068803Y0250250D01*
X0068803Y0248398D01*
X0065100Y0248398D01*
X0058803Y0248408D02*
X0058803Y0247174D01*
X0058186Y0246557D01*
X0058186Y0245332D02*
X0058803Y0245332D01*
X0058803Y0244715D01*
X0058186Y0244715D01*
X0058186Y0245332D01*
X0058186Y0243501D02*
X0058803Y0242883D01*
X0058803Y0241649D01*
X0058186Y0241032D01*
X0056951Y0242266D02*
X0056951Y0242883D01*
X0057568Y0243501D01*
X0058186Y0243501D01*
X0056951Y0242883D02*
X0056334Y0243501D01*
X0055717Y0243501D01*
X0055100Y0242883D01*
X0055100Y0241649D01*
X0055717Y0241032D01*
X0055717Y0246557D02*
X0055100Y0247174D01*
X0055100Y0248408D01*
X0055717Y0249025D01*
X0056334Y0249025D01*
X0056951Y0248408D01*
X0057568Y0249025D01*
X0058186Y0249025D01*
X0058803Y0248408D01*
X0056951Y0248408D02*
X0056951Y0247791D01*
X0057568Y0253923D02*
X0058803Y0255157D01*
X0057568Y0256392D01*
X0055100Y0256392D01*
X0055100Y0253923D02*
X0057568Y0253923D01*
X0048803Y0250867D02*
X0046334Y0250867D01*
X0045100Y0249633D01*
X0046334Y0248398D01*
X0048803Y0248398D01*
X0048186Y0247184D02*
X0045717Y0247184D01*
X0045100Y0246567D01*
X0045100Y0244715D01*
X0048803Y0244715D01*
X0048803Y0246567D01*
X0048186Y0247184D01*
X0046951Y0248398D02*
X0046951Y0250867D01*
X0038803Y0250867D02*
X0038803Y0248398D01*
X0035100Y0248398D01*
X0035717Y0247184D02*
X0035100Y0246567D01*
X0035100Y0245332D01*
X0035717Y0244715D01*
X0038186Y0244715D01*
X0038803Y0245332D01*
X0038803Y0246567D01*
X0038186Y0247184D01*
X0038186Y0243501D02*
X0038803Y0242883D01*
X0038803Y0241649D01*
X0038186Y0241032D01*
X0036951Y0241649D02*
X0036951Y0242883D01*
X0037568Y0243501D01*
X0038186Y0243501D01*
X0036951Y0241649D02*
X0036334Y0241032D01*
X0035717Y0241032D01*
X0035100Y0241649D01*
X0035100Y0242883D01*
X0035717Y0243501D01*
X0045100Y0242883D02*
X0045100Y0241649D01*
X0045717Y0241032D01*
X0046334Y0241032D01*
X0046951Y0241649D01*
X0046951Y0242883D01*
X0047568Y0243501D01*
X0048186Y0243501D01*
X0048803Y0242883D01*
X0048803Y0241649D01*
X0048186Y0241032D01*
X0045717Y0243501D02*
X0045100Y0242883D01*
X0065100Y0242883D02*
X0065100Y0241649D01*
X0065717Y0241032D01*
X0065100Y0242883D02*
X0065717Y0243501D01*
X0020535Y0276741D02*
X0020535Y0278676D01*
X0020535Y0279687D02*
X0017633Y0279687D01*
X0017633Y0281138D01*
X0018116Y0281622D01*
X0020051Y0281622D01*
X0020535Y0281138D01*
X0020535Y0279687D01*
X0020535Y0276741D02*
X0017633Y0276741D01*
X0017633Y0282634D02*
X0017633Y0284085D01*
X0018116Y0284569D01*
X0019084Y0284569D01*
X0019568Y0284085D01*
X0019568Y0282634D01*
X0020535Y0282634D02*
X0017633Y0282634D01*
X0019568Y0283601D02*
X0020535Y0284569D01*
X0299121Y0067180D02*
X0299121Y0065245D01*
X0299605Y0064761D01*
X0300573Y0064761D01*
X0301056Y0065245D01*
X0301056Y0066212D01*
X0300089Y0066212D01*
X0301056Y0067180D02*
X0300573Y0067663D01*
X0299605Y0067663D01*
X0299121Y0067180D01*
X0302068Y0067663D02*
X0304003Y0064761D01*
X0304003Y0067663D01*
X0305015Y0067663D02*
X0305015Y0064761D01*
X0306466Y0064761D01*
X0306949Y0065245D01*
X0306949Y0067180D01*
X0306466Y0067663D01*
X0305015Y0067663D01*
X0302068Y0067663D02*
X0302068Y0064761D01*
X0302552Y0058601D02*
X0302068Y0058117D01*
X0302068Y0056182D01*
X0302552Y0055698D01*
X0303519Y0055698D01*
X0304003Y0056182D01*
X0305015Y0056182D02*
X0305498Y0055698D01*
X0306466Y0055698D01*
X0306949Y0056182D01*
X0305015Y0056182D02*
X0305015Y0058117D01*
X0305498Y0058601D01*
X0306466Y0058601D01*
X0306949Y0058117D01*
X0304003Y0058117D02*
X0303519Y0058601D01*
X0302552Y0058601D01*
X0301056Y0058601D02*
X0301056Y0056666D01*
X0300089Y0055698D01*
X0299121Y0056666D01*
X0299121Y0058601D01*
X0302068Y0050632D02*
X0304003Y0047730D01*
X0304003Y0050632D01*
X0305015Y0050148D02*
X0305015Y0048213D01*
X0305498Y0047730D01*
X0306466Y0047730D01*
X0306949Y0048213D01*
X0306949Y0050148D02*
X0306466Y0050632D01*
X0305498Y0050632D01*
X0305015Y0050148D01*
X0302068Y0050632D02*
X0302068Y0047730D01*
X0301555Y0043569D02*
X0300587Y0043569D01*
X0300104Y0043085D01*
X0300104Y0042602D01*
X0300587Y0042118D01*
X0301555Y0042118D01*
X0302039Y0041634D01*
X0302039Y0041150D01*
X0301555Y0040667D01*
X0300587Y0040667D01*
X0300104Y0041150D01*
X0302039Y0043085D02*
X0301555Y0043569D01*
X0303050Y0043569D02*
X0304018Y0043569D01*
X0303534Y0043569D02*
X0303534Y0040667D01*
X0303050Y0040667D02*
X0304018Y0040667D01*
X0305015Y0041150D02*
X0305015Y0043085D01*
X0305498Y0043569D01*
X0306466Y0043569D01*
X0306949Y0043085D01*
X0306949Y0042118D02*
X0305982Y0042118D01*
X0306949Y0042118D02*
X0306949Y0041150D01*
X0306466Y0040667D01*
X0305498Y0040667D01*
X0305015Y0041150D01*
D13*
X0134150Y0041177D02*
X0134150Y0038677D01*
X0134150Y0036177D01*
X0131650Y0036177D02*
X0131650Y0038677D01*
X0131650Y0041177D01*
X0095213Y0041177D02*
X0095213Y0038677D01*
X0095213Y0036177D01*
X0092713Y0036177D02*
X0092713Y0038677D01*
X0092713Y0041177D01*
D14*
X0087770Y0046427D02*
X0084767Y0046427D01*
X0087770Y0049430D01*
X0087770Y0050180D01*
X0087019Y0050931D01*
X0085518Y0050931D01*
X0084767Y0050180D01*
X0083166Y0050180D02*
X0082415Y0050931D01*
X0080914Y0050931D01*
X0080163Y0050180D01*
X0080163Y0047178D01*
X0080914Y0046427D01*
X0082415Y0046427D01*
X0083166Y0047178D01*
X0053520Y0021472D02*
X0213520Y0021472D01*
X0213520Y0011472D01*
X0053520Y0011472D01*
X0053520Y0021472D01*
X0035241Y0035049D02*
X0032238Y0035049D01*
X0035241Y0038052D01*
X0035241Y0038802D01*
X0034490Y0039553D01*
X0032989Y0039553D01*
X0032238Y0038802D01*
X0015741Y0035049D02*
X0012738Y0035049D01*
X0014239Y0035049D02*
X0014239Y0039553D01*
X0012738Y0038052D01*
X0015438Y0017353D02*
X0018441Y0012849D01*
X0020042Y0012849D02*
X0023045Y0012849D01*
X0021543Y0012849D02*
X0021543Y0017353D01*
X0020042Y0015852D01*
X0018441Y0017353D02*
X0015438Y0012849D01*
X0056607Y0076742D02*
X0058108Y0076742D01*
X0058859Y0077493D01*
X0060460Y0076742D02*
X0060460Y0081246D01*
X0063463Y0076742D01*
X0063463Y0081246D01*
X0065064Y0079745D02*
X0066565Y0081246D01*
X0066565Y0076742D01*
X0065064Y0076742D02*
X0068067Y0076742D01*
X0069668Y0077493D02*
X0072671Y0080495D01*
X0072671Y0077493D01*
X0071920Y0076742D01*
X0070419Y0076742D01*
X0069668Y0077493D01*
X0069668Y0080495D01*
X0070419Y0081246D01*
X0071920Y0081246D01*
X0072671Y0080495D01*
X0058859Y0080495D02*
X0058108Y0081246D01*
X0056607Y0081246D01*
X0055856Y0080495D01*
X0055856Y0077493D01*
X0056607Y0076742D01*
X0084740Y0123953D02*
X0204740Y0123953D01*
X0204740Y0203953D01*
X0084740Y0203953D01*
X0084740Y0123953D01*
X0074858Y0136394D02*
X0014858Y0136394D01*
X0014718Y0136396D01*
X0014578Y0136402D01*
X0014438Y0136412D01*
X0014298Y0136425D01*
X0014159Y0136443D01*
X0014020Y0136465D01*
X0013883Y0136490D01*
X0013745Y0136519D01*
X0013609Y0136552D01*
X0013474Y0136589D01*
X0013340Y0136630D01*
X0013207Y0136675D01*
X0013075Y0136723D01*
X0012945Y0136775D01*
X0012816Y0136830D01*
X0012689Y0136889D01*
X0012563Y0136952D01*
X0012439Y0137018D01*
X0012318Y0137087D01*
X0012198Y0137160D01*
X0012080Y0137237D01*
X0011965Y0137316D01*
X0011851Y0137399D01*
X0011741Y0137485D01*
X0011632Y0137574D01*
X0011526Y0137666D01*
X0011423Y0137761D01*
X0011322Y0137858D01*
X0011225Y0137959D01*
X0011130Y0138062D01*
X0011038Y0138168D01*
X0010949Y0138277D01*
X0010863Y0138387D01*
X0010780Y0138501D01*
X0010701Y0138616D01*
X0010624Y0138734D01*
X0010551Y0138854D01*
X0010482Y0138975D01*
X0010416Y0139099D01*
X0010353Y0139225D01*
X0010294Y0139352D01*
X0010239Y0139481D01*
X0010187Y0139611D01*
X0010139Y0139743D01*
X0010094Y0139876D01*
X0010053Y0140010D01*
X0010016Y0140145D01*
X0009983Y0140281D01*
X0009954Y0140419D01*
X0009929Y0140556D01*
X0009907Y0140695D01*
X0009889Y0140834D01*
X0009876Y0140974D01*
X0009866Y0141114D01*
X0009860Y0141254D01*
X0009858Y0141394D01*
X0009858Y0206394D01*
X0009860Y0206534D01*
X0009866Y0206674D01*
X0009876Y0206814D01*
X0009889Y0206954D01*
X0009907Y0207093D01*
X0009929Y0207232D01*
X0009954Y0207369D01*
X0009983Y0207507D01*
X0010016Y0207643D01*
X0010053Y0207778D01*
X0010094Y0207912D01*
X0010139Y0208045D01*
X0010187Y0208177D01*
X0010239Y0208307D01*
X0010294Y0208436D01*
X0010353Y0208563D01*
X0010416Y0208689D01*
X0010482Y0208813D01*
X0010551Y0208934D01*
X0010624Y0209054D01*
X0010701Y0209172D01*
X0010780Y0209287D01*
X0010863Y0209401D01*
X0010949Y0209511D01*
X0011038Y0209620D01*
X0011130Y0209726D01*
X0011225Y0209829D01*
X0011322Y0209930D01*
X0011423Y0210027D01*
X0011526Y0210122D01*
X0011632Y0210214D01*
X0011741Y0210303D01*
X0011851Y0210389D01*
X0011965Y0210472D01*
X0012080Y0210551D01*
X0012198Y0210628D01*
X0012318Y0210701D01*
X0012439Y0210770D01*
X0012563Y0210836D01*
X0012689Y0210899D01*
X0012816Y0210958D01*
X0012945Y0211013D01*
X0013075Y0211065D01*
X0013207Y0211113D01*
X0013340Y0211158D01*
X0013474Y0211199D01*
X0013609Y0211236D01*
X0013745Y0211269D01*
X0013883Y0211298D01*
X0014020Y0211323D01*
X0014159Y0211345D01*
X0014298Y0211363D01*
X0014438Y0211376D01*
X0014578Y0211386D01*
X0014718Y0211392D01*
X0014858Y0211394D01*
X0074858Y0211394D01*
X0074998Y0211392D01*
X0075138Y0211386D01*
X0075278Y0211376D01*
X0075418Y0211363D01*
X0075557Y0211345D01*
X0075696Y0211323D01*
X0075833Y0211298D01*
X0075971Y0211269D01*
X0076107Y0211236D01*
X0076242Y0211199D01*
X0076376Y0211158D01*
X0076509Y0211113D01*
X0076641Y0211065D01*
X0076771Y0211013D01*
X0076900Y0210958D01*
X0077027Y0210899D01*
X0077153Y0210836D01*
X0077277Y0210770D01*
X0077398Y0210701D01*
X0077518Y0210628D01*
X0077636Y0210551D01*
X0077751Y0210472D01*
X0077865Y0210389D01*
X0077975Y0210303D01*
X0078084Y0210214D01*
X0078190Y0210122D01*
X0078293Y0210027D01*
X0078394Y0209930D01*
X0078491Y0209829D01*
X0078586Y0209726D01*
X0078678Y0209620D01*
X0078767Y0209511D01*
X0078853Y0209401D01*
X0078936Y0209287D01*
X0079015Y0209172D01*
X0079092Y0209054D01*
X0079165Y0208934D01*
X0079234Y0208813D01*
X0079300Y0208689D01*
X0079363Y0208563D01*
X0079422Y0208436D01*
X0079477Y0208307D01*
X0079529Y0208177D01*
X0079577Y0208045D01*
X0079622Y0207912D01*
X0079663Y0207778D01*
X0079700Y0207643D01*
X0079733Y0207507D01*
X0079762Y0207369D01*
X0079787Y0207232D01*
X0079809Y0207093D01*
X0079827Y0206954D01*
X0079840Y0206814D01*
X0079850Y0206674D01*
X0079856Y0206534D01*
X0079858Y0206394D01*
X0079858Y0141394D01*
X0079856Y0141254D01*
X0079850Y0141114D01*
X0079840Y0140974D01*
X0079827Y0140834D01*
X0079809Y0140695D01*
X0079787Y0140556D01*
X0079762Y0140419D01*
X0079733Y0140281D01*
X0079700Y0140145D01*
X0079663Y0140010D01*
X0079622Y0139876D01*
X0079577Y0139743D01*
X0079529Y0139611D01*
X0079477Y0139481D01*
X0079422Y0139352D01*
X0079363Y0139225D01*
X0079300Y0139099D01*
X0079234Y0138975D01*
X0079165Y0138854D01*
X0079092Y0138734D01*
X0079015Y0138616D01*
X0078936Y0138501D01*
X0078853Y0138387D01*
X0078767Y0138277D01*
X0078678Y0138168D01*
X0078586Y0138062D01*
X0078491Y0137959D01*
X0078394Y0137858D01*
X0078293Y0137761D01*
X0078190Y0137666D01*
X0078084Y0137574D01*
X0077975Y0137485D01*
X0077865Y0137399D01*
X0077751Y0137316D01*
X0077636Y0137237D01*
X0077518Y0137160D01*
X0077398Y0137087D01*
X0077277Y0137018D01*
X0077153Y0136952D01*
X0077027Y0136889D01*
X0076900Y0136830D01*
X0076771Y0136775D01*
X0076641Y0136723D01*
X0076509Y0136675D01*
X0076376Y0136630D01*
X0076242Y0136589D01*
X0076107Y0136552D01*
X0075971Y0136519D01*
X0075833Y0136490D01*
X0075696Y0136465D01*
X0075557Y0136443D01*
X0075418Y0136425D01*
X0075278Y0136412D01*
X0075138Y0136402D01*
X0074998Y0136396D01*
X0074858Y0136394D01*
X0093684Y0163953D02*
X0093695Y0164838D01*
X0093727Y0165722D01*
X0093782Y0166605D01*
X0093858Y0167487D01*
X0093955Y0168367D01*
X0094074Y0169244D01*
X0094215Y0170117D01*
X0094377Y0170987D01*
X0094560Y0171853D01*
X0094765Y0172714D01*
X0094990Y0173570D01*
X0095237Y0174420D01*
X0095504Y0175263D01*
X0095792Y0176100D01*
X0096100Y0176929D01*
X0096429Y0177751D01*
X0096777Y0178564D01*
X0097146Y0179369D01*
X0097534Y0180164D01*
X0097941Y0180950D01*
X0098368Y0181725D01*
X0098814Y0182489D01*
X0099278Y0183243D01*
X0099761Y0183985D01*
X0100261Y0184714D01*
X0100780Y0185432D01*
X0101315Y0186136D01*
X0101868Y0186827D01*
X0102438Y0187504D01*
X0103024Y0188167D01*
X0103627Y0188815D01*
X0104245Y0189448D01*
X0104878Y0190066D01*
X0105526Y0190669D01*
X0106189Y0191255D01*
X0106866Y0191825D01*
X0107557Y0192378D01*
X0108261Y0192913D01*
X0108979Y0193432D01*
X0109708Y0193932D01*
X0110450Y0194415D01*
X0111204Y0194879D01*
X0111968Y0195325D01*
X0112743Y0195752D01*
X0113529Y0196159D01*
X0114324Y0196547D01*
X0115129Y0196916D01*
X0115942Y0197264D01*
X0116764Y0197593D01*
X0117593Y0197901D01*
X0118430Y0198189D01*
X0119273Y0198456D01*
X0120123Y0198703D01*
X0120979Y0198928D01*
X0121840Y0199133D01*
X0122706Y0199316D01*
X0123576Y0199478D01*
X0124449Y0199619D01*
X0125326Y0199738D01*
X0126206Y0199835D01*
X0127088Y0199911D01*
X0127971Y0199966D01*
X0128855Y0199998D01*
X0129740Y0200009D01*
X0130625Y0199998D01*
X0131509Y0199966D01*
X0132392Y0199911D01*
X0133274Y0199835D01*
X0134154Y0199738D01*
X0135031Y0199619D01*
X0135904Y0199478D01*
X0136774Y0199316D01*
X0137640Y0199133D01*
X0138501Y0198928D01*
X0139357Y0198703D01*
X0140207Y0198456D01*
X0141050Y0198189D01*
X0141887Y0197901D01*
X0142716Y0197593D01*
X0143538Y0197264D01*
X0144351Y0196916D01*
X0145156Y0196547D01*
X0145951Y0196159D01*
X0146737Y0195752D01*
X0147512Y0195325D01*
X0148276Y0194879D01*
X0149030Y0194415D01*
X0149772Y0193932D01*
X0150501Y0193432D01*
X0151219Y0192913D01*
X0151923Y0192378D01*
X0152614Y0191825D01*
X0153291Y0191255D01*
X0153954Y0190669D01*
X0154602Y0190066D01*
X0155235Y0189448D01*
X0155853Y0188815D01*
X0156456Y0188167D01*
X0157042Y0187504D01*
X0157612Y0186827D01*
X0158165Y0186136D01*
X0158700Y0185432D01*
X0159219Y0184714D01*
X0159719Y0183985D01*
X0160202Y0183243D01*
X0160666Y0182489D01*
X0161112Y0181725D01*
X0161539Y0180950D01*
X0161946Y0180164D01*
X0162334Y0179369D01*
X0162703Y0178564D01*
X0163051Y0177751D01*
X0163380Y0176929D01*
X0163688Y0176100D01*
X0163976Y0175263D01*
X0164243Y0174420D01*
X0164490Y0173570D01*
X0164715Y0172714D01*
X0164920Y0171853D01*
X0165103Y0170987D01*
X0165265Y0170117D01*
X0165406Y0169244D01*
X0165525Y0168367D01*
X0165622Y0167487D01*
X0165698Y0166605D01*
X0165753Y0165722D01*
X0165785Y0164838D01*
X0165796Y0163953D01*
X0165785Y0163068D01*
X0165753Y0162184D01*
X0165698Y0161301D01*
X0165622Y0160419D01*
X0165525Y0159539D01*
X0165406Y0158662D01*
X0165265Y0157789D01*
X0165103Y0156919D01*
X0164920Y0156053D01*
X0164715Y0155192D01*
X0164490Y0154336D01*
X0164243Y0153486D01*
X0163976Y0152643D01*
X0163688Y0151806D01*
X0163380Y0150977D01*
X0163051Y0150155D01*
X0162703Y0149342D01*
X0162334Y0148537D01*
X0161946Y0147742D01*
X0161539Y0146956D01*
X0161112Y0146181D01*
X0160666Y0145417D01*
X0160202Y0144663D01*
X0159719Y0143921D01*
X0159219Y0143192D01*
X0158700Y0142474D01*
X0158165Y0141770D01*
X0157612Y0141079D01*
X0157042Y0140402D01*
X0156456Y0139739D01*
X0155853Y0139091D01*
X0155235Y0138458D01*
X0154602Y0137840D01*
X0153954Y0137237D01*
X0153291Y0136651D01*
X0152614Y0136081D01*
X0151923Y0135528D01*
X0151219Y0134993D01*
X0150501Y0134474D01*
X0149772Y0133974D01*
X0149030Y0133491D01*
X0148276Y0133027D01*
X0147512Y0132581D01*
X0146737Y0132154D01*
X0145951Y0131747D01*
X0145156Y0131359D01*
X0144351Y0130990D01*
X0143538Y0130642D01*
X0142716Y0130313D01*
X0141887Y0130005D01*
X0141050Y0129717D01*
X0140207Y0129450D01*
X0139357Y0129203D01*
X0138501Y0128978D01*
X0137640Y0128773D01*
X0136774Y0128590D01*
X0135904Y0128428D01*
X0135031Y0128287D01*
X0134154Y0128168D01*
X0133274Y0128071D01*
X0132392Y0127995D01*
X0131509Y0127940D01*
X0130625Y0127908D01*
X0129740Y0127897D01*
X0128855Y0127908D01*
X0127971Y0127940D01*
X0127088Y0127995D01*
X0126206Y0128071D01*
X0125326Y0128168D01*
X0124449Y0128287D01*
X0123576Y0128428D01*
X0122706Y0128590D01*
X0121840Y0128773D01*
X0120979Y0128978D01*
X0120123Y0129203D01*
X0119273Y0129450D01*
X0118430Y0129717D01*
X0117593Y0130005D01*
X0116764Y0130313D01*
X0115942Y0130642D01*
X0115129Y0130990D01*
X0114324Y0131359D01*
X0113529Y0131747D01*
X0112743Y0132154D01*
X0111968Y0132581D01*
X0111204Y0133027D01*
X0110450Y0133491D01*
X0109708Y0133974D01*
X0108979Y0134474D01*
X0108261Y0134993D01*
X0107557Y0135528D01*
X0106866Y0136081D01*
X0106189Y0136651D01*
X0105526Y0137237D01*
X0104878Y0137840D01*
X0104245Y0138458D01*
X0103627Y0139091D01*
X0103024Y0139739D01*
X0102438Y0140402D01*
X0101868Y0141079D01*
X0101315Y0141770D01*
X0100780Y0142474D01*
X0100261Y0143192D01*
X0099761Y0143921D01*
X0099278Y0144663D01*
X0098814Y0145417D01*
X0098368Y0146181D01*
X0097941Y0146956D01*
X0097534Y0147742D01*
X0097146Y0148537D01*
X0096777Y0149342D01*
X0096429Y0150155D01*
X0096100Y0150977D01*
X0095792Y0151806D01*
X0095504Y0152643D01*
X0095237Y0153486D01*
X0094990Y0154336D01*
X0094765Y0155192D01*
X0094560Y0156053D01*
X0094377Y0156919D01*
X0094215Y0157789D01*
X0094074Y0158662D01*
X0093955Y0159539D01*
X0093858Y0160419D01*
X0093782Y0161301D01*
X0093727Y0162184D01*
X0093695Y0163068D01*
X0093684Y0163953D01*
X0086197Y0209543D02*
X0206197Y0209543D01*
X0206197Y0289543D01*
X0086197Y0289543D01*
X0086197Y0209543D01*
X0083953Y0230882D02*
X0083953Y0290882D01*
X0023953Y0290882D01*
X0023953Y0230882D01*
X0083953Y0230882D01*
X0048313Y0230092D02*
X0045311Y0230092D01*
X0047563Y0232344D01*
X0047563Y0227841D01*
X0043709Y0227841D02*
X0042208Y0229342D01*
X0042959Y0229342D02*
X0040707Y0229342D01*
X0040707Y0227841D02*
X0040707Y0232344D01*
X0042959Y0232344D01*
X0043709Y0231594D01*
X0043709Y0230092D01*
X0042959Y0229342D01*
X0021433Y0264661D02*
X0011433Y0264661D01*
X0011433Y0294661D01*
X0021433Y0294661D01*
X0021433Y0264661D01*
X0034869Y0293281D02*
X0034869Y0297785D01*
X0037121Y0297785D01*
X0037871Y0297035D01*
X0037871Y0295533D01*
X0037121Y0294783D01*
X0034869Y0294783D01*
X0036370Y0294783D02*
X0037871Y0293281D01*
X0039473Y0293281D02*
X0042475Y0293281D01*
X0040974Y0293281D02*
X0040974Y0297785D01*
X0039473Y0296284D01*
X0094574Y0249543D02*
X0094584Y0250319D01*
X0094612Y0251095D01*
X0094660Y0251869D01*
X0094726Y0252643D01*
X0094812Y0253414D01*
X0094916Y0254183D01*
X0095040Y0254949D01*
X0095182Y0255712D01*
X0095342Y0256472D01*
X0095522Y0257227D01*
X0095720Y0257977D01*
X0095936Y0258723D01*
X0096170Y0259463D01*
X0096423Y0260196D01*
X0096693Y0260924D01*
X0096981Y0261645D01*
X0097287Y0262358D01*
X0097610Y0263064D01*
X0097951Y0263761D01*
X0098308Y0264450D01*
X0098682Y0265130D01*
X0099073Y0265800D01*
X0099480Y0266461D01*
X0099903Y0267112D01*
X0100343Y0267752D01*
X0100797Y0268381D01*
X0101267Y0268998D01*
X0101752Y0269604D01*
X0102252Y0270198D01*
X0102766Y0270780D01*
X0103294Y0271348D01*
X0103836Y0271904D01*
X0104392Y0272446D01*
X0104960Y0272974D01*
X0105542Y0273488D01*
X0106136Y0273988D01*
X0106742Y0274473D01*
X0107359Y0274943D01*
X0107988Y0275397D01*
X0108628Y0275837D01*
X0109279Y0276260D01*
X0109940Y0276667D01*
X0110610Y0277058D01*
X0111290Y0277432D01*
X0111979Y0277789D01*
X0112676Y0278130D01*
X0113382Y0278453D01*
X0114095Y0278759D01*
X0114816Y0279047D01*
X0115544Y0279317D01*
X0116277Y0279570D01*
X0117017Y0279804D01*
X0117763Y0280020D01*
X0118513Y0280218D01*
X0119268Y0280398D01*
X0120028Y0280558D01*
X0120791Y0280700D01*
X0121557Y0280824D01*
X0122326Y0280928D01*
X0123097Y0281014D01*
X0123871Y0281080D01*
X0124645Y0281128D01*
X0125421Y0281156D01*
X0126197Y0281166D01*
X0126973Y0281156D01*
X0127749Y0281128D01*
X0128523Y0281080D01*
X0129297Y0281014D01*
X0130068Y0280928D01*
X0130837Y0280824D01*
X0131603Y0280700D01*
X0132366Y0280558D01*
X0133126Y0280398D01*
X0133881Y0280218D01*
X0134631Y0280020D01*
X0135377Y0279804D01*
X0136117Y0279570D01*
X0136850Y0279317D01*
X0137578Y0279047D01*
X0138299Y0278759D01*
X0139012Y0278453D01*
X0139718Y0278130D01*
X0140415Y0277789D01*
X0141104Y0277432D01*
X0141784Y0277058D01*
X0142454Y0276667D01*
X0143115Y0276260D01*
X0143766Y0275837D01*
X0144406Y0275397D01*
X0145035Y0274943D01*
X0145652Y0274473D01*
X0146258Y0273988D01*
X0146852Y0273488D01*
X0147434Y0272974D01*
X0148002Y0272446D01*
X0148558Y0271904D01*
X0149100Y0271348D01*
X0149628Y0270780D01*
X0150142Y0270198D01*
X0150642Y0269604D01*
X0151127Y0268998D01*
X0151597Y0268381D01*
X0152051Y0267752D01*
X0152491Y0267112D01*
X0152914Y0266461D01*
X0153321Y0265800D01*
X0153712Y0265130D01*
X0154086Y0264450D01*
X0154443Y0263761D01*
X0154784Y0263064D01*
X0155107Y0262358D01*
X0155413Y0261645D01*
X0155701Y0260924D01*
X0155971Y0260196D01*
X0156224Y0259463D01*
X0156458Y0258723D01*
X0156674Y0257977D01*
X0156872Y0257227D01*
X0157052Y0256472D01*
X0157212Y0255712D01*
X0157354Y0254949D01*
X0157478Y0254183D01*
X0157582Y0253414D01*
X0157668Y0252643D01*
X0157734Y0251869D01*
X0157782Y0251095D01*
X0157810Y0250319D01*
X0157820Y0249543D01*
X0157810Y0248767D01*
X0157782Y0247991D01*
X0157734Y0247217D01*
X0157668Y0246443D01*
X0157582Y0245672D01*
X0157478Y0244903D01*
X0157354Y0244137D01*
X0157212Y0243374D01*
X0157052Y0242614D01*
X0156872Y0241859D01*
X0156674Y0241109D01*
X0156458Y0240363D01*
X0156224Y0239623D01*
X0155971Y0238890D01*
X0155701Y0238162D01*
X0155413Y0237441D01*
X0155107Y0236728D01*
X0154784Y0236022D01*
X0154443Y0235325D01*
X0154086Y0234636D01*
X0153712Y0233956D01*
X0153321Y0233286D01*
X0152914Y0232625D01*
X0152491Y0231974D01*
X0152051Y0231334D01*
X0151597Y0230705D01*
X0151127Y0230088D01*
X0150642Y0229482D01*
X0150142Y0228888D01*
X0149628Y0228306D01*
X0149100Y0227738D01*
X0148558Y0227182D01*
X0148002Y0226640D01*
X0147434Y0226112D01*
X0146852Y0225598D01*
X0146258Y0225098D01*
X0145652Y0224613D01*
X0145035Y0224143D01*
X0144406Y0223689D01*
X0143766Y0223249D01*
X0143115Y0222826D01*
X0142454Y0222419D01*
X0141784Y0222028D01*
X0141104Y0221654D01*
X0140415Y0221297D01*
X0139718Y0220956D01*
X0139012Y0220633D01*
X0138299Y0220327D01*
X0137578Y0220039D01*
X0136850Y0219769D01*
X0136117Y0219516D01*
X0135377Y0219282D01*
X0134631Y0219066D01*
X0133881Y0218868D01*
X0133126Y0218688D01*
X0132366Y0218528D01*
X0131603Y0218386D01*
X0130837Y0218262D01*
X0130068Y0218158D01*
X0129297Y0218072D01*
X0128523Y0218006D01*
X0127749Y0217958D01*
X0126973Y0217930D01*
X0126197Y0217920D01*
X0125421Y0217930D01*
X0124645Y0217958D01*
X0123871Y0218006D01*
X0123097Y0218072D01*
X0122326Y0218158D01*
X0121557Y0218262D01*
X0120791Y0218386D01*
X0120028Y0218528D01*
X0119268Y0218688D01*
X0118513Y0218868D01*
X0117763Y0219066D01*
X0117017Y0219282D01*
X0116277Y0219516D01*
X0115544Y0219769D01*
X0114816Y0220039D01*
X0114095Y0220327D01*
X0113382Y0220633D01*
X0112676Y0220956D01*
X0111979Y0221297D01*
X0111290Y0221654D01*
X0110610Y0222028D01*
X0109940Y0222419D01*
X0109279Y0222826D01*
X0108628Y0223249D01*
X0107988Y0223689D01*
X0107359Y0224143D01*
X0106742Y0224613D01*
X0106136Y0225098D01*
X0105542Y0225598D01*
X0104960Y0226112D01*
X0104392Y0226640D01*
X0103836Y0227182D01*
X0103294Y0227738D01*
X0102766Y0228306D01*
X0102252Y0228888D01*
X0101752Y0229482D01*
X0101267Y0230088D01*
X0100797Y0230705D01*
X0100343Y0231334D01*
X0099903Y0231974D01*
X0099480Y0232625D01*
X0099073Y0233286D01*
X0098682Y0233956D01*
X0098308Y0234636D01*
X0097951Y0235325D01*
X0097610Y0236022D01*
X0097287Y0236728D01*
X0096981Y0237441D01*
X0096693Y0238162D01*
X0096423Y0238890D01*
X0096170Y0239623D01*
X0095936Y0240363D01*
X0095720Y0241109D01*
X0095522Y0241859D01*
X0095342Y0242614D01*
X0095182Y0243374D01*
X0095040Y0244137D01*
X0094916Y0244903D01*
X0094812Y0245672D01*
X0094726Y0246443D01*
X0094660Y0247217D01*
X0094612Y0247991D01*
X0094584Y0248767D01*
X0094574Y0249543D01*
X0212142Y0288520D02*
X0212142Y0103520D01*
X0362142Y0103520D01*
X0362142Y0288520D01*
X0212142Y0288520D01*
X0232045Y0287650D02*
X0232795Y0286900D01*
X0234296Y0286900D01*
X0235047Y0287650D01*
X0236648Y0286900D02*
X0236648Y0291403D01*
X0239651Y0286900D01*
X0239651Y0291403D01*
X0241252Y0291403D02*
X0244255Y0291403D01*
X0244255Y0290653D01*
X0241252Y0287650D01*
X0241252Y0286900D01*
X0235047Y0290653D02*
X0234296Y0291403D01*
X0232795Y0291403D01*
X0232045Y0290653D01*
X0232045Y0287650D01*
X0251748Y0293756D02*
X0251748Y0313756D01*
X0341748Y0313756D01*
X0341748Y0293756D01*
X0251748Y0293756D01*
X0152069Y0099683D02*
X0152069Y0098415D01*
X0152069Y0099049D02*
X0150167Y0099049D01*
X0150801Y0098415D01*
X0150167Y0097473D02*
X0151752Y0097473D01*
X0152069Y0097156D01*
X0152069Y0096522D01*
X0151752Y0096205D01*
X0150167Y0096205D01*
X0151902Y0087493D02*
X0152319Y0087540D01*
X0152736Y0087493D01*
X0153132Y0087355D01*
X0153488Y0087131D01*
X0153785Y0086834D01*
X0154008Y0086479D01*
X0154147Y0086083D01*
X0154194Y0085665D01*
X0154147Y0085248D01*
X0154008Y0084852D01*
X0153785Y0084496D01*
X0153488Y0084199D01*
X0153132Y0083976D01*
X0152736Y0083837D01*
X0152319Y0083790D01*
X0151902Y0083837D01*
X0151505Y0083976D01*
X0151150Y0084199D01*
X0150853Y0084496D01*
X0150630Y0084852D01*
X0150491Y0085248D01*
X0150444Y0085665D01*
X0150491Y0086083D01*
X0150630Y0086479D01*
X0150853Y0086834D01*
X0151150Y0087131D01*
X0151505Y0087355D01*
X0151902Y0087493D01*
X0151327Y0087242D02*
X0153311Y0087242D01*
X0153842Y0086744D02*
X0150796Y0086744D01*
X0150548Y0086245D02*
X0154090Y0086245D01*
X0154185Y0085747D02*
X0150453Y0085747D01*
X0150491Y0085248D02*
X0154147Y0085248D01*
X0153944Y0084750D02*
X0150694Y0084750D01*
X0151098Y0084251D02*
X0153540Y0084251D01*
X0125206Y0050931D02*
X0123704Y0049430D01*
X0122103Y0050180D02*
X0121352Y0050931D01*
X0119851Y0050931D01*
X0119100Y0050180D01*
X0119100Y0047178D01*
X0119851Y0046427D01*
X0121352Y0046427D01*
X0122103Y0047178D01*
X0123704Y0046427D02*
X0126707Y0046427D01*
X0125206Y0046427D02*
X0125206Y0050931D01*
X0227811Y0027575D02*
X0227811Y0011827D01*
X0267181Y0011827D01*
X0267181Y0027575D01*
X0227811Y0027575D01*
X0246034Y0067085D02*
X0246034Y0069337D01*
X0246784Y0070087D01*
X0248285Y0070087D01*
X0249036Y0069337D01*
X0249036Y0067085D01*
X0249036Y0068586D02*
X0250537Y0070087D01*
X0249787Y0071689D02*
X0250537Y0072439D01*
X0250537Y0073940D01*
X0249787Y0074691D01*
X0249036Y0074691D01*
X0248285Y0073940D01*
X0248285Y0073190D01*
X0248285Y0073940D02*
X0247535Y0074691D01*
X0246784Y0074691D01*
X0246034Y0073940D01*
X0246034Y0072439D01*
X0246784Y0071689D01*
X0246034Y0067085D02*
X0250537Y0067085D01*
X0261782Y0068155D02*
X0262532Y0068906D01*
X0264034Y0068906D01*
X0264784Y0068155D01*
X0264784Y0065904D01*
X0264784Y0067405D02*
X0266285Y0068906D01*
X0266285Y0070507D02*
X0263283Y0073510D01*
X0262532Y0073510D01*
X0261782Y0072759D01*
X0261782Y0071258D01*
X0262532Y0070507D01*
X0261782Y0068155D02*
X0261782Y0065904D01*
X0266285Y0065904D01*
X0266285Y0070507D02*
X0266285Y0073510D01*
X0280685Y0063717D02*
X0280685Y0093717D01*
X0310685Y0093717D01*
X0310688Y0093959D01*
X0310697Y0094200D01*
X0310711Y0094441D01*
X0310732Y0094682D01*
X0310758Y0094922D01*
X0310790Y0095162D01*
X0310828Y0095401D01*
X0310871Y0095638D01*
X0310921Y0095875D01*
X0310976Y0096110D01*
X0311036Y0096344D01*
X0311103Y0096576D01*
X0311174Y0096807D01*
X0311252Y0097036D01*
X0311335Y0097263D01*
X0311423Y0097488D01*
X0311517Y0097711D01*
X0311616Y0097931D01*
X0311721Y0098149D01*
X0311830Y0098364D01*
X0311945Y0098577D01*
X0312065Y0098787D01*
X0312190Y0098993D01*
X0312320Y0099197D01*
X0312455Y0099398D01*
X0312595Y0099595D01*
X0312739Y0099789D01*
X0312888Y0099979D01*
X0313042Y0100165D01*
X0313200Y0100348D01*
X0313362Y0100527D01*
X0313529Y0100702D01*
X0313700Y0100873D01*
X0313875Y0101040D01*
X0314054Y0101202D01*
X0314237Y0101360D01*
X0314423Y0101514D01*
X0314613Y0101663D01*
X0314807Y0101807D01*
X0315004Y0101947D01*
X0315205Y0102082D01*
X0315409Y0102212D01*
X0315615Y0102337D01*
X0315825Y0102457D01*
X0316038Y0102572D01*
X0316253Y0102681D01*
X0316471Y0102786D01*
X0316691Y0102885D01*
X0316914Y0102979D01*
X0317139Y0103067D01*
X0317366Y0103150D01*
X0317595Y0103228D01*
X0317826Y0103299D01*
X0318058Y0103366D01*
X0318292Y0103426D01*
X0318527Y0103481D01*
X0318764Y0103531D01*
X0319001Y0103574D01*
X0319240Y0103612D01*
X0319480Y0103644D01*
X0319720Y0103670D01*
X0319961Y0103691D01*
X0320202Y0103705D01*
X0320443Y0103714D01*
X0320685Y0103717D01*
X0320927Y0103714D01*
X0321168Y0103705D01*
X0321409Y0103691D01*
X0321650Y0103670D01*
X0321890Y0103644D01*
X0322130Y0103612D01*
X0322369Y0103574D01*
X0322606Y0103531D01*
X0322843Y0103481D01*
X0323078Y0103426D01*
X0323312Y0103366D01*
X0323544Y0103299D01*
X0323775Y0103228D01*
X0324004Y0103150D01*
X0324231Y0103067D01*
X0324456Y0102979D01*
X0324679Y0102885D01*
X0324899Y0102786D01*
X0325117Y0102681D01*
X0325332Y0102572D01*
X0325545Y0102457D01*
X0325755Y0102337D01*
X0325961Y0102212D01*
X0326165Y0102082D01*
X0326366Y0101947D01*
X0326563Y0101807D01*
X0326757Y0101663D01*
X0326947Y0101514D01*
X0327133Y0101360D01*
X0327316Y0101202D01*
X0327495Y0101040D01*
X0327670Y0100873D01*
X0327841Y0100702D01*
X0328008Y0100527D01*
X0328170Y0100348D01*
X0328328Y0100165D01*
X0328482Y0099979D01*
X0328631Y0099789D01*
X0328775Y0099595D01*
X0328915Y0099398D01*
X0329050Y0099197D01*
X0329180Y0098993D01*
X0329305Y0098787D01*
X0329425Y0098577D01*
X0329540Y0098364D01*
X0329649Y0098149D01*
X0329754Y0097931D01*
X0329853Y0097711D01*
X0329947Y0097488D01*
X0330035Y0097263D01*
X0330118Y0097036D01*
X0330196Y0096807D01*
X0330267Y0096576D01*
X0330334Y0096344D01*
X0330394Y0096110D01*
X0330449Y0095875D01*
X0330499Y0095638D01*
X0330542Y0095401D01*
X0330580Y0095162D01*
X0330612Y0094922D01*
X0330638Y0094682D01*
X0330659Y0094441D01*
X0330673Y0094200D01*
X0330682Y0093959D01*
X0330685Y0093717D01*
X0360685Y0093717D01*
X0360685Y0063717D01*
X0360443Y0063714D01*
X0360202Y0063705D01*
X0359961Y0063691D01*
X0359720Y0063670D01*
X0359480Y0063644D01*
X0359240Y0063612D01*
X0359001Y0063574D01*
X0358764Y0063531D01*
X0358527Y0063481D01*
X0358292Y0063426D01*
X0358058Y0063366D01*
X0357826Y0063299D01*
X0357595Y0063228D01*
X0357366Y0063150D01*
X0357139Y0063067D01*
X0356914Y0062979D01*
X0356691Y0062885D01*
X0356471Y0062786D01*
X0356253Y0062681D01*
X0356038Y0062572D01*
X0355825Y0062457D01*
X0355615Y0062337D01*
X0355409Y0062212D01*
X0355205Y0062082D01*
X0355004Y0061947D01*
X0354807Y0061807D01*
X0354613Y0061663D01*
X0354423Y0061514D01*
X0354237Y0061360D01*
X0354054Y0061202D01*
X0353875Y0061040D01*
X0353700Y0060873D01*
X0353529Y0060702D01*
X0353362Y0060527D01*
X0353200Y0060348D01*
X0353042Y0060165D01*
X0352888Y0059979D01*
X0352739Y0059789D01*
X0352595Y0059595D01*
X0352455Y0059398D01*
X0352320Y0059197D01*
X0352190Y0058993D01*
X0352065Y0058787D01*
X0351945Y0058577D01*
X0351830Y0058364D01*
X0351721Y0058149D01*
X0351616Y0057931D01*
X0351517Y0057711D01*
X0351423Y0057488D01*
X0351335Y0057263D01*
X0351252Y0057036D01*
X0351174Y0056807D01*
X0351103Y0056576D01*
X0351036Y0056344D01*
X0350976Y0056110D01*
X0350921Y0055875D01*
X0350871Y0055638D01*
X0350828Y0055401D01*
X0350790Y0055162D01*
X0350758Y0054922D01*
X0350732Y0054682D01*
X0350711Y0054441D01*
X0350697Y0054200D01*
X0350688Y0053959D01*
X0350685Y0053717D01*
X0350688Y0053475D01*
X0350697Y0053234D01*
X0350711Y0052993D01*
X0350732Y0052752D01*
X0350758Y0052512D01*
X0350790Y0052272D01*
X0350828Y0052033D01*
X0350871Y0051796D01*
X0350921Y0051559D01*
X0350976Y0051324D01*
X0351036Y0051090D01*
X0351103Y0050858D01*
X0351174Y0050627D01*
X0351252Y0050398D01*
X0351335Y0050171D01*
X0351423Y0049946D01*
X0351517Y0049723D01*
X0351616Y0049503D01*
X0351721Y0049285D01*
X0351830Y0049070D01*
X0351945Y0048857D01*
X0352065Y0048647D01*
X0352190Y0048441D01*
X0352320Y0048237D01*
X0352455Y0048036D01*
X0352595Y0047839D01*
X0352739Y0047645D01*
X0352888Y0047455D01*
X0353042Y0047269D01*
X0353200Y0047086D01*
X0353362Y0046907D01*
X0353529Y0046732D01*
X0353700Y0046561D01*
X0353875Y0046394D01*
X0354054Y0046232D01*
X0354237Y0046074D01*
X0354423Y0045920D01*
X0354613Y0045771D01*
X0354807Y0045627D01*
X0355004Y0045487D01*
X0355205Y0045352D01*
X0355409Y0045222D01*
X0355615Y0045097D01*
X0355825Y0044977D01*
X0356038Y0044862D01*
X0356253Y0044753D01*
X0356471Y0044648D01*
X0356691Y0044549D01*
X0356914Y0044455D01*
X0357139Y0044367D01*
X0357366Y0044284D01*
X0357595Y0044206D01*
X0357826Y0044135D01*
X0358058Y0044068D01*
X0358292Y0044008D01*
X0358527Y0043953D01*
X0358764Y0043903D01*
X0359001Y0043860D01*
X0359240Y0043822D01*
X0359480Y0043790D01*
X0359720Y0043764D01*
X0359961Y0043743D01*
X0360202Y0043729D01*
X0360443Y0043720D01*
X0360685Y0043717D01*
X0360685Y0013717D01*
X0330685Y0013717D01*
X0330682Y0013475D01*
X0330673Y0013234D01*
X0330659Y0012993D01*
X0330638Y0012752D01*
X0330612Y0012512D01*
X0330580Y0012272D01*
X0330542Y0012033D01*
X0330499Y0011796D01*
X0330449Y0011559D01*
X0330394Y0011324D01*
X0330334Y0011090D01*
X0330267Y0010858D01*
X0330196Y0010627D01*
X0330118Y0010398D01*
X0330035Y0010171D01*
X0329947Y0009946D01*
X0329853Y0009723D01*
X0329754Y0009503D01*
X0329649Y0009285D01*
X0329540Y0009070D01*
X0329425Y0008857D01*
X0329305Y0008647D01*
X0329180Y0008441D01*
X0329050Y0008237D01*
X0328915Y0008036D01*
X0328775Y0007839D01*
X0328631Y0007645D01*
X0328482Y0007455D01*
X0328328Y0007269D01*
X0328170Y0007086D01*
X0328008Y0006907D01*
X0327841Y0006732D01*
X0327670Y0006561D01*
X0327495Y0006394D01*
X0327316Y0006232D01*
X0327133Y0006074D01*
X0326947Y0005920D01*
X0326757Y0005771D01*
X0326563Y0005627D01*
X0326366Y0005487D01*
X0326165Y0005352D01*
X0325961Y0005222D01*
X0325755Y0005097D01*
X0325545Y0004977D01*
X0325332Y0004862D01*
X0325117Y0004753D01*
X0324899Y0004648D01*
X0324679Y0004549D01*
X0324456Y0004455D01*
X0324231Y0004367D01*
X0324004Y0004284D01*
X0323775Y0004206D01*
X0323544Y0004135D01*
X0323312Y0004068D01*
X0323078Y0004008D01*
X0322843Y0003953D01*
X0322606Y0003903D01*
X0322369Y0003860D01*
X0322130Y0003822D01*
X0321890Y0003790D01*
X0321650Y0003764D01*
X0321409Y0003743D01*
X0321168Y0003729D01*
X0320927Y0003720D01*
X0320685Y0003717D01*
X0320443Y0003720D01*
X0320202Y0003729D01*
X0319961Y0003743D01*
X0319720Y0003764D01*
X0319480Y0003790D01*
X0319240Y0003822D01*
X0319001Y0003860D01*
X0318764Y0003903D01*
X0318527Y0003953D01*
X0318292Y0004008D01*
X0318058Y0004068D01*
X0317826Y0004135D01*
X0317595Y0004206D01*
X0317366Y0004284D01*
X0317139Y0004367D01*
X0316914Y0004455D01*
X0316691Y0004549D01*
X0316471Y0004648D01*
X0316253Y0004753D01*
X0316038Y0004862D01*
X0315825Y0004977D01*
X0315615Y0005097D01*
X0315409Y0005222D01*
X0315205Y0005352D01*
X0315004Y0005487D01*
X0314807Y0005627D01*
X0314613Y0005771D01*
X0314423Y0005920D01*
X0314237Y0006074D01*
X0314054Y0006232D01*
X0313875Y0006394D01*
X0313700Y0006561D01*
X0313529Y0006732D01*
X0313362Y0006907D01*
X0313200Y0007086D01*
X0313042Y0007269D01*
X0312888Y0007455D01*
X0312739Y0007645D01*
X0312595Y0007839D01*
X0312455Y0008036D01*
X0312320Y0008237D01*
X0312190Y0008441D01*
X0312065Y0008647D01*
X0311945Y0008857D01*
X0311830Y0009070D01*
X0311721Y0009285D01*
X0311616Y0009503D01*
X0311517Y0009723D01*
X0311423Y0009946D01*
X0311335Y0010171D01*
X0311252Y0010398D01*
X0311174Y0010627D01*
X0311103Y0010858D01*
X0311036Y0011090D01*
X0310976Y0011324D01*
X0310921Y0011559D01*
X0310871Y0011796D01*
X0310828Y0012033D01*
X0310790Y0012272D01*
X0310758Y0012512D01*
X0310732Y0012752D01*
X0310711Y0012993D01*
X0310697Y0013234D01*
X0310688Y0013475D01*
X0310685Y0013717D01*
X0280685Y0013717D01*
X0280685Y0043717D01*
X0290685Y0053717D02*
X0290682Y0053959D01*
X0290673Y0054200D01*
X0290659Y0054441D01*
X0290638Y0054682D01*
X0290612Y0054922D01*
X0290580Y0055162D01*
X0290542Y0055401D01*
X0290499Y0055638D01*
X0290449Y0055875D01*
X0290394Y0056110D01*
X0290334Y0056344D01*
X0290267Y0056576D01*
X0290196Y0056807D01*
X0290118Y0057036D01*
X0290035Y0057263D01*
X0289947Y0057488D01*
X0289853Y0057711D01*
X0289754Y0057931D01*
X0289649Y0058149D01*
X0289540Y0058364D01*
X0289425Y0058577D01*
X0289305Y0058787D01*
X0289180Y0058993D01*
X0289050Y0059197D01*
X0288915Y0059398D01*
X0288775Y0059595D01*
X0288631Y0059789D01*
X0288482Y0059979D01*
X0288328Y0060165D01*
X0288170Y0060348D01*
X0288008Y0060527D01*
X0287841Y0060702D01*
X0287670Y0060873D01*
X0287495Y0061040D01*
X0287316Y0061202D01*
X0287133Y0061360D01*
X0286947Y0061514D01*
X0286757Y0061663D01*
X0286563Y0061807D01*
X0286366Y0061947D01*
X0286165Y0062082D01*
X0285961Y0062212D01*
X0285755Y0062337D01*
X0285545Y0062457D01*
X0285332Y0062572D01*
X0285117Y0062681D01*
X0284899Y0062786D01*
X0284679Y0062885D01*
X0284456Y0062979D01*
X0284231Y0063067D01*
X0284004Y0063150D01*
X0283775Y0063228D01*
X0283544Y0063299D01*
X0283312Y0063366D01*
X0283078Y0063426D01*
X0282843Y0063481D01*
X0282606Y0063531D01*
X0282369Y0063574D01*
X0282130Y0063612D01*
X0281890Y0063644D01*
X0281650Y0063670D01*
X0281409Y0063691D01*
X0281168Y0063705D01*
X0280927Y0063714D01*
X0280685Y0063717D01*
X0290685Y0053717D02*
X0290682Y0053475D01*
X0290673Y0053234D01*
X0290659Y0052993D01*
X0290638Y0052752D01*
X0290612Y0052512D01*
X0290580Y0052272D01*
X0290542Y0052033D01*
X0290499Y0051796D01*
X0290449Y0051559D01*
X0290394Y0051324D01*
X0290334Y0051090D01*
X0290267Y0050858D01*
X0290196Y0050627D01*
X0290118Y0050398D01*
X0290035Y0050171D01*
X0289947Y0049946D01*
X0289853Y0049723D01*
X0289754Y0049503D01*
X0289649Y0049285D01*
X0289540Y0049070D01*
X0289425Y0048857D01*
X0289305Y0048647D01*
X0289180Y0048441D01*
X0289050Y0048237D01*
X0288915Y0048036D01*
X0288775Y0047839D01*
X0288631Y0047645D01*
X0288482Y0047455D01*
X0288328Y0047269D01*
X0288170Y0047086D01*
X0288008Y0046907D01*
X0287841Y0046732D01*
X0287670Y0046561D01*
X0287495Y0046394D01*
X0287316Y0046232D01*
X0287133Y0046074D01*
X0286947Y0045920D01*
X0286757Y0045771D01*
X0286563Y0045627D01*
X0286366Y0045487D01*
X0286165Y0045352D01*
X0285961Y0045222D01*
X0285755Y0045097D01*
X0285545Y0044977D01*
X0285332Y0044862D01*
X0285117Y0044753D01*
X0284899Y0044648D01*
X0284679Y0044549D01*
X0284456Y0044455D01*
X0284231Y0044367D01*
X0284004Y0044284D01*
X0283775Y0044206D01*
X0283544Y0044135D01*
X0283312Y0044068D01*
X0283078Y0044008D01*
X0282843Y0043953D01*
X0282606Y0043903D01*
X0282369Y0043860D01*
X0282130Y0043822D01*
X0281890Y0043790D01*
X0281650Y0043764D01*
X0281409Y0043743D01*
X0281168Y0043729D01*
X0280927Y0043720D01*
X0280685Y0043717D01*
X0330685Y0078717D02*
X0330690Y0079085D01*
X0330703Y0079453D01*
X0330726Y0079820D01*
X0330757Y0080187D01*
X0330798Y0080553D01*
X0330847Y0080918D01*
X0330906Y0081281D01*
X0330973Y0081643D01*
X0331049Y0082004D01*
X0331135Y0082362D01*
X0331228Y0082718D01*
X0331331Y0083071D01*
X0331442Y0083422D01*
X0331562Y0083770D01*
X0331690Y0084115D01*
X0331827Y0084457D01*
X0331972Y0084796D01*
X0332125Y0085130D01*
X0332287Y0085461D01*
X0332456Y0085788D01*
X0332634Y0086110D01*
X0332819Y0086429D01*
X0333012Y0086742D01*
X0333213Y0087051D01*
X0333421Y0087354D01*
X0333637Y0087652D01*
X0333860Y0087945D01*
X0334090Y0088233D01*
X0334327Y0088515D01*
X0334571Y0088790D01*
X0334821Y0089060D01*
X0335078Y0089324D01*
X0335342Y0089581D01*
X0335612Y0089831D01*
X0335887Y0090075D01*
X0336169Y0090312D01*
X0336457Y0090542D01*
X0336750Y0090765D01*
X0337048Y0090981D01*
X0337351Y0091189D01*
X0337660Y0091390D01*
X0337973Y0091583D01*
X0338292Y0091768D01*
X0338614Y0091946D01*
X0338941Y0092115D01*
X0339272Y0092277D01*
X0339606Y0092430D01*
X0339945Y0092575D01*
X0340287Y0092712D01*
X0340632Y0092840D01*
X0340980Y0092960D01*
X0341331Y0093071D01*
X0341684Y0093174D01*
X0342040Y0093267D01*
X0342398Y0093353D01*
X0342759Y0093429D01*
X0343121Y0093496D01*
X0343484Y0093555D01*
X0343849Y0093604D01*
X0344215Y0093645D01*
X0344582Y0093676D01*
X0344949Y0093699D01*
X0345317Y0093712D01*
X0345685Y0093717D01*
X0346053Y0093712D01*
X0346421Y0093699D01*
X0346788Y0093676D01*
X0347155Y0093645D01*
X0347521Y0093604D01*
X0347886Y0093555D01*
X0348249Y0093496D01*
X0348611Y0093429D01*
X0348972Y0093353D01*
X0349330Y0093267D01*
X0349686Y0093174D01*
X0350039Y0093071D01*
X0350390Y0092960D01*
X0350738Y0092840D01*
X0351083Y0092712D01*
X0351425Y0092575D01*
X0351764Y0092430D01*
X0352098Y0092277D01*
X0352429Y0092115D01*
X0352756Y0091946D01*
X0353078Y0091768D01*
X0353397Y0091583D01*
X0353710Y0091390D01*
X0354019Y0091189D01*
X0354322Y0090981D01*
X0354620Y0090765D01*
X0354913Y0090542D01*
X0355201Y0090312D01*
X0355483Y0090075D01*
X0355758Y0089831D01*
X0356028Y0089581D01*
X0356292Y0089324D01*
X0356549Y0089060D01*
X0356799Y0088790D01*
X0357043Y0088515D01*
X0357280Y0088233D01*
X0357510Y0087945D01*
X0357733Y0087652D01*
X0357949Y0087354D01*
X0358157Y0087051D01*
X0358358Y0086742D01*
X0358551Y0086429D01*
X0358736Y0086110D01*
X0358914Y0085788D01*
X0359083Y0085461D01*
X0359245Y0085130D01*
X0359398Y0084796D01*
X0359543Y0084457D01*
X0359680Y0084115D01*
X0359808Y0083770D01*
X0359928Y0083422D01*
X0360039Y0083071D01*
X0360142Y0082718D01*
X0360235Y0082362D01*
X0360321Y0082004D01*
X0360397Y0081643D01*
X0360464Y0081281D01*
X0360523Y0080918D01*
X0360572Y0080553D01*
X0360613Y0080187D01*
X0360644Y0079820D01*
X0360667Y0079453D01*
X0360680Y0079085D01*
X0360685Y0078717D01*
X0360680Y0078349D01*
X0360667Y0077981D01*
X0360644Y0077614D01*
X0360613Y0077247D01*
X0360572Y0076881D01*
X0360523Y0076516D01*
X0360464Y0076153D01*
X0360397Y0075791D01*
X0360321Y0075430D01*
X0360235Y0075072D01*
X0360142Y0074716D01*
X0360039Y0074363D01*
X0359928Y0074012D01*
X0359808Y0073664D01*
X0359680Y0073319D01*
X0359543Y0072977D01*
X0359398Y0072638D01*
X0359245Y0072304D01*
X0359083Y0071973D01*
X0358914Y0071646D01*
X0358736Y0071324D01*
X0358551Y0071005D01*
X0358358Y0070692D01*
X0358157Y0070383D01*
X0357949Y0070080D01*
X0357733Y0069782D01*
X0357510Y0069489D01*
X0357280Y0069201D01*
X0357043Y0068919D01*
X0356799Y0068644D01*
X0356549Y0068374D01*
X0356292Y0068110D01*
X0356028Y0067853D01*
X0355758Y0067603D01*
X0355483Y0067359D01*
X0355201Y0067122D01*
X0354913Y0066892D01*
X0354620Y0066669D01*
X0354322Y0066453D01*
X0354019Y0066245D01*
X0353710Y0066044D01*
X0353397Y0065851D01*
X0353078Y0065666D01*
X0352756Y0065488D01*
X0352429Y0065319D01*
X0352098Y0065157D01*
X0351764Y0065004D01*
X0351425Y0064859D01*
X0351083Y0064722D01*
X0350738Y0064594D01*
X0350390Y0064474D01*
X0350039Y0064363D01*
X0349686Y0064260D01*
X0349330Y0064167D01*
X0348972Y0064081D01*
X0348611Y0064005D01*
X0348249Y0063938D01*
X0347886Y0063879D01*
X0347521Y0063830D01*
X0347155Y0063789D01*
X0346788Y0063758D01*
X0346421Y0063735D01*
X0346053Y0063722D01*
X0345685Y0063717D01*
X0345317Y0063722D01*
X0344949Y0063735D01*
X0344582Y0063758D01*
X0344215Y0063789D01*
X0343849Y0063830D01*
X0343484Y0063879D01*
X0343121Y0063938D01*
X0342759Y0064005D01*
X0342398Y0064081D01*
X0342040Y0064167D01*
X0341684Y0064260D01*
X0341331Y0064363D01*
X0340980Y0064474D01*
X0340632Y0064594D01*
X0340287Y0064722D01*
X0339945Y0064859D01*
X0339606Y0065004D01*
X0339272Y0065157D01*
X0338941Y0065319D01*
X0338614Y0065488D01*
X0338292Y0065666D01*
X0337973Y0065851D01*
X0337660Y0066044D01*
X0337351Y0066245D01*
X0337048Y0066453D01*
X0336750Y0066669D01*
X0336457Y0066892D01*
X0336169Y0067122D01*
X0335887Y0067359D01*
X0335612Y0067603D01*
X0335342Y0067853D01*
X0335078Y0068110D01*
X0334821Y0068374D01*
X0334571Y0068644D01*
X0334327Y0068919D01*
X0334090Y0069201D01*
X0333860Y0069489D01*
X0333637Y0069782D01*
X0333421Y0070080D01*
X0333213Y0070383D01*
X0333012Y0070692D01*
X0332819Y0071005D01*
X0332634Y0071324D01*
X0332456Y0071646D01*
X0332287Y0071973D01*
X0332125Y0072304D01*
X0331972Y0072638D01*
X0331827Y0072977D01*
X0331690Y0073319D01*
X0331562Y0073664D01*
X0331442Y0074012D01*
X0331331Y0074363D01*
X0331228Y0074716D01*
X0331135Y0075072D01*
X0331049Y0075430D01*
X0330973Y0075791D01*
X0330906Y0076153D01*
X0330847Y0076516D01*
X0330798Y0076881D01*
X0330757Y0077247D01*
X0330726Y0077614D01*
X0330703Y0077981D01*
X0330690Y0078349D01*
X0330685Y0078717D01*
D15*
X0267081Y0025688D02*
X0267081Y0024221D01*
X0265613Y0025688D01*
X0265246Y0025688D01*
X0264879Y0025321D01*
X0264879Y0024588D01*
X0265246Y0024221D01*
X0265246Y0023479D02*
X0264879Y0023112D01*
X0264879Y0022378D01*
X0265246Y0022011D01*
X0266714Y0022011D01*
X0267081Y0022378D01*
X0267081Y0023112D01*
X0266714Y0023479D01*
X0265246Y0023479D01*
X0265246Y0021269D02*
X0264879Y0020902D01*
X0264879Y0020168D01*
X0265246Y0019801D01*
X0266714Y0019801D01*
X0267081Y0020168D01*
X0267081Y0020902D01*
X0266714Y0021269D01*
X0207878Y0021007D02*
X0207878Y0020273D01*
X0207511Y0019906D01*
X0206410Y0019906D01*
X0206410Y0019172D02*
X0206410Y0021374D01*
X0207511Y0021374D01*
X0207878Y0021007D01*
X0207144Y0019906D02*
X0207878Y0019172D01*
X0205668Y0019172D02*
X0204567Y0020273D01*
X0204200Y0019906D02*
X0205668Y0021374D01*
X0204200Y0021374D02*
X0204200Y0019172D01*
X0203458Y0020273D02*
X0203091Y0019906D01*
X0201990Y0019906D01*
X0201990Y0019172D02*
X0201990Y0021374D01*
X0203091Y0021374D01*
X0203458Y0021007D01*
X0203458Y0020273D01*
X0201248Y0019906D02*
X0201248Y0019539D01*
X0200881Y0019172D01*
X0200147Y0019172D01*
X0199780Y0019539D01*
X0200147Y0020273D02*
X0200881Y0020273D01*
X0201248Y0019906D01*
X0201248Y0021007D02*
X0200881Y0021374D01*
X0200147Y0021374D01*
X0199780Y0021007D01*
X0199780Y0020640D01*
X0200147Y0020273D01*
X0199038Y0020273D02*
X0197570Y0020273D01*
X0197878Y0020273D02*
X0197511Y0019906D01*
X0196410Y0019906D01*
X0196410Y0019172D02*
X0196410Y0021374D01*
X0197511Y0021374D01*
X0197878Y0021007D01*
X0197878Y0020273D01*
X0197144Y0019906D02*
X0197878Y0019172D01*
X0195668Y0019172D02*
X0194567Y0020273D01*
X0194200Y0019906D02*
X0195668Y0021374D01*
X0194200Y0021374D02*
X0194200Y0019172D01*
X0193458Y0020273D02*
X0193091Y0019906D01*
X0191990Y0019906D01*
X0191990Y0019172D02*
X0191990Y0021374D01*
X0193091Y0021374D01*
X0193458Y0021007D01*
X0193458Y0020273D01*
X0191248Y0019906D02*
X0191248Y0019539D01*
X0190881Y0019172D01*
X0190147Y0019172D01*
X0189780Y0019539D01*
X0190147Y0020273D02*
X0190881Y0020273D01*
X0191248Y0019906D01*
X0191248Y0021007D02*
X0190881Y0021374D01*
X0190147Y0021374D01*
X0189780Y0021007D01*
X0189780Y0020640D01*
X0190147Y0020273D01*
X0189038Y0020273D02*
X0187570Y0020273D01*
X0187878Y0020640D02*
X0186777Y0020640D01*
X0186410Y0020273D01*
X0186410Y0019539D01*
X0186777Y0019172D01*
X0187878Y0019172D01*
X0188304Y0019539D02*
X0188304Y0021007D01*
X0185304Y0020640D02*
X0185304Y0019172D01*
X0185670Y0019172D02*
X0184937Y0019172D01*
X0184195Y0019172D02*
X0184195Y0021374D01*
X0183461Y0020640D01*
X0182727Y0021374D01*
X0182727Y0019172D01*
X0181985Y0020273D02*
X0180517Y0020273D01*
X0177878Y0020640D02*
X0176777Y0020640D01*
X0176410Y0020273D01*
X0176410Y0019539D01*
X0176777Y0019172D01*
X0177878Y0019172D01*
X0175670Y0019172D02*
X0174937Y0019172D01*
X0175304Y0019172D02*
X0175304Y0020640D01*
X0174937Y0020640D01*
X0175304Y0021374D02*
X0175304Y0021741D01*
X0174195Y0021374D02*
X0174195Y0019172D01*
X0172727Y0019172D02*
X0172727Y0021374D01*
X0173461Y0020640D01*
X0174195Y0021374D01*
X0171985Y0020273D02*
X0170517Y0020273D01*
X0171251Y0021007D02*
X0171251Y0019539D01*
X0167878Y0019539D02*
X0167511Y0019172D01*
X0166777Y0019172D01*
X0166410Y0019539D01*
X0166777Y0020273D02*
X0167511Y0020273D01*
X0167878Y0019906D01*
X0167878Y0019539D01*
X0166777Y0020273D02*
X0166410Y0020640D01*
X0166410Y0021007D01*
X0166777Y0021374D01*
X0167511Y0021374D01*
X0167878Y0021007D01*
X0165668Y0021374D02*
X0165668Y0019172D01*
X0164200Y0021374D01*
X0164200Y0019172D01*
X0157880Y0019172D02*
X0157513Y0019539D01*
X0157513Y0021007D01*
X0157146Y0020640D02*
X0157880Y0020640D01*
X0156404Y0020273D02*
X0156404Y0019172D01*
X0155303Y0019172D01*
X0154937Y0019539D01*
X0155303Y0019906D01*
X0156404Y0019906D01*
X0156404Y0020273D02*
X0156037Y0020640D01*
X0155303Y0020640D01*
X0154197Y0020640D02*
X0153463Y0020640D01*
X0153830Y0021007D02*
X0153830Y0019539D01*
X0154197Y0019172D01*
X0152721Y0019539D02*
X0152354Y0019172D01*
X0151620Y0019172D01*
X0151253Y0019539D01*
X0151620Y0020273D02*
X0152354Y0020273D01*
X0152721Y0019906D01*
X0152721Y0019539D01*
X0151620Y0020273D02*
X0151253Y0020640D01*
X0151253Y0021007D01*
X0151620Y0021374D01*
X0152354Y0021374D01*
X0152721Y0021007D01*
X0150511Y0021007D02*
X0150511Y0020273D01*
X0150144Y0019906D01*
X0149044Y0019906D01*
X0149044Y0019172D02*
X0149044Y0021374D01*
X0150144Y0021374D01*
X0150511Y0021007D01*
X0147880Y0021374D02*
X0147146Y0021374D01*
X0147513Y0021374D02*
X0147513Y0019172D01*
X0147146Y0019172D02*
X0147880Y0019172D01*
X0146404Y0019172D02*
X0145670Y0019906D01*
X0146037Y0019906D02*
X0144937Y0019906D01*
X0144937Y0019172D02*
X0144937Y0021374D01*
X0146037Y0021374D01*
X0146404Y0021007D01*
X0146404Y0020273D01*
X0146037Y0019906D01*
X0137878Y0019172D02*
X0136777Y0019172D01*
X0136410Y0019539D01*
X0136410Y0020640D01*
X0135668Y0020273D02*
X0135668Y0019906D01*
X0134200Y0019906D01*
X0134200Y0019539D02*
X0134200Y0020273D01*
X0134567Y0020640D01*
X0135301Y0020640D01*
X0135668Y0020273D01*
X0135301Y0019172D02*
X0134567Y0019172D01*
X0134200Y0019539D01*
X0133458Y0019172D02*
X0132357Y0020273D01*
X0131990Y0019906D02*
X0133458Y0021374D01*
X0131990Y0021374D02*
X0131990Y0019172D01*
X0127878Y0019539D02*
X0127511Y0019172D01*
X0126777Y0019172D01*
X0126410Y0019539D01*
X0126777Y0020273D02*
X0127511Y0020273D01*
X0127878Y0019906D01*
X0127878Y0019539D01*
X0126777Y0020273D02*
X0126410Y0020640D01*
X0126410Y0021007D01*
X0126777Y0021374D01*
X0127511Y0021374D01*
X0127878Y0021007D01*
X0125668Y0021374D02*
X0124200Y0021374D01*
X0124934Y0021374D02*
X0124934Y0019172D01*
X0123458Y0019172D02*
X0122724Y0019906D01*
X0123091Y0019906D02*
X0121990Y0019906D01*
X0121990Y0019172D02*
X0121990Y0021374D01*
X0123091Y0021374D01*
X0123458Y0021007D01*
X0123458Y0020273D01*
X0123091Y0019906D01*
X0117878Y0019172D02*
X0116410Y0021374D01*
X0115668Y0021374D02*
X0114200Y0021374D01*
X0114934Y0021374D02*
X0114934Y0019172D01*
X0116410Y0019172D02*
X0117878Y0021374D01*
X0107878Y0021374D02*
X0106410Y0019172D01*
X0105668Y0019172D02*
X0104934Y0019906D01*
X0105301Y0019906D02*
X0104200Y0019906D01*
X0104200Y0019172D02*
X0104200Y0021374D01*
X0105301Y0021374D01*
X0105668Y0021007D01*
X0105668Y0020273D01*
X0105301Y0019906D01*
X0106410Y0021374D02*
X0107878Y0019172D01*
X0097880Y0019172D02*
X0097513Y0019539D01*
X0097513Y0021007D01*
X0097146Y0020640D02*
X0097880Y0020640D01*
X0096404Y0020640D02*
X0095304Y0020640D01*
X0094937Y0020273D01*
X0095304Y0019906D01*
X0096037Y0019906D01*
X0096404Y0019539D01*
X0096037Y0019172D01*
X0094937Y0019172D01*
X0094195Y0019172D02*
X0093461Y0019906D01*
X0093828Y0019906D02*
X0092727Y0019906D01*
X0092727Y0019172D02*
X0092727Y0021374D01*
X0093828Y0021374D01*
X0094195Y0021007D01*
X0094195Y0020273D01*
X0093828Y0019906D01*
X0087878Y0019539D02*
X0087511Y0019172D01*
X0086777Y0019172D01*
X0086410Y0019539D01*
X0086410Y0020273D01*
X0086777Y0020640D01*
X0087511Y0020640D01*
X0087878Y0020273D01*
X0087878Y0019539D01*
X0085670Y0019172D02*
X0084937Y0019172D01*
X0085304Y0019172D02*
X0085304Y0020640D01*
X0084937Y0020640D01*
X0085304Y0021374D02*
X0085304Y0021741D01*
X0084195Y0021374D02*
X0084195Y0019906D01*
X0083461Y0019172D01*
X0082727Y0019906D01*
X0082727Y0021374D01*
X0077878Y0021007D02*
X0077511Y0021374D01*
X0076410Y0021374D01*
X0076410Y0019172D01*
X0077511Y0019172D01*
X0077878Y0019539D01*
X0077878Y0021007D01*
X0075668Y0021374D02*
X0075668Y0019172D01*
X0074200Y0021374D01*
X0074200Y0019172D01*
X0073458Y0019539D02*
X0073458Y0020273D01*
X0072724Y0020273D01*
X0073458Y0019539D02*
X0073091Y0019172D01*
X0072357Y0019172D01*
X0071990Y0019539D01*
X0071990Y0021007D01*
X0072357Y0021374D01*
X0073091Y0021374D01*
X0073458Y0021007D01*
X0067880Y0020640D02*
X0067146Y0020640D01*
X0067513Y0021007D02*
X0067513Y0019539D01*
X0067880Y0019172D01*
X0066404Y0019172D02*
X0065304Y0019172D01*
X0064937Y0019539D01*
X0065304Y0019906D01*
X0066404Y0019906D01*
X0066404Y0020273D02*
X0066404Y0019172D01*
X0066404Y0020273D02*
X0066037Y0020640D01*
X0065304Y0020640D01*
X0064195Y0020640D02*
X0063828Y0020273D01*
X0062727Y0020273D01*
X0062727Y0019172D02*
X0062727Y0021374D01*
X0063828Y0021374D01*
X0064195Y0021007D01*
X0064195Y0020640D01*
X0063828Y0020273D02*
X0064195Y0019906D01*
X0064195Y0019539D01*
X0063828Y0019172D01*
X0062727Y0019172D01*
X0057878Y0019906D02*
X0057144Y0019172D01*
X0056410Y0019906D01*
X0056410Y0021374D01*
X0055668Y0021374D02*
X0054200Y0021374D01*
X0054200Y0020273D01*
X0054934Y0020640D01*
X0055301Y0020640D01*
X0055668Y0020273D01*
X0055668Y0019539D01*
X0055301Y0019172D01*
X0054567Y0019172D01*
X0054200Y0019539D01*
X0057878Y0019906D02*
X0057878Y0021374D01*
X0051283Y0078402D02*
X0015283Y0078402D01*
X0015283Y0110902D01*
X0051283Y0110902D01*
X0051283Y0078402D01*
X0137878Y0020640D02*
X0137878Y0018805D01*
X0137511Y0018438D01*
X0137144Y0018438D01*
X0184937Y0020640D02*
X0185304Y0020640D01*
X0185304Y0021374D02*
X0185304Y0021741D01*
X0018404Y0242525D02*
X0016202Y0242525D01*
X0016202Y0243626D01*
X0016569Y0243993D01*
X0017303Y0243993D01*
X0017670Y0243626D01*
X0017670Y0242525D01*
X0017670Y0243259D02*
X0018404Y0243993D01*
X0018037Y0244735D02*
X0018404Y0245102D01*
X0018404Y0245836D01*
X0018037Y0246203D01*
X0017303Y0246203D01*
X0016936Y0245836D01*
X0016936Y0245469D01*
X0017303Y0244735D01*
X0016202Y0244735D01*
X0016202Y0246203D01*
X0259846Y0299156D02*
X0260147Y0298856D01*
X0261348Y0298856D01*
X0261648Y0299156D01*
X0261648Y0299757D01*
X0261348Y0300057D01*
X0260747Y0300057D01*
X0260747Y0299456D01*
X0260147Y0300057D02*
X0259846Y0299757D01*
X0259846Y0299156D01*
X0259846Y0300697D02*
X0261648Y0301898D01*
X0259846Y0301898D01*
X0259846Y0302539D02*
X0259846Y0303440D01*
X0260147Y0303740D01*
X0261348Y0303740D01*
X0261648Y0303440D01*
X0261648Y0302539D01*
X0259846Y0302539D01*
X0259846Y0300697D02*
X0261648Y0300697D01*
X0269846Y0300697D02*
X0269846Y0301298D01*
X0269846Y0300998D02*
X0271648Y0300998D01*
X0271648Y0301298D02*
X0271648Y0300697D01*
X0271648Y0300057D02*
X0269846Y0300057D01*
X0270447Y0299456D01*
X0269846Y0298856D01*
X0271648Y0298856D01*
X0271348Y0301925D02*
X0271648Y0302225D01*
X0271648Y0302826D01*
X0271348Y0303126D01*
X0271048Y0303126D01*
X0270747Y0302826D01*
X0270747Y0302225D01*
X0270447Y0301925D01*
X0270147Y0301925D01*
X0269846Y0302225D01*
X0269846Y0302826D01*
X0270147Y0303126D01*
X0270147Y0303767D02*
X0271348Y0303767D01*
X0271648Y0304067D01*
X0271648Y0304668D01*
X0271348Y0304968D01*
X0270147Y0304968D01*
X0269846Y0304668D01*
X0269846Y0304067D01*
X0270147Y0303767D01*
X0279846Y0303740D02*
X0281048Y0302539D01*
X0280747Y0302839D02*
X0281648Y0303740D01*
X0281648Y0302539D02*
X0279846Y0302539D01*
X0280147Y0301898D02*
X0279846Y0301598D01*
X0279846Y0300998D01*
X0280147Y0300697D01*
X0281348Y0300697D01*
X0281648Y0300998D01*
X0281648Y0301598D01*
X0281348Y0301898D01*
X0281348Y0300057D02*
X0281648Y0299757D01*
X0281648Y0299156D01*
X0281348Y0298856D01*
X0280747Y0299156D02*
X0280747Y0299757D01*
X0281048Y0300057D01*
X0281348Y0300057D01*
X0280747Y0299156D02*
X0280447Y0298856D01*
X0280147Y0298856D01*
X0279846Y0299156D01*
X0279846Y0299757D01*
X0280147Y0300057D01*
X0289846Y0300057D02*
X0291648Y0300057D01*
X0291348Y0300697D02*
X0291648Y0300998D01*
X0291648Y0301598D01*
X0291348Y0301898D01*
X0290147Y0301898D01*
X0289846Y0301598D01*
X0289846Y0300998D01*
X0290147Y0300697D01*
X0291348Y0300697D01*
X0290447Y0299456D02*
X0289846Y0300057D01*
X0290447Y0299456D02*
X0289846Y0298856D01*
X0291648Y0298856D01*
X0291348Y0302539D02*
X0291648Y0302839D01*
X0291648Y0303440D01*
X0291348Y0303740D01*
X0291048Y0303740D01*
X0290747Y0303440D01*
X0290747Y0302839D01*
X0290447Y0302539D01*
X0290147Y0302539D01*
X0289846Y0302839D01*
X0289846Y0303440D01*
X0290147Y0303740D01*
X0289846Y0304381D02*
X0289846Y0304981D01*
X0289846Y0304681D02*
X0291648Y0304681D01*
X0291648Y0304381D02*
X0291648Y0304981D01*
X0299846Y0301598D02*
X0299846Y0300998D01*
X0300147Y0300697D01*
X0300447Y0300697D01*
X0300747Y0300998D01*
X0300747Y0301598D01*
X0301048Y0301898D01*
X0301348Y0301898D01*
X0301648Y0301598D01*
X0301648Y0300998D01*
X0301348Y0300697D01*
X0301348Y0300057D02*
X0301648Y0299757D01*
X0301648Y0299156D01*
X0301348Y0298856D01*
X0300147Y0298856D01*
X0299846Y0299156D01*
X0299846Y0299757D01*
X0300147Y0300057D01*
X0299846Y0301598D02*
X0300147Y0301898D01*
X0309846Y0301898D02*
X0311048Y0301898D01*
X0311648Y0301298D01*
X0311048Y0300697D01*
X0309846Y0300697D01*
X0309846Y0300057D02*
X0309846Y0298856D01*
X0310747Y0298856D01*
X0310447Y0299456D01*
X0310447Y0299757D01*
X0310747Y0300057D01*
X0311348Y0300057D01*
X0311648Y0299757D01*
X0311648Y0299156D01*
X0311348Y0298856D01*
X0319846Y0299156D02*
X0319846Y0299757D01*
X0320147Y0300057D01*
X0320447Y0300057D01*
X0320747Y0299757D01*
X0321048Y0300057D01*
X0321348Y0300057D01*
X0321648Y0299757D01*
X0321648Y0299156D01*
X0321348Y0298856D01*
X0320747Y0299456D02*
X0320747Y0299757D01*
X0320147Y0298856D02*
X0319846Y0299156D01*
X0321348Y0300998D02*
X0321648Y0300998D01*
X0321648Y0301298D01*
X0321348Y0301298D01*
X0321348Y0300998D01*
X0321648Y0301298D02*
X0322249Y0300697D01*
X0321348Y0301925D02*
X0321648Y0302225D01*
X0321648Y0302826D01*
X0321348Y0303126D01*
X0321048Y0303126D01*
X0320747Y0302826D01*
X0320747Y0302526D01*
X0320747Y0302826D02*
X0320447Y0303126D01*
X0320147Y0303126D01*
X0319846Y0302826D01*
X0319846Y0302225D01*
X0320147Y0301925D01*
X0319846Y0303767D02*
X0321048Y0303767D01*
X0321648Y0304367D01*
X0321048Y0304968D01*
X0319846Y0304968D01*
X0329846Y0303440D02*
X0329846Y0302539D01*
X0331648Y0302539D01*
X0331648Y0303440D01*
X0331348Y0303740D01*
X0330147Y0303740D01*
X0329846Y0303440D01*
X0329846Y0301898D02*
X0331648Y0301898D01*
X0329846Y0300697D01*
X0331648Y0300697D01*
X0331348Y0300057D02*
X0330747Y0300057D01*
X0330747Y0299456D01*
X0330147Y0298856D02*
X0331348Y0298856D01*
X0331648Y0299156D01*
X0331648Y0299757D01*
X0331348Y0300057D01*
X0330147Y0300057D02*
X0329846Y0299757D01*
X0329846Y0299156D01*
X0330147Y0298856D01*
X0345209Y0309494D02*
X0345576Y0309127D01*
X0346310Y0309127D01*
X0346677Y0309494D01*
X0347419Y0309127D02*
X0347419Y0310595D01*
X0348153Y0311329D01*
X0348887Y0310595D01*
X0348887Y0309127D01*
X0349629Y0309127D02*
X0349629Y0311329D01*
X0351097Y0309127D01*
X0351097Y0311329D01*
X0348887Y0310228D02*
X0347419Y0310228D01*
X0346677Y0310962D02*
X0346310Y0311329D01*
X0345576Y0311329D01*
X0345209Y0310962D01*
X0345209Y0309494D01*
X0351839Y0308760D02*
X0353307Y0308760D01*
X0354049Y0309861D02*
X0354783Y0309127D01*
X0355517Y0309861D01*
X0355517Y0311329D01*
X0356259Y0310962D02*
X0356259Y0309494D01*
X0356626Y0309127D01*
X0357360Y0309127D01*
X0357727Y0309494D01*
X0358469Y0309494D02*
X0358836Y0309127D01*
X0359570Y0309127D01*
X0359937Y0309494D01*
X0359937Y0310962D02*
X0359570Y0311329D01*
X0358836Y0311329D01*
X0358469Y0310962D01*
X0358469Y0309494D01*
X0357727Y0310962D02*
X0357360Y0311329D01*
X0356626Y0311329D01*
X0356259Y0310962D01*
X0354049Y0311329D02*
X0354049Y0309861D01*
D16*
X0043283Y0125652D03*
X0033283Y0125652D03*
X0023283Y0125652D03*
D17*
X0023283Y0118902D03*
X0033283Y0118902D03*
X0043283Y0118902D03*
D18*
X0055128Y0117013D02*
X0055128Y0114911D01*
X0056179Y0113861D01*
X0060383Y0113861D01*
X0061433Y0114911D01*
X0061433Y0117013D01*
X0060383Y0118064D01*
X0061433Y0120306D02*
X0061433Y0124510D01*
X0061433Y0122408D02*
X0055128Y0122408D01*
X0057230Y0120306D01*
X0056179Y0118064D02*
X0055128Y0117013D01*
X0055128Y0111665D02*
X0055128Y0109564D01*
X0055128Y0110614D02*
X0061433Y0110614D01*
X0061433Y0109564D02*
X0061433Y0111665D01*
D19*
X0066657Y0221591D03*
X0038257Y0221591D03*
X0046027Y0304031D03*
X0017627Y0304031D03*
D20*
X0016630Y0252877D03*
X0016630Y0224477D03*
X0256787Y0093035D03*
X0272535Y0091854D03*
X0272535Y0063454D03*
X0256787Y0064635D03*
D21*
X0330881Y0045402D02*
X0330881Y0042332D01*
X0335485Y0042332D01*
X0335485Y0045402D01*
X0333183Y0043867D02*
X0333183Y0042332D01*
X0333950Y0040798D02*
X0330881Y0040798D01*
X0333950Y0040798D02*
X0335485Y0039263D01*
X0333950Y0037728D01*
X0330881Y0037728D01*
X0331648Y0036194D02*
X0330881Y0035426D01*
X0330881Y0033892D01*
X0331648Y0033124D01*
X0334718Y0033124D01*
X0335485Y0033892D01*
X0335485Y0035426D01*
X0334718Y0036194D01*
X0331648Y0036194D01*
X0331648Y0031590D02*
X0333183Y0031590D01*
X0333950Y0030822D01*
X0333950Y0028520D01*
X0335485Y0028520D02*
X0330881Y0028520D01*
X0330881Y0030822D01*
X0331648Y0031590D01*
X0333950Y0030055D02*
X0335485Y0031590D01*
X0334718Y0026986D02*
X0333183Y0026986D01*
X0333183Y0025451D01*
X0331648Y0023917D02*
X0334718Y0023917D01*
X0335485Y0024684D01*
X0335485Y0026218D01*
X0334718Y0026986D01*
X0331648Y0026986D02*
X0330881Y0026218D01*
X0330881Y0024684D01*
X0331648Y0023917D01*
X0340881Y0024684D02*
X0341648Y0023917D01*
X0342416Y0023917D01*
X0343183Y0024684D01*
X0343183Y0026218D01*
X0343950Y0026986D01*
X0344718Y0026986D01*
X0345485Y0026218D01*
X0345485Y0024684D01*
X0344718Y0023917D01*
X0340881Y0024684D02*
X0340881Y0026218D01*
X0341648Y0026986D01*
X0341648Y0028520D02*
X0344718Y0028520D01*
X0345485Y0029288D01*
X0345485Y0030822D01*
X0344718Y0031590D01*
X0341648Y0031590D01*
X0340881Y0030822D01*
X0340881Y0029288D01*
X0341648Y0028520D01*
X0340881Y0033124D02*
X0344718Y0033124D01*
X0345485Y0033892D01*
X0345485Y0035426D01*
X0344718Y0036194D01*
X0340881Y0036194D01*
X0340881Y0037728D02*
X0345485Y0040798D01*
X0340881Y0040798D01*
X0340881Y0042332D02*
X0340881Y0044634D01*
X0341648Y0045402D01*
X0344718Y0045402D01*
X0345485Y0044634D01*
X0345485Y0042332D01*
X0340881Y0042332D01*
X0340881Y0037728D02*
X0345485Y0037728D01*
X0235807Y0140254D02*
X0234272Y0138720D01*
X0232738Y0140254D01*
X0232738Y0143324D01*
X0231203Y0143324D02*
X0228134Y0143324D01*
X0228134Y0141022D01*
X0229669Y0141789D01*
X0230436Y0141789D01*
X0231203Y0141022D01*
X0231203Y0139487D01*
X0230436Y0138720D01*
X0228901Y0138720D01*
X0228134Y0139487D01*
X0235807Y0140254D02*
X0235807Y0143324D01*
X0238530Y0147952D02*
X0241599Y0147952D01*
X0244668Y0148720D02*
X0244668Y0153324D01*
X0243134Y0153324D02*
X0246203Y0153324D01*
X0247738Y0153324D02*
X0250807Y0148720D01*
X0247738Y0148720D02*
X0250807Y0153324D01*
X0250807Y0158720D02*
X0247738Y0163324D01*
X0246203Y0162556D02*
X0246203Y0161022D01*
X0245436Y0160254D01*
X0243134Y0160254D01*
X0243134Y0158720D02*
X0243134Y0163324D01*
X0245436Y0163324D01*
X0246203Y0162556D01*
X0244668Y0160254D02*
X0246203Y0158720D01*
X0247738Y0158720D02*
X0250807Y0163324D01*
X0241599Y0157952D02*
X0238530Y0157952D01*
X0236995Y0158720D02*
X0236995Y0163324D01*
X0233926Y0163324D02*
X0236995Y0158720D01*
X0233926Y0158720D02*
X0233926Y0163324D01*
X0232391Y0161789D02*
X0232391Y0158720D01*
X0232391Y0161022D02*
X0229322Y0161022D01*
X0229322Y0161789D02*
X0230857Y0163324D01*
X0232391Y0161789D01*
X0229322Y0161789D02*
X0229322Y0158720D01*
X0227787Y0159487D02*
X0227020Y0158720D01*
X0225485Y0158720D01*
X0224718Y0159487D01*
X0224718Y0162556D01*
X0225485Y0163324D01*
X0227020Y0163324D01*
X0227787Y0162556D01*
X0229297Y0168720D02*
X0230832Y0168720D01*
X0231599Y0169487D01*
X0231599Y0171022D01*
X0230065Y0171022D01*
X0231599Y0172556D02*
X0230832Y0173324D01*
X0229297Y0173324D01*
X0228530Y0172556D01*
X0228530Y0169487D01*
X0229297Y0168720D01*
X0233134Y0168720D02*
X0233134Y0173324D01*
X0236203Y0168720D01*
X0236203Y0173324D01*
X0237738Y0173324D02*
X0240040Y0173324D01*
X0240807Y0172556D01*
X0240807Y0169487D01*
X0240040Y0168720D01*
X0237738Y0168720D01*
X0237738Y0173324D01*
X0236995Y0153324D02*
X0236995Y0148720D01*
X0233926Y0153324D01*
X0233926Y0148720D01*
X0232391Y0148720D02*
X0232391Y0151789D01*
X0230857Y0153324D01*
X0229322Y0151789D01*
X0229322Y0148720D01*
X0227787Y0149487D02*
X0227020Y0148720D01*
X0225485Y0148720D01*
X0224718Y0149487D01*
X0224718Y0152556D01*
X0225485Y0153324D01*
X0227020Y0153324D01*
X0227787Y0152556D01*
X0229322Y0151022D02*
X0232391Y0151022D01*
X0192217Y0152222D02*
X0189915Y0152222D01*
X0189148Y0151455D01*
X0189148Y0149920D01*
X0189915Y0149153D01*
X0192217Y0149153D01*
X0187613Y0149153D02*
X0185311Y0149153D01*
X0184544Y0149920D01*
X0184544Y0151455D01*
X0185311Y0152222D01*
X0187613Y0152222D01*
X0183009Y0150687D02*
X0181475Y0149153D01*
X0179940Y0150687D01*
X0179940Y0153757D01*
X0183009Y0153757D02*
X0183009Y0150687D01*
X0174540Y0151133D02*
X0169936Y0151133D01*
X0171471Y0152668D01*
X0169936Y0154202D01*
X0174540Y0154202D01*
X0173773Y0155737D02*
X0174540Y0156504D01*
X0174540Y0158039D01*
X0173773Y0158806D01*
X0170704Y0158806D01*
X0169936Y0158039D01*
X0169936Y0156504D01*
X0170704Y0155737D01*
X0173773Y0155737D01*
X0173006Y0157272D02*
X0174540Y0158806D01*
X0174540Y0160341D02*
X0174540Y0163410D01*
X0174540Y0161876D02*
X0169936Y0161876D01*
X0171471Y0160341D01*
X0170704Y0164945D02*
X0169936Y0165712D01*
X0169936Y0167247D01*
X0170704Y0168014D01*
X0171471Y0168014D01*
X0172238Y0167247D01*
X0173006Y0168014D01*
X0173773Y0168014D01*
X0174540Y0167247D01*
X0174540Y0165712D01*
X0173773Y0164945D01*
X0172238Y0166479D02*
X0172238Y0167247D01*
X0172238Y0169549D02*
X0171471Y0171083D01*
X0171471Y0171851D01*
X0172238Y0172618D01*
X0173773Y0172618D01*
X0174540Y0171851D01*
X0174540Y0170316D01*
X0173773Y0169549D01*
X0172238Y0169549D02*
X0169936Y0169549D01*
X0169936Y0172618D01*
X0179940Y0173757D02*
X0179940Y0169153D01*
X0182242Y0169153D01*
X0183009Y0169920D01*
X0183009Y0172989D01*
X0182242Y0173757D01*
X0179940Y0173757D01*
X0184544Y0172989D02*
X0184544Y0169920D01*
X0187613Y0172989D01*
X0187613Y0169920D01*
X0186846Y0169153D01*
X0185311Y0169153D01*
X0184544Y0169920D01*
X0184544Y0172989D02*
X0185311Y0173757D01*
X0186846Y0173757D01*
X0187613Y0172989D01*
X0186846Y0179153D02*
X0185311Y0179153D01*
X0184544Y0179920D01*
X0187613Y0182989D01*
X0187613Y0179920D01*
X0186846Y0179153D01*
X0184544Y0179920D02*
X0184544Y0182989D01*
X0185311Y0183757D01*
X0186846Y0183757D01*
X0187613Y0182989D01*
X0183009Y0182222D02*
X0183009Y0179153D01*
X0183009Y0181455D02*
X0179940Y0181455D01*
X0179940Y0182222D02*
X0179940Y0179153D01*
X0179940Y0182222D02*
X0181475Y0183757D01*
X0183009Y0182222D01*
X0182242Y0163757D02*
X0180707Y0163757D01*
X0179940Y0162989D01*
X0179940Y0159920D01*
X0180707Y0159153D01*
X0182242Y0159153D01*
X0183009Y0159920D01*
X0183009Y0161455D01*
X0181475Y0161455D01*
X0183009Y0162989D02*
X0182242Y0163757D01*
X0184544Y0163757D02*
X0187613Y0159153D01*
X0187613Y0163757D01*
X0189148Y0163757D02*
X0191450Y0163757D01*
X0192217Y0162989D01*
X0192217Y0159920D01*
X0191450Y0159153D01*
X0189148Y0159153D01*
X0189148Y0163757D01*
X0184544Y0163757D02*
X0184544Y0159153D01*
X0170997Y0240932D02*
X0166393Y0240932D01*
X0167928Y0242466D01*
X0166393Y0244001D01*
X0170997Y0244001D01*
X0170230Y0245535D02*
X0170997Y0246303D01*
X0170997Y0247837D01*
X0170230Y0248605D01*
X0167160Y0248605D01*
X0166393Y0247837D01*
X0166393Y0246303D01*
X0167160Y0245535D01*
X0170230Y0245535D01*
X0169462Y0247070D02*
X0170997Y0248605D01*
X0170997Y0250139D02*
X0170230Y0250139D01*
X0167160Y0253209D01*
X0166393Y0253209D01*
X0166393Y0250139D01*
X0256944Y0304723D02*
X0257711Y0303956D01*
X0258479Y0303956D01*
X0259246Y0304723D01*
X0259246Y0306258D01*
X0260013Y0307025D01*
X0260781Y0307025D01*
X0261548Y0306258D01*
X0261548Y0304723D01*
X0260781Y0303956D01*
X0257711Y0307025D02*
X0256944Y0306258D01*
X0256944Y0304723D01*
X0256944Y0308560D02*
X0256944Y0310862D01*
X0257711Y0311629D01*
X0260781Y0311629D01*
X0261548Y0310862D01*
X0261548Y0308560D01*
X0256944Y0308560D01*
X0079658Y0153500D02*
X0079658Y0151965D01*
X0078891Y0151198D01*
X0078891Y0149663D02*
X0079658Y0148896D01*
X0079658Y0147361D01*
X0078891Y0146594D01*
X0075822Y0146594D01*
X0075054Y0147361D01*
X0075054Y0148896D01*
X0075822Y0149663D01*
X0075822Y0151198D02*
X0076589Y0151198D01*
X0077356Y0151965D01*
X0077356Y0153500D01*
X0078124Y0154267D01*
X0078891Y0154267D01*
X0079658Y0153500D01*
X0075822Y0154267D02*
X0075054Y0153500D01*
X0075054Y0151965D01*
X0075822Y0151198D01*
X0069658Y0151198D02*
X0069658Y0153500D01*
X0068891Y0154267D01*
X0065822Y0154267D01*
X0065054Y0153500D01*
X0065054Y0151198D01*
X0069658Y0151198D01*
X0068891Y0149663D02*
X0069658Y0148896D01*
X0069658Y0147361D01*
X0068891Y0146594D01*
X0067356Y0147361D02*
X0067356Y0148896D01*
X0068124Y0149663D01*
X0068891Y0149663D01*
X0067356Y0147361D02*
X0066589Y0146594D01*
X0065822Y0146594D01*
X0065054Y0147361D01*
X0065054Y0148896D01*
X0065822Y0149663D01*
X0065054Y0155802D02*
X0065054Y0157336D01*
X0065054Y0156569D02*
X0069658Y0156569D01*
X0069658Y0155802D02*
X0069658Y0157336D01*
X0059658Y0156569D02*
X0058891Y0155802D01*
X0055822Y0155802D01*
X0055054Y0156569D01*
X0055054Y0158104D01*
X0055822Y0158871D01*
X0058891Y0158871D01*
X0059658Y0158104D01*
X0059658Y0156569D01*
X0058891Y0154267D02*
X0055822Y0154267D01*
X0055054Y0153500D01*
X0055054Y0151198D01*
X0059658Y0151198D01*
X0059658Y0153500D01*
X0058891Y0154267D01*
X0058891Y0149663D02*
X0058124Y0149663D01*
X0057356Y0148896D01*
X0057356Y0147361D01*
X0056589Y0146594D01*
X0055822Y0146594D01*
X0055054Y0147361D01*
X0055054Y0148896D01*
X0055822Y0149663D01*
X0058891Y0149663D02*
X0059658Y0148896D01*
X0059658Y0147361D01*
X0058891Y0146594D01*
X0049658Y0147361D02*
X0048891Y0146594D01*
X0049658Y0147361D02*
X0049658Y0148896D01*
X0048891Y0149663D01*
X0048124Y0149663D01*
X0047356Y0148896D01*
X0047356Y0147361D01*
X0046589Y0146594D01*
X0045822Y0146594D01*
X0045054Y0147361D01*
X0045054Y0148896D01*
X0045822Y0149663D01*
X0045822Y0151198D02*
X0048891Y0151198D01*
X0049658Y0151965D01*
X0049658Y0153500D01*
X0048891Y0154267D01*
X0049658Y0155802D02*
X0045054Y0155802D01*
X0045822Y0154267D02*
X0045054Y0153500D01*
X0045054Y0151965D01*
X0045822Y0151198D01*
X0048124Y0155802D02*
X0045054Y0158871D01*
X0047356Y0156569D02*
X0049658Y0158871D01*
X0039658Y0158104D02*
X0039658Y0155802D01*
X0035054Y0155802D01*
X0035054Y0158104D01*
X0035822Y0158871D01*
X0038891Y0158871D01*
X0039658Y0158104D01*
X0039658Y0154267D02*
X0035054Y0154267D01*
X0035054Y0151198D02*
X0039658Y0154267D01*
X0039658Y0151198D02*
X0035054Y0151198D01*
X0035822Y0149663D02*
X0035054Y0148896D01*
X0035054Y0147361D01*
X0035822Y0146594D01*
X0038891Y0146594D01*
X0039658Y0147361D01*
X0039658Y0148896D01*
X0038891Y0149663D01*
X0037356Y0149663D01*
X0037356Y0148128D01*
X0029658Y0147361D02*
X0028891Y0146594D01*
X0029658Y0147361D02*
X0029658Y0148896D01*
X0028891Y0149663D01*
X0028124Y0149663D01*
X0027356Y0148896D01*
X0027356Y0148128D01*
X0027356Y0148896D02*
X0026589Y0149663D01*
X0025822Y0149663D01*
X0025054Y0148896D01*
X0025054Y0147361D01*
X0025822Y0146594D01*
X0025054Y0151198D02*
X0028124Y0151198D01*
X0029658Y0152732D01*
X0028124Y0154267D01*
X0025054Y0154267D01*
X0026589Y0156569D02*
X0027356Y0155802D01*
X0028891Y0155802D01*
X0029658Y0156569D01*
X0029658Y0158104D01*
X0028891Y0158871D01*
X0027356Y0158871D01*
X0026589Y0158104D01*
X0026589Y0156569D01*
X0019658Y0157336D02*
X0015054Y0157336D01*
X0015054Y0154267D02*
X0019658Y0157336D01*
X0019658Y0154267D02*
X0015054Y0154267D01*
X0015054Y0152732D02*
X0015054Y0151198D01*
X0015054Y0151965D02*
X0019658Y0151965D01*
X0019658Y0151198D02*
X0019658Y0152732D01*
X0018124Y0149663D02*
X0015054Y0149663D01*
X0015054Y0146594D02*
X0018124Y0146594D01*
X0019658Y0148128D01*
X0018124Y0149663D01*
X0038831Y0266082D02*
X0038064Y0266849D01*
X0038831Y0266082D02*
X0040366Y0266082D01*
X0041133Y0266849D01*
X0041133Y0267617D01*
X0040366Y0268384D01*
X0038831Y0268384D01*
X0038064Y0269151D01*
X0038064Y0269918D01*
X0038831Y0270686D01*
X0040366Y0270686D01*
X0041133Y0269918D01*
X0042668Y0269151D02*
X0043435Y0269151D01*
X0043435Y0266082D01*
X0042668Y0266082D02*
X0044202Y0266082D01*
X0045737Y0266082D02*
X0045737Y0266849D01*
X0048806Y0269918D01*
X0048806Y0270686D01*
X0045737Y0270686D01*
X0043435Y0270686D02*
X0043435Y0271453D01*
X0050341Y0269918D02*
X0050341Y0266849D01*
X0053410Y0269918D01*
X0053410Y0266849D01*
X0052643Y0266082D01*
X0051108Y0266082D01*
X0050341Y0266849D01*
X0050341Y0269918D02*
X0051108Y0270686D01*
X0052643Y0270686D01*
X0053410Y0269918D01*
X0054945Y0269918D02*
X0055712Y0270686D01*
X0057247Y0270686D01*
X0058014Y0269918D01*
X0058014Y0269151D01*
X0054945Y0266082D01*
X0058014Y0266082D01*
X0059549Y0266082D02*
X0062618Y0266082D01*
X0061083Y0266082D02*
X0061083Y0270686D01*
X0059549Y0269151D01*
D22*
X0058624Y0188502D02*
X0061694Y0188502D01*
X0063228Y0186967D01*
X0063228Y0185432D01*
X0061694Y0183898D01*
X0058624Y0183898D01*
X0057090Y0185432D01*
X0057090Y0186967D01*
X0058624Y0188502D01*
X0054020Y0186967D02*
X0052486Y0188502D01*
X0049416Y0188502D01*
X0047882Y0186967D01*
X0044813Y0186967D02*
X0044813Y0183898D01*
X0043278Y0182363D01*
X0038674Y0182363D01*
X0038674Y0179294D02*
X0038674Y0188502D01*
X0043278Y0188502D01*
X0044813Y0186967D01*
X0047882Y0179294D02*
X0054020Y0185432D01*
X0054020Y0186967D01*
X0057090Y0182363D02*
X0058624Y0183898D01*
X0057090Y0182363D02*
X0057090Y0180828D01*
X0058624Y0179294D01*
X0061694Y0179294D01*
X0063228Y0180828D01*
X0063228Y0182363D01*
X0061694Y0183898D01*
X0066298Y0186967D02*
X0067832Y0188502D01*
X0070902Y0188502D01*
X0072436Y0186967D01*
X0066298Y0180828D01*
X0067832Y0179294D01*
X0070902Y0179294D01*
X0072436Y0180828D01*
X0072436Y0186967D01*
X0066298Y0186967D02*
X0066298Y0180828D01*
X0054020Y0179294D02*
X0047882Y0179294D01*
X0035605Y0179294D02*
X0035605Y0188502D01*
X0032535Y0185432D01*
X0029466Y0188502D01*
X0029466Y0179294D01*
X0026397Y0180828D02*
X0026397Y0182363D01*
X0024862Y0183898D01*
X0020258Y0183898D01*
X0020258Y0179294D02*
X0020258Y0188502D01*
X0024862Y0188502D01*
X0026397Y0186967D01*
X0026397Y0185432D01*
X0024862Y0183898D01*
X0026397Y0180828D02*
X0024862Y0179294D01*
X0020258Y0179294D01*
X0154819Y0108165D02*
X0154819Y0102165D01*
X0154945Y0102163D01*
X0155070Y0102157D01*
X0155195Y0102147D01*
X0155320Y0102133D01*
X0155445Y0102116D01*
X0155569Y0102094D01*
X0155692Y0102069D01*
X0155814Y0102039D01*
X0155935Y0102006D01*
X0156055Y0101969D01*
X0156174Y0101929D01*
X0156291Y0101884D01*
X0156408Y0101836D01*
X0156522Y0101784D01*
X0156635Y0101729D01*
X0156746Y0101670D01*
X0156855Y0101608D01*
X0156962Y0101542D01*
X0157067Y0101473D01*
X0157170Y0101401D01*
X0157271Y0101326D01*
X0157369Y0101247D01*
X0157464Y0101165D01*
X0157557Y0101081D01*
X0157647Y0100993D01*
X0157735Y0100903D01*
X0157819Y0100810D01*
X0157901Y0100715D01*
X0157980Y0100617D01*
X0158055Y0100516D01*
X0158127Y0100413D01*
X0158196Y0100308D01*
X0158262Y0100201D01*
X0158324Y0100092D01*
X0158383Y0099981D01*
X0158438Y0099868D01*
X0158490Y0099754D01*
X0158538Y0099637D01*
X0158583Y0099520D01*
X0158623Y0099401D01*
X0158660Y0099281D01*
X0158693Y0099160D01*
X0158723Y0099038D01*
X0158748Y0098915D01*
X0158770Y0098791D01*
X0158787Y0098666D01*
X0158801Y0098541D01*
X0158811Y0098416D01*
X0158817Y0098291D01*
X0158819Y0098165D01*
X0158817Y0098039D01*
X0158811Y0097914D01*
X0158801Y0097789D01*
X0158787Y0097664D01*
X0158770Y0097539D01*
X0158748Y0097415D01*
X0158723Y0097292D01*
X0158693Y0097170D01*
X0158660Y0097049D01*
X0158623Y0096929D01*
X0158583Y0096810D01*
X0158538Y0096693D01*
X0158490Y0096576D01*
X0158438Y0096462D01*
X0158383Y0096349D01*
X0158324Y0096238D01*
X0158262Y0096129D01*
X0158196Y0096022D01*
X0158127Y0095917D01*
X0158055Y0095814D01*
X0157980Y0095713D01*
X0157901Y0095615D01*
X0157819Y0095520D01*
X0157735Y0095427D01*
X0157647Y0095337D01*
X0157557Y0095249D01*
X0157464Y0095165D01*
X0157369Y0095083D01*
X0157271Y0095004D01*
X0157170Y0094929D01*
X0157067Y0094857D01*
X0156962Y0094788D01*
X0156855Y0094722D01*
X0156746Y0094660D01*
X0156635Y0094601D01*
X0156522Y0094546D01*
X0156408Y0094494D01*
X0156291Y0094446D01*
X0156174Y0094401D01*
X0156055Y0094361D01*
X0155935Y0094324D01*
X0155814Y0094291D01*
X0155692Y0094261D01*
X0155569Y0094236D01*
X0155445Y0094214D01*
X0155320Y0094197D01*
X0155195Y0094183D01*
X0155070Y0094173D01*
X0154945Y0094167D01*
X0154819Y0094165D01*
X0154819Y0088165D01*
X0194819Y0088165D01*
X0194819Y0108165D01*
X0154819Y0108165D01*
X0292534Y0140454D02*
X0294069Y0138920D01*
X0300207Y0138920D01*
X0301742Y0140454D01*
X0301742Y0143524D01*
X0300207Y0145058D01*
X0301742Y0148128D02*
X0295603Y0148128D01*
X0292534Y0151197D01*
X0295603Y0154266D01*
X0301742Y0154266D01*
X0301742Y0157335D02*
X0292534Y0157335D01*
X0301742Y0163474D01*
X0292534Y0163474D01*
X0297138Y0154266D02*
X0297138Y0148128D01*
X0294069Y0145058D02*
X0292534Y0143524D01*
X0292534Y0140454D01*
X0292534Y0175751D02*
X0292534Y0180355D01*
X0294069Y0181890D01*
X0295603Y0181890D01*
X0297138Y0180355D01*
X0297138Y0175751D01*
X0301742Y0175751D02*
X0292534Y0175751D01*
X0297138Y0180355D02*
X0298672Y0181890D01*
X0300207Y0181890D01*
X0301742Y0180355D01*
X0301742Y0175751D01*
X0301742Y0184959D02*
X0292534Y0184959D01*
X0292534Y0189563D01*
X0294069Y0191098D01*
X0297138Y0191098D01*
X0298672Y0189563D01*
X0298672Y0184959D01*
X0298672Y0188028D02*
X0301742Y0191098D01*
X0301742Y0194167D02*
X0301742Y0200305D01*
X0301742Y0203375D02*
X0295603Y0203375D01*
X0292534Y0206444D01*
X0295603Y0209513D01*
X0301742Y0209513D01*
X0301742Y0212583D02*
X0301742Y0217187D01*
X0300207Y0218721D01*
X0294069Y0218721D01*
X0292534Y0217187D01*
X0292534Y0212583D01*
X0301742Y0212583D01*
X0297138Y0209513D02*
X0297138Y0203375D01*
X0292534Y0200305D02*
X0292534Y0194167D01*
X0301742Y0194167D01*
X0297138Y0194167D02*
X0297138Y0197236D01*
X0297138Y0221790D02*
X0297138Y0226394D01*
X0298672Y0227929D01*
X0300207Y0227929D01*
X0301742Y0226394D01*
X0301742Y0221790D01*
X0292534Y0221790D01*
X0292534Y0226394D01*
X0294069Y0227929D01*
X0295603Y0227929D01*
X0297138Y0226394D01*
X0294069Y0230998D02*
X0300207Y0230998D01*
X0301742Y0232533D01*
X0301742Y0235602D01*
X0300207Y0237137D01*
X0294069Y0237137D01*
X0292534Y0235602D01*
X0292534Y0232533D01*
X0294069Y0230998D01*
X0295603Y0240206D02*
X0292534Y0243275D01*
X0295603Y0246345D01*
X0301742Y0246345D01*
X0301742Y0249414D02*
X0292534Y0249414D01*
X0292534Y0254018D01*
X0294069Y0255553D01*
X0297138Y0255553D01*
X0298672Y0254018D01*
X0298672Y0249414D01*
X0298672Y0252483D02*
X0301742Y0255553D01*
X0301742Y0258622D02*
X0301742Y0263226D01*
X0300207Y0264760D01*
X0294069Y0264760D01*
X0292534Y0263226D01*
X0292534Y0258622D01*
X0301742Y0258622D01*
X0297138Y0246345D02*
X0297138Y0240206D01*
X0295603Y0240206D02*
X0301742Y0240206D01*
M02*
