%
M48
M72
T01C0.01378
T02C0.03150
T03C0.03200
T04C0.04000
T05C0.04400
T06C0.04700
T07C0.10000
T08C0.11000
T09C0.13000
%
T01
X110350Y45980
X125508Y81709
X144996Y90370
X146079Y94701
X137417Y126098
X106020Y129346
X233776Y82791
X183972Y267929
T02
X196787Y269858
X196787Y259858
X196787Y249858
X196787Y239858
X197831Y184268
X197831Y174268
X197831Y164268
X197831Y154268
X222732Y153835
X222732Y163835
X222732Y173835
X222732Y143835
X294346Y66276
X294346Y58402
X294346Y50528
X294346Y42654
X259898Y25016
X252024Y25016
X244150Y25016
X236276Y25016
X209110Y21787
X199110Y21787
X189110Y21787
X179110Y21787
X169110Y21787
X159110Y21787
X149110Y21787
X139110Y21787
X129110Y21787
X119110Y21787
X109110Y21787
X99110Y21787
X89110Y21787
X79110Y21787
X69110Y21787
X59110Y21787
X55449Y146709
X65449Y146709
X75449Y146709
X45449Y146709
X35449Y146709
X25449Y146709
X15449Y146709
X39543Y241197
X49543Y241197
X59543Y241197
X69543Y241197
X12024Y279976
X12024Y289976
X267339Y304071
X277339Y304071
X287339Y304071
X297339Y304071
X307339Y304071
X317339Y304071
X327339Y304071
X337339Y304071
X337339Y314071
X327339Y314071
X317339Y314071
X307339Y314071
X297339Y314071
X287339Y314071
X277339Y314071
X267339Y314071
T03
X73047Y226906
X33047Y226906
X17220Y223992
X17220Y263992
X12417Y309346
X52417Y309346
X160409Y118480
X170409Y118480
X180409Y118480
X190409Y118480
X190409Y88480
X180409Y88480
X170409Y88480
X160409Y88480
X143441Y43992
X123441Y43992
X104504Y43992
X84504Y43992
X257378Y64150
X273126Y62969
X273126Y102969
X257378Y104150
T04
X241197Y74307
X241197Y64307
X231197Y64307
X221197Y64307
X221197Y74307
X231197Y74307
X211197Y74307
X211197Y64307
X201197Y64307
X201197Y74307
X191197Y74307
X181197Y74307
X181197Y64307
X191197Y64307
X171197Y64307
X171197Y74307
X161197Y74307
X151197Y74307
X151197Y64307
X161197Y64307
X141197Y64307
X141197Y74307
X131197Y74307
X131197Y64307
X121197Y64307
X111197Y64307
X111197Y74307
X121197Y74307
X101197Y74307
X101197Y64307
X91197Y64307
X81197Y64307
X81197Y74307
X91197Y74307
X71197Y74307
X71197Y64307
X61197Y64307
X61197Y74307
X61197Y304465
X61197Y314465
X71197Y314465
X81197Y314465
X91197Y314465
X101197Y314465
X111197Y314465
X121197Y314465
X131197Y314465
X141197Y314465
X151197Y314465
X161197Y314465
X171197Y314465
X181197Y314465
X191197Y314465
X201197Y314465
X211197Y314465
X221197Y314465
X231197Y314465
X241197Y314465
X241197Y304465
X231197Y304465
X221197Y304465
X211197Y304465
X201197Y304465
X191197Y304465
X181197Y304465
X171197Y304465
X161197Y304465
X151197Y304465
X141197Y304465
X131197Y304465
X121197Y304465
X111197Y304465
X101197Y304465
X91197Y304465
X81197Y304465
X71197Y304465
X351000Y307142
T05
X43874Y128717
X33874Y128717
X23874Y128717
T06
X21079Y32614
X40764Y32614
T07
X95331Y139268
X95331Y199268
X70449Y206709
X96787Y224858
X96787Y284858
X20449Y206709
X195331Y199268
X196787Y224858
X196787Y284858
X222732Y283835
X195331Y139268
X222732Y118835
X321276Y95094
X321276Y15094
T08
X74543Y286197
X34543Y286197
T09
X33874Y69717
M30
