G75*
%MOIN*%
%OFA0B0*%
%FSLAX25Y25*%
%IPPOS*%
%LPD*%
%AMOC8*
5,1,8,0,0,1.08239X$1,22.5*
%
%ADD10C,0.00000*%
%ADD11C,0.00600*%
D10*
X0001000Y0003756D02*
X0001394Y0327575D01*
X0363598Y0327181D01*
X0364189Y0001000D01*
X0001000Y0003756D01*
X0027374Y0069717D02*
X0027376Y0069878D01*
X0027382Y0070038D01*
X0027392Y0070199D01*
X0027406Y0070359D01*
X0027424Y0070519D01*
X0027445Y0070678D01*
X0027471Y0070837D01*
X0027501Y0070995D01*
X0027534Y0071152D01*
X0027572Y0071309D01*
X0027613Y0071464D01*
X0027658Y0071618D01*
X0027707Y0071771D01*
X0027760Y0071923D01*
X0027816Y0072074D01*
X0027877Y0072223D01*
X0027940Y0072371D01*
X0028008Y0072517D01*
X0028079Y0072661D01*
X0028153Y0072803D01*
X0028231Y0072944D01*
X0028313Y0073082D01*
X0028398Y0073219D01*
X0028486Y0073353D01*
X0028578Y0073485D01*
X0028673Y0073615D01*
X0028771Y0073743D01*
X0028872Y0073868D01*
X0028976Y0073990D01*
X0029083Y0074110D01*
X0029193Y0074227D01*
X0029306Y0074342D01*
X0029422Y0074453D01*
X0029541Y0074562D01*
X0029662Y0074667D01*
X0029786Y0074770D01*
X0029912Y0074870D01*
X0030040Y0074966D01*
X0030171Y0075059D01*
X0030305Y0075149D01*
X0030440Y0075236D01*
X0030578Y0075319D01*
X0030717Y0075399D01*
X0030859Y0075475D01*
X0031002Y0075548D01*
X0031147Y0075617D01*
X0031294Y0075683D01*
X0031442Y0075745D01*
X0031592Y0075803D01*
X0031743Y0075858D01*
X0031896Y0075909D01*
X0032050Y0075956D01*
X0032205Y0075999D01*
X0032361Y0076038D01*
X0032517Y0076074D01*
X0032675Y0076105D01*
X0032833Y0076133D01*
X0032992Y0076157D01*
X0033152Y0076177D01*
X0033312Y0076193D01*
X0033472Y0076205D01*
X0033633Y0076213D01*
X0033794Y0076217D01*
X0033954Y0076217D01*
X0034115Y0076213D01*
X0034276Y0076205D01*
X0034436Y0076193D01*
X0034596Y0076177D01*
X0034756Y0076157D01*
X0034915Y0076133D01*
X0035073Y0076105D01*
X0035231Y0076074D01*
X0035387Y0076038D01*
X0035543Y0075999D01*
X0035698Y0075956D01*
X0035852Y0075909D01*
X0036005Y0075858D01*
X0036156Y0075803D01*
X0036306Y0075745D01*
X0036454Y0075683D01*
X0036601Y0075617D01*
X0036746Y0075548D01*
X0036889Y0075475D01*
X0037031Y0075399D01*
X0037170Y0075319D01*
X0037308Y0075236D01*
X0037443Y0075149D01*
X0037577Y0075059D01*
X0037708Y0074966D01*
X0037836Y0074870D01*
X0037962Y0074770D01*
X0038086Y0074667D01*
X0038207Y0074562D01*
X0038326Y0074453D01*
X0038442Y0074342D01*
X0038555Y0074227D01*
X0038665Y0074110D01*
X0038772Y0073990D01*
X0038876Y0073868D01*
X0038977Y0073743D01*
X0039075Y0073615D01*
X0039170Y0073485D01*
X0039262Y0073353D01*
X0039350Y0073219D01*
X0039435Y0073082D01*
X0039517Y0072944D01*
X0039595Y0072803D01*
X0039669Y0072661D01*
X0039740Y0072517D01*
X0039808Y0072371D01*
X0039871Y0072223D01*
X0039932Y0072074D01*
X0039988Y0071923D01*
X0040041Y0071771D01*
X0040090Y0071618D01*
X0040135Y0071464D01*
X0040176Y0071309D01*
X0040214Y0071152D01*
X0040247Y0070995D01*
X0040277Y0070837D01*
X0040303Y0070678D01*
X0040324Y0070519D01*
X0040342Y0070359D01*
X0040356Y0070199D01*
X0040366Y0070038D01*
X0040372Y0069878D01*
X0040374Y0069717D01*
X0040372Y0069556D01*
X0040366Y0069396D01*
X0040356Y0069235D01*
X0040342Y0069075D01*
X0040324Y0068915D01*
X0040303Y0068756D01*
X0040277Y0068597D01*
X0040247Y0068439D01*
X0040214Y0068282D01*
X0040176Y0068125D01*
X0040135Y0067970D01*
X0040090Y0067816D01*
X0040041Y0067663D01*
X0039988Y0067511D01*
X0039932Y0067360D01*
X0039871Y0067211D01*
X0039808Y0067063D01*
X0039740Y0066917D01*
X0039669Y0066773D01*
X0039595Y0066631D01*
X0039517Y0066490D01*
X0039435Y0066352D01*
X0039350Y0066215D01*
X0039262Y0066081D01*
X0039170Y0065949D01*
X0039075Y0065819D01*
X0038977Y0065691D01*
X0038876Y0065566D01*
X0038772Y0065444D01*
X0038665Y0065324D01*
X0038555Y0065207D01*
X0038442Y0065092D01*
X0038326Y0064981D01*
X0038207Y0064872D01*
X0038086Y0064767D01*
X0037962Y0064664D01*
X0037836Y0064564D01*
X0037708Y0064468D01*
X0037577Y0064375D01*
X0037443Y0064285D01*
X0037308Y0064198D01*
X0037170Y0064115D01*
X0037031Y0064035D01*
X0036889Y0063959D01*
X0036746Y0063886D01*
X0036601Y0063817D01*
X0036454Y0063751D01*
X0036306Y0063689D01*
X0036156Y0063631D01*
X0036005Y0063576D01*
X0035852Y0063525D01*
X0035698Y0063478D01*
X0035543Y0063435D01*
X0035387Y0063396D01*
X0035231Y0063360D01*
X0035073Y0063329D01*
X0034915Y0063301D01*
X0034756Y0063277D01*
X0034596Y0063257D01*
X0034436Y0063241D01*
X0034276Y0063229D01*
X0034115Y0063221D01*
X0033954Y0063217D01*
X0033794Y0063217D01*
X0033633Y0063221D01*
X0033472Y0063229D01*
X0033312Y0063241D01*
X0033152Y0063257D01*
X0032992Y0063277D01*
X0032833Y0063301D01*
X0032675Y0063329D01*
X0032517Y0063360D01*
X0032361Y0063396D01*
X0032205Y0063435D01*
X0032050Y0063478D01*
X0031896Y0063525D01*
X0031743Y0063576D01*
X0031592Y0063631D01*
X0031442Y0063689D01*
X0031294Y0063751D01*
X0031147Y0063817D01*
X0031002Y0063886D01*
X0030859Y0063959D01*
X0030717Y0064035D01*
X0030578Y0064115D01*
X0030440Y0064198D01*
X0030305Y0064285D01*
X0030171Y0064375D01*
X0030040Y0064468D01*
X0029912Y0064564D01*
X0029786Y0064664D01*
X0029662Y0064767D01*
X0029541Y0064872D01*
X0029422Y0064981D01*
X0029306Y0065092D01*
X0029193Y0065207D01*
X0029083Y0065324D01*
X0028976Y0065444D01*
X0028872Y0065566D01*
X0028771Y0065691D01*
X0028673Y0065819D01*
X0028578Y0065949D01*
X0028486Y0066081D01*
X0028398Y0066215D01*
X0028313Y0066352D01*
X0028231Y0066490D01*
X0028153Y0066631D01*
X0028079Y0066773D01*
X0028008Y0066917D01*
X0027940Y0067063D01*
X0027877Y0067211D01*
X0027816Y0067360D01*
X0027760Y0067511D01*
X0027707Y0067663D01*
X0027658Y0067816D01*
X0027613Y0067970D01*
X0027572Y0068125D01*
X0027534Y0068282D01*
X0027501Y0068439D01*
X0027471Y0068597D01*
X0027445Y0068756D01*
X0027424Y0068915D01*
X0027406Y0069075D01*
X0027392Y0069235D01*
X0027382Y0069396D01*
X0027376Y0069556D01*
X0027374Y0069717D01*
X0090331Y0139268D02*
X0090333Y0139409D01*
X0090339Y0139550D01*
X0090349Y0139690D01*
X0090363Y0139830D01*
X0090381Y0139970D01*
X0090402Y0140109D01*
X0090428Y0140248D01*
X0090457Y0140386D01*
X0090491Y0140522D01*
X0090528Y0140658D01*
X0090569Y0140793D01*
X0090614Y0140927D01*
X0090663Y0141059D01*
X0090715Y0141190D01*
X0090771Y0141319D01*
X0090831Y0141446D01*
X0090894Y0141572D01*
X0090960Y0141696D01*
X0091031Y0141819D01*
X0091104Y0141939D01*
X0091181Y0142057D01*
X0091261Y0142173D01*
X0091345Y0142286D01*
X0091431Y0142397D01*
X0091521Y0142506D01*
X0091614Y0142612D01*
X0091709Y0142715D01*
X0091808Y0142816D01*
X0091909Y0142914D01*
X0092013Y0143009D01*
X0092120Y0143101D01*
X0092229Y0143190D01*
X0092341Y0143275D01*
X0092455Y0143358D01*
X0092571Y0143438D01*
X0092690Y0143514D01*
X0092811Y0143586D01*
X0092933Y0143656D01*
X0093058Y0143721D01*
X0093184Y0143784D01*
X0093312Y0143842D01*
X0093442Y0143897D01*
X0093573Y0143949D01*
X0093706Y0143996D01*
X0093840Y0144040D01*
X0093975Y0144081D01*
X0094111Y0144117D01*
X0094248Y0144149D01*
X0094386Y0144178D01*
X0094524Y0144203D01*
X0094664Y0144223D01*
X0094804Y0144240D01*
X0094944Y0144253D01*
X0095085Y0144262D01*
X0095225Y0144267D01*
X0095366Y0144268D01*
X0095507Y0144265D01*
X0095648Y0144258D01*
X0095788Y0144247D01*
X0095928Y0144232D01*
X0096068Y0144213D01*
X0096207Y0144191D01*
X0096345Y0144164D01*
X0096483Y0144134D01*
X0096619Y0144099D01*
X0096755Y0144061D01*
X0096889Y0144019D01*
X0097023Y0143973D01*
X0097155Y0143924D01*
X0097285Y0143870D01*
X0097414Y0143813D01*
X0097541Y0143753D01*
X0097667Y0143689D01*
X0097790Y0143621D01*
X0097912Y0143550D01*
X0098032Y0143476D01*
X0098149Y0143398D01*
X0098264Y0143317D01*
X0098377Y0143233D01*
X0098488Y0143146D01*
X0098596Y0143055D01*
X0098701Y0142962D01*
X0098804Y0142865D01*
X0098904Y0142766D01*
X0099001Y0142664D01*
X0099095Y0142559D01*
X0099186Y0142452D01*
X0099274Y0142342D01*
X0099359Y0142230D01*
X0099441Y0142115D01*
X0099520Y0141998D01*
X0099595Y0141879D01*
X0099667Y0141758D01*
X0099735Y0141635D01*
X0099800Y0141510D01*
X0099862Y0141383D01*
X0099919Y0141254D01*
X0099974Y0141124D01*
X0100024Y0140993D01*
X0100071Y0140860D01*
X0100114Y0140726D01*
X0100153Y0140590D01*
X0100188Y0140454D01*
X0100220Y0140317D01*
X0100247Y0140179D01*
X0100271Y0140040D01*
X0100291Y0139900D01*
X0100307Y0139760D01*
X0100319Y0139620D01*
X0100327Y0139479D01*
X0100331Y0139338D01*
X0100331Y0139198D01*
X0100327Y0139057D01*
X0100319Y0138916D01*
X0100307Y0138776D01*
X0100291Y0138636D01*
X0100271Y0138496D01*
X0100247Y0138357D01*
X0100220Y0138219D01*
X0100188Y0138082D01*
X0100153Y0137946D01*
X0100114Y0137810D01*
X0100071Y0137676D01*
X0100024Y0137543D01*
X0099974Y0137412D01*
X0099919Y0137282D01*
X0099862Y0137153D01*
X0099800Y0137026D01*
X0099735Y0136901D01*
X0099667Y0136778D01*
X0099595Y0136657D01*
X0099520Y0136538D01*
X0099441Y0136421D01*
X0099359Y0136306D01*
X0099274Y0136194D01*
X0099186Y0136084D01*
X0099095Y0135977D01*
X0099001Y0135872D01*
X0098904Y0135770D01*
X0098804Y0135671D01*
X0098701Y0135574D01*
X0098596Y0135481D01*
X0098488Y0135390D01*
X0098377Y0135303D01*
X0098264Y0135219D01*
X0098149Y0135138D01*
X0098032Y0135060D01*
X0097912Y0134986D01*
X0097790Y0134915D01*
X0097667Y0134847D01*
X0097541Y0134783D01*
X0097414Y0134723D01*
X0097285Y0134666D01*
X0097155Y0134612D01*
X0097023Y0134563D01*
X0096889Y0134517D01*
X0096755Y0134475D01*
X0096619Y0134437D01*
X0096483Y0134402D01*
X0096345Y0134372D01*
X0096207Y0134345D01*
X0096068Y0134323D01*
X0095928Y0134304D01*
X0095788Y0134289D01*
X0095648Y0134278D01*
X0095507Y0134271D01*
X0095366Y0134268D01*
X0095225Y0134269D01*
X0095085Y0134274D01*
X0094944Y0134283D01*
X0094804Y0134296D01*
X0094664Y0134313D01*
X0094524Y0134333D01*
X0094386Y0134358D01*
X0094248Y0134387D01*
X0094111Y0134419D01*
X0093975Y0134455D01*
X0093840Y0134496D01*
X0093706Y0134540D01*
X0093573Y0134587D01*
X0093442Y0134639D01*
X0093312Y0134694D01*
X0093184Y0134752D01*
X0093058Y0134815D01*
X0092933Y0134880D01*
X0092811Y0134950D01*
X0092690Y0135022D01*
X0092571Y0135098D01*
X0092455Y0135178D01*
X0092341Y0135261D01*
X0092229Y0135346D01*
X0092120Y0135435D01*
X0092013Y0135527D01*
X0091909Y0135622D01*
X0091808Y0135720D01*
X0091709Y0135821D01*
X0091614Y0135924D01*
X0091521Y0136030D01*
X0091431Y0136139D01*
X0091345Y0136250D01*
X0091261Y0136363D01*
X0091181Y0136479D01*
X0091104Y0136597D01*
X0091031Y0136717D01*
X0090960Y0136840D01*
X0090894Y0136964D01*
X0090831Y0137090D01*
X0090771Y0137217D01*
X0090715Y0137346D01*
X0090663Y0137477D01*
X0090614Y0137609D01*
X0090569Y0137743D01*
X0090528Y0137878D01*
X0090491Y0138014D01*
X0090457Y0138150D01*
X0090428Y0138288D01*
X0090402Y0138427D01*
X0090381Y0138566D01*
X0090363Y0138706D01*
X0090349Y0138846D01*
X0090339Y0138986D01*
X0090333Y0139127D01*
X0090331Y0139268D01*
X0090331Y0199268D02*
X0090333Y0199409D01*
X0090339Y0199550D01*
X0090349Y0199690D01*
X0090363Y0199830D01*
X0090381Y0199970D01*
X0090402Y0200109D01*
X0090428Y0200248D01*
X0090457Y0200386D01*
X0090491Y0200522D01*
X0090528Y0200658D01*
X0090569Y0200793D01*
X0090614Y0200927D01*
X0090663Y0201059D01*
X0090715Y0201190D01*
X0090771Y0201319D01*
X0090831Y0201446D01*
X0090894Y0201572D01*
X0090960Y0201696D01*
X0091031Y0201819D01*
X0091104Y0201939D01*
X0091181Y0202057D01*
X0091261Y0202173D01*
X0091345Y0202286D01*
X0091431Y0202397D01*
X0091521Y0202506D01*
X0091614Y0202612D01*
X0091709Y0202715D01*
X0091808Y0202816D01*
X0091909Y0202914D01*
X0092013Y0203009D01*
X0092120Y0203101D01*
X0092229Y0203190D01*
X0092341Y0203275D01*
X0092455Y0203358D01*
X0092571Y0203438D01*
X0092690Y0203514D01*
X0092811Y0203586D01*
X0092933Y0203656D01*
X0093058Y0203721D01*
X0093184Y0203784D01*
X0093312Y0203842D01*
X0093442Y0203897D01*
X0093573Y0203949D01*
X0093706Y0203996D01*
X0093840Y0204040D01*
X0093975Y0204081D01*
X0094111Y0204117D01*
X0094248Y0204149D01*
X0094386Y0204178D01*
X0094524Y0204203D01*
X0094664Y0204223D01*
X0094804Y0204240D01*
X0094944Y0204253D01*
X0095085Y0204262D01*
X0095225Y0204267D01*
X0095366Y0204268D01*
X0095507Y0204265D01*
X0095648Y0204258D01*
X0095788Y0204247D01*
X0095928Y0204232D01*
X0096068Y0204213D01*
X0096207Y0204191D01*
X0096345Y0204164D01*
X0096483Y0204134D01*
X0096619Y0204099D01*
X0096755Y0204061D01*
X0096889Y0204019D01*
X0097023Y0203973D01*
X0097155Y0203924D01*
X0097285Y0203870D01*
X0097414Y0203813D01*
X0097541Y0203753D01*
X0097667Y0203689D01*
X0097790Y0203621D01*
X0097912Y0203550D01*
X0098032Y0203476D01*
X0098149Y0203398D01*
X0098264Y0203317D01*
X0098377Y0203233D01*
X0098488Y0203146D01*
X0098596Y0203055D01*
X0098701Y0202962D01*
X0098804Y0202865D01*
X0098904Y0202766D01*
X0099001Y0202664D01*
X0099095Y0202559D01*
X0099186Y0202452D01*
X0099274Y0202342D01*
X0099359Y0202230D01*
X0099441Y0202115D01*
X0099520Y0201998D01*
X0099595Y0201879D01*
X0099667Y0201758D01*
X0099735Y0201635D01*
X0099800Y0201510D01*
X0099862Y0201383D01*
X0099919Y0201254D01*
X0099974Y0201124D01*
X0100024Y0200993D01*
X0100071Y0200860D01*
X0100114Y0200726D01*
X0100153Y0200590D01*
X0100188Y0200454D01*
X0100220Y0200317D01*
X0100247Y0200179D01*
X0100271Y0200040D01*
X0100291Y0199900D01*
X0100307Y0199760D01*
X0100319Y0199620D01*
X0100327Y0199479D01*
X0100331Y0199338D01*
X0100331Y0199198D01*
X0100327Y0199057D01*
X0100319Y0198916D01*
X0100307Y0198776D01*
X0100291Y0198636D01*
X0100271Y0198496D01*
X0100247Y0198357D01*
X0100220Y0198219D01*
X0100188Y0198082D01*
X0100153Y0197946D01*
X0100114Y0197810D01*
X0100071Y0197676D01*
X0100024Y0197543D01*
X0099974Y0197412D01*
X0099919Y0197282D01*
X0099862Y0197153D01*
X0099800Y0197026D01*
X0099735Y0196901D01*
X0099667Y0196778D01*
X0099595Y0196657D01*
X0099520Y0196538D01*
X0099441Y0196421D01*
X0099359Y0196306D01*
X0099274Y0196194D01*
X0099186Y0196084D01*
X0099095Y0195977D01*
X0099001Y0195872D01*
X0098904Y0195770D01*
X0098804Y0195671D01*
X0098701Y0195574D01*
X0098596Y0195481D01*
X0098488Y0195390D01*
X0098377Y0195303D01*
X0098264Y0195219D01*
X0098149Y0195138D01*
X0098032Y0195060D01*
X0097912Y0194986D01*
X0097790Y0194915D01*
X0097667Y0194847D01*
X0097541Y0194783D01*
X0097414Y0194723D01*
X0097285Y0194666D01*
X0097155Y0194612D01*
X0097023Y0194563D01*
X0096889Y0194517D01*
X0096755Y0194475D01*
X0096619Y0194437D01*
X0096483Y0194402D01*
X0096345Y0194372D01*
X0096207Y0194345D01*
X0096068Y0194323D01*
X0095928Y0194304D01*
X0095788Y0194289D01*
X0095648Y0194278D01*
X0095507Y0194271D01*
X0095366Y0194268D01*
X0095225Y0194269D01*
X0095085Y0194274D01*
X0094944Y0194283D01*
X0094804Y0194296D01*
X0094664Y0194313D01*
X0094524Y0194333D01*
X0094386Y0194358D01*
X0094248Y0194387D01*
X0094111Y0194419D01*
X0093975Y0194455D01*
X0093840Y0194496D01*
X0093706Y0194540D01*
X0093573Y0194587D01*
X0093442Y0194639D01*
X0093312Y0194694D01*
X0093184Y0194752D01*
X0093058Y0194815D01*
X0092933Y0194880D01*
X0092811Y0194950D01*
X0092690Y0195022D01*
X0092571Y0195098D01*
X0092455Y0195178D01*
X0092341Y0195261D01*
X0092229Y0195346D01*
X0092120Y0195435D01*
X0092013Y0195527D01*
X0091909Y0195622D01*
X0091808Y0195720D01*
X0091709Y0195821D01*
X0091614Y0195924D01*
X0091521Y0196030D01*
X0091431Y0196139D01*
X0091345Y0196250D01*
X0091261Y0196363D01*
X0091181Y0196479D01*
X0091104Y0196597D01*
X0091031Y0196717D01*
X0090960Y0196840D01*
X0090894Y0196964D01*
X0090831Y0197090D01*
X0090771Y0197217D01*
X0090715Y0197346D01*
X0090663Y0197477D01*
X0090614Y0197609D01*
X0090569Y0197743D01*
X0090528Y0197878D01*
X0090491Y0198014D01*
X0090457Y0198150D01*
X0090428Y0198288D01*
X0090402Y0198427D01*
X0090381Y0198566D01*
X0090363Y0198706D01*
X0090349Y0198846D01*
X0090339Y0198986D01*
X0090333Y0199127D01*
X0090331Y0199268D01*
X0065449Y0206709D02*
X0065451Y0206850D01*
X0065457Y0206991D01*
X0065467Y0207131D01*
X0065481Y0207271D01*
X0065499Y0207411D01*
X0065520Y0207550D01*
X0065546Y0207689D01*
X0065575Y0207827D01*
X0065609Y0207963D01*
X0065646Y0208099D01*
X0065687Y0208234D01*
X0065732Y0208368D01*
X0065781Y0208500D01*
X0065833Y0208631D01*
X0065889Y0208760D01*
X0065949Y0208887D01*
X0066012Y0209013D01*
X0066078Y0209137D01*
X0066149Y0209260D01*
X0066222Y0209380D01*
X0066299Y0209498D01*
X0066379Y0209614D01*
X0066463Y0209727D01*
X0066549Y0209838D01*
X0066639Y0209947D01*
X0066732Y0210053D01*
X0066827Y0210156D01*
X0066926Y0210257D01*
X0067027Y0210355D01*
X0067131Y0210450D01*
X0067238Y0210542D01*
X0067347Y0210631D01*
X0067459Y0210716D01*
X0067573Y0210799D01*
X0067689Y0210879D01*
X0067808Y0210955D01*
X0067929Y0211027D01*
X0068051Y0211097D01*
X0068176Y0211162D01*
X0068302Y0211225D01*
X0068430Y0211283D01*
X0068560Y0211338D01*
X0068691Y0211390D01*
X0068824Y0211437D01*
X0068958Y0211481D01*
X0069093Y0211522D01*
X0069229Y0211558D01*
X0069366Y0211590D01*
X0069504Y0211619D01*
X0069642Y0211644D01*
X0069782Y0211664D01*
X0069922Y0211681D01*
X0070062Y0211694D01*
X0070203Y0211703D01*
X0070343Y0211708D01*
X0070484Y0211709D01*
X0070625Y0211706D01*
X0070766Y0211699D01*
X0070906Y0211688D01*
X0071046Y0211673D01*
X0071186Y0211654D01*
X0071325Y0211632D01*
X0071463Y0211605D01*
X0071601Y0211575D01*
X0071737Y0211540D01*
X0071873Y0211502D01*
X0072007Y0211460D01*
X0072141Y0211414D01*
X0072273Y0211365D01*
X0072403Y0211311D01*
X0072532Y0211254D01*
X0072659Y0211194D01*
X0072785Y0211130D01*
X0072908Y0211062D01*
X0073030Y0210991D01*
X0073150Y0210917D01*
X0073267Y0210839D01*
X0073382Y0210758D01*
X0073495Y0210674D01*
X0073606Y0210587D01*
X0073714Y0210496D01*
X0073819Y0210403D01*
X0073922Y0210306D01*
X0074022Y0210207D01*
X0074119Y0210105D01*
X0074213Y0210000D01*
X0074304Y0209893D01*
X0074392Y0209783D01*
X0074477Y0209671D01*
X0074559Y0209556D01*
X0074638Y0209439D01*
X0074713Y0209320D01*
X0074785Y0209199D01*
X0074853Y0209076D01*
X0074918Y0208951D01*
X0074980Y0208824D01*
X0075037Y0208695D01*
X0075092Y0208565D01*
X0075142Y0208434D01*
X0075189Y0208301D01*
X0075232Y0208167D01*
X0075271Y0208031D01*
X0075306Y0207895D01*
X0075338Y0207758D01*
X0075365Y0207620D01*
X0075389Y0207481D01*
X0075409Y0207341D01*
X0075425Y0207201D01*
X0075437Y0207061D01*
X0075445Y0206920D01*
X0075449Y0206779D01*
X0075449Y0206639D01*
X0075445Y0206498D01*
X0075437Y0206357D01*
X0075425Y0206217D01*
X0075409Y0206077D01*
X0075389Y0205937D01*
X0075365Y0205798D01*
X0075338Y0205660D01*
X0075306Y0205523D01*
X0075271Y0205387D01*
X0075232Y0205251D01*
X0075189Y0205117D01*
X0075142Y0204984D01*
X0075092Y0204853D01*
X0075037Y0204723D01*
X0074980Y0204594D01*
X0074918Y0204467D01*
X0074853Y0204342D01*
X0074785Y0204219D01*
X0074713Y0204098D01*
X0074638Y0203979D01*
X0074559Y0203862D01*
X0074477Y0203747D01*
X0074392Y0203635D01*
X0074304Y0203525D01*
X0074213Y0203418D01*
X0074119Y0203313D01*
X0074022Y0203211D01*
X0073922Y0203112D01*
X0073819Y0203015D01*
X0073714Y0202922D01*
X0073606Y0202831D01*
X0073495Y0202744D01*
X0073382Y0202660D01*
X0073267Y0202579D01*
X0073150Y0202501D01*
X0073030Y0202427D01*
X0072908Y0202356D01*
X0072785Y0202288D01*
X0072659Y0202224D01*
X0072532Y0202164D01*
X0072403Y0202107D01*
X0072273Y0202053D01*
X0072141Y0202004D01*
X0072007Y0201958D01*
X0071873Y0201916D01*
X0071737Y0201878D01*
X0071601Y0201843D01*
X0071463Y0201813D01*
X0071325Y0201786D01*
X0071186Y0201764D01*
X0071046Y0201745D01*
X0070906Y0201730D01*
X0070766Y0201719D01*
X0070625Y0201712D01*
X0070484Y0201709D01*
X0070343Y0201710D01*
X0070203Y0201715D01*
X0070062Y0201724D01*
X0069922Y0201737D01*
X0069782Y0201754D01*
X0069642Y0201774D01*
X0069504Y0201799D01*
X0069366Y0201828D01*
X0069229Y0201860D01*
X0069093Y0201896D01*
X0068958Y0201937D01*
X0068824Y0201981D01*
X0068691Y0202028D01*
X0068560Y0202080D01*
X0068430Y0202135D01*
X0068302Y0202193D01*
X0068176Y0202256D01*
X0068051Y0202321D01*
X0067929Y0202391D01*
X0067808Y0202463D01*
X0067689Y0202539D01*
X0067573Y0202619D01*
X0067459Y0202702D01*
X0067347Y0202787D01*
X0067238Y0202876D01*
X0067131Y0202968D01*
X0067027Y0203063D01*
X0066926Y0203161D01*
X0066827Y0203262D01*
X0066732Y0203365D01*
X0066639Y0203471D01*
X0066549Y0203580D01*
X0066463Y0203691D01*
X0066379Y0203804D01*
X0066299Y0203920D01*
X0066222Y0204038D01*
X0066149Y0204158D01*
X0066078Y0204281D01*
X0066012Y0204405D01*
X0065949Y0204531D01*
X0065889Y0204658D01*
X0065833Y0204787D01*
X0065781Y0204918D01*
X0065732Y0205050D01*
X0065687Y0205184D01*
X0065646Y0205319D01*
X0065609Y0205455D01*
X0065575Y0205591D01*
X0065546Y0205729D01*
X0065520Y0205868D01*
X0065499Y0206007D01*
X0065481Y0206147D01*
X0065467Y0206287D01*
X0065457Y0206427D01*
X0065451Y0206568D01*
X0065449Y0206709D01*
X0091787Y0224858D02*
X0091789Y0224999D01*
X0091795Y0225140D01*
X0091805Y0225280D01*
X0091819Y0225420D01*
X0091837Y0225560D01*
X0091858Y0225699D01*
X0091884Y0225838D01*
X0091913Y0225976D01*
X0091947Y0226112D01*
X0091984Y0226248D01*
X0092025Y0226383D01*
X0092070Y0226517D01*
X0092119Y0226649D01*
X0092171Y0226780D01*
X0092227Y0226909D01*
X0092287Y0227036D01*
X0092350Y0227162D01*
X0092416Y0227286D01*
X0092487Y0227409D01*
X0092560Y0227529D01*
X0092637Y0227647D01*
X0092717Y0227763D01*
X0092801Y0227876D01*
X0092887Y0227987D01*
X0092977Y0228096D01*
X0093070Y0228202D01*
X0093165Y0228305D01*
X0093264Y0228406D01*
X0093365Y0228504D01*
X0093469Y0228599D01*
X0093576Y0228691D01*
X0093685Y0228780D01*
X0093797Y0228865D01*
X0093911Y0228948D01*
X0094027Y0229028D01*
X0094146Y0229104D01*
X0094267Y0229176D01*
X0094389Y0229246D01*
X0094514Y0229311D01*
X0094640Y0229374D01*
X0094768Y0229432D01*
X0094898Y0229487D01*
X0095029Y0229539D01*
X0095162Y0229586D01*
X0095296Y0229630D01*
X0095431Y0229671D01*
X0095567Y0229707D01*
X0095704Y0229739D01*
X0095842Y0229768D01*
X0095980Y0229793D01*
X0096120Y0229813D01*
X0096260Y0229830D01*
X0096400Y0229843D01*
X0096541Y0229852D01*
X0096681Y0229857D01*
X0096822Y0229858D01*
X0096963Y0229855D01*
X0097104Y0229848D01*
X0097244Y0229837D01*
X0097384Y0229822D01*
X0097524Y0229803D01*
X0097663Y0229781D01*
X0097801Y0229754D01*
X0097939Y0229724D01*
X0098075Y0229689D01*
X0098211Y0229651D01*
X0098345Y0229609D01*
X0098479Y0229563D01*
X0098611Y0229514D01*
X0098741Y0229460D01*
X0098870Y0229403D01*
X0098997Y0229343D01*
X0099123Y0229279D01*
X0099246Y0229211D01*
X0099368Y0229140D01*
X0099488Y0229066D01*
X0099605Y0228988D01*
X0099720Y0228907D01*
X0099833Y0228823D01*
X0099944Y0228736D01*
X0100052Y0228645D01*
X0100157Y0228552D01*
X0100260Y0228455D01*
X0100360Y0228356D01*
X0100457Y0228254D01*
X0100551Y0228149D01*
X0100642Y0228042D01*
X0100730Y0227932D01*
X0100815Y0227820D01*
X0100897Y0227705D01*
X0100976Y0227588D01*
X0101051Y0227469D01*
X0101123Y0227348D01*
X0101191Y0227225D01*
X0101256Y0227100D01*
X0101318Y0226973D01*
X0101375Y0226844D01*
X0101430Y0226714D01*
X0101480Y0226583D01*
X0101527Y0226450D01*
X0101570Y0226316D01*
X0101609Y0226180D01*
X0101644Y0226044D01*
X0101676Y0225907D01*
X0101703Y0225769D01*
X0101727Y0225630D01*
X0101747Y0225490D01*
X0101763Y0225350D01*
X0101775Y0225210D01*
X0101783Y0225069D01*
X0101787Y0224928D01*
X0101787Y0224788D01*
X0101783Y0224647D01*
X0101775Y0224506D01*
X0101763Y0224366D01*
X0101747Y0224226D01*
X0101727Y0224086D01*
X0101703Y0223947D01*
X0101676Y0223809D01*
X0101644Y0223672D01*
X0101609Y0223536D01*
X0101570Y0223400D01*
X0101527Y0223266D01*
X0101480Y0223133D01*
X0101430Y0223002D01*
X0101375Y0222872D01*
X0101318Y0222743D01*
X0101256Y0222616D01*
X0101191Y0222491D01*
X0101123Y0222368D01*
X0101051Y0222247D01*
X0100976Y0222128D01*
X0100897Y0222011D01*
X0100815Y0221896D01*
X0100730Y0221784D01*
X0100642Y0221674D01*
X0100551Y0221567D01*
X0100457Y0221462D01*
X0100360Y0221360D01*
X0100260Y0221261D01*
X0100157Y0221164D01*
X0100052Y0221071D01*
X0099944Y0220980D01*
X0099833Y0220893D01*
X0099720Y0220809D01*
X0099605Y0220728D01*
X0099488Y0220650D01*
X0099368Y0220576D01*
X0099246Y0220505D01*
X0099123Y0220437D01*
X0098997Y0220373D01*
X0098870Y0220313D01*
X0098741Y0220256D01*
X0098611Y0220202D01*
X0098479Y0220153D01*
X0098345Y0220107D01*
X0098211Y0220065D01*
X0098075Y0220027D01*
X0097939Y0219992D01*
X0097801Y0219962D01*
X0097663Y0219935D01*
X0097524Y0219913D01*
X0097384Y0219894D01*
X0097244Y0219879D01*
X0097104Y0219868D01*
X0096963Y0219861D01*
X0096822Y0219858D01*
X0096681Y0219859D01*
X0096541Y0219864D01*
X0096400Y0219873D01*
X0096260Y0219886D01*
X0096120Y0219903D01*
X0095980Y0219923D01*
X0095842Y0219948D01*
X0095704Y0219977D01*
X0095567Y0220009D01*
X0095431Y0220045D01*
X0095296Y0220086D01*
X0095162Y0220130D01*
X0095029Y0220177D01*
X0094898Y0220229D01*
X0094768Y0220284D01*
X0094640Y0220342D01*
X0094514Y0220405D01*
X0094389Y0220470D01*
X0094267Y0220540D01*
X0094146Y0220612D01*
X0094027Y0220688D01*
X0093911Y0220768D01*
X0093797Y0220851D01*
X0093685Y0220936D01*
X0093576Y0221025D01*
X0093469Y0221117D01*
X0093365Y0221212D01*
X0093264Y0221310D01*
X0093165Y0221411D01*
X0093070Y0221514D01*
X0092977Y0221620D01*
X0092887Y0221729D01*
X0092801Y0221840D01*
X0092717Y0221953D01*
X0092637Y0222069D01*
X0092560Y0222187D01*
X0092487Y0222307D01*
X0092416Y0222430D01*
X0092350Y0222554D01*
X0092287Y0222680D01*
X0092227Y0222807D01*
X0092171Y0222936D01*
X0092119Y0223067D01*
X0092070Y0223199D01*
X0092025Y0223333D01*
X0091984Y0223468D01*
X0091947Y0223604D01*
X0091913Y0223740D01*
X0091884Y0223878D01*
X0091858Y0224017D01*
X0091837Y0224156D01*
X0091819Y0224296D01*
X0091805Y0224436D01*
X0091795Y0224576D01*
X0091789Y0224717D01*
X0091787Y0224858D01*
X0091787Y0284858D02*
X0091789Y0284999D01*
X0091795Y0285140D01*
X0091805Y0285280D01*
X0091819Y0285420D01*
X0091837Y0285560D01*
X0091858Y0285699D01*
X0091884Y0285838D01*
X0091913Y0285976D01*
X0091947Y0286112D01*
X0091984Y0286248D01*
X0092025Y0286383D01*
X0092070Y0286517D01*
X0092119Y0286649D01*
X0092171Y0286780D01*
X0092227Y0286909D01*
X0092287Y0287036D01*
X0092350Y0287162D01*
X0092416Y0287286D01*
X0092487Y0287409D01*
X0092560Y0287529D01*
X0092637Y0287647D01*
X0092717Y0287763D01*
X0092801Y0287876D01*
X0092887Y0287987D01*
X0092977Y0288096D01*
X0093070Y0288202D01*
X0093165Y0288305D01*
X0093264Y0288406D01*
X0093365Y0288504D01*
X0093469Y0288599D01*
X0093576Y0288691D01*
X0093685Y0288780D01*
X0093797Y0288865D01*
X0093911Y0288948D01*
X0094027Y0289028D01*
X0094146Y0289104D01*
X0094267Y0289176D01*
X0094389Y0289246D01*
X0094514Y0289311D01*
X0094640Y0289374D01*
X0094768Y0289432D01*
X0094898Y0289487D01*
X0095029Y0289539D01*
X0095162Y0289586D01*
X0095296Y0289630D01*
X0095431Y0289671D01*
X0095567Y0289707D01*
X0095704Y0289739D01*
X0095842Y0289768D01*
X0095980Y0289793D01*
X0096120Y0289813D01*
X0096260Y0289830D01*
X0096400Y0289843D01*
X0096541Y0289852D01*
X0096681Y0289857D01*
X0096822Y0289858D01*
X0096963Y0289855D01*
X0097104Y0289848D01*
X0097244Y0289837D01*
X0097384Y0289822D01*
X0097524Y0289803D01*
X0097663Y0289781D01*
X0097801Y0289754D01*
X0097939Y0289724D01*
X0098075Y0289689D01*
X0098211Y0289651D01*
X0098345Y0289609D01*
X0098479Y0289563D01*
X0098611Y0289514D01*
X0098741Y0289460D01*
X0098870Y0289403D01*
X0098997Y0289343D01*
X0099123Y0289279D01*
X0099246Y0289211D01*
X0099368Y0289140D01*
X0099488Y0289066D01*
X0099605Y0288988D01*
X0099720Y0288907D01*
X0099833Y0288823D01*
X0099944Y0288736D01*
X0100052Y0288645D01*
X0100157Y0288552D01*
X0100260Y0288455D01*
X0100360Y0288356D01*
X0100457Y0288254D01*
X0100551Y0288149D01*
X0100642Y0288042D01*
X0100730Y0287932D01*
X0100815Y0287820D01*
X0100897Y0287705D01*
X0100976Y0287588D01*
X0101051Y0287469D01*
X0101123Y0287348D01*
X0101191Y0287225D01*
X0101256Y0287100D01*
X0101318Y0286973D01*
X0101375Y0286844D01*
X0101430Y0286714D01*
X0101480Y0286583D01*
X0101527Y0286450D01*
X0101570Y0286316D01*
X0101609Y0286180D01*
X0101644Y0286044D01*
X0101676Y0285907D01*
X0101703Y0285769D01*
X0101727Y0285630D01*
X0101747Y0285490D01*
X0101763Y0285350D01*
X0101775Y0285210D01*
X0101783Y0285069D01*
X0101787Y0284928D01*
X0101787Y0284788D01*
X0101783Y0284647D01*
X0101775Y0284506D01*
X0101763Y0284366D01*
X0101747Y0284226D01*
X0101727Y0284086D01*
X0101703Y0283947D01*
X0101676Y0283809D01*
X0101644Y0283672D01*
X0101609Y0283536D01*
X0101570Y0283400D01*
X0101527Y0283266D01*
X0101480Y0283133D01*
X0101430Y0283002D01*
X0101375Y0282872D01*
X0101318Y0282743D01*
X0101256Y0282616D01*
X0101191Y0282491D01*
X0101123Y0282368D01*
X0101051Y0282247D01*
X0100976Y0282128D01*
X0100897Y0282011D01*
X0100815Y0281896D01*
X0100730Y0281784D01*
X0100642Y0281674D01*
X0100551Y0281567D01*
X0100457Y0281462D01*
X0100360Y0281360D01*
X0100260Y0281261D01*
X0100157Y0281164D01*
X0100052Y0281071D01*
X0099944Y0280980D01*
X0099833Y0280893D01*
X0099720Y0280809D01*
X0099605Y0280728D01*
X0099488Y0280650D01*
X0099368Y0280576D01*
X0099246Y0280505D01*
X0099123Y0280437D01*
X0098997Y0280373D01*
X0098870Y0280313D01*
X0098741Y0280256D01*
X0098611Y0280202D01*
X0098479Y0280153D01*
X0098345Y0280107D01*
X0098211Y0280065D01*
X0098075Y0280027D01*
X0097939Y0279992D01*
X0097801Y0279962D01*
X0097663Y0279935D01*
X0097524Y0279913D01*
X0097384Y0279894D01*
X0097244Y0279879D01*
X0097104Y0279868D01*
X0096963Y0279861D01*
X0096822Y0279858D01*
X0096681Y0279859D01*
X0096541Y0279864D01*
X0096400Y0279873D01*
X0096260Y0279886D01*
X0096120Y0279903D01*
X0095980Y0279923D01*
X0095842Y0279948D01*
X0095704Y0279977D01*
X0095567Y0280009D01*
X0095431Y0280045D01*
X0095296Y0280086D01*
X0095162Y0280130D01*
X0095029Y0280177D01*
X0094898Y0280229D01*
X0094768Y0280284D01*
X0094640Y0280342D01*
X0094514Y0280405D01*
X0094389Y0280470D01*
X0094267Y0280540D01*
X0094146Y0280612D01*
X0094027Y0280688D01*
X0093911Y0280768D01*
X0093797Y0280851D01*
X0093685Y0280936D01*
X0093576Y0281025D01*
X0093469Y0281117D01*
X0093365Y0281212D01*
X0093264Y0281310D01*
X0093165Y0281411D01*
X0093070Y0281514D01*
X0092977Y0281620D01*
X0092887Y0281729D01*
X0092801Y0281840D01*
X0092717Y0281953D01*
X0092637Y0282069D01*
X0092560Y0282187D01*
X0092487Y0282307D01*
X0092416Y0282430D01*
X0092350Y0282554D01*
X0092287Y0282680D01*
X0092227Y0282807D01*
X0092171Y0282936D01*
X0092119Y0283067D01*
X0092070Y0283199D01*
X0092025Y0283333D01*
X0091984Y0283468D01*
X0091947Y0283604D01*
X0091913Y0283740D01*
X0091884Y0283878D01*
X0091858Y0284017D01*
X0091837Y0284156D01*
X0091819Y0284296D01*
X0091805Y0284436D01*
X0091795Y0284576D01*
X0091789Y0284717D01*
X0091787Y0284858D01*
X0069043Y0286197D02*
X0069045Y0286345D01*
X0069051Y0286493D01*
X0069061Y0286641D01*
X0069075Y0286789D01*
X0069093Y0286936D01*
X0069115Y0287083D01*
X0069141Y0287229D01*
X0069170Y0287374D01*
X0069204Y0287519D01*
X0069242Y0287662D01*
X0069283Y0287805D01*
X0069328Y0287946D01*
X0069378Y0288086D01*
X0069430Y0288224D01*
X0069487Y0288362D01*
X0069547Y0288497D01*
X0069611Y0288631D01*
X0069678Y0288763D01*
X0069749Y0288893D01*
X0069824Y0289022D01*
X0069902Y0289148D01*
X0069983Y0289272D01*
X0070067Y0289394D01*
X0070155Y0289513D01*
X0070246Y0289630D01*
X0070340Y0289745D01*
X0070438Y0289857D01*
X0070538Y0289966D01*
X0070641Y0290073D01*
X0070747Y0290177D01*
X0070855Y0290278D01*
X0070967Y0290376D01*
X0071081Y0290471D01*
X0071197Y0290562D01*
X0071316Y0290651D01*
X0071437Y0290736D01*
X0071561Y0290818D01*
X0071687Y0290897D01*
X0071814Y0290972D01*
X0071944Y0291044D01*
X0072076Y0291113D01*
X0072209Y0291177D01*
X0072344Y0291238D01*
X0072481Y0291296D01*
X0072619Y0291350D01*
X0072759Y0291400D01*
X0072900Y0291446D01*
X0073042Y0291488D01*
X0073185Y0291527D01*
X0073329Y0291561D01*
X0073475Y0291592D01*
X0073620Y0291619D01*
X0073767Y0291642D01*
X0073914Y0291661D01*
X0074062Y0291676D01*
X0074209Y0291687D01*
X0074358Y0291694D01*
X0074506Y0291697D01*
X0074654Y0291696D01*
X0074802Y0291691D01*
X0074950Y0291682D01*
X0075098Y0291669D01*
X0075246Y0291652D01*
X0075392Y0291631D01*
X0075539Y0291606D01*
X0075684Y0291577D01*
X0075829Y0291545D01*
X0075972Y0291508D01*
X0076115Y0291468D01*
X0076257Y0291423D01*
X0076397Y0291375D01*
X0076536Y0291323D01*
X0076673Y0291268D01*
X0076809Y0291208D01*
X0076944Y0291145D01*
X0077076Y0291079D01*
X0077207Y0291009D01*
X0077336Y0290935D01*
X0077462Y0290858D01*
X0077587Y0290778D01*
X0077709Y0290694D01*
X0077830Y0290607D01*
X0077947Y0290517D01*
X0078063Y0290423D01*
X0078175Y0290327D01*
X0078285Y0290228D01*
X0078393Y0290125D01*
X0078497Y0290020D01*
X0078599Y0289912D01*
X0078697Y0289801D01*
X0078793Y0289688D01*
X0078886Y0289572D01*
X0078975Y0289454D01*
X0079061Y0289333D01*
X0079144Y0289210D01*
X0079224Y0289085D01*
X0079300Y0288958D01*
X0079373Y0288828D01*
X0079442Y0288697D01*
X0079507Y0288564D01*
X0079570Y0288430D01*
X0079628Y0288293D01*
X0079683Y0288155D01*
X0079733Y0288016D01*
X0079781Y0287875D01*
X0079824Y0287734D01*
X0079864Y0287591D01*
X0079899Y0287447D01*
X0079931Y0287302D01*
X0079959Y0287156D01*
X0079983Y0287010D01*
X0080003Y0286863D01*
X0080019Y0286715D01*
X0080031Y0286568D01*
X0080039Y0286419D01*
X0080043Y0286271D01*
X0080043Y0286123D01*
X0080039Y0285975D01*
X0080031Y0285826D01*
X0080019Y0285679D01*
X0080003Y0285531D01*
X0079983Y0285384D01*
X0079959Y0285238D01*
X0079931Y0285092D01*
X0079899Y0284947D01*
X0079864Y0284803D01*
X0079824Y0284660D01*
X0079781Y0284519D01*
X0079733Y0284378D01*
X0079683Y0284239D01*
X0079628Y0284101D01*
X0079570Y0283964D01*
X0079507Y0283830D01*
X0079442Y0283697D01*
X0079373Y0283566D01*
X0079300Y0283436D01*
X0079224Y0283309D01*
X0079144Y0283184D01*
X0079061Y0283061D01*
X0078975Y0282940D01*
X0078886Y0282822D01*
X0078793Y0282706D01*
X0078697Y0282593D01*
X0078599Y0282482D01*
X0078497Y0282374D01*
X0078393Y0282269D01*
X0078285Y0282166D01*
X0078175Y0282067D01*
X0078063Y0281971D01*
X0077947Y0281877D01*
X0077830Y0281787D01*
X0077709Y0281700D01*
X0077587Y0281616D01*
X0077462Y0281536D01*
X0077336Y0281459D01*
X0077207Y0281385D01*
X0077076Y0281315D01*
X0076944Y0281249D01*
X0076809Y0281186D01*
X0076673Y0281126D01*
X0076536Y0281071D01*
X0076397Y0281019D01*
X0076257Y0280971D01*
X0076115Y0280926D01*
X0075972Y0280886D01*
X0075829Y0280849D01*
X0075684Y0280817D01*
X0075539Y0280788D01*
X0075392Y0280763D01*
X0075246Y0280742D01*
X0075098Y0280725D01*
X0074950Y0280712D01*
X0074802Y0280703D01*
X0074654Y0280698D01*
X0074506Y0280697D01*
X0074358Y0280700D01*
X0074209Y0280707D01*
X0074062Y0280718D01*
X0073914Y0280733D01*
X0073767Y0280752D01*
X0073620Y0280775D01*
X0073475Y0280802D01*
X0073329Y0280833D01*
X0073185Y0280867D01*
X0073042Y0280906D01*
X0072900Y0280948D01*
X0072759Y0280994D01*
X0072619Y0281044D01*
X0072481Y0281098D01*
X0072344Y0281156D01*
X0072209Y0281217D01*
X0072076Y0281281D01*
X0071944Y0281350D01*
X0071814Y0281422D01*
X0071687Y0281497D01*
X0071561Y0281576D01*
X0071437Y0281658D01*
X0071316Y0281743D01*
X0071197Y0281832D01*
X0071081Y0281923D01*
X0070967Y0282018D01*
X0070855Y0282116D01*
X0070747Y0282217D01*
X0070641Y0282321D01*
X0070538Y0282428D01*
X0070438Y0282537D01*
X0070340Y0282649D01*
X0070246Y0282764D01*
X0070155Y0282881D01*
X0070067Y0283000D01*
X0069983Y0283122D01*
X0069902Y0283246D01*
X0069824Y0283372D01*
X0069749Y0283501D01*
X0069678Y0283631D01*
X0069611Y0283763D01*
X0069547Y0283897D01*
X0069487Y0284032D01*
X0069430Y0284170D01*
X0069378Y0284308D01*
X0069328Y0284448D01*
X0069283Y0284589D01*
X0069242Y0284732D01*
X0069204Y0284875D01*
X0069170Y0285020D01*
X0069141Y0285165D01*
X0069115Y0285311D01*
X0069093Y0285458D01*
X0069075Y0285605D01*
X0069061Y0285753D01*
X0069051Y0285901D01*
X0069045Y0286049D01*
X0069043Y0286197D01*
X0029043Y0286197D02*
X0029045Y0286345D01*
X0029051Y0286493D01*
X0029061Y0286641D01*
X0029075Y0286789D01*
X0029093Y0286936D01*
X0029115Y0287083D01*
X0029141Y0287229D01*
X0029170Y0287374D01*
X0029204Y0287519D01*
X0029242Y0287662D01*
X0029283Y0287805D01*
X0029328Y0287946D01*
X0029378Y0288086D01*
X0029430Y0288224D01*
X0029487Y0288362D01*
X0029547Y0288497D01*
X0029611Y0288631D01*
X0029678Y0288763D01*
X0029749Y0288893D01*
X0029824Y0289022D01*
X0029902Y0289148D01*
X0029983Y0289272D01*
X0030067Y0289394D01*
X0030155Y0289513D01*
X0030246Y0289630D01*
X0030340Y0289745D01*
X0030438Y0289857D01*
X0030538Y0289966D01*
X0030641Y0290073D01*
X0030747Y0290177D01*
X0030855Y0290278D01*
X0030967Y0290376D01*
X0031081Y0290471D01*
X0031197Y0290562D01*
X0031316Y0290651D01*
X0031437Y0290736D01*
X0031561Y0290818D01*
X0031687Y0290897D01*
X0031814Y0290972D01*
X0031944Y0291044D01*
X0032076Y0291113D01*
X0032209Y0291177D01*
X0032344Y0291238D01*
X0032481Y0291296D01*
X0032619Y0291350D01*
X0032759Y0291400D01*
X0032900Y0291446D01*
X0033042Y0291488D01*
X0033185Y0291527D01*
X0033329Y0291561D01*
X0033475Y0291592D01*
X0033620Y0291619D01*
X0033767Y0291642D01*
X0033914Y0291661D01*
X0034062Y0291676D01*
X0034209Y0291687D01*
X0034358Y0291694D01*
X0034506Y0291697D01*
X0034654Y0291696D01*
X0034802Y0291691D01*
X0034950Y0291682D01*
X0035098Y0291669D01*
X0035246Y0291652D01*
X0035392Y0291631D01*
X0035539Y0291606D01*
X0035684Y0291577D01*
X0035829Y0291545D01*
X0035972Y0291508D01*
X0036115Y0291468D01*
X0036257Y0291423D01*
X0036397Y0291375D01*
X0036536Y0291323D01*
X0036673Y0291268D01*
X0036809Y0291208D01*
X0036944Y0291145D01*
X0037076Y0291079D01*
X0037207Y0291009D01*
X0037336Y0290935D01*
X0037462Y0290858D01*
X0037587Y0290778D01*
X0037709Y0290694D01*
X0037830Y0290607D01*
X0037947Y0290517D01*
X0038063Y0290423D01*
X0038175Y0290327D01*
X0038285Y0290228D01*
X0038393Y0290125D01*
X0038497Y0290020D01*
X0038599Y0289912D01*
X0038697Y0289801D01*
X0038793Y0289688D01*
X0038886Y0289572D01*
X0038975Y0289454D01*
X0039061Y0289333D01*
X0039144Y0289210D01*
X0039224Y0289085D01*
X0039300Y0288958D01*
X0039373Y0288828D01*
X0039442Y0288697D01*
X0039507Y0288564D01*
X0039570Y0288430D01*
X0039628Y0288293D01*
X0039683Y0288155D01*
X0039733Y0288016D01*
X0039781Y0287875D01*
X0039824Y0287734D01*
X0039864Y0287591D01*
X0039899Y0287447D01*
X0039931Y0287302D01*
X0039959Y0287156D01*
X0039983Y0287010D01*
X0040003Y0286863D01*
X0040019Y0286715D01*
X0040031Y0286568D01*
X0040039Y0286419D01*
X0040043Y0286271D01*
X0040043Y0286123D01*
X0040039Y0285975D01*
X0040031Y0285826D01*
X0040019Y0285679D01*
X0040003Y0285531D01*
X0039983Y0285384D01*
X0039959Y0285238D01*
X0039931Y0285092D01*
X0039899Y0284947D01*
X0039864Y0284803D01*
X0039824Y0284660D01*
X0039781Y0284519D01*
X0039733Y0284378D01*
X0039683Y0284239D01*
X0039628Y0284101D01*
X0039570Y0283964D01*
X0039507Y0283830D01*
X0039442Y0283697D01*
X0039373Y0283566D01*
X0039300Y0283436D01*
X0039224Y0283309D01*
X0039144Y0283184D01*
X0039061Y0283061D01*
X0038975Y0282940D01*
X0038886Y0282822D01*
X0038793Y0282706D01*
X0038697Y0282593D01*
X0038599Y0282482D01*
X0038497Y0282374D01*
X0038393Y0282269D01*
X0038285Y0282166D01*
X0038175Y0282067D01*
X0038063Y0281971D01*
X0037947Y0281877D01*
X0037830Y0281787D01*
X0037709Y0281700D01*
X0037587Y0281616D01*
X0037462Y0281536D01*
X0037336Y0281459D01*
X0037207Y0281385D01*
X0037076Y0281315D01*
X0036944Y0281249D01*
X0036809Y0281186D01*
X0036673Y0281126D01*
X0036536Y0281071D01*
X0036397Y0281019D01*
X0036257Y0280971D01*
X0036115Y0280926D01*
X0035972Y0280886D01*
X0035829Y0280849D01*
X0035684Y0280817D01*
X0035539Y0280788D01*
X0035392Y0280763D01*
X0035246Y0280742D01*
X0035098Y0280725D01*
X0034950Y0280712D01*
X0034802Y0280703D01*
X0034654Y0280698D01*
X0034506Y0280697D01*
X0034358Y0280700D01*
X0034209Y0280707D01*
X0034062Y0280718D01*
X0033914Y0280733D01*
X0033767Y0280752D01*
X0033620Y0280775D01*
X0033475Y0280802D01*
X0033329Y0280833D01*
X0033185Y0280867D01*
X0033042Y0280906D01*
X0032900Y0280948D01*
X0032759Y0280994D01*
X0032619Y0281044D01*
X0032481Y0281098D01*
X0032344Y0281156D01*
X0032209Y0281217D01*
X0032076Y0281281D01*
X0031944Y0281350D01*
X0031814Y0281422D01*
X0031687Y0281497D01*
X0031561Y0281576D01*
X0031437Y0281658D01*
X0031316Y0281743D01*
X0031197Y0281832D01*
X0031081Y0281923D01*
X0030967Y0282018D01*
X0030855Y0282116D01*
X0030747Y0282217D01*
X0030641Y0282321D01*
X0030538Y0282428D01*
X0030438Y0282537D01*
X0030340Y0282649D01*
X0030246Y0282764D01*
X0030155Y0282881D01*
X0030067Y0283000D01*
X0029983Y0283122D01*
X0029902Y0283246D01*
X0029824Y0283372D01*
X0029749Y0283501D01*
X0029678Y0283631D01*
X0029611Y0283763D01*
X0029547Y0283897D01*
X0029487Y0284032D01*
X0029430Y0284170D01*
X0029378Y0284308D01*
X0029328Y0284448D01*
X0029283Y0284589D01*
X0029242Y0284732D01*
X0029204Y0284875D01*
X0029170Y0285020D01*
X0029141Y0285165D01*
X0029115Y0285311D01*
X0029093Y0285458D01*
X0029075Y0285605D01*
X0029061Y0285753D01*
X0029051Y0285901D01*
X0029045Y0286049D01*
X0029043Y0286197D01*
X0015449Y0206709D02*
X0015451Y0206850D01*
X0015457Y0206991D01*
X0015467Y0207131D01*
X0015481Y0207271D01*
X0015499Y0207411D01*
X0015520Y0207550D01*
X0015546Y0207689D01*
X0015575Y0207827D01*
X0015609Y0207963D01*
X0015646Y0208099D01*
X0015687Y0208234D01*
X0015732Y0208368D01*
X0015781Y0208500D01*
X0015833Y0208631D01*
X0015889Y0208760D01*
X0015949Y0208887D01*
X0016012Y0209013D01*
X0016078Y0209137D01*
X0016149Y0209260D01*
X0016222Y0209380D01*
X0016299Y0209498D01*
X0016379Y0209614D01*
X0016463Y0209727D01*
X0016549Y0209838D01*
X0016639Y0209947D01*
X0016732Y0210053D01*
X0016827Y0210156D01*
X0016926Y0210257D01*
X0017027Y0210355D01*
X0017131Y0210450D01*
X0017238Y0210542D01*
X0017347Y0210631D01*
X0017459Y0210716D01*
X0017573Y0210799D01*
X0017689Y0210879D01*
X0017808Y0210955D01*
X0017929Y0211027D01*
X0018051Y0211097D01*
X0018176Y0211162D01*
X0018302Y0211225D01*
X0018430Y0211283D01*
X0018560Y0211338D01*
X0018691Y0211390D01*
X0018824Y0211437D01*
X0018958Y0211481D01*
X0019093Y0211522D01*
X0019229Y0211558D01*
X0019366Y0211590D01*
X0019504Y0211619D01*
X0019642Y0211644D01*
X0019782Y0211664D01*
X0019922Y0211681D01*
X0020062Y0211694D01*
X0020203Y0211703D01*
X0020343Y0211708D01*
X0020484Y0211709D01*
X0020625Y0211706D01*
X0020766Y0211699D01*
X0020906Y0211688D01*
X0021046Y0211673D01*
X0021186Y0211654D01*
X0021325Y0211632D01*
X0021463Y0211605D01*
X0021601Y0211575D01*
X0021737Y0211540D01*
X0021873Y0211502D01*
X0022007Y0211460D01*
X0022141Y0211414D01*
X0022273Y0211365D01*
X0022403Y0211311D01*
X0022532Y0211254D01*
X0022659Y0211194D01*
X0022785Y0211130D01*
X0022908Y0211062D01*
X0023030Y0210991D01*
X0023150Y0210917D01*
X0023267Y0210839D01*
X0023382Y0210758D01*
X0023495Y0210674D01*
X0023606Y0210587D01*
X0023714Y0210496D01*
X0023819Y0210403D01*
X0023922Y0210306D01*
X0024022Y0210207D01*
X0024119Y0210105D01*
X0024213Y0210000D01*
X0024304Y0209893D01*
X0024392Y0209783D01*
X0024477Y0209671D01*
X0024559Y0209556D01*
X0024638Y0209439D01*
X0024713Y0209320D01*
X0024785Y0209199D01*
X0024853Y0209076D01*
X0024918Y0208951D01*
X0024980Y0208824D01*
X0025037Y0208695D01*
X0025092Y0208565D01*
X0025142Y0208434D01*
X0025189Y0208301D01*
X0025232Y0208167D01*
X0025271Y0208031D01*
X0025306Y0207895D01*
X0025338Y0207758D01*
X0025365Y0207620D01*
X0025389Y0207481D01*
X0025409Y0207341D01*
X0025425Y0207201D01*
X0025437Y0207061D01*
X0025445Y0206920D01*
X0025449Y0206779D01*
X0025449Y0206639D01*
X0025445Y0206498D01*
X0025437Y0206357D01*
X0025425Y0206217D01*
X0025409Y0206077D01*
X0025389Y0205937D01*
X0025365Y0205798D01*
X0025338Y0205660D01*
X0025306Y0205523D01*
X0025271Y0205387D01*
X0025232Y0205251D01*
X0025189Y0205117D01*
X0025142Y0204984D01*
X0025092Y0204853D01*
X0025037Y0204723D01*
X0024980Y0204594D01*
X0024918Y0204467D01*
X0024853Y0204342D01*
X0024785Y0204219D01*
X0024713Y0204098D01*
X0024638Y0203979D01*
X0024559Y0203862D01*
X0024477Y0203747D01*
X0024392Y0203635D01*
X0024304Y0203525D01*
X0024213Y0203418D01*
X0024119Y0203313D01*
X0024022Y0203211D01*
X0023922Y0203112D01*
X0023819Y0203015D01*
X0023714Y0202922D01*
X0023606Y0202831D01*
X0023495Y0202744D01*
X0023382Y0202660D01*
X0023267Y0202579D01*
X0023150Y0202501D01*
X0023030Y0202427D01*
X0022908Y0202356D01*
X0022785Y0202288D01*
X0022659Y0202224D01*
X0022532Y0202164D01*
X0022403Y0202107D01*
X0022273Y0202053D01*
X0022141Y0202004D01*
X0022007Y0201958D01*
X0021873Y0201916D01*
X0021737Y0201878D01*
X0021601Y0201843D01*
X0021463Y0201813D01*
X0021325Y0201786D01*
X0021186Y0201764D01*
X0021046Y0201745D01*
X0020906Y0201730D01*
X0020766Y0201719D01*
X0020625Y0201712D01*
X0020484Y0201709D01*
X0020343Y0201710D01*
X0020203Y0201715D01*
X0020062Y0201724D01*
X0019922Y0201737D01*
X0019782Y0201754D01*
X0019642Y0201774D01*
X0019504Y0201799D01*
X0019366Y0201828D01*
X0019229Y0201860D01*
X0019093Y0201896D01*
X0018958Y0201937D01*
X0018824Y0201981D01*
X0018691Y0202028D01*
X0018560Y0202080D01*
X0018430Y0202135D01*
X0018302Y0202193D01*
X0018176Y0202256D01*
X0018051Y0202321D01*
X0017929Y0202391D01*
X0017808Y0202463D01*
X0017689Y0202539D01*
X0017573Y0202619D01*
X0017459Y0202702D01*
X0017347Y0202787D01*
X0017238Y0202876D01*
X0017131Y0202968D01*
X0017027Y0203063D01*
X0016926Y0203161D01*
X0016827Y0203262D01*
X0016732Y0203365D01*
X0016639Y0203471D01*
X0016549Y0203580D01*
X0016463Y0203691D01*
X0016379Y0203804D01*
X0016299Y0203920D01*
X0016222Y0204038D01*
X0016149Y0204158D01*
X0016078Y0204281D01*
X0016012Y0204405D01*
X0015949Y0204531D01*
X0015889Y0204658D01*
X0015833Y0204787D01*
X0015781Y0204918D01*
X0015732Y0205050D01*
X0015687Y0205184D01*
X0015646Y0205319D01*
X0015609Y0205455D01*
X0015575Y0205591D01*
X0015546Y0205729D01*
X0015520Y0205868D01*
X0015499Y0206007D01*
X0015481Y0206147D01*
X0015467Y0206287D01*
X0015457Y0206427D01*
X0015451Y0206568D01*
X0015449Y0206709D01*
X0190331Y0199268D02*
X0190333Y0199409D01*
X0190339Y0199550D01*
X0190349Y0199690D01*
X0190363Y0199830D01*
X0190381Y0199970D01*
X0190402Y0200109D01*
X0190428Y0200248D01*
X0190457Y0200386D01*
X0190491Y0200522D01*
X0190528Y0200658D01*
X0190569Y0200793D01*
X0190614Y0200927D01*
X0190663Y0201059D01*
X0190715Y0201190D01*
X0190771Y0201319D01*
X0190831Y0201446D01*
X0190894Y0201572D01*
X0190960Y0201696D01*
X0191031Y0201819D01*
X0191104Y0201939D01*
X0191181Y0202057D01*
X0191261Y0202173D01*
X0191345Y0202286D01*
X0191431Y0202397D01*
X0191521Y0202506D01*
X0191614Y0202612D01*
X0191709Y0202715D01*
X0191808Y0202816D01*
X0191909Y0202914D01*
X0192013Y0203009D01*
X0192120Y0203101D01*
X0192229Y0203190D01*
X0192341Y0203275D01*
X0192455Y0203358D01*
X0192571Y0203438D01*
X0192690Y0203514D01*
X0192811Y0203586D01*
X0192933Y0203656D01*
X0193058Y0203721D01*
X0193184Y0203784D01*
X0193312Y0203842D01*
X0193442Y0203897D01*
X0193573Y0203949D01*
X0193706Y0203996D01*
X0193840Y0204040D01*
X0193975Y0204081D01*
X0194111Y0204117D01*
X0194248Y0204149D01*
X0194386Y0204178D01*
X0194524Y0204203D01*
X0194664Y0204223D01*
X0194804Y0204240D01*
X0194944Y0204253D01*
X0195085Y0204262D01*
X0195225Y0204267D01*
X0195366Y0204268D01*
X0195507Y0204265D01*
X0195648Y0204258D01*
X0195788Y0204247D01*
X0195928Y0204232D01*
X0196068Y0204213D01*
X0196207Y0204191D01*
X0196345Y0204164D01*
X0196483Y0204134D01*
X0196619Y0204099D01*
X0196755Y0204061D01*
X0196889Y0204019D01*
X0197023Y0203973D01*
X0197155Y0203924D01*
X0197285Y0203870D01*
X0197414Y0203813D01*
X0197541Y0203753D01*
X0197667Y0203689D01*
X0197790Y0203621D01*
X0197912Y0203550D01*
X0198032Y0203476D01*
X0198149Y0203398D01*
X0198264Y0203317D01*
X0198377Y0203233D01*
X0198488Y0203146D01*
X0198596Y0203055D01*
X0198701Y0202962D01*
X0198804Y0202865D01*
X0198904Y0202766D01*
X0199001Y0202664D01*
X0199095Y0202559D01*
X0199186Y0202452D01*
X0199274Y0202342D01*
X0199359Y0202230D01*
X0199441Y0202115D01*
X0199520Y0201998D01*
X0199595Y0201879D01*
X0199667Y0201758D01*
X0199735Y0201635D01*
X0199800Y0201510D01*
X0199862Y0201383D01*
X0199919Y0201254D01*
X0199974Y0201124D01*
X0200024Y0200993D01*
X0200071Y0200860D01*
X0200114Y0200726D01*
X0200153Y0200590D01*
X0200188Y0200454D01*
X0200220Y0200317D01*
X0200247Y0200179D01*
X0200271Y0200040D01*
X0200291Y0199900D01*
X0200307Y0199760D01*
X0200319Y0199620D01*
X0200327Y0199479D01*
X0200331Y0199338D01*
X0200331Y0199198D01*
X0200327Y0199057D01*
X0200319Y0198916D01*
X0200307Y0198776D01*
X0200291Y0198636D01*
X0200271Y0198496D01*
X0200247Y0198357D01*
X0200220Y0198219D01*
X0200188Y0198082D01*
X0200153Y0197946D01*
X0200114Y0197810D01*
X0200071Y0197676D01*
X0200024Y0197543D01*
X0199974Y0197412D01*
X0199919Y0197282D01*
X0199862Y0197153D01*
X0199800Y0197026D01*
X0199735Y0196901D01*
X0199667Y0196778D01*
X0199595Y0196657D01*
X0199520Y0196538D01*
X0199441Y0196421D01*
X0199359Y0196306D01*
X0199274Y0196194D01*
X0199186Y0196084D01*
X0199095Y0195977D01*
X0199001Y0195872D01*
X0198904Y0195770D01*
X0198804Y0195671D01*
X0198701Y0195574D01*
X0198596Y0195481D01*
X0198488Y0195390D01*
X0198377Y0195303D01*
X0198264Y0195219D01*
X0198149Y0195138D01*
X0198032Y0195060D01*
X0197912Y0194986D01*
X0197790Y0194915D01*
X0197667Y0194847D01*
X0197541Y0194783D01*
X0197414Y0194723D01*
X0197285Y0194666D01*
X0197155Y0194612D01*
X0197023Y0194563D01*
X0196889Y0194517D01*
X0196755Y0194475D01*
X0196619Y0194437D01*
X0196483Y0194402D01*
X0196345Y0194372D01*
X0196207Y0194345D01*
X0196068Y0194323D01*
X0195928Y0194304D01*
X0195788Y0194289D01*
X0195648Y0194278D01*
X0195507Y0194271D01*
X0195366Y0194268D01*
X0195225Y0194269D01*
X0195085Y0194274D01*
X0194944Y0194283D01*
X0194804Y0194296D01*
X0194664Y0194313D01*
X0194524Y0194333D01*
X0194386Y0194358D01*
X0194248Y0194387D01*
X0194111Y0194419D01*
X0193975Y0194455D01*
X0193840Y0194496D01*
X0193706Y0194540D01*
X0193573Y0194587D01*
X0193442Y0194639D01*
X0193312Y0194694D01*
X0193184Y0194752D01*
X0193058Y0194815D01*
X0192933Y0194880D01*
X0192811Y0194950D01*
X0192690Y0195022D01*
X0192571Y0195098D01*
X0192455Y0195178D01*
X0192341Y0195261D01*
X0192229Y0195346D01*
X0192120Y0195435D01*
X0192013Y0195527D01*
X0191909Y0195622D01*
X0191808Y0195720D01*
X0191709Y0195821D01*
X0191614Y0195924D01*
X0191521Y0196030D01*
X0191431Y0196139D01*
X0191345Y0196250D01*
X0191261Y0196363D01*
X0191181Y0196479D01*
X0191104Y0196597D01*
X0191031Y0196717D01*
X0190960Y0196840D01*
X0190894Y0196964D01*
X0190831Y0197090D01*
X0190771Y0197217D01*
X0190715Y0197346D01*
X0190663Y0197477D01*
X0190614Y0197609D01*
X0190569Y0197743D01*
X0190528Y0197878D01*
X0190491Y0198014D01*
X0190457Y0198150D01*
X0190428Y0198288D01*
X0190402Y0198427D01*
X0190381Y0198566D01*
X0190363Y0198706D01*
X0190349Y0198846D01*
X0190339Y0198986D01*
X0190333Y0199127D01*
X0190331Y0199268D01*
X0191787Y0224858D02*
X0191789Y0224999D01*
X0191795Y0225140D01*
X0191805Y0225280D01*
X0191819Y0225420D01*
X0191837Y0225560D01*
X0191858Y0225699D01*
X0191884Y0225838D01*
X0191913Y0225976D01*
X0191947Y0226112D01*
X0191984Y0226248D01*
X0192025Y0226383D01*
X0192070Y0226517D01*
X0192119Y0226649D01*
X0192171Y0226780D01*
X0192227Y0226909D01*
X0192287Y0227036D01*
X0192350Y0227162D01*
X0192416Y0227286D01*
X0192487Y0227409D01*
X0192560Y0227529D01*
X0192637Y0227647D01*
X0192717Y0227763D01*
X0192801Y0227876D01*
X0192887Y0227987D01*
X0192977Y0228096D01*
X0193070Y0228202D01*
X0193165Y0228305D01*
X0193264Y0228406D01*
X0193365Y0228504D01*
X0193469Y0228599D01*
X0193576Y0228691D01*
X0193685Y0228780D01*
X0193797Y0228865D01*
X0193911Y0228948D01*
X0194027Y0229028D01*
X0194146Y0229104D01*
X0194267Y0229176D01*
X0194389Y0229246D01*
X0194514Y0229311D01*
X0194640Y0229374D01*
X0194768Y0229432D01*
X0194898Y0229487D01*
X0195029Y0229539D01*
X0195162Y0229586D01*
X0195296Y0229630D01*
X0195431Y0229671D01*
X0195567Y0229707D01*
X0195704Y0229739D01*
X0195842Y0229768D01*
X0195980Y0229793D01*
X0196120Y0229813D01*
X0196260Y0229830D01*
X0196400Y0229843D01*
X0196541Y0229852D01*
X0196681Y0229857D01*
X0196822Y0229858D01*
X0196963Y0229855D01*
X0197104Y0229848D01*
X0197244Y0229837D01*
X0197384Y0229822D01*
X0197524Y0229803D01*
X0197663Y0229781D01*
X0197801Y0229754D01*
X0197939Y0229724D01*
X0198075Y0229689D01*
X0198211Y0229651D01*
X0198345Y0229609D01*
X0198479Y0229563D01*
X0198611Y0229514D01*
X0198741Y0229460D01*
X0198870Y0229403D01*
X0198997Y0229343D01*
X0199123Y0229279D01*
X0199246Y0229211D01*
X0199368Y0229140D01*
X0199488Y0229066D01*
X0199605Y0228988D01*
X0199720Y0228907D01*
X0199833Y0228823D01*
X0199944Y0228736D01*
X0200052Y0228645D01*
X0200157Y0228552D01*
X0200260Y0228455D01*
X0200360Y0228356D01*
X0200457Y0228254D01*
X0200551Y0228149D01*
X0200642Y0228042D01*
X0200730Y0227932D01*
X0200815Y0227820D01*
X0200897Y0227705D01*
X0200976Y0227588D01*
X0201051Y0227469D01*
X0201123Y0227348D01*
X0201191Y0227225D01*
X0201256Y0227100D01*
X0201318Y0226973D01*
X0201375Y0226844D01*
X0201430Y0226714D01*
X0201480Y0226583D01*
X0201527Y0226450D01*
X0201570Y0226316D01*
X0201609Y0226180D01*
X0201644Y0226044D01*
X0201676Y0225907D01*
X0201703Y0225769D01*
X0201727Y0225630D01*
X0201747Y0225490D01*
X0201763Y0225350D01*
X0201775Y0225210D01*
X0201783Y0225069D01*
X0201787Y0224928D01*
X0201787Y0224788D01*
X0201783Y0224647D01*
X0201775Y0224506D01*
X0201763Y0224366D01*
X0201747Y0224226D01*
X0201727Y0224086D01*
X0201703Y0223947D01*
X0201676Y0223809D01*
X0201644Y0223672D01*
X0201609Y0223536D01*
X0201570Y0223400D01*
X0201527Y0223266D01*
X0201480Y0223133D01*
X0201430Y0223002D01*
X0201375Y0222872D01*
X0201318Y0222743D01*
X0201256Y0222616D01*
X0201191Y0222491D01*
X0201123Y0222368D01*
X0201051Y0222247D01*
X0200976Y0222128D01*
X0200897Y0222011D01*
X0200815Y0221896D01*
X0200730Y0221784D01*
X0200642Y0221674D01*
X0200551Y0221567D01*
X0200457Y0221462D01*
X0200360Y0221360D01*
X0200260Y0221261D01*
X0200157Y0221164D01*
X0200052Y0221071D01*
X0199944Y0220980D01*
X0199833Y0220893D01*
X0199720Y0220809D01*
X0199605Y0220728D01*
X0199488Y0220650D01*
X0199368Y0220576D01*
X0199246Y0220505D01*
X0199123Y0220437D01*
X0198997Y0220373D01*
X0198870Y0220313D01*
X0198741Y0220256D01*
X0198611Y0220202D01*
X0198479Y0220153D01*
X0198345Y0220107D01*
X0198211Y0220065D01*
X0198075Y0220027D01*
X0197939Y0219992D01*
X0197801Y0219962D01*
X0197663Y0219935D01*
X0197524Y0219913D01*
X0197384Y0219894D01*
X0197244Y0219879D01*
X0197104Y0219868D01*
X0196963Y0219861D01*
X0196822Y0219858D01*
X0196681Y0219859D01*
X0196541Y0219864D01*
X0196400Y0219873D01*
X0196260Y0219886D01*
X0196120Y0219903D01*
X0195980Y0219923D01*
X0195842Y0219948D01*
X0195704Y0219977D01*
X0195567Y0220009D01*
X0195431Y0220045D01*
X0195296Y0220086D01*
X0195162Y0220130D01*
X0195029Y0220177D01*
X0194898Y0220229D01*
X0194768Y0220284D01*
X0194640Y0220342D01*
X0194514Y0220405D01*
X0194389Y0220470D01*
X0194267Y0220540D01*
X0194146Y0220612D01*
X0194027Y0220688D01*
X0193911Y0220768D01*
X0193797Y0220851D01*
X0193685Y0220936D01*
X0193576Y0221025D01*
X0193469Y0221117D01*
X0193365Y0221212D01*
X0193264Y0221310D01*
X0193165Y0221411D01*
X0193070Y0221514D01*
X0192977Y0221620D01*
X0192887Y0221729D01*
X0192801Y0221840D01*
X0192717Y0221953D01*
X0192637Y0222069D01*
X0192560Y0222187D01*
X0192487Y0222307D01*
X0192416Y0222430D01*
X0192350Y0222554D01*
X0192287Y0222680D01*
X0192227Y0222807D01*
X0192171Y0222936D01*
X0192119Y0223067D01*
X0192070Y0223199D01*
X0192025Y0223333D01*
X0191984Y0223468D01*
X0191947Y0223604D01*
X0191913Y0223740D01*
X0191884Y0223878D01*
X0191858Y0224017D01*
X0191837Y0224156D01*
X0191819Y0224296D01*
X0191805Y0224436D01*
X0191795Y0224576D01*
X0191789Y0224717D01*
X0191787Y0224858D01*
X0191787Y0284858D02*
X0191789Y0284999D01*
X0191795Y0285140D01*
X0191805Y0285280D01*
X0191819Y0285420D01*
X0191837Y0285560D01*
X0191858Y0285699D01*
X0191884Y0285838D01*
X0191913Y0285976D01*
X0191947Y0286112D01*
X0191984Y0286248D01*
X0192025Y0286383D01*
X0192070Y0286517D01*
X0192119Y0286649D01*
X0192171Y0286780D01*
X0192227Y0286909D01*
X0192287Y0287036D01*
X0192350Y0287162D01*
X0192416Y0287286D01*
X0192487Y0287409D01*
X0192560Y0287529D01*
X0192637Y0287647D01*
X0192717Y0287763D01*
X0192801Y0287876D01*
X0192887Y0287987D01*
X0192977Y0288096D01*
X0193070Y0288202D01*
X0193165Y0288305D01*
X0193264Y0288406D01*
X0193365Y0288504D01*
X0193469Y0288599D01*
X0193576Y0288691D01*
X0193685Y0288780D01*
X0193797Y0288865D01*
X0193911Y0288948D01*
X0194027Y0289028D01*
X0194146Y0289104D01*
X0194267Y0289176D01*
X0194389Y0289246D01*
X0194514Y0289311D01*
X0194640Y0289374D01*
X0194768Y0289432D01*
X0194898Y0289487D01*
X0195029Y0289539D01*
X0195162Y0289586D01*
X0195296Y0289630D01*
X0195431Y0289671D01*
X0195567Y0289707D01*
X0195704Y0289739D01*
X0195842Y0289768D01*
X0195980Y0289793D01*
X0196120Y0289813D01*
X0196260Y0289830D01*
X0196400Y0289843D01*
X0196541Y0289852D01*
X0196681Y0289857D01*
X0196822Y0289858D01*
X0196963Y0289855D01*
X0197104Y0289848D01*
X0197244Y0289837D01*
X0197384Y0289822D01*
X0197524Y0289803D01*
X0197663Y0289781D01*
X0197801Y0289754D01*
X0197939Y0289724D01*
X0198075Y0289689D01*
X0198211Y0289651D01*
X0198345Y0289609D01*
X0198479Y0289563D01*
X0198611Y0289514D01*
X0198741Y0289460D01*
X0198870Y0289403D01*
X0198997Y0289343D01*
X0199123Y0289279D01*
X0199246Y0289211D01*
X0199368Y0289140D01*
X0199488Y0289066D01*
X0199605Y0288988D01*
X0199720Y0288907D01*
X0199833Y0288823D01*
X0199944Y0288736D01*
X0200052Y0288645D01*
X0200157Y0288552D01*
X0200260Y0288455D01*
X0200360Y0288356D01*
X0200457Y0288254D01*
X0200551Y0288149D01*
X0200642Y0288042D01*
X0200730Y0287932D01*
X0200815Y0287820D01*
X0200897Y0287705D01*
X0200976Y0287588D01*
X0201051Y0287469D01*
X0201123Y0287348D01*
X0201191Y0287225D01*
X0201256Y0287100D01*
X0201318Y0286973D01*
X0201375Y0286844D01*
X0201430Y0286714D01*
X0201480Y0286583D01*
X0201527Y0286450D01*
X0201570Y0286316D01*
X0201609Y0286180D01*
X0201644Y0286044D01*
X0201676Y0285907D01*
X0201703Y0285769D01*
X0201727Y0285630D01*
X0201747Y0285490D01*
X0201763Y0285350D01*
X0201775Y0285210D01*
X0201783Y0285069D01*
X0201787Y0284928D01*
X0201787Y0284788D01*
X0201783Y0284647D01*
X0201775Y0284506D01*
X0201763Y0284366D01*
X0201747Y0284226D01*
X0201727Y0284086D01*
X0201703Y0283947D01*
X0201676Y0283809D01*
X0201644Y0283672D01*
X0201609Y0283536D01*
X0201570Y0283400D01*
X0201527Y0283266D01*
X0201480Y0283133D01*
X0201430Y0283002D01*
X0201375Y0282872D01*
X0201318Y0282743D01*
X0201256Y0282616D01*
X0201191Y0282491D01*
X0201123Y0282368D01*
X0201051Y0282247D01*
X0200976Y0282128D01*
X0200897Y0282011D01*
X0200815Y0281896D01*
X0200730Y0281784D01*
X0200642Y0281674D01*
X0200551Y0281567D01*
X0200457Y0281462D01*
X0200360Y0281360D01*
X0200260Y0281261D01*
X0200157Y0281164D01*
X0200052Y0281071D01*
X0199944Y0280980D01*
X0199833Y0280893D01*
X0199720Y0280809D01*
X0199605Y0280728D01*
X0199488Y0280650D01*
X0199368Y0280576D01*
X0199246Y0280505D01*
X0199123Y0280437D01*
X0198997Y0280373D01*
X0198870Y0280313D01*
X0198741Y0280256D01*
X0198611Y0280202D01*
X0198479Y0280153D01*
X0198345Y0280107D01*
X0198211Y0280065D01*
X0198075Y0280027D01*
X0197939Y0279992D01*
X0197801Y0279962D01*
X0197663Y0279935D01*
X0197524Y0279913D01*
X0197384Y0279894D01*
X0197244Y0279879D01*
X0197104Y0279868D01*
X0196963Y0279861D01*
X0196822Y0279858D01*
X0196681Y0279859D01*
X0196541Y0279864D01*
X0196400Y0279873D01*
X0196260Y0279886D01*
X0196120Y0279903D01*
X0195980Y0279923D01*
X0195842Y0279948D01*
X0195704Y0279977D01*
X0195567Y0280009D01*
X0195431Y0280045D01*
X0195296Y0280086D01*
X0195162Y0280130D01*
X0195029Y0280177D01*
X0194898Y0280229D01*
X0194768Y0280284D01*
X0194640Y0280342D01*
X0194514Y0280405D01*
X0194389Y0280470D01*
X0194267Y0280540D01*
X0194146Y0280612D01*
X0194027Y0280688D01*
X0193911Y0280768D01*
X0193797Y0280851D01*
X0193685Y0280936D01*
X0193576Y0281025D01*
X0193469Y0281117D01*
X0193365Y0281212D01*
X0193264Y0281310D01*
X0193165Y0281411D01*
X0193070Y0281514D01*
X0192977Y0281620D01*
X0192887Y0281729D01*
X0192801Y0281840D01*
X0192717Y0281953D01*
X0192637Y0282069D01*
X0192560Y0282187D01*
X0192487Y0282307D01*
X0192416Y0282430D01*
X0192350Y0282554D01*
X0192287Y0282680D01*
X0192227Y0282807D01*
X0192171Y0282936D01*
X0192119Y0283067D01*
X0192070Y0283199D01*
X0192025Y0283333D01*
X0191984Y0283468D01*
X0191947Y0283604D01*
X0191913Y0283740D01*
X0191884Y0283878D01*
X0191858Y0284017D01*
X0191837Y0284156D01*
X0191819Y0284296D01*
X0191805Y0284436D01*
X0191795Y0284576D01*
X0191789Y0284717D01*
X0191787Y0284858D01*
X0217732Y0283835D02*
X0217734Y0283976D01*
X0217740Y0284117D01*
X0217750Y0284257D01*
X0217764Y0284397D01*
X0217782Y0284537D01*
X0217803Y0284676D01*
X0217829Y0284815D01*
X0217858Y0284953D01*
X0217892Y0285089D01*
X0217929Y0285225D01*
X0217970Y0285360D01*
X0218015Y0285494D01*
X0218064Y0285626D01*
X0218116Y0285757D01*
X0218172Y0285886D01*
X0218232Y0286013D01*
X0218295Y0286139D01*
X0218361Y0286263D01*
X0218432Y0286386D01*
X0218505Y0286506D01*
X0218582Y0286624D01*
X0218662Y0286740D01*
X0218746Y0286853D01*
X0218832Y0286964D01*
X0218922Y0287073D01*
X0219015Y0287179D01*
X0219110Y0287282D01*
X0219209Y0287383D01*
X0219310Y0287481D01*
X0219414Y0287576D01*
X0219521Y0287668D01*
X0219630Y0287757D01*
X0219742Y0287842D01*
X0219856Y0287925D01*
X0219972Y0288005D01*
X0220091Y0288081D01*
X0220212Y0288153D01*
X0220334Y0288223D01*
X0220459Y0288288D01*
X0220585Y0288351D01*
X0220713Y0288409D01*
X0220843Y0288464D01*
X0220974Y0288516D01*
X0221107Y0288563D01*
X0221241Y0288607D01*
X0221376Y0288648D01*
X0221512Y0288684D01*
X0221649Y0288716D01*
X0221787Y0288745D01*
X0221925Y0288770D01*
X0222065Y0288790D01*
X0222205Y0288807D01*
X0222345Y0288820D01*
X0222486Y0288829D01*
X0222626Y0288834D01*
X0222767Y0288835D01*
X0222908Y0288832D01*
X0223049Y0288825D01*
X0223189Y0288814D01*
X0223329Y0288799D01*
X0223469Y0288780D01*
X0223608Y0288758D01*
X0223746Y0288731D01*
X0223884Y0288701D01*
X0224020Y0288666D01*
X0224156Y0288628D01*
X0224290Y0288586D01*
X0224424Y0288540D01*
X0224556Y0288491D01*
X0224686Y0288437D01*
X0224815Y0288380D01*
X0224942Y0288320D01*
X0225068Y0288256D01*
X0225191Y0288188D01*
X0225313Y0288117D01*
X0225433Y0288043D01*
X0225550Y0287965D01*
X0225665Y0287884D01*
X0225778Y0287800D01*
X0225889Y0287713D01*
X0225997Y0287622D01*
X0226102Y0287529D01*
X0226205Y0287432D01*
X0226305Y0287333D01*
X0226402Y0287231D01*
X0226496Y0287126D01*
X0226587Y0287019D01*
X0226675Y0286909D01*
X0226760Y0286797D01*
X0226842Y0286682D01*
X0226921Y0286565D01*
X0226996Y0286446D01*
X0227068Y0286325D01*
X0227136Y0286202D01*
X0227201Y0286077D01*
X0227263Y0285950D01*
X0227320Y0285821D01*
X0227375Y0285691D01*
X0227425Y0285560D01*
X0227472Y0285427D01*
X0227515Y0285293D01*
X0227554Y0285157D01*
X0227589Y0285021D01*
X0227621Y0284884D01*
X0227648Y0284746D01*
X0227672Y0284607D01*
X0227692Y0284467D01*
X0227708Y0284327D01*
X0227720Y0284187D01*
X0227728Y0284046D01*
X0227732Y0283905D01*
X0227732Y0283765D01*
X0227728Y0283624D01*
X0227720Y0283483D01*
X0227708Y0283343D01*
X0227692Y0283203D01*
X0227672Y0283063D01*
X0227648Y0282924D01*
X0227621Y0282786D01*
X0227589Y0282649D01*
X0227554Y0282513D01*
X0227515Y0282377D01*
X0227472Y0282243D01*
X0227425Y0282110D01*
X0227375Y0281979D01*
X0227320Y0281849D01*
X0227263Y0281720D01*
X0227201Y0281593D01*
X0227136Y0281468D01*
X0227068Y0281345D01*
X0226996Y0281224D01*
X0226921Y0281105D01*
X0226842Y0280988D01*
X0226760Y0280873D01*
X0226675Y0280761D01*
X0226587Y0280651D01*
X0226496Y0280544D01*
X0226402Y0280439D01*
X0226305Y0280337D01*
X0226205Y0280238D01*
X0226102Y0280141D01*
X0225997Y0280048D01*
X0225889Y0279957D01*
X0225778Y0279870D01*
X0225665Y0279786D01*
X0225550Y0279705D01*
X0225433Y0279627D01*
X0225313Y0279553D01*
X0225191Y0279482D01*
X0225068Y0279414D01*
X0224942Y0279350D01*
X0224815Y0279290D01*
X0224686Y0279233D01*
X0224556Y0279179D01*
X0224424Y0279130D01*
X0224290Y0279084D01*
X0224156Y0279042D01*
X0224020Y0279004D01*
X0223884Y0278969D01*
X0223746Y0278939D01*
X0223608Y0278912D01*
X0223469Y0278890D01*
X0223329Y0278871D01*
X0223189Y0278856D01*
X0223049Y0278845D01*
X0222908Y0278838D01*
X0222767Y0278835D01*
X0222626Y0278836D01*
X0222486Y0278841D01*
X0222345Y0278850D01*
X0222205Y0278863D01*
X0222065Y0278880D01*
X0221925Y0278900D01*
X0221787Y0278925D01*
X0221649Y0278954D01*
X0221512Y0278986D01*
X0221376Y0279022D01*
X0221241Y0279063D01*
X0221107Y0279107D01*
X0220974Y0279154D01*
X0220843Y0279206D01*
X0220713Y0279261D01*
X0220585Y0279319D01*
X0220459Y0279382D01*
X0220334Y0279447D01*
X0220212Y0279517D01*
X0220091Y0279589D01*
X0219972Y0279665D01*
X0219856Y0279745D01*
X0219742Y0279828D01*
X0219630Y0279913D01*
X0219521Y0280002D01*
X0219414Y0280094D01*
X0219310Y0280189D01*
X0219209Y0280287D01*
X0219110Y0280388D01*
X0219015Y0280491D01*
X0218922Y0280597D01*
X0218832Y0280706D01*
X0218746Y0280817D01*
X0218662Y0280930D01*
X0218582Y0281046D01*
X0218505Y0281164D01*
X0218432Y0281284D01*
X0218361Y0281407D01*
X0218295Y0281531D01*
X0218232Y0281657D01*
X0218172Y0281784D01*
X0218116Y0281913D01*
X0218064Y0282044D01*
X0218015Y0282176D01*
X0217970Y0282310D01*
X0217929Y0282445D01*
X0217892Y0282581D01*
X0217858Y0282717D01*
X0217829Y0282855D01*
X0217803Y0282994D01*
X0217782Y0283133D01*
X0217764Y0283273D01*
X0217750Y0283413D01*
X0217740Y0283553D01*
X0217734Y0283694D01*
X0217732Y0283835D01*
X0190331Y0139268D02*
X0190333Y0139409D01*
X0190339Y0139550D01*
X0190349Y0139690D01*
X0190363Y0139830D01*
X0190381Y0139970D01*
X0190402Y0140109D01*
X0190428Y0140248D01*
X0190457Y0140386D01*
X0190491Y0140522D01*
X0190528Y0140658D01*
X0190569Y0140793D01*
X0190614Y0140927D01*
X0190663Y0141059D01*
X0190715Y0141190D01*
X0190771Y0141319D01*
X0190831Y0141446D01*
X0190894Y0141572D01*
X0190960Y0141696D01*
X0191031Y0141819D01*
X0191104Y0141939D01*
X0191181Y0142057D01*
X0191261Y0142173D01*
X0191345Y0142286D01*
X0191431Y0142397D01*
X0191521Y0142506D01*
X0191614Y0142612D01*
X0191709Y0142715D01*
X0191808Y0142816D01*
X0191909Y0142914D01*
X0192013Y0143009D01*
X0192120Y0143101D01*
X0192229Y0143190D01*
X0192341Y0143275D01*
X0192455Y0143358D01*
X0192571Y0143438D01*
X0192690Y0143514D01*
X0192811Y0143586D01*
X0192933Y0143656D01*
X0193058Y0143721D01*
X0193184Y0143784D01*
X0193312Y0143842D01*
X0193442Y0143897D01*
X0193573Y0143949D01*
X0193706Y0143996D01*
X0193840Y0144040D01*
X0193975Y0144081D01*
X0194111Y0144117D01*
X0194248Y0144149D01*
X0194386Y0144178D01*
X0194524Y0144203D01*
X0194664Y0144223D01*
X0194804Y0144240D01*
X0194944Y0144253D01*
X0195085Y0144262D01*
X0195225Y0144267D01*
X0195366Y0144268D01*
X0195507Y0144265D01*
X0195648Y0144258D01*
X0195788Y0144247D01*
X0195928Y0144232D01*
X0196068Y0144213D01*
X0196207Y0144191D01*
X0196345Y0144164D01*
X0196483Y0144134D01*
X0196619Y0144099D01*
X0196755Y0144061D01*
X0196889Y0144019D01*
X0197023Y0143973D01*
X0197155Y0143924D01*
X0197285Y0143870D01*
X0197414Y0143813D01*
X0197541Y0143753D01*
X0197667Y0143689D01*
X0197790Y0143621D01*
X0197912Y0143550D01*
X0198032Y0143476D01*
X0198149Y0143398D01*
X0198264Y0143317D01*
X0198377Y0143233D01*
X0198488Y0143146D01*
X0198596Y0143055D01*
X0198701Y0142962D01*
X0198804Y0142865D01*
X0198904Y0142766D01*
X0199001Y0142664D01*
X0199095Y0142559D01*
X0199186Y0142452D01*
X0199274Y0142342D01*
X0199359Y0142230D01*
X0199441Y0142115D01*
X0199520Y0141998D01*
X0199595Y0141879D01*
X0199667Y0141758D01*
X0199735Y0141635D01*
X0199800Y0141510D01*
X0199862Y0141383D01*
X0199919Y0141254D01*
X0199974Y0141124D01*
X0200024Y0140993D01*
X0200071Y0140860D01*
X0200114Y0140726D01*
X0200153Y0140590D01*
X0200188Y0140454D01*
X0200220Y0140317D01*
X0200247Y0140179D01*
X0200271Y0140040D01*
X0200291Y0139900D01*
X0200307Y0139760D01*
X0200319Y0139620D01*
X0200327Y0139479D01*
X0200331Y0139338D01*
X0200331Y0139198D01*
X0200327Y0139057D01*
X0200319Y0138916D01*
X0200307Y0138776D01*
X0200291Y0138636D01*
X0200271Y0138496D01*
X0200247Y0138357D01*
X0200220Y0138219D01*
X0200188Y0138082D01*
X0200153Y0137946D01*
X0200114Y0137810D01*
X0200071Y0137676D01*
X0200024Y0137543D01*
X0199974Y0137412D01*
X0199919Y0137282D01*
X0199862Y0137153D01*
X0199800Y0137026D01*
X0199735Y0136901D01*
X0199667Y0136778D01*
X0199595Y0136657D01*
X0199520Y0136538D01*
X0199441Y0136421D01*
X0199359Y0136306D01*
X0199274Y0136194D01*
X0199186Y0136084D01*
X0199095Y0135977D01*
X0199001Y0135872D01*
X0198904Y0135770D01*
X0198804Y0135671D01*
X0198701Y0135574D01*
X0198596Y0135481D01*
X0198488Y0135390D01*
X0198377Y0135303D01*
X0198264Y0135219D01*
X0198149Y0135138D01*
X0198032Y0135060D01*
X0197912Y0134986D01*
X0197790Y0134915D01*
X0197667Y0134847D01*
X0197541Y0134783D01*
X0197414Y0134723D01*
X0197285Y0134666D01*
X0197155Y0134612D01*
X0197023Y0134563D01*
X0196889Y0134517D01*
X0196755Y0134475D01*
X0196619Y0134437D01*
X0196483Y0134402D01*
X0196345Y0134372D01*
X0196207Y0134345D01*
X0196068Y0134323D01*
X0195928Y0134304D01*
X0195788Y0134289D01*
X0195648Y0134278D01*
X0195507Y0134271D01*
X0195366Y0134268D01*
X0195225Y0134269D01*
X0195085Y0134274D01*
X0194944Y0134283D01*
X0194804Y0134296D01*
X0194664Y0134313D01*
X0194524Y0134333D01*
X0194386Y0134358D01*
X0194248Y0134387D01*
X0194111Y0134419D01*
X0193975Y0134455D01*
X0193840Y0134496D01*
X0193706Y0134540D01*
X0193573Y0134587D01*
X0193442Y0134639D01*
X0193312Y0134694D01*
X0193184Y0134752D01*
X0193058Y0134815D01*
X0192933Y0134880D01*
X0192811Y0134950D01*
X0192690Y0135022D01*
X0192571Y0135098D01*
X0192455Y0135178D01*
X0192341Y0135261D01*
X0192229Y0135346D01*
X0192120Y0135435D01*
X0192013Y0135527D01*
X0191909Y0135622D01*
X0191808Y0135720D01*
X0191709Y0135821D01*
X0191614Y0135924D01*
X0191521Y0136030D01*
X0191431Y0136139D01*
X0191345Y0136250D01*
X0191261Y0136363D01*
X0191181Y0136479D01*
X0191104Y0136597D01*
X0191031Y0136717D01*
X0190960Y0136840D01*
X0190894Y0136964D01*
X0190831Y0137090D01*
X0190771Y0137217D01*
X0190715Y0137346D01*
X0190663Y0137477D01*
X0190614Y0137609D01*
X0190569Y0137743D01*
X0190528Y0137878D01*
X0190491Y0138014D01*
X0190457Y0138150D01*
X0190428Y0138288D01*
X0190402Y0138427D01*
X0190381Y0138566D01*
X0190363Y0138706D01*
X0190349Y0138846D01*
X0190339Y0138986D01*
X0190333Y0139127D01*
X0190331Y0139268D01*
X0217732Y0118835D02*
X0217734Y0118976D01*
X0217740Y0119117D01*
X0217750Y0119257D01*
X0217764Y0119397D01*
X0217782Y0119537D01*
X0217803Y0119676D01*
X0217829Y0119815D01*
X0217858Y0119953D01*
X0217892Y0120089D01*
X0217929Y0120225D01*
X0217970Y0120360D01*
X0218015Y0120494D01*
X0218064Y0120626D01*
X0218116Y0120757D01*
X0218172Y0120886D01*
X0218232Y0121013D01*
X0218295Y0121139D01*
X0218361Y0121263D01*
X0218432Y0121386D01*
X0218505Y0121506D01*
X0218582Y0121624D01*
X0218662Y0121740D01*
X0218746Y0121853D01*
X0218832Y0121964D01*
X0218922Y0122073D01*
X0219015Y0122179D01*
X0219110Y0122282D01*
X0219209Y0122383D01*
X0219310Y0122481D01*
X0219414Y0122576D01*
X0219521Y0122668D01*
X0219630Y0122757D01*
X0219742Y0122842D01*
X0219856Y0122925D01*
X0219972Y0123005D01*
X0220091Y0123081D01*
X0220212Y0123153D01*
X0220334Y0123223D01*
X0220459Y0123288D01*
X0220585Y0123351D01*
X0220713Y0123409D01*
X0220843Y0123464D01*
X0220974Y0123516D01*
X0221107Y0123563D01*
X0221241Y0123607D01*
X0221376Y0123648D01*
X0221512Y0123684D01*
X0221649Y0123716D01*
X0221787Y0123745D01*
X0221925Y0123770D01*
X0222065Y0123790D01*
X0222205Y0123807D01*
X0222345Y0123820D01*
X0222486Y0123829D01*
X0222626Y0123834D01*
X0222767Y0123835D01*
X0222908Y0123832D01*
X0223049Y0123825D01*
X0223189Y0123814D01*
X0223329Y0123799D01*
X0223469Y0123780D01*
X0223608Y0123758D01*
X0223746Y0123731D01*
X0223884Y0123701D01*
X0224020Y0123666D01*
X0224156Y0123628D01*
X0224290Y0123586D01*
X0224424Y0123540D01*
X0224556Y0123491D01*
X0224686Y0123437D01*
X0224815Y0123380D01*
X0224942Y0123320D01*
X0225068Y0123256D01*
X0225191Y0123188D01*
X0225313Y0123117D01*
X0225433Y0123043D01*
X0225550Y0122965D01*
X0225665Y0122884D01*
X0225778Y0122800D01*
X0225889Y0122713D01*
X0225997Y0122622D01*
X0226102Y0122529D01*
X0226205Y0122432D01*
X0226305Y0122333D01*
X0226402Y0122231D01*
X0226496Y0122126D01*
X0226587Y0122019D01*
X0226675Y0121909D01*
X0226760Y0121797D01*
X0226842Y0121682D01*
X0226921Y0121565D01*
X0226996Y0121446D01*
X0227068Y0121325D01*
X0227136Y0121202D01*
X0227201Y0121077D01*
X0227263Y0120950D01*
X0227320Y0120821D01*
X0227375Y0120691D01*
X0227425Y0120560D01*
X0227472Y0120427D01*
X0227515Y0120293D01*
X0227554Y0120157D01*
X0227589Y0120021D01*
X0227621Y0119884D01*
X0227648Y0119746D01*
X0227672Y0119607D01*
X0227692Y0119467D01*
X0227708Y0119327D01*
X0227720Y0119187D01*
X0227728Y0119046D01*
X0227732Y0118905D01*
X0227732Y0118765D01*
X0227728Y0118624D01*
X0227720Y0118483D01*
X0227708Y0118343D01*
X0227692Y0118203D01*
X0227672Y0118063D01*
X0227648Y0117924D01*
X0227621Y0117786D01*
X0227589Y0117649D01*
X0227554Y0117513D01*
X0227515Y0117377D01*
X0227472Y0117243D01*
X0227425Y0117110D01*
X0227375Y0116979D01*
X0227320Y0116849D01*
X0227263Y0116720D01*
X0227201Y0116593D01*
X0227136Y0116468D01*
X0227068Y0116345D01*
X0226996Y0116224D01*
X0226921Y0116105D01*
X0226842Y0115988D01*
X0226760Y0115873D01*
X0226675Y0115761D01*
X0226587Y0115651D01*
X0226496Y0115544D01*
X0226402Y0115439D01*
X0226305Y0115337D01*
X0226205Y0115238D01*
X0226102Y0115141D01*
X0225997Y0115048D01*
X0225889Y0114957D01*
X0225778Y0114870D01*
X0225665Y0114786D01*
X0225550Y0114705D01*
X0225433Y0114627D01*
X0225313Y0114553D01*
X0225191Y0114482D01*
X0225068Y0114414D01*
X0224942Y0114350D01*
X0224815Y0114290D01*
X0224686Y0114233D01*
X0224556Y0114179D01*
X0224424Y0114130D01*
X0224290Y0114084D01*
X0224156Y0114042D01*
X0224020Y0114004D01*
X0223884Y0113969D01*
X0223746Y0113939D01*
X0223608Y0113912D01*
X0223469Y0113890D01*
X0223329Y0113871D01*
X0223189Y0113856D01*
X0223049Y0113845D01*
X0222908Y0113838D01*
X0222767Y0113835D01*
X0222626Y0113836D01*
X0222486Y0113841D01*
X0222345Y0113850D01*
X0222205Y0113863D01*
X0222065Y0113880D01*
X0221925Y0113900D01*
X0221787Y0113925D01*
X0221649Y0113954D01*
X0221512Y0113986D01*
X0221376Y0114022D01*
X0221241Y0114063D01*
X0221107Y0114107D01*
X0220974Y0114154D01*
X0220843Y0114206D01*
X0220713Y0114261D01*
X0220585Y0114319D01*
X0220459Y0114382D01*
X0220334Y0114447D01*
X0220212Y0114517D01*
X0220091Y0114589D01*
X0219972Y0114665D01*
X0219856Y0114745D01*
X0219742Y0114828D01*
X0219630Y0114913D01*
X0219521Y0115002D01*
X0219414Y0115094D01*
X0219310Y0115189D01*
X0219209Y0115287D01*
X0219110Y0115388D01*
X0219015Y0115491D01*
X0218922Y0115597D01*
X0218832Y0115706D01*
X0218746Y0115817D01*
X0218662Y0115930D01*
X0218582Y0116046D01*
X0218505Y0116164D01*
X0218432Y0116284D01*
X0218361Y0116407D01*
X0218295Y0116531D01*
X0218232Y0116657D01*
X0218172Y0116784D01*
X0218116Y0116913D01*
X0218064Y0117044D01*
X0218015Y0117176D01*
X0217970Y0117310D01*
X0217929Y0117445D01*
X0217892Y0117581D01*
X0217858Y0117717D01*
X0217829Y0117855D01*
X0217803Y0117994D01*
X0217782Y0118133D01*
X0217764Y0118273D01*
X0217750Y0118413D01*
X0217740Y0118553D01*
X0217734Y0118694D01*
X0217732Y0118835D01*
X0316276Y0095094D02*
X0316278Y0095235D01*
X0316284Y0095376D01*
X0316294Y0095516D01*
X0316308Y0095656D01*
X0316326Y0095796D01*
X0316347Y0095935D01*
X0316373Y0096074D01*
X0316402Y0096212D01*
X0316436Y0096348D01*
X0316473Y0096484D01*
X0316514Y0096619D01*
X0316559Y0096753D01*
X0316608Y0096885D01*
X0316660Y0097016D01*
X0316716Y0097145D01*
X0316776Y0097272D01*
X0316839Y0097398D01*
X0316905Y0097522D01*
X0316976Y0097645D01*
X0317049Y0097765D01*
X0317126Y0097883D01*
X0317206Y0097999D01*
X0317290Y0098112D01*
X0317376Y0098223D01*
X0317466Y0098332D01*
X0317559Y0098438D01*
X0317654Y0098541D01*
X0317753Y0098642D01*
X0317854Y0098740D01*
X0317958Y0098835D01*
X0318065Y0098927D01*
X0318174Y0099016D01*
X0318286Y0099101D01*
X0318400Y0099184D01*
X0318516Y0099264D01*
X0318635Y0099340D01*
X0318756Y0099412D01*
X0318878Y0099482D01*
X0319003Y0099547D01*
X0319129Y0099610D01*
X0319257Y0099668D01*
X0319387Y0099723D01*
X0319518Y0099775D01*
X0319651Y0099822D01*
X0319785Y0099866D01*
X0319920Y0099907D01*
X0320056Y0099943D01*
X0320193Y0099975D01*
X0320331Y0100004D01*
X0320469Y0100029D01*
X0320609Y0100049D01*
X0320749Y0100066D01*
X0320889Y0100079D01*
X0321030Y0100088D01*
X0321170Y0100093D01*
X0321311Y0100094D01*
X0321452Y0100091D01*
X0321593Y0100084D01*
X0321733Y0100073D01*
X0321873Y0100058D01*
X0322013Y0100039D01*
X0322152Y0100017D01*
X0322290Y0099990D01*
X0322428Y0099960D01*
X0322564Y0099925D01*
X0322700Y0099887D01*
X0322834Y0099845D01*
X0322968Y0099799D01*
X0323100Y0099750D01*
X0323230Y0099696D01*
X0323359Y0099639D01*
X0323486Y0099579D01*
X0323612Y0099515D01*
X0323735Y0099447D01*
X0323857Y0099376D01*
X0323977Y0099302D01*
X0324094Y0099224D01*
X0324209Y0099143D01*
X0324322Y0099059D01*
X0324433Y0098972D01*
X0324541Y0098881D01*
X0324646Y0098788D01*
X0324749Y0098691D01*
X0324849Y0098592D01*
X0324946Y0098490D01*
X0325040Y0098385D01*
X0325131Y0098278D01*
X0325219Y0098168D01*
X0325304Y0098056D01*
X0325386Y0097941D01*
X0325465Y0097824D01*
X0325540Y0097705D01*
X0325612Y0097584D01*
X0325680Y0097461D01*
X0325745Y0097336D01*
X0325807Y0097209D01*
X0325864Y0097080D01*
X0325919Y0096950D01*
X0325969Y0096819D01*
X0326016Y0096686D01*
X0326059Y0096552D01*
X0326098Y0096416D01*
X0326133Y0096280D01*
X0326165Y0096143D01*
X0326192Y0096005D01*
X0326216Y0095866D01*
X0326236Y0095726D01*
X0326252Y0095586D01*
X0326264Y0095446D01*
X0326272Y0095305D01*
X0326276Y0095164D01*
X0326276Y0095024D01*
X0326272Y0094883D01*
X0326264Y0094742D01*
X0326252Y0094602D01*
X0326236Y0094462D01*
X0326216Y0094322D01*
X0326192Y0094183D01*
X0326165Y0094045D01*
X0326133Y0093908D01*
X0326098Y0093772D01*
X0326059Y0093636D01*
X0326016Y0093502D01*
X0325969Y0093369D01*
X0325919Y0093238D01*
X0325864Y0093108D01*
X0325807Y0092979D01*
X0325745Y0092852D01*
X0325680Y0092727D01*
X0325612Y0092604D01*
X0325540Y0092483D01*
X0325465Y0092364D01*
X0325386Y0092247D01*
X0325304Y0092132D01*
X0325219Y0092020D01*
X0325131Y0091910D01*
X0325040Y0091803D01*
X0324946Y0091698D01*
X0324849Y0091596D01*
X0324749Y0091497D01*
X0324646Y0091400D01*
X0324541Y0091307D01*
X0324433Y0091216D01*
X0324322Y0091129D01*
X0324209Y0091045D01*
X0324094Y0090964D01*
X0323977Y0090886D01*
X0323857Y0090812D01*
X0323735Y0090741D01*
X0323612Y0090673D01*
X0323486Y0090609D01*
X0323359Y0090549D01*
X0323230Y0090492D01*
X0323100Y0090438D01*
X0322968Y0090389D01*
X0322834Y0090343D01*
X0322700Y0090301D01*
X0322564Y0090263D01*
X0322428Y0090228D01*
X0322290Y0090198D01*
X0322152Y0090171D01*
X0322013Y0090149D01*
X0321873Y0090130D01*
X0321733Y0090115D01*
X0321593Y0090104D01*
X0321452Y0090097D01*
X0321311Y0090094D01*
X0321170Y0090095D01*
X0321030Y0090100D01*
X0320889Y0090109D01*
X0320749Y0090122D01*
X0320609Y0090139D01*
X0320469Y0090159D01*
X0320331Y0090184D01*
X0320193Y0090213D01*
X0320056Y0090245D01*
X0319920Y0090281D01*
X0319785Y0090322D01*
X0319651Y0090366D01*
X0319518Y0090413D01*
X0319387Y0090465D01*
X0319257Y0090520D01*
X0319129Y0090578D01*
X0319003Y0090641D01*
X0318878Y0090706D01*
X0318756Y0090776D01*
X0318635Y0090848D01*
X0318516Y0090924D01*
X0318400Y0091004D01*
X0318286Y0091087D01*
X0318174Y0091172D01*
X0318065Y0091261D01*
X0317958Y0091353D01*
X0317854Y0091448D01*
X0317753Y0091546D01*
X0317654Y0091647D01*
X0317559Y0091750D01*
X0317466Y0091856D01*
X0317376Y0091965D01*
X0317290Y0092076D01*
X0317206Y0092189D01*
X0317126Y0092305D01*
X0317049Y0092423D01*
X0316976Y0092543D01*
X0316905Y0092666D01*
X0316839Y0092790D01*
X0316776Y0092916D01*
X0316716Y0093043D01*
X0316660Y0093172D01*
X0316608Y0093303D01*
X0316559Y0093435D01*
X0316514Y0093569D01*
X0316473Y0093704D01*
X0316436Y0093840D01*
X0316402Y0093976D01*
X0316373Y0094114D01*
X0316347Y0094253D01*
X0316326Y0094392D01*
X0316308Y0094532D01*
X0316294Y0094672D01*
X0316284Y0094812D01*
X0316278Y0094953D01*
X0316276Y0095094D01*
X0316276Y0015094D02*
X0316278Y0015235D01*
X0316284Y0015376D01*
X0316294Y0015516D01*
X0316308Y0015656D01*
X0316326Y0015796D01*
X0316347Y0015935D01*
X0316373Y0016074D01*
X0316402Y0016212D01*
X0316436Y0016348D01*
X0316473Y0016484D01*
X0316514Y0016619D01*
X0316559Y0016753D01*
X0316608Y0016885D01*
X0316660Y0017016D01*
X0316716Y0017145D01*
X0316776Y0017272D01*
X0316839Y0017398D01*
X0316905Y0017522D01*
X0316976Y0017645D01*
X0317049Y0017765D01*
X0317126Y0017883D01*
X0317206Y0017999D01*
X0317290Y0018112D01*
X0317376Y0018223D01*
X0317466Y0018332D01*
X0317559Y0018438D01*
X0317654Y0018541D01*
X0317753Y0018642D01*
X0317854Y0018740D01*
X0317958Y0018835D01*
X0318065Y0018927D01*
X0318174Y0019016D01*
X0318286Y0019101D01*
X0318400Y0019184D01*
X0318516Y0019264D01*
X0318635Y0019340D01*
X0318756Y0019412D01*
X0318878Y0019482D01*
X0319003Y0019547D01*
X0319129Y0019610D01*
X0319257Y0019668D01*
X0319387Y0019723D01*
X0319518Y0019775D01*
X0319651Y0019822D01*
X0319785Y0019866D01*
X0319920Y0019907D01*
X0320056Y0019943D01*
X0320193Y0019975D01*
X0320331Y0020004D01*
X0320469Y0020029D01*
X0320609Y0020049D01*
X0320749Y0020066D01*
X0320889Y0020079D01*
X0321030Y0020088D01*
X0321170Y0020093D01*
X0321311Y0020094D01*
X0321452Y0020091D01*
X0321593Y0020084D01*
X0321733Y0020073D01*
X0321873Y0020058D01*
X0322013Y0020039D01*
X0322152Y0020017D01*
X0322290Y0019990D01*
X0322428Y0019960D01*
X0322564Y0019925D01*
X0322700Y0019887D01*
X0322834Y0019845D01*
X0322968Y0019799D01*
X0323100Y0019750D01*
X0323230Y0019696D01*
X0323359Y0019639D01*
X0323486Y0019579D01*
X0323612Y0019515D01*
X0323735Y0019447D01*
X0323857Y0019376D01*
X0323977Y0019302D01*
X0324094Y0019224D01*
X0324209Y0019143D01*
X0324322Y0019059D01*
X0324433Y0018972D01*
X0324541Y0018881D01*
X0324646Y0018788D01*
X0324749Y0018691D01*
X0324849Y0018592D01*
X0324946Y0018490D01*
X0325040Y0018385D01*
X0325131Y0018278D01*
X0325219Y0018168D01*
X0325304Y0018056D01*
X0325386Y0017941D01*
X0325465Y0017824D01*
X0325540Y0017705D01*
X0325612Y0017584D01*
X0325680Y0017461D01*
X0325745Y0017336D01*
X0325807Y0017209D01*
X0325864Y0017080D01*
X0325919Y0016950D01*
X0325969Y0016819D01*
X0326016Y0016686D01*
X0326059Y0016552D01*
X0326098Y0016416D01*
X0326133Y0016280D01*
X0326165Y0016143D01*
X0326192Y0016005D01*
X0326216Y0015866D01*
X0326236Y0015726D01*
X0326252Y0015586D01*
X0326264Y0015446D01*
X0326272Y0015305D01*
X0326276Y0015164D01*
X0326276Y0015024D01*
X0326272Y0014883D01*
X0326264Y0014742D01*
X0326252Y0014602D01*
X0326236Y0014462D01*
X0326216Y0014322D01*
X0326192Y0014183D01*
X0326165Y0014045D01*
X0326133Y0013908D01*
X0326098Y0013772D01*
X0326059Y0013636D01*
X0326016Y0013502D01*
X0325969Y0013369D01*
X0325919Y0013238D01*
X0325864Y0013108D01*
X0325807Y0012979D01*
X0325745Y0012852D01*
X0325680Y0012727D01*
X0325612Y0012604D01*
X0325540Y0012483D01*
X0325465Y0012364D01*
X0325386Y0012247D01*
X0325304Y0012132D01*
X0325219Y0012020D01*
X0325131Y0011910D01*
X0325040Y0011803D01*
X0324946Y0011698D01*
X0324849Y0011596D01*
X0324749Y0011497D01*
X0324646Y0011400D01*
X0324541Y0011307D01*
X0324433Y0011216D01*
X0324322Y0011129D01*
X0324209Y0011045D01*
X0324094Y0010964D01*
X0323977Y0010886D01*
X0323857Y0010812D01*
X0323735Y0010741D01*
X0323612Y0010673D01*
X0323486Y0010609D01*
X0323359Y0010549D01*
X0323230Y0010492D01*
X0323100Y0010438D01*
X0322968Y0010389D01*
X0322834Y0010343D01*
X0322700Y0010301D01*
X0322564Y0010263D01*
X0322428Y0010228D01*
X0322290Y0010198D01*
X0322152Y0010171D01*
X0322013Y0010149D01*
X0321873Y0010130D01*
X0321733Y0010115D01*
X0321593Y0010104D01*
X0321452Y0010097D01*
X0321311Y0010094D01*
X0321170Y0010095D01*
X0321030Y0010100D01*
X0320889Y0010109D01*
X0320749Y0010122D01*
X0320609Y0010139D01*
X0320469Y0010159D01*
X0320331Y0010184D01*
X0320193Y0010213D01*
X0320056Y0010245D01*
X0319920Y0010281D01*
X0319785Y0010322D01*
X0319651Y0010366D01*
X0319518Y0010413D01*
X0319387Y0010465D01*
X0319257Y0010520D01*
X0319129Y0010578D01*
X0319003Y0010641D01*
X0318878Y0010706D01*
X0318756Y0010776D01*
X0318635Y0010848D01*
X0318516Y0010924D01*
X0318400Y0011004D01*
X0318286Y0011087D01*
X0318174Y0011172D01*
X0318065Y0011261D01*
X0317958Y0011353D01*
X0317854Y0011448D01*
X0317753Y0011546D01*
X0317654Y0011647D01*
X0317559Y0011750D01*
X0317466Y0011856D01*
X0317376Y0011965D01*
X0317290Y0012076D01*
X0317206Y0012189D01*
X0317126Y0012305D01*
X0317049Y0012423D01*
X0316976Y0012543D01*
X0316905Y0012666D01*
X0316839Y0012790D01*
X0316776Y0012916D01*
X0316716Y0013043D01*
X0316660Y0013172D01*
X0316608Y0013303D01*
X0316559Y0013435D01*
X0316514Y0013569D01*
X0316473Y0013704D01*
X0316436Y0013840D01*
X0316402Y0013976D01*
X0316373Y0014114D01*
X0316347Y0014253D01*
X0316326Y0014392D01*
X0316308Y0014532D01*
X0316294Y0014672D01*
X0316284Y0014812D01*
X0316278Y0014953D01*
X0316276Y0015094D01*
D11*
X0345481Y0118948D02*
X0351887Y0118948D01*
X0345481Y0123218D01*
X0351887Y0123218D01*
X0348684Y0125393D02*
X0349751Y0126461D01*
X0349751Y0128596D01*
X0348684Y0129663D01*
X0347616Y0129663D01*
X0347616Y0125393D01*
X0346549Y0125393D02*
X0348684Y0125393D01*
X0346549Y0125393D02*
X0345481Y0126461D01*
X0345481Y0128596D01*
X0345481Y0131839D02*
X0349751Y0131839D01*
X0347616Y0131839D02*
X0349751Y0133974D01*
X0349751Y0135041D01*
X0349751Y0138277D02*
X0349751Y0140413D01*
X0348684Y0141480D01*
X0345481Y0141480D01*
X0345481Y0138277D01*
X0346549Y0137210D01*
X0347616Y0138277D01*
X0347616Y0141480D01*
X0346549Y0150101D02*
X0345481Y0151168D01*
X0345481Y0153304D01*
X0346549Y0154371D01*
X0348684Y0154371D01*
X0348684Y0152236D01*
X0350819Y0150101D02*
X0346549Y0150101D01*
X0350819Y0150101D02*
X0351887Y0151168D01*
X0351887Y0153304D01*
X0350819Y0154371D01*
X0348684Y0156546D02*
X0346549Y0156546D01*
X0345481Y0157614D01*
X0345481Y0159749D01*
X0346549Y0160817D01*
X0348684Y0160817D01*
X0349751Y0159749D01*
X0349751Y0157614D01*
X0348684Y0156546D01*
X0351887Y0157614D02*
X0352954Y0159749D01*
X0349751Y0162992D02*
X0349751Y0164059D01*
X0348684Y0165127D01*
X0349751Y0166195D01*
X0348684Y0167262D01*
X0345481Y0167262D01*
X0345481Y0165127D02*
X0348684Y0165127D01*
X0349751Y0162992D02*
X0345481Y0162992D01*
X0341387Y0164066D02*
X0341387Y0166201D01*
X0341387Y0165134D02*
X0334981Y0165134D01*
X0334981Y0166201D02*
X0334981Y0164066D01*
X0334981Y0161891D02*
X0339251Y0161891D01*
X0341387Y0159756D01*
X0339251Y0157621D01*
X0334981Y0157621D01*
X0336049Y0155445D02*
X0338184Y0155445D01*
X0338184Y0153310D01*
X0340319Y0151175D02*
X0336049Y0151175D01*
X0334981Y0152243D01*
X0334981Y0154378D01*
X0336049Y0155445D01*
X0338184Y0157621D02*
X0338184Y0161891D01*
X0340319Y0155445D02*
X0341387Y0154378D01*
X0341387Y0152243D01*
X0340319Y0151175D01*
X0341387Y0168363D02*
X0334981Y0168363D01*
X0334981Y0172633D02*
X0341387Y0172633D01*
X0345481Y0172640D02*
X0345481Y0170505D01*
X0346549Y0169437D01*
X0348684Y0169437D01*
X0349751Y0170505D01*
X0349751Y0172640D01*
X0348684Y0173708D01*
X0347616Y0173708D01*
X0347616Y0169437D01*
X0341387Y0168363D02*
X0334981Y0172633D01*
X0334981Y0181254D02*
X0341387Y0181254D01*
X0339251Y0183389D01*
X0341387Y0185524D01*
X0334981Y0185524D01*
X0336049Y0187700D02*
X0334981Y0188767D01*
X0334981Y0190902D01*
X0336049Y0191970D01*
X0338184Y0191970D01*
X0339251Y0190902D01*
X0339251Y0188767D01*
X0338184Y0187700D01*
X0336049Y0187700D01*
X0339251Y0194145D02*
X0339251Y0196280D01*
X0340319Y0195213D02*
X0336049Y0195213D01*
X0334981Y0196280D01*
X0336049Y0198442D02*
X0334981Y0199510D01*
X0334981Y0201645D01*
X0336049Y0202712D01*
X0338184Y0202712D01*
X0339251Y0201645D01*
X0339251Y0199510D01*
X0338184Y0198442D01*
X0336049Y0198442D01*
X0337116Y0204888D02*
X0339251Y0207023D01*
X0339251Y0208090D01*
X0338184Y0210259D02*
X0339251Y0211326D01*
X0339251Y0214529D01*
X0339251Y0216704D02*
X0336049Y0216704D01*
X0334981Y0217772D01*
X0334981Y0220975D01*
X0333914Y0220975D02*
X0332846Y0219907D01*
X0332846Y0218839D01*
X0333914Y0220975D02*
X0339251Y0220975D01*
X0338184Y0223150D02*
X0336049Y0223150D01*
X0334981Y0224217D01*
X0334981Y0227420D01*
X0334981Y0229595D02*
X0334981Y0231730D01*
X0334981Y0230663D02*
X0341387Y0230663D01*
X0341387Y0229595D01*
X0339251Y0227420D02*
X0339251Y0224217D01*
X0338184Y0223150D01*
X0345481Y0222056D02*
X0347616Y0218853D01*
X0349751Y0222056D01*
X0348684Y0224224D02*
X0349751Y0225292D01*
X0349751Y0227427D01*
X0348684Y0228494D01*
X0346549Y0228494D01*
X0345481Y0227427D01*
X0345481Y0225292D01*
X0346549Y0224224D01*
X0348684Y0224224D01*
X0345481Y0218853D02*
X0351887Y0218853D01*
X0348684Y0216678D02*
X0345481Y0216678D01*
X0345481Y0213475D01*
X0346549Y0212407D01*
X0347616Y0213475D01*
X0347616Y0216678D01*
X0348684Y0216678D02*
X0349751Y0215610D01*
X0349751Y0213475D01*
X0349751Y0210239D02*
X0349751Y0209171D01*
X0347616Y0207036D01*
X0345481Y0207036D02*
X0349751Y0207036D01*
X0349751Y0204868D02*
X0349751Y0203800D01*
X0347616Y0201665D01*
X0345481Y0201665D02*
X0349751Y0201665D01*
X0348684Y0199490D02*
X0345481Y0199490D01*
X0345481Y0196287D01*
X0346549Y0195219D01*
X0347616Y0196287D01*
X0347616Y0199490D01*
X0348684Y0199490D02*
X0349751Y0198422D01*
X0349751Y0196287D01*
X0345481Y0193044D02*
X0345481Y0188774D01*
X0351887Y0188774D01*
X0349751Y0180153D02*
X0345481Y0175883D01*
X0345481Y0180153D01*
X0349751Y0180153D02*
X0349751Y0175883D01*
X0339251Y0204888D02*
X0334981Y0204888D01*
X0336049Y0210259D02*
X0334981Y0211326D01*
X0334981Y0214529D01*
X0336049Y0210259D02*
X0338184Y0210259D01*
X0346549Y0230670D02*
X0348684Y0230670D01*
X0349751Y0231737D01*
X0349751Y0233872D01*
X0348684Y0234940D01*
X0347616Y0234940D01*
X0347616Y0230670D01*
X0346549Y0230670D02*
X0345481Y0231737D01*
X0345481Y0233872D01*
X0339251Y0234960D02*
X0339251Y0237095D01*
X0338184Y0238163D01*
X0337116Y0238163D01*
X0337116Y0233892D01*
X0336049Y0233892D02*
X0338184Y0233892D01*
X0339251Y0234960D01*
X0336049Y0233892D02*
X0334981Y0234960D01*
X0334981Y0237095D01*
X0334981Y0240338D02*
X0334981Y0243541D01*
X0336049Y0244608D01*
X0337116Y0243541D01*
X0337116Y0241405D01*
X0338184Y0240338D01*
X0339251Y0241405D01*
X0339251Y0244608D01*
X0345481Y0245682D02*
X0349751Y0241412D01*
X0349751Y0239250D02*
X0349751Y0237115D01*
X0350819Y0238183D02*
X0346549Y0238183D01*
X0345481Y0239250D01*
X0345481Y0241412D02*
X0349751Y0245682D01*
X0348684Y0247858D02*
X0349751Y0248925D01*
X0349751Y0251060D01*
X0348684Y0252128D01*
X0347616Y0252128D01*
X0347616Y0247858D01*
X0346549Y0247858D02*
X0348684Y0247858D01*
X0346549Y0247858D02*
X0345481Y0248925D01*
X0345481Y0251060D01*
X0346549Y0254303D02*
X0345481Y0255371D01*
X0345481Y0258573D01*
X0348684Y0258573D01*
X0349751Y0257506D01*
X0349751Y0255371D01*
X0347616Y0255371D02*
X0347616Y0258573D01*
X0347616Y0255371D02*
X0346549Y0254303D01*
M02*
